<?xml version="1.0" standalone="no"?>
<!DOCTYPE svg PUBLIC "-//W3C//DTD SVG 20010904//EN"
 "http://www.w3.org/TR/2001/REC-SVG-20010904/DTD/svg10.dtd">
<svg version="1.0" xmlns="http://www.w3.org/2000/svg"
 width="723.000000pt" height="694.000000pt" viewBox="0 0 723.000000 694.000000"
 preserveAspectRatio="xMidYMid meet">

<g transform="translate(0.000000,694.000000) scale(0.100000,-0.100000)"
fill="#000000" stroke="none">
<path d="M982 6833 c3 -100 4 -108 23 -108 23 0 27 26 18 143 -5 62 -9 72 -25
72 -17 0 -18 -8 -16 -107z"/>
<path d="M1054 6864 c3 -42 6 -92 6 -111 0 -32 1 -33 43 -34 23 0 60 -4 82 -8
29 -5 -8 -9 -130 -14 -153 -7 -891 -26 -1007 -27 l-48 0 0 -35 0 -36 98 5 c53
3 225 8 382 11 319 6 883 20 1430 35 201 5 545 14 765 20 220 6 614 17 875 25
261 9 635 20 830 25 693 19 1412 40 1905 56 275 9 552 17 615 19 63 1 165 6
225 11 l110 8 -120 7 c-127 7 -810 4 -1230 -5 -599 -14 -1078 -27 -1320 -38
-143 -6 -422 -12 -620 -13 -198 -1 -535 -7 -750 -13 -678 -19 -1543 -35 -1567
-28 -16 4 -41 37 -83 109 l-60 102 -219 3 -219 2 7 -76z"/>
<path d="M1960 6931 c0 -4 9 -20 20 -34 11 -14 20 -30 20 -37 0 -6 11 -31 25
-54 40 -68 63 -71 383 -57 147 6 447 16 667 22 451 12 950 35 965 44 14 8 13
35 -1 35 -7 0 -9 11 -6 30 13 65 98 60 -1039 60 -575 0 -1034 -4 -1034 -9z
m2057 -53 c-3 -7 -5 -2 -5 12 0 14 2 19 5 13 2 -7 2 -19 0 -25z"/>
<path d="M3485 6104 c-96 -16 -282 -67 -300 -83 -11 -11 -50 -34 -86 -53 -122
-63 -266 -198 -341 -319 -55 -88 -115 -238 -129 -318 -13 -78 -12 -209 1 -251
7 -19 18 -109 25 -200 7 -91 16 -176 20 -190 6 -22 1 -29 -32 -50 -59 -39 -64
-58 -48 -180 16 -114 37 -179 93 -280 42 -76 69 -101 124 -115 37 -9 41 -14
59 -65 10 -30 46 -109 79 -175 56 -113 60 -125 66 -212 5 -76 4 -93 -7 -93
-20 0 -64 -40 -81 -75 -15 -30 -50 -131 -81 -236 -10 -31 -25 -63 -35 -71 -9
-9 -83 -46 -164 -83 -81 -37 -183 -92 -225 -121 -72 -50 -78 -53 -85 -34 -9
24 -44 26 -91 6 -18 -7 -93 -62 -168 -122 -75 -60 -179 -138 -230 -174 -51
-36 -126 -93 -166 -127 -40 -34 -81 -64 -92 -68 -12 -3 -20 -11 -18 -17 1 -6
-6 -12 -15 -13 -33 -6 -995 -20 -1275 -19 l-283 1 0 -154 0 -153 293 6 c552
10 1118 11 1123 2 7 -10 -16 -109 -28 -123 -4 -5 -9 -29 -9 -55 -1 -41 -2 -42
-9 -15 -6 22 -8 24 -9 9 -1 -15 -12 -24 -41 -34 -22 -7 -40 -17 -40 -22 0 -4
-5 -8 -11 -8 -15 0 -69 -52 -69 -67 0 -7 -5 -13 -11 -13 -15 0 -69 -52 -69
-67 0 -7 -7 -13 -15 -13 -11 0 -15 -11 -15 -40 0 -40 0 -40 -38 -40 -25 0 -43
-7 -55 -20 -10 -12 -21 -18 -26 -16 -5 3 -11 -3 -14 -14 -4 -15 -14 -20 -41
-20 -20 0 -36 -4 -36 -8 0 -5 -18 -8 -40 -7 -28 1 -40 -2 -40 -12 0 -9 -13
-13 -40 -13 l-40 0 0 -40 0 -40 -120 0 c-100 0 -120 3 -120 15 0 12 -19 15
-110 15 -100 0 -109 -2 -103 -18 11 -32 15 -33 34 -16 18 16 19 16 19 -14 0
-29 3 -32 30 -32 28 0 30 -2 30 -40 0 -35 3 -40 23 -40 29 0 99 -73 74 -78
-13 -3 -17 -14 -17 -43 0 -21 5 -39 10 -39 6 0 10 7 10 16 0 9 6 14 13 12 7
-3 13 -26 15 -56 2 -42 0 -52 -12 -52 -9 0 -16 5 -16 10 0 6 -18 10 -40 10
-22 0 -40 -4 -40 -10 0 -18 -24 -10 -49 15 -13 14 -29 25 -37 25 -7 0 -17 6
-21 13 -4 7 -24 20 -43 29 -19 9 -46 28 -59 42 -14 14 -31 26 -38 26 -8 0 -25
7 -38 16 -13 9 -28 13 -33 10 -13 -8 -62 32 -62 50 0 8 -4 14 -10 14 -7 0 -10
-218 -10 -635 l0 -635 3615 0 3615 0 0 295 0 295 -55 0 -55 0 0 -40 0 -40 -50
0 c-38 0 -50 4 -50 15 0 8 5 15 10 15 6 0 10 7 10 16 0 8 -4 12 -10 9 -6 -4
-11 35 -12 107 -1 62 -3 131 -5 153 -4 55 -10 257 -11 398 -1 64 -6 117 -11
117 -5 0 -12 -75 -15 -168 -12 -296 -13 -304 -27 -313 -11 -7 -12 -12 -2 -29
16 -24 17 -50 3 -50 -5 0 -10 -18 -10 -40 l0 -40 -40 0 -40 0 0 -40 c0 -22 5
-40 10 -40 6 0 10 -18 10 -40 l0 -40 -160 0 -160 0 0 -55 0 -55 -40 0 c-29 0
-40 4 -40 15 0 12 -14 15 -70 15 l-70 0 0 40 c0 22 -4 40 -10 40 -5 0 -10 -18
-10 -40 l0 -40 -114 0 c-63 0 -122 -3 -131 -6 -9 -4 -15 -3 -14 2 4 21 -2 28
-12 14 -8 -11 -9 -5 -4 25 8 48 8 41 6 88 0 20 -6 37 -11 37 -7 0 -8 -18 -4
-50 4 -32 3 -50 -4 -50 -5 0 -12 17 -15 37 -4 33 -21 142 -66 418 -5 33 -14
112 -21 175 -17 170 -40 348 -52 405 -6 28 -13 145 -15 260 -2 116 -5 228 -6
250 l-2 40 550 -3 c503 -2 551 -3 563 -19 6 -9 12 -25 12 -35 0 -28 13 -21 30
15 l15 32 103 0 102 0 0 145 0 146 -101 -4 c-65 -3 -109 0 -122 7 -16 9 -162
10 -552 7 -292 -3 -537 -6 -545 -7 -33 -4 -180 15 -180 23 0 18 -90 126 -149
180 -53 48 -146 106 -286 179 -27 14 -102 53 -165 85 -112 58 -204 115 -215
135 -11 17 -27 9 -22 -11 3 -11 1 -20 -4 -20 -6 0 -56 23 -112 51 -56 28 -164
79 -240 114 -122 55 -140 66 -157 98 -11 20 -20 42 -20 49 0 6 -13 32 -30 58
-16 26 -36 68 -44 95 -21 70 -106 150 -106 100 0 -8 -6 -15 -12 -15 -10 0 -9
-3 1 -9 11 -7 12 -23 4 -87 -8 -58 -11 -68 -12 -36 0 23 -5 42 -10 42 -11 0
-21 102 -11 115 4 6 10 47 13 93 6 71 12 94 46 158 22 41 39 82 38 92 -1 19
-26 50 -28 35 0 -4 -4 1 -8 11 -6 16 -20 21 -62 24 -29 2 -56 5 -58 7 -2 3 -6
28 -9 56 -4 45 -7 50 -25 45 -11 -3 -32 1 -46 8 -14 7 -48 16 -74 20 l-49 6 7
-30 c6 -29 -7 -42 -20 -20 -10 16 -73 40 -152 57 -69 15 -97 33 -53 33 11 0
20 4 20 8 0 4 16 14 35 21 30 11 125 95 125 111 0 3 5 12 10 20 8 13 14 10 37
-16 15 -17 37 -43 47 -58 10 -14 22 -26 27 -26 15 0 68 -61 71 -83 2 -16 9
-21 26 -20 14 2 22 -3 22 -12 0 -10 9 -15 28 -14 15 0 21 3 15 6 -7 2 -13 22
-13 44 0 40 3 36 -153 197 -17 19 -54 52 -81 75 -46 38 -49 40 -43 17 4 -14
10 -41 13 -61 5 -32 3 -38 -15 -44 -24 -7 -63 2 -73 19 -4 6 -40 12 -85 12
-51 1 -101 9 -143 23 -127 43 -122 42 -115 20 5 -15 2 -19 -14 -19 -26 0 -27
21 -3 43 12 11 22 13 32 7 11 -7 17 0 27 33 7 23 13 51 13 62 0 11 14 47 30
79 17 33 37 91 45 130 8 38 19 72 24 75 16 11 61 84 61 101 0 22 -36 54 -80
69 -19 7 -44 17 -55 21 -11 4 -47 13 -80 20 -33 7 -70 16 -83 21 -13 5 -51 9
-86 9 -35 0 -76 4 -92 9 -16 5 -41 12 -56 15 -16 4 -28 10 -28 14 0 21 70 80
108 91 23 6 42 16 42 21 0 6 13 10 29 10 16 0 31 4 33 9 5 13 118 71 139 71 9
0 20 6 22 13 4 9 8 9 15 -2 8 -11 14 -9 31 8 11 11 29 21 39 21 11 0 43 25 73
55 48 50 141 118 162 120 4 0 12 6 16 14 12 18 132 26 177 11 18 -6 61 -31 94
-56 33 -24 63 -44 66 -44 4 0 24 -20 46 -44 21 -25 46 -47 56 -50 9 -3 22 -14
27 -25 6 -10 19 -34 29 -52 11 -19 23 -56 27 -84 4 -27 17 -84 29 -125 23 -80
32 -136 55 -350 19 -174 19 -213 -4 -340 -11 -58 -18 -106 -17 -107 6 -6 56
23 56 33 0 5 14 23 30 39 35 33 38 67 10 95 -34 34 -18 110 22 110 14 0 23
-15 55 -90 l11 -25 10 27 c6 14 16 29 21 33 14 8 14 70 1 96 -12 21 -59 26
-91 9 -24 -13 -27 11 -4 30 8 7 15 20 15 29 0 9 10 44 21 76 12 33 23 87 24
120 2 33 6 67 8 75 3 8 8 48 11 88 3 40 15 96 26 125 30 78 26 137 -16 237
-20 47 -44 105 -53 130 -24 61 -87 147 -121 165 -33 17 -45 46 -31 73 10 20
10 19 -46 114 -52 86 -127 148 -227 184 -141 52 -191 67 -271 85 -88 20 -280
32 -340 23z m-187 -1249 c3 -3 -6 -5 -19 -6 -51 -1 -95 -6 -128 -14 -25 -6
-32 -5 -27 3 4 7 14 12 22 12 8 0 14 5 14 10 0 10 128 5 138 -5z m90 -182
c-10 -2 -26 -2 -35 0 -10 3 -2 5 17 5 19 0 27 -2 18 -5z m52 -97 c0 -45 -29
-115 -47 -116 -7 0 -13 -4 -13 -9 0 -9 -102 -74 -170 -108 -25 -12 -62 -23
-82 -23 -20 0 -39 -4 -43 -9 -6 -11 -63 3 -78 18 -5 5 -11 20 -12 33 -2 13
-21 58 -42 99 -69 127 -49 142 162 119 106 -12 113 -11 195 13 118 34 130 33
130 -17z m121 -580 c22 -11 36 -11 70 -2 33 9 43 8 46 -1 3 -7 15 -13 27 -13
33 0 58 -32 51 -63 -7 -25 -6 -26 26 -17 19 6 41 10 49 10 13 0 13 -1 0 -10
-11 -7 -11 -10 -2 -10 7 0 24 7 38 16 32 21 44 10 51 -46 6 -44 -4 -60 -38
-60 -21 0 -62 36 -55 49 11 17 -17 25 -29 8 -6 -9 -31 -25 -55 -35 -36 -15
-54 -17 -109 -10 -36 5 -85 11 -108 14 -27 3 -47 12 -53 23 -9 17 -4 18 58 13
64 -4 177 12 186 26 2 4 -44 7 -102 7 -116 1 -169 12 -199 42 -19 19 -19 19 5
37 15 12 32 16 48 12 16 -4 30 -1 40 9 19 18 22 18 55 1z m239 -358 c42 -14
52 -31 23 -43 -17 -7 -16 -8 2 -14 12 -5 -17 -10 -75 -14 -52 -3 -101 -2 -111
4 -10 5 -29 9 -43 9 -43 0 -31 28 17 40 23 6 53 15 67 20 36 12 75 12 120 -2z
m336 -300 c7 -67 6 -88 -6 -110 -8 -16 -21 -28 -27 -28 -7 0 -13 -9 -13 -19 0
-11 -5 -23 -12 -27 -7 -5 -9 -2 -5 8 4 13 -2 16 -31 14 -32 -1 -37 -4 -37 -26
0 -25 -8 -28 -72 -21 -16 1 -43 30 -43 45 0 16 53 35 84 29 23 -5 26 -2 26 25
0 17 -6 32 -12 35 -10 4 -10 7 0 18 10 11 12 11 12 -1 0 -8 8 -24 16 -35 11
-14 15 -15 14 -5 -1 8 -2 34 -1 58 1 38 3 42 27 42 27 0 28 11 8 64 -5 13 1
16 29 16 l34 0 9 -82z m-95 -186 c13 -15 14 -22 4 -35 -7 -10 -18 -17 -26 -17
-8 0 -7 4 5 13 16 12 16 14 2 26 -17 14 -21 31 -8 31 4 0 15 -8 23 -18z m-31
-72 c0 -5 -2 -10 -4 -10 -3 0 -8 5 -11 10 -3 6 -1 10 4 10 6 0 11 -4 11 -10z
m-375 -431 c-4 -6 -10 -22 -14 -37 -5 -18 -9 -22 -13 -12 -7 19 8 60 22 60 6
0 8 -5 5 -11z m-736 -744 c6 -49 14 -104 17 -121 7 -38 5 -39 -171 -59 -136
-16 -268 -43 -391 -81 -95 -29 -120 -30 -129 -6 -3 9 -9 65 -12 123 l-6 107
59 12 c32 6 82 18 109 25 118 33 397 85 452 85 17 0 35 5 39 11 12 20 21 -6
33 -96z m851 40 c10 -12 10 -15 -4 -15 -9 0 -16 7 -16 15 0 8 2 15 4 15 2 0 9
-7 16 -15z m-2395 -575 c3 -5 1 -10 -4 -10 -6 0 -11 5 -11 10 0 6 2 10 4 10 3
0 8 -4 11 -10z m5473 -922 c-6 -18 -28 -21 -28 -4 0 9 7 16 16 16 9 0 14 -5
12 -12z m-736 -68 c4 0 8 -4 8 -10 0 -5 -4 -10 -8 -10 -10 0 -32 46 -31 63 1
7 6 0 12 -15 6 -16 14 -28 19 -28z m948 14 c0 -8 -4 -14 -10 -14 -5 0 -10 9
-10 21 0 11 5 17 10 14 6 -3 10 -13 10 -21z m-887 -107 c-7 -11 -33 13 -33 29
0 11 5 10 18 -3 11 -10 17 -22 15 -26z m-9 -52 c3 -9 0 -15 -9 -15 -9 0 -12 6
-9 15 4 8 7 15 9 15 2 0 5 -7 9 -15z"/>
<path d="M4110 3245 c0 -8 -4 -15 -10 -15 -5 0 -10 -5 -10 -11 0 -14 18 -2 30
22 7 13 7 19 0 19 -5 0 -10 -7 -10 -15z"/>
<path d="M3875 4965 c-128 -16 -190 -39 -209 -79 -13 -28 -13 -32 10 -62 14
-18 30 -49 35 -69 10 -37 13 -39 62 -49 17 -4 27 -13 27 -25 0 -57 116 -124
213 -123 79 0 149 20 145 41 -2 12 -20 18 -67 23 -40 4 -70 14 -80 24 -9 9
-11 14 -5 11 6 -4 46 -9 90 -12 43 -3 99 -8 122 -10 84 -7 95 18 30 66 -66 48
-108 66 -179 79 -90 16 -95 18 -96 40 -2 26 26 40 85 41 69 2 91 -8 145 -63
27 -28 52 -46 58 -42 17 10 5 125 -16 157 -34 53 -73 67 -176 66 -52 -1 -139
-7 -194 -14z"/>
<path d="M4450 4210 c-20 -16 -21 -20 -8 -20 10 0 22 9 28 20 13 25 11 25 -20
0z"/>
<path d="M4333 4033 c9 -2 23 -2 30 0 6 3 -1 5 -18 5 -16 0 -22 -2 -12 -5z"/>
<path d="M4162 3440 c0 -14 2 -19 5 -12 2 6 2 18 0 25 -3 6 -5 1 -5 -13z"/>
<path d="M1390 2049 c0 -5 5 -7 10 -4 6 3 10 8 10 11 0 2 -4 4 -10 4 -5 0 -10
-5 -10 -11z"/>
<path d="M6985 1527 c-4 -10 -5 -21 -1 -24 10 -10 18 4 13 24 -4 17 -4 17 -12
0z"/>
<path d="M6072 595 c0 -16 2 -22 5 -12 2 9 2 23 0 30 -3 6 -5 -1 -5 -18z"/>
<path d="M6072 520 c0 -14 2 -19 5 -12 2 6 2 18 0 25 -3 6 -5 1 -5 -13z"/>
</g>
</svg>
