<?xml version="1.0" standalone="no"?>
<!DOCTYPE svg PUBLIC "-//W3C//DTD SVG 20010904//EN"
 "http://www.w3.org/TR/2001/REC-SVG-20010904/DTD/svg10.dtd">
<svg version="1.0" xmlns="http://www.w3.org/2000/svg"
 width="3044.000000pt" height="1712.000000pt" viewBox="0 0 3044.000000 1712.000000"
 preserveAspectRatio="xMidYMid meet">

<g transform="translate(0.000000,1712.000000) scale(0.100000,-0.100000)"
fill="#000000" stroke="none">
<path d="M10 8565 l0 -8555 7728 -2 c4250 -2 11094 -2 15210 0 l7482 2 0 8555
0 8555 -15210 0 -15210 0 0 -8555z m14950 5180 l0 -185 -1344 0 c-966 0 -1347
-3 -1352 -11 -3 -6 -210 -556 -459 -1222 l-453 -1212 402 -6 c220 -4 1032 -7
1804 -8 l1402 -1 0 -187 0 -188 -3060 3 -3061 4 -67 -21 c-146 -44 -249 -142
-306 -290 l-21 -56 -3 -3165 c-2 -2193 1 -3186 8 -3235 6 -38 24 -98 40 -133
35 -75 121 -168 188 -205 110 -60 14 -57 1809 -57 l1643 0 0 120 0 120 2205 0
2205 0 0 190 0 190 106 51 c111 54 202 126 231 183 9 17 29 47 44 68 16 20 36
49 44 65 13 25 15 -11 15 -359 l0 -388 673 -2 672 -3 3 -117 3 -118 1632 0
c1443 0 1640 2 1692 16 172 44 308 198 335 379 7 48 10 1085 8 3235 l-3 3165
-24 60 c-60 149 -157 241 -300 285 -62 20 -110 20 -3127 20 l-3064 0 0 190 0
190 1785 0 1785 0 0 39 c0 74 -30 275 -57 376 -135 520 -492 954 -1133 1382
-572 381 -1030 554 -1640 618 -110 12 -540 32 -722 35 -17 0 -18 16 -18 186
l0 187 238 -7 c785 -23 1242 -116 1738 -356 472 -228 925 -546 1244 -876 433
-448 661 -930 715 -1516 l6 -67 1117 -4 c1104 -3 1118 -3 1197 -24 167 -45
292 -119 407 -242 104 -111 157 -206 205 -367 17 -56 18 -221 21 -3279 2
-2165 -1 -3242 -8 -3287 -49 -321 -264 -571 -585 -679 l-70 -24 -1687 -3
-1688 -2 0 -110 0 -110 -3100 0 -3099 0 -3 108 -3 107 -1690 5 c-1886 6 -1722
-1 -1884 76 -193 90 -347 254 -421 446 -64 165 -60 -64 -60 3427 0 2079 4
3200 10 3246 40 272 218 510 471 630 112 53 213 75 341 75 l108 0 0 276 c0
266 1 278 22 315 14 25 37 46 63 59 40 19 62 20 576 20 l535 0 44 -22 c78 -41
80 -51 80 -370 l0 -278 316 2 316 3 510 1365 c554 1484 524 1413 614 1445 33
12 269 14 1462 15 l1422 0 0 -185z m0 -860 l0 -185 -505 0 -505 0 0 -375 0
-375 505 0 505 0 0 -190 0 -190 -519 0 c-309 0 -540 4 -572 10 -113 22 -209
95 -257 198 l-27 57 0 490 0 490 34 63 c50 92 135 159 228 181 21 5 280 9 576
10 l537 1 0 -185z m847 -949 l33 -36 0 -255 0 -255 -120 0 -120 0 0 255 c0
220 2 259 16 281 26 38 63 55 114 50 35 -3 51 -11 77 -40z m634 5 l39 -39 0
-256 0 -256 -120 0 -120 0 0 250 c0 274 4 295 58 324 15 9 44 15 66 16 32 0
45 -7 77 -39z m619 23 c57 -35 60 -48 60 -323 l0 -251 -120 0 -120 0 0 250 c0
274 4 295 58 324 36 20 88 20 122 0z m644 -3 c54 -36 55 -45 56 -318 l0 -253
-120 0 -120 0 0 253 c1 186 4 258 14 275 18 34 66 62 106 62 19 0 48 -9 64
-19z m636 4 c56 -29 60 -49 60 -325 l0 -250 -120 0 -120 0 0 251 c0 214 2 255
16 278 34 57 105 77 164 46z m-3380 -1989 l0 -184 -117 -7 c-412 -24 -763
-118 -1103 -297 -649 -339 -1131 -937 -1325 -1643 -143 -524 -118 -1099 70
-1611 87 -237 252 -528 413 -729 98 -122 263 -288 399 -401 115 -97 122 -105
128 -175 3 -23 14 -67 25 -97 18 -46 72 -322 64 -322 -8 0 -142 82 -230 141
-282 189 -548 443 -751 719 -299 407 -488 876 -560 1391 -22 156 -24 583 -5
739 55 437 193 837 420 1215 229 381 609 763 995 1000 450 275 989 436 1490
444 l87 1 0 -184z m-3662 34 c18 -11 41 -34 52 -52 19 -31 20 -51 20 -403 0
-352 -1 -372 -20 -403 -11 -18 -34 -41 -52 -52 -32 -19 -52 -20 -833 -20 -901
0 -846 -5 -893 76 -22 39 -22 41 -20 409 3 364 3 370 25 401 48 67 4 64 888
64 781 0 801 -1 833 -20z m3662 -679 l0 -79 -50 -17 c-28 -9 -72 -36 -102 -63
-51 -45 -51 -37 1 21 35 39 16 33 -45 -13 -52 -39 -105 -105 -118 -145 -5 -16
-23 -24 -91 -38 -266 -55 -570 -200 -785 -377 -383 -314 -620 -740 -686 -1235
-20 -147 -14 -413 11 -555 39 -219 123 -448 230 -629 l54 -91 -15 -81 c-19
-96 -8 -190 32 -282 23 -52 24 -63 15 -108 -6 -27 -11 -69 -11 -92 l-1 -42
-65 70 c-354 379 -562 817 -624 1315 -14 120 -12 426 4 550 34 247 98 464 202
680 142 295 325 537 557 736 322 276 703 457 1102 523 153 26 170 27 288 29
l97 2 0 -79z m231 -853 c105 -72 176 -106 254 -122 34 -7 33 -5 -58 50 -32 20
-56 38 -54 41 3 2 36 -11 73 -30 38 -18 100 -46 137 -62 77 -32 93 -50 134
-150 l28 -70 3 47 c2 26 -2 64 -7 85 -12 44 -11 47 14 29 26 -19 37 -113 24
-209 -5 -43 -13 -86 -16 -95 -17 -54 43 61 66 125 29 82 57 133 72 133 9 0 4
-34 -12 -78 -13 -35 7 -18 32 28 13 22 26 40 30 40 12 0 17 -76 11 -166 -4
-64 -2 -85 6 -80 7 4 12 17 12 29 0 29 26 66 54 76 17 7 26 28 46 105 13 53
27 96 30 96 3 0 51 -25 108 -55 141 -74 247 -152 361 -265 207 -206 338 -446
413 -755 20 -85 21 -118 25 -610 l4 -520 -51 85 c-29 47 -58 102 -65 122 -8
21 -25 54 -39 75 -21 31 -26 50 -27 103 0 36 -8 85 -17 110 -16 41 -23 47 -80
70 -48 19 -74 38 -111 80 l-48 55 -6 135 c-3 74 -12 167 -21 206 -46 214 -158
411 -317 559 -67 61 -188 147 -199 140 -4 -3 -21 -34 -39 -71 -23 -49 -39 -69
-60 -77 -31 -12 -61 -62 -61 -103 0 -46 -59 -157 -111 -210 l-51 -52 -5 -86
c-4 -55 -1 -107 7 -140 10 -45 10 -63 -5 -132 -23 -101 -94 -279 -148 -369
l-42 -70 -80 -7 c-44 -4 -132 -3 -195 2 l-115 9 -34 38 c-18 21 -60 79 -94
128 -33 50 -93 128 -133 175 -40 47 -82 106 -92 131 l-20 45 34 85 c20 49 37
112 40 150 6 62 5 70 -19 101 -35 45 -77 142 -77 176 0 62 -20 102 -58 120
-31 14 -44 31 -78 102 -23 47 -47 114 -54 150 -7 36 -19 83 -27 105 -11 31
-11 45 -2 67 6 15 14 28 18 29 3 1 23 2 44 3 33 2 40 -1 53 -25 8 -15 18 -52
22 -81 9 -52 9 -52 15 -18 3 19 10 80 16 135 6 55 18 140 27 188 l16 88 47 22
c40 19 48 29 62 71 l17 49 11 -52 c6 -29 11 -65 11 -81 0 -16 4 -31 9 -35 14
-8 24 94 19 184 l-5 78 40 -60 c43 -64 142 -144 211 -171 l39 -16 -67 66 c-64
64 -103 119 -125 177 -9 23 1 16 53 -35 34 -35 114 -98 177 -140z m-5068 -200
c73 -34 155 -116 193 -193 26 -55 29 -69 29 -165 0 -98 -2 -109 -32 -170 -53
-109 -132 -177 -245 -211 -206 -63 -425 56 -490 265 -62 202 48 416 252 490
72 26 219 18 293 -16z m8282 -693 c234 -59 426 -250 485 -481 19 -74 20 -114
20 -976 l0 -898 50 0 50 0 0 -40 0 -40 50 0 50 0 0 -45 0 -45 40 0 40 0 0
-110 0 -110 -945 0 -945 0 0 109 0 110 43 3 c42 3 42 3 45 46 l3 42 45 0 44 0
0 40 0 40 50 0 49 0 3 913 3 912 27 80 c78 229 254 396 476 450 78 18 244 19
317 0z m2333 0 c119 -28 208 -80 307 -180 71 -71 99 -106 128 -167 69 -143 67
-104 67 -1105 l0 -903 50 0 50 0 0 -40 0 -40 50 0 50 0 0 -45 0 -45 45 0 45 0
0 -110 0 -110 -950 0 -950 0 0 109 0 110 43 3 c42 3 42 3 45 46 l3 42 50 0 49
0 0 39 0 40 48 3 47 3 2 903 c3 1002 0 956 71 1102 28 58 57 95 127 165 98 99
186 151 300 179 79 19 244 19 323 1z m-4158 -2051 c15 -37 13 -42 -21 -59 -56
-29 -110 -88 -145 -157 -19 -37 -32 -68 -29 -68 2 0 20 31 40 69 33 66 73 108
147 154 38 24 55 21 72 -12 14 -27 14 -29 -19 -61 -45 -44 -93 -112 -88 -126
5 -16 -64 -25 -209 -28 -81 -2 -115 1 -111 8 4 6 -2 4 -13 -5 -19 -16 -123
-44 -131 -35 -7 7 122 197 154 228 43 41 133 98 154 98 18 0 20 -3 23 -29 1
-5 -18 -23 -41 -40 -23 -17 -47 -41 -54 -53 -8 -16 3 -9 32 18 24 23 62 51 84
63 22 11 51 29 65 40 36 30 78 27 90 -5z m-1469 -345 c63 -11 175 -28 249 -38
104 -14 137 -22 145 -36 5 -9 47 -74 92 -143 77 -119 83 -132 99 -220 l18 -93
-55 -55 -54 -56 -60 5 c-51 4 -92 20 -281 115 -244 121 -337 150 -373 118 -25
-23 -127 -22 -166 3 -16 10 -61 43 -99 75 -69 56 -122 90 -249 160 -66 37 -87
62 -87 105 0 47 200 77 526 80 143 1 204 -3 295 -20z m418 -718 c29 -25 66
-56 82 -69 20 -16 83 -36 221 -68 106 -25 218 -48 248 -52 l55 -7 -35 -21
c-52 -31 -257 -78 -495 -114 -115 -17 -228 -35 -250 -40 -46 -11 -289 -13
-357 -4 l-45 6 7 39 c5 27 22 55 56 92 27 29 75 84 106 122 32 39 88 96 124
129 36 32 70 69 76 82 l11 24 71 -37 c39 -20 95 -57 125 -82z"/>
<path d="M12160 3390 l0 -380 2670 0 2670 0 0 380 0 380 -2670 0 -2670 0 0
-380z m1665 240 c13 -10 15 -46 15 -226 l0 -214 -30 0 c-29 0 -30 1 -30 50 0
49 -1 50 -30 50 -29 0 -30 -1 -30 -50 0 -49 -1 -50 -30 -50 l-30 0 0 208 c0
212 3 231 40 246 24 9 108 0 125 -14z m125 -44 l0 -53 40 1 c26 0 44 -5 50
-14 5 -8 10 -86 10 -172 l0 -158 -30 0 -30 0 0 145 c0 138 -1 145 -20 145 -19
0 -20 -7 -20 -145 l0 -145 -30 0 -30 0 0 225 0 225 30 0 c30 0 30 -1 30 -54z
m820 -170 l0 -225 -72 0 c-46 0 -75 4 -80 12 -10 15 -10 298 0 313 12 18 50
26 72 14 19 -10 20 -8 20 50 l0 60 30 0 30 0 0 -224z m200 194 c0 -27 -3 -30
-30 -30 -27 0 -30 3 -30 30 0 27 3 30 30 30 27 0 30 -3 30 -30z m110 -195 l0
-225 -30 0 -30 0 0 225 0 225 30 0 30 0 0 -225z m100 166 l0 -60 30 11 c24 8
35 7 55 -6 25 -16 25 -17 25 -176 l0 -160 -30 0 -30 0 0 146 c0 145 0 145 -22
142 -22 -3 -23 -6 -26 -145 l-3 -143 -29 0 -30 0 0 225 0 225 30 0 c30 0 30 0
30 -59z m932 42 c23 -21 26 -134 3 -156 -13 -13 -13 -16 0 -27 11 -10 15 -37
15 -113 0 -131 -5 -137 -112 -137 l-78 0 0 225 0 225 77 0 c57 0 81 -4 95 -17z
m-1877 -96 c15 -12 23 -12 48 1 27 13 34 13 56 1 l26 -15 3 -162 2 -162 -30 0
-30 0 0 146 c0 145 0 145 -22 142 -22 -3 -23 -6 -26 -145 l-3 -143 -29 0 -30
0 0 145 c0 138 -1 145 -20 145 -19 0 -20 -7 -20 -145 l0 -145 -35 0 -35 0 0
170 0 170 45 -2 c25 0 48 2 52 5 10 11 28 8 48 -6z m317 -4 c16 -14 18 -34 18
-173 0 -135 -2 -159 -16 -164 -30 -11 -100 -6 -122 10 -19 13 -22 24 -22 93 0
89 8 101 63 101 l38 0 -3 48 c-4 55 -29 67 -38 17 -4 -24 -11 -31 -33 -33 -26
-3 -27 -1 -27 42 0 27 6 51 16 60 21 22 102 21 126 -1z m918 -3 c18 -18 20
-33 20 -175 l0 -154 -36 -7 c-44 -8 -105 1 -116 18 -12 21 -10 162 4 176 7 7
29 12 50 12 l38 0 0 44 c0 25 -5 48 -10 51 -16 10 -40 -15 -40 -41 0 -19 -5
-24 -25 -24 -23 0 -25 4 -25 44 0 57 19 76 76 76 31 0 50 -6 64 -20z m200 7
c21 -11 29 -11 46 0 30 19 73 7 85 -24 5 -13 9 -89 9 -169 l0 -144 -30 0 -29
0 -3 143 c-3 134 -4 142 -23 142 -19 0 -20 -8 -23 -142 l-3 -143 -29 0 -29 0
-3 143 c-3 134 -4 142 -23 142 -19 0 -20 -8 -23 -142 l-3 -143 -29 0 -30 0 0
170 0 171 40 -3 c22 -1 43 1 46 5 11 10 26 8 54 -6z m-700 -167 l0 -170 -30 0
-30 0 0 170 0 170 30 0 30 0 0 -170z"/>
<path d="M13730 3571 c-5 -11 -10 -65 -10 -120 l0 -101 30 0 30 0 0 108 c0 71
-4 112 -12 120 -17 17 -26 15 -38 -7z"/>
<path d="M14670 3360 c0 -110 2 -121 18 -118 15 3 17 17 17 118 0 101 -2 115
-17 118 -16 3 -18 -8 -18 -118z"/>
<path d="M16010 3530 c0 -47 2 -50 25 -50 23 0 25 3 25 50 0 47 -2 50 -25 50
-23 0 -25 -3 -25 -50z"/>
<path d="M16010 3335 c0 -84 0 -85 25 -85 25 0 25 1 25 85 0 84 0 85 -25 85
-25 0 -25 -1 -25 -85z"/>
<path d="M14472 3293 c2 -46 7 -59 21 -61 15 -3 17 5 17 57 0 55 -2 61 -20 61
-19 0 -21 -5 -18 -57z"/>
<path d="M15387 3343 c-12 -11 -8 -88 5 -101 27 -27 38 -13 38 48 0 52 -3 60
-18 60 -10 0 -22 -3 -25 -7z"/>
<path d="M17795 3646 c-142 -62 -186 -241 -88 -356 64 -74 151 -102 238 -75
28 8 50 15 51 15 1 0 18 -27 38 -60 21 -33 41 -60 46 -60 23 0 18 25 -15 80
l-36 60 29 37 c121 154 16 374 -177 373 -31 -1 -69 -7 -86 -14z m138 -27 c44
-12 102 -60 124 -103 23 -45 21 -123 -5 -173 -72 -139 -278 -132 -343 12 -49
107 8 231 121 263 47 14 59 14 103 1z"/>
<path d="M14920 7191 c0 -21 138 -136 198 -164 57 -27 71 -29 137 -25 89 6
154 41 237 126 59 61 59 61 -34 -1 -150 -101 -329 -88 -490 36 -27 20 -48 33
-48 28z"/>
<path d="M18150 7327 c-79 -23 -124 -50 -186 -112 -43 -42 -68 -77 -85 -120
l-24 -60 -3 -807 -2 -808 400 0 401 0 -3 803 c-3 788 -3 803 -24 853 -47 115
-125 193 -234 235 -68 26 -180 33 -240 16z"/>
<path d="M20486 7329 c-62 -15 -153 -68 -197 -116 -22 -24 -55 -74 -72 -111
l-32 -67 -3 -807 -3 -808 401 0 401 0 -3 808 -3 807 -32 67 c-17 37 -50 86
-72 110 -92 101 -250 149 -385 117z"/>
</g>
</svg>
