<?xml version="1.0" standalone="no"?>
<!DOCTYPE svg PUBLIC "-//W3C//DTD SVG 20010904//EN"
 "http://www.w3.org/TR/2001/REC-SVG-20010904/DTD/svg10.dtd">
<svg version="1.0" xmlns="http://www.w3.org/2000/svg"
 width="3043.000000pt" height="1713.000000pt" viewBox="0 0 3043.000000 1713.000000"
 preserveAspectRatio="xMidYMid meet">

<g transform="translate(0.000000,1713.000000) scale(0.100000,-0.100000)"
fill="#000000" stroke="none">
<path d="M0 8565 l0 -8555 15215 0 15215 0 0 8555 0 8555 -15215 0 -15215 0 0
-8555z m6212 8040 c92 -192 175 -366 185 -385 l18 -35 1989 -3 c1095 -1 1993
1 1997 5 4 5 -60 136 -142 293 -224 426 -249 473 -249 477 0 2 368 2 817 1
l817 -3 393 -750 c217 -412 482 -918 590 -1122 l195 -373 897 0 c494 0 1573 3
2397 7 l1500 6 209 396 c185 351 346 657 834 1589 l133 252 814 0 c448 0 814
-3 814 -6 0 -4 -26 -57 -59 -118 -32 -61 -111 -212 -176 -336 -64 -124 -128
-244 -141 -266 -13 -23 -20 -44 -17 -48 3 -3 903 -6 1998 -6 l1992 0 185 388
186 387 666 3 666 2 0 -7505 0 -7505 -1052 0 -1053 0 -380 -723 c-209 -397
-420 -800 -470 -894 l-90 -173 -1177 0 c-648 0 -1178 3 -1178 6 0 5 132 258
291 560 33 61 59 114 59 117 0 4 -2455 7 -5455 7 -3000 0 -5455 -2 -5455 -4 0
-3 22 -46 219 -420 72 -137 131 -253 131 -258 0 -4 -529 -7 -1177 -6 l-1176 3
-22 40 c-19 34 -244 464 -797 1517 l-120 228 -1049 0 -1049 0 0 7505 0 7505
662 -2 662 -3 168 -350z m10256 -157 c2 -28 -2 -40 -20 -52 -34 -24 -73 -20
-96 9 -17 21 -22 23 -31 11 -10 -12 -7 -16 11 -21 37 -12 58 -36 59 -69 l1
-31 9 33 c13 45 66 71 110 55 42 -16 59 -7 59 32 0 29 6 37 46 59 49 27 128
35 163 17 9 -5 23 -6 30 -2 7 5 41 3 76 -4 160 -30 293 -147 340 -301 20 -63
20 -206 1 -260 -38 -110 -98 -187 -192 -249 l-54 -36 0 -70 c0 -67 -1 -70 -22
-67 -22 3 -23 7 -23 87 l0 85 50 29 c152 88 234 251 206 409 -37 213 -207 342
-445 338 -100 -1 -153 -35 -111 -70 12 -10 21 -10 41 -1 44 20 61 -11 24 -44
-27 -24 -25 -36 10 -67 21 -19 30 -35 30 -58 0 -32 0 -32 48 -28 58 4 64 -16
13 -46 -34 -19 -34 -19 -70 0 -26 14 -37 28 -42 54 -4 19 -19 44 -33 55 -16
13 -26 31 -26 47 0 30 -21 51 -43 43 -8 -4 -17 -23 -21 -44 -4 -26 -13 -41
-31 -51 -28 -15 -33 -41 -11 -59 11 -10 20 -10 36 -1 12 6 28 9 36 6 24 -9 15
-32 -21 -52 -35 -19 -36 -19 -73 1 -29 16 -38 27 -40 52 -4 37 -22 56 -46 47
-25 -10 -20 -49 9 -64 19 -10 25 -21 25 -46 0 -26 6 -37 30 -51 26 -15 30 -23
28 -53 -4 -45 -31 -52 -50 -13 -16 34 -52 38 -56 6 -2 -14 5 -27 22 -39 19
-12 26 -25 26 -49 0 -25 5 -35 20 -40 28 -9 50 11 50 45 0 18 8 33 24 44 16
10 26 27 28 48 2 26 11 37 43 55 35 20 42 21 55 7 13 -13 11 -17 -18 -40 -23
-18 -32 -34 -32 -54 0 -20 -8 -35 -25 -46 -28 -18 -32 -45 -10 -64 18 -15 20
-40 3 -41 -7 0 -26 -2 -43 -2 -43 -3 -45 -36 -5 -65 16 -12 30 -29 30 -37 0
-10 10 -15 27 -15 15 0 37 -10 50 -22 21 -19 23 -30 23 -115 0 -86 -1 -93 -20
-93 -23 0 -29 19 -32 110 l-3 65 -35 5 c-25 4 -40 14 -57 39 -13 19 -32 41
-43 48 -11 8 -20 26 -20 39 0 16 -11 36 -30 52 -20 17 -30 36 -30 54 0 18 -8
33 -25 44 -21 14 -25 24 -25 64 0 40 4 50 25 64 14 9 25 24 25 32 0 9 -11 25
-25 36 -21 16 -25 28 -25 69 0 44 -2 49 -23 49 -37 0 -67 27 -67 62 0 17 7 39
15 48 14 15 13 18 -9 30 -29 15 -39 35 -31 61 9 27 48 34 79 14 16 -11 26 -13
26 -6 0 6 14 20 32 31 31 19 33 19 63 2 23 -14 31 -26 33 -54z m-1063 -8 c37
0 33 7 64 -116 5 -17 8 -49 7 -71 -1 -36 1 -39 24 -37 14 1 27 2 29 3 2 0 -4
13 -14 27 -13 20 -14 28 -4 40 16 20 43 18 92 -8 23 -12 44 -22 47 -21 3 1 12
-6 19 -15 13 -14 12 -15 -7 -10 -12 4 -24 3 -27 -2 -3 -4 12 -8 33 -8 63 1 74
-1 66 -13 -4 -8 3 -9 22 -5 16 3 34 3 39 -2 18 -13 15 -32 -4 -32 -11 0 -21
-5 -23 -12 -3 -9 -17 -7 -51 6 -26 10 -45 22 -42 26 10 17 -18 23 -30 7 -10
-13 -18 -15 -46 -7 -53 15 -77 12 -84 -10 -6 -18 -12 -20 -43 -14 -20 4 -45
14 -55 22 -13 12 -20 13 -29 4 -9 -9 -9 -12 0 -12 7 0 12 -4 12 -10 0 -5 -20
-10 -44 -10 -35 0 -45 4 -49 20 -5 19 -11 20 -64 14 -32 -4 -84 -15 -116 -26
-42 -15 -61 -17 -71 -9 -7 6 -15 9 -17 7 -2 -2 -12 5 -22 14 -18 17 -17 19 36
34 30 9 64 16 76 16 13 0 18 5 15 13 -3 8 14 21 48 35 65 27 90 28 111 4 15
-16 15 -20 1 -40 -17 -25 -18 -24 19 -26 25 -2 27 0 21 30 -3 19 -1 35 5 39 6
3 9 10 6 15 -3 5 2 25 12 45 17 36 17 37 -7 56 -15 11 -19 19 -11 19 11 0 11
3 0 17 -12 15 -12 16 4 10 10 -4 34 -7 52 -7z m-1358 -26 c7 -9 15 -34 18 -53
4 -20 11 -57 17 -83 5 -26 8 -68 6 -94 -2 -37 0 -47 13 -49 9 -2 26 -6 38 -10
25 -8 27 5 5 46 -24 47 -11 69 39 69 23 0 56 -8 72 -19 17 -10 48 -24 70 -31
22 -7 42 -16 45 -20 11 -16 87 -41 143 -47 32 -3 55 -9 50 -12 -5 -3 -8 -13
-8 -21 2 -21 -15 -40 -43 -51 -17 -7 -48 0 -120 25 -53 18 -128 36 -165 40
-68 7 -68 7 -78 -21 l-9 -28 -136 0 -136 0 -14 28 c-14 26 -17 27 -72 21 -31
-4 -93 -18 -137 -31 -44 -13 -92 -27 -106 -30 -37 -7 -85 21 -97 56 l-10 29
73 4 c55 2 81 9 102 24 15 12 46 27 67 34 22 7 54 22 73 32 65 39 153 15 137
-36 -6 -18 -5 -19 10 -7 14 12 16 10 16 -16 0 -20 5 -30 15 -30 17 0 20 23 4
32 -14 9 -5 83 15 120 9 17 15 51 15 80 -1 28 -3 42 -6 33 -5 -20 -28 -24 -38
-8 -3 6 2 10 12 10 17 1 17 1 1 14 -26 19 -13 25 50 21 39 -2 60 -8 69 -21z
m93 -253 c15 -28 13 -33 -10 -21 -11 6 -20 17 -20 25 0 21 17 18 30 -4z m-150
-153 c0 -6 -17 -8 -40 -5 -22 2 -42 1 -45 -3 -2 -4 -37 -10 -77 -13 -40 -3
-81 -8 -90 -12 -12 -5 -18 -2 -18 8 0 10 17 18 58 24 79 13 212 14 212 1z
m258 -3 c59 -14 34 -26 -40 -19 -40 4 -79 8 -88 9 -8 2 -36 4 -62 4 -27 1 -48
5 -48 11 0 10 185 6 238 -5z m2583 -142 c-2 -84 0 -153 5 -153 4 0 25 17 46
37 32 31 38 44 38 79 0 24 -4 54 -10 69 -8 21 -6 29 11 46 19 19 23 19 42 6
15 -10 21 -23 19 -38 -2 -13 -6 -51 -9 -84 -4 -52 -9 -65 -41 -98 l-37 -38 0
-97 c0 -90 -1 -97 -20 -97 -18 0 -20 8 -23 63 -3 63 -18 85 -24 35 -2 -20 -9
-29 -25 -31 l-23 -3 0 182 c0 115 -4 195 -12 215 -15 41 2 67 41 62 l26 -3 -4
-152z m-2703 98 c45 -5 85 -11 89 -15 4 -3 -6 -32 -21 -64 l-27 -57 20 -41
c40 -81 56 -214 26 -214 -8 0 -38 -21 -66 -46 -48 -42 -55 -46 -91 -40 -34 6
-40 3 -48 -16 l-9 -23 0 24 c-1 21 -4 23 -36 17 -41 -8 -87 12 -111 49 -9 14
-28 28 -41 32 -25 6 -25 8 -21 77 3 48 13 91 30 128 15 31 25 58 22 60 -2 2
-15 30 -29 61 -20 47 -22 57 -9 57 8 0 12 -5 9 -10 -3 -6 6 -32 21 -60 l27
-49 -22 -45 c-23 -51 -40 -117 -41 -159 0 -21 13 -40 53 -77 47 -44 57 -49
100 -50 47 0 47 0 40 28 -4 15 -7 41 -7 58 0 22 -4 30 -13 27 -7 -3 -13 0 -13
6 0 6 -7 11 -15 11 -8 0 -15 5 -15 10 0 6 -9 10 -20 10 -13 0 -17 5 -14 14 3
9 -3 17 -16 21 -19 6 -21 12 -15 43 7 41 30 82 45 82 6 0 10 9 10 20 0 14 5
18 17 13 10 -4 14 -2 10 4 -4 6 5 9 23 7 28 -3 30 -1 24 20 -3 14 -1 33 4 43
10 17 11 17 17 0 4 -9 5 -29 3 -42 -6 -27 1 -32 20 -13 9 9 12 9 12 -1 0 -7 5
-9 10 -6 6 3 10 1 10 -5 0 -7 7 -10 15 -6 10 3 15 -1 15 -11 0 -9 8 -21 17
-28 13 -10 42 -81 43 -106 0 -4 -10 -9 -21 -12 -15 -4 -20 -11 -16 -21 5 -11
0 -16 -13 -16 -11 0 -20 -5 -20 -11 0 -7 -9 -9 -21 -6 -16 4 -19 2 -15 -10 5
-11 1 -14 -11 -11 -16 4 -18 -4 -21 -54 l-2 -58 46 0 c38 0 51 6 85 38 22 20
47 43 54 50 19 17 9 100 -23 181 l-25 64 26 53 26 53 -22 7 c-12 4 -98 7 -192
8 -102 0 -146 3 -110 7 90 9 151 9 243 0z m2568 -38 c4 -13 1 -30 -5 -36 -6
-6 -11 -30 -11 -54 0 -35 6 -50 35 -81 32 -37 34 -42 37 -123 l3 -84 30 -3
c33 -4 46 -18 38 -39 -3 -8 -23 -13 -58 -13 -63 0 -65 4 -65 125 0 75 -2 81
-31 111 -28 29 -32 42 -41 120 -8 77 -7 90 7 100 23 17 54 6 61 -23z m-2922
-23 c18 -19 26 -36 22 -47 -4 -9 -1 -20 6 -25 10 -6 5 -16 -19 -37 -35 -29
-43 -44 -18 -35 19 8 20 -10 1 -25 -8 -7 -12 -21 -9 -32 3 -11 -2 -28 -12 -39
-12 -13 -14 -20 -6 -20 7 0 10 -7 7 -17 -3 -10 1 -31 9 -47 8 -15 15 -37 15
-47 0 -11 5 -19 10 -19 6 0 10 -7 10 -16 0 -8 4 -13 9 -9 16 9 38 -22 44 -62
8 -45 46 -71 65 -44 10 14 11 14 11 -2 1 -14 4 -15 20 -5 11 7 22 20 24 30 4
13 15 18 39 18 44 0 60 -12 52 -36 -4 -10 -4 -16 1 -12 4 4 14 3 22 -3 10 -9
13 -8 13 1 0 7 7 10 16 6 23 -9 54 12 54 37 0 26 22 70 33 68 15 -2 43 34 39
51 -2 10 2 20 11 24 9 3 13 13 10 25 -7 24 4 24 31 2 16 -14 15 -11 -3 9 -13
15 -21 34 -18 42 3 8 -1 20 -9 27 -8 7 -14 22 -13 33 2 12 -3 32 -10 45 -13
23 -12 24 10 18 21 -6 20 -3 -8 19 -32 25 -44 54 -22 54 8 0 8 4 0 14 -13 16
-4 46 14 46 7 0 15 9 18 20 3 11 12 20 20 20 18 0 26 -50 23 -137 -2 -52 -1
-60 10 -45 12 16 13 16 19 0 4 -9 1 -26 -5 -38 -6 -12 -9 -24 -6 -27 3 -3 8 2
12 11 10 25 27 19 22 -8 -4 -17 -1 -23 8 -19 23 9 28 -27 8 -65 -26 -52 -29
-60 -9 -34 33 45 51 9 18 -38 -16 -24 -16 -24 0 -11 10 8 20 11 24 7 10 -10
-17 -53 -41 -65 -19 -9 -18 -10 8 -4 27 5 27 4 16 -16 -6 -13 -25 -27 -42 -33
-20 -7 -26 -13 -18 -18 26 -16 -2 -32 -49 -28 -25 3 -38 3 -28 1 27 -6 14 -28
-14 -25 -62 6 -119 7 -119 0 0 -4 -18 -11 -40 -14 -45 -7 -51 -23 -20 -54 23
-23 82 -27 99 -6 10 12 16 12 41 -1 24 -12 28 -18 20 -33 -16 -30 -54 -32
-129 -7 -39 13 -74 21 -78 17 -4 -4 -34 -15 -65 -24 -49 -15 -61 -16 -84 -4
-39 18 -40 34 -4 52 27 13 32 13 37 0 8 -22 69 -18 94 7 27 27 20 42 -24 52
-20 5 -37 12 -37 16 0 4 -37 6 -82 5 -75 -2 -81 -1 -63 12 18 13 17 14 -12 8
-33 -6 -84 13 -65 25 7 4 -3 14 -23 25 -35 19 -39 26 -36 58 1 9 -3 19 -9 23
-18 11 -12 38 8 30 14 -5 15 -4 5 6 -7 7 -13 24 -13 38 l0 24 25 -23 c31 -29
32 -20 4 30 -22 39 -20 76 5 67 9 -4 12 2 8 19 -5 26 7 31 26 12 8 -8 10 -2 5
25 -6 38 11 53 21 20 3 -10 3 1 0 25 -5 39 7 59 19 30 3 -7 6 -3 6 9 1 12 -3
23 -8 25 -4 2 -12 14 -16 27 -6 20 -4 23 9 18 19 -7 19 -6 6 27 -13 36 7 34
44 -4z m3189 -437 c3 -5 -2 -30 -9 -58 -8 -27 -20 -71 -26 -97 l-13 -48 -112
0 -112 0 -16 55 c-9 30 -14 58 -11 63 3 5 -2 21 -10 36 -28 56 -28 56 145 56
88 0 162 -3 164 -7z m-3017 -177 c10 -11 11 -15 1 -19 -18 -6 -37 3 -37 19 0
18 18 18 36 0z m154 0 c0 -14 -24 -29 -33 -19 -3 3 -3 11 0 19 7 18 33 18 33
0z m2795 -93 c-9 -37 -20 -43 -88 -43 -71 0 -97 12 -97 45 0 25 1 25 96 25
l96 0 -7 -27z"/>
<path d="M13270 14345 c-379 -63 -822 -317 -1055 -607 -228 -283 -258 -623
-73 -824 51 -56 139 -111 269 -169 249 -113 309 -151 340 -220 34 -75 19 -132
-58 -215 -159 -172 -518 -273 -643 -181 -38 28 -38 89 0 185 16 42 30 90 30
106 0 34 -19 80 -33 80 -18 0 -78 -76 -107 -135 -70 -143 -59 -270 29 -356 39
-37 60 -49 114 -62 213 -54 519 38 691 208 152 149 185 340 88 506 -53 89
-118 136 -348 249 -271 133 -326 188 -326 325 0 165 107 345 303 510 322 270
776 438 1032 381 174 -39 213 -125 132 -291 -44 -89 -113 -174 -212 -257 -154
-129 -268 -195 -386 -224 -91 -23 -111 -13 -126 56 -22 104 -45 111 -81 27
-45 -105 -10 -214 84 -261 73 -36 203 -18 329 45 207 105 415 289 519 460 61
101 83 178 83 294 0 89 -4 107 -29 162 -62 135 -193 208 -391 218 -53 3 -125
-1 -175 -10z m250 -788 c0 -2 -12 -14 -27 -28 l-28 -24 24 28 c23 25 31 32 31
24z m-60 -50 c0 -2 -10 -12 -22 -23 l-23 -19 19 23 c18 21 26 27 26 19z m-50
-41 c0 -3 -15 -14 -32 -26 l-33 -22 30 26 c31 27 35 29 35 22z m-85 -62 c-26
-20 -55 -36 -55 -30 0 5 63 46 70 46 3 -1 -4 -8 -15 -16z m-90 -54 c-3 -5 -12
-10 -18 -10 -7 0 -6 4 3 10 19 12 23 12 15 0z m-284 -37 c13 -16 12 -17 -3 -4
-17 13 -22 21 -14 21 2 0 10 -8 17 -17z m46 -19 c-3 -3 -12 -4 -19 -1 -8 3 -5
6 6 6 11 1 17 -2 13 -5z m86 -1 c-7 -2 -19 -2 -25 0 -7 3 -2 5 12 5 14 0 19
-2 13 -5z"/>
<path d="M15068 13782 c-21 -25 -109 -171 -217 -359 l-42 -73 -392 -1 c-216 0
-414 -4 -441 -8 -82 -14 -117 -90 -59 -128 25 -17 59 -18 415 -16 213 1 388 0
388 -2 0 -2 -44 -93 -98 -202 -334 -677 -450 -1130 -306 -1195 32 -15 71 -2
96 32 21 28 34 90 24 115 -5 15 -10 14 -42 -5 l-35 -22 7 38 c11 64 70 236
125 367 124 296 421 872 454 881 11 3 55 6 98 6 l77 0 -16 -25 c-14 -21 -14
-26 -1 -45 8 -12 25 -29 37 -37 28 -19 43 -7 80 67 16 31 40 64 54 74 14 9 26
23 26 31 0 29 -44 44 -163 53 -64 5 -120 11 -123 15 -3 3 25 63 63 134 38 70
78 149 88 175 41 110 -31 208 -97 130z m42 -142 c-6 -11 -13 -20 -16 -20 -2 0
0 9 6 20 6 11 13 20 16 20 2 0 0 -9 -6 -20z"/>
<path d="M18312 13792 c-24 -24 -109 -162 -197 -319 l-68 -122 -426 -3 c-391
-3 -429 -5 -454 -21 -32 -20 -50 -61 -42 -88 14 -42 31 -44 442 -42 l392 2
-93 -187 c-51 -103 -106 -218 -122 -256 -23 -55 -42 -79 -94 -125 -128 -114
-183 -137 -197 -83 -4 16 4 79 21 163 26 127 27 137 12 172 -8 21 -23 40 -33
44 -10 3 -31 17 -48 31 -61 50 -168 5 -302 -128 -42 -41 -87 -92 -101 -113
-14 -21 -31 -36 -38 -33 -7 3 -53 -26 -101 -65 -151 -120 -261 -159 -297 -107
-30 43 -20 67 57 142 39 39 101 96 136 126 57 50 63 59 63 93 0 22 -7 46 -18
58 -32 36 -67 24 -210 -72 -75 -50 -138 -89 -140 -87 -4 5 221 388 268 456 17
25 37 42 49 42 21 0 55 47 65 93 8 39 -12 83 -46 97 -50 21 -102 -20 -188
-147 -63 -92 -224 -381 -272 -487 -24 -53 -48 -96 -53 -96 -5 0 -39 -22 -76
-49 -84 -62 -211 -144 -216 -139 -2 2 33 79 77 171 68 141 81 177 85 231 5 62
4 66 -26 96 -34 34 -66 37 -66 5 0 -11 -6 -24 -14 -29 -7 -4 -56 -96 -108
-202 -70 -144 -99 -194 -112 -194 -10 0 -39 18 -64 40 -25 22 -52 40 -61 40
-24 0 -90 -88 -277 -370 -93 -140 -169 -249 -169 -243 0 6 18 61 39 121 123
342 300 716 433 915 35 52 40 56 55 42 36 -37 73 7 73 88 0 40 -5 53 -29 78
-33 33 -50 35 -90 15 -71 -37 -202 -230 -326 -480 -58 -118 -86 -165 -91 -153
-13 34 -58 19 -165 -56 -129 -91 -179 -121 -179 -109 0 6 35 81 77 168 71 145
78 165 81 229 4 66 2 72 -23 98 -15 15 -33 27 -40 27 -17 0 -38 -27 -30 -40 3
-5 1 -10 -5 -10 -15 0 -196 -370 -222 -453 -29 -95 -22 -161 21 -199 37 -33
78 -36 136 -9 60 27 158 105 252 199 78 78 83 81 68 45 -57 -132 -132 -335
-161 -436 -69 -241 -52 -357 52 -357 66 0 102 47 344 450 196 328 186 315 214
297 11 -8 33 -17 49 -21 25 -6 27 -10 27 -61 0 -30 5 -65 11 -78 13 -30 59
-57 95 -57 41 0 125 47 209 117 41 35 75 60 75 56 0 -5 -7 -30 -15 -57 -21
-69 -19 -85 10 -92 33 -8 50 7 85 77 22 42 40 63 74 83 24 14 48 26 53 26 5 0
14 -19 20 -42 27 -102 107 -164 197 -154 64 7 135 42 214 106 l62 50 0 -41 c0
-55 24 -98 66 -115 57 -24 124 13 245 134 l97 97 5 -57 c6 -69 40 -133 79
-149 40 -16 103 -4 161 32 27 17 51 29 53 27 2 -2 -16 -64 -41 -138 -53 -164
-75 -268 -75 -355 0 -69 8 -94 43 -132 50 -55 127 -4 143 94 8 51 -8 63 -47
34 l-29 -22 0 24 c0 75 119 384 261 677 166 341 297 579 322 584 12 3 78 7
147 9 147 5 200 21 200 61 0 36 -22 44 -141 52 -165 11 -158 -2 -78 148 91
171 103 205 95 262 -3 26 -11 53 -17 60 -16 20 -56 17 -77 -4z m-1074 -1064
c-23 -43 -157 -183 -166 -174 -10 11 64 109 121 161 33 30 62 55 64 55 3 0 -6
-19 -19 -42z"/>
<path d="M16179 13251 c-19 -16 -44 -45 -54 -66 l-20 -36 33 -30 c18 -16 36
-29 41 -29 12 0 57 67 76 114 15 35 15 39 -1 57 -23 25 -33 24 -75 -10z"/>
<path d="M13933 12972 c-10 -9 -47 -72 -83 -139 -41 -77 -68 -119 -74 -113 -6
6 -15 10 -21 10 -6 0 -78 -41 -161 -90 -140 -85 -234 -130 -270 -130 -29 0 -8
23 24 26 102 11 206 109 212 199 4 63 -1 86 -28 116 -54 61 -140 32 -245 -80
-76 -83 -121 -175 -125 -260 -3 -77 9 -105 57 -138 89 -60 241 8 445 199 48
44 86 78 86 75 0 -2 -14 -32 -32 -67 -56 -113 -47 -210 20 -210 34 0 61 27
132 135 106 160 248 325 281 325 4 0 11 -21 14 -47 20 -152 50 -226 100 -250
43 -20 79 -11 122 32 32 32 43 68 24 79 -5 3 -28 -3 -52 -13 -30 -14 -48 -17
-60 -10 -20 10 -34 74 -44 193 -13 167 -70 194 -200 96 l-63 -47 1 47 c1 45
-14 80 -34 80 -5 0 -17 -8 -26 -18z m-472 -239 c-15 -28 -90 -97 -97 -90 -3 3
3 19 15 36 37 52 106 96 82 54z"/>
<path d="M13420 11520 c0 -204 1 -210 20 -210 11 0 23 7 26 15 5 13 8 13 27 0
32 -23 109 -19 141 6 93 74 66 229 -45 259 -30 8 -46 7 -75 -5 -20 -8 -38 -15
-40 -15 -2 0 -4 36 -4 80 0 79 0 80 -25 80 l-25 0 0 -210z m189 -6 c45 -57 13
-154 -50 -154 -45 0 -67 16 -78 55 -10 37 -1 86 20 111 6 8 29 14 49 14 30 0
43 -6 59 -26z"/>
<path d="M14380 11520 l0 -210 30 0 c29 0 30 1 30 49 0 56 23 88 44 59 6 -8
26 -36 43 -62 27 -38 38 -46 63 -46 35 0 36 -3 -25 85 -23 33 -45 66 -49 72
-4 8 13 34 45 68 l52 55 -34 0 c-27 0 -44 -10 -86 -52 l-53 -52 0 122 0 122
-30 0 -30 0 0 -210z"/>
<path d="M15430 11519 l0 -210 27 3 c25 3 28 7 31 48 3 41 16 70 31 70 3 0 23
-27 45 -60 32 -51 43 -60 67 -60 16 0 29 4 29 8 0 5 -22 41 -50 80 -27 39 -50
75 -50 80 0 4 20 28 45 52 25 24 45 48 45 52 0 4 -13 8 -28 8 -20 0 -41 -14
-77 -50 -27 -27 -53 -50 -57 -50 -4 0 -8 54 -8 120 l0 120 -25 0 -25 0 0 -211z"/>
<path d="M16850 11650 c0 -44 -2 -80 -4 -80 -2 0 -20 7 -40 15 -133 56 -237
-136 -131 -242 28 -28 40 -33 82 -33 27 0 58 7 70 15 19 13 22 13 27 0 3 -8
15 -15 26 -15 19 0 20 6 20 210 l0 210 -25 0 c-25 0 -25 -1 -25 -80z m-40
-120 c28 -15 42 -66 30 -111 -26 -97 -150 -71 -150 31 0 71 61 112 120 80z"/>
<path d="M12912 11518 l3 -203 95 -3 c116 -3 151 12 195 83 26 42 30 58 30
119 -1 83 -26 141 -77 178 -29 20 -47 23 -141 26 l-107 4 2 -204z m181 141
c64 -17 98 -102 77 -190 -17 -69 -47 -92 -125 -97 l-65 -4 0 151 0 151 38 0
c20 0 54 -5 75 -11z"/>
<path d="M13301 11706 c-21 -25 -4 -58 27 -54 23 2 27 8 27 33 0 23 -5 31 -21
33 -11 2 -26 -4 -33 -12z"/>
<path d="M14261 11702 c-12 -23 4 -52 29 -52 25 0 41 30 29 53 -13 22 -46 22
-58 -1z"/>
<path d="M13835 11593 c-39 -10 -74 -44 -90 -88 -24 -62 -13 -109 35 -157 34
-34 43 -38 89 -38 50 0 111 21 111 39 0 20 -29 32 -49 22 -34 -19 -86 -13
-109 12 -12 13 -22 26 -22 30 0 4 43 7 95 7 l95 0 0 35 c0 93 -74 159 -155
138z m77 -70 c35 -32 23 -43 -47 -43 -71 0 -85 15 -43 44 29 21 67 20 90 -1z"/>
<path d="M14140 11584 c-22 -10 -36 -11 -38 -4 -2 5 -15 10 -28 10 l-24 0 0
-140 0 -140 30 0 30 0 0 93 c0 108 9 127 66 136 41 7 59 35 32 52 -18 12 -27
11 -68 -7z"/>
<path d="M14746 11590 c-107 -33 -131 -187 -40 -259 33 -26 109 -28 142 -5 20
14 22 14 22 0 0 -10 9 -16 25 -16 l25 0 0 140 0 140 -25 0 c-15 0 -25 -6 -25
-14 0 -11 -8 -10 -37 5 -41 21 -45 21 -87 9z m93 -76 c46 -59 13 -154 -54
-154 -45 0 -75 38 -75 93 0 80 83 119 129 61z"/>
<path d="M15065 11586 c-21 -9 -35 -10 -46 -3 -9 6 -24 7 -33 4 -15 -6 -16
-23 -14 -139 l3 -133 28 -3 27 -3 0 99 c0 111 11 132 67 132 52 0 63 -24 63
-133 0 -97 0 -97 25 -97 l25 0 0 110 c0 106 -1 111 -27 139 -33 35 -77 45
-118 27z"/>
<path d="M15795 11589 c-17 -5 -44 -22 -60 -39 -23 -24 -29 -40 -32 -87 -5
-68 17 -112 68 -139 66 -34 206 4 165 45 -12 12 -20 12 -41 3 -39 -18 -79 -14
-109 9 -14 11 -26 24 -26 29 0 5 44 11 98 12 l97 3 -2 37 c-6 93 -77 150 -158
127z m71 -57 c6 -4 16 -17 23 -29 12 -23 11 -23 -59 -23 -74 0 -83 7 -50 40
20 20 65 26 86 12z"/>
<path d="M16105 11585 c-25 -9 -43 -11 -49 -5 -6 6 -18 10 -28 10 -17 0 -18
-14 -18 -195 l0 -195 30 0 30 0 0 65 c0 62 1 65 19 55 11 -5 40 -10 65 -10 39
0 52 6 84 34 36 34 37 36 37 104 0 61 -3 74 -25 97 -45 48 -88 60 -145 40z
m92 -67 c17 -16 23 -33 23 -63 0 -58 -30 -95 -76 -95 -50 0 -74 29 -74 90 0
37 5 55 20 70 27 27 77 26 107 -2z"/>
<path d="M16405 11585 c-102 -36 -124 -170 -40 -244 29 -25 44 -31 82 -31 29
0 53 6 65 16 16 16 18 16 24 0 3 -9 17 -16 30 -16 l24 0 0 140 0 140 -24 0
c-13 0 -26 -5 -28 -11 -3 -8 -10 -9 -23 -2 -38 19 -70 22 -110 8z m92 -60 c43
-30 38 -131 -8 -155 -63 -34 -134 30 -115 105 15 58 76 83 123 50z"/>
<path d="M17056 11589 c-42 -12 -85 -57 -97 -101 -23 -88 40 -178 126 -178 25
0 55 6 66 13 17 10 23 10 26 0 3 -7 16 -13 29 -13 l24 0 0 140 0 140 -24 0
c-13 0 -26 -5 -28 -11 -3 -8 -10 -9 -23 -2 -33 17 -68 21 -99 12z m90 -70 c29
-32 26 -115 -5 -140 -47 -38 -110 -14 -126 48 -8 31 11 90 33 103 29 17 78 11
98 -11z"/>
<path d="M13300 11450 l0 -141 28 3 27 3 0 135 0 135 -27 3 -28 3 0 -141z"/>
<path d="M14260 11450 l0 -140 30 0 30 0 0 140 0 140 -30 0 -30 0 0 -140z"/>
<path d="M17450 11541 c-5 -11 -7 -27 -4 -35 8 -21 60 -21 68 0 8 21 8 20 -10
38 -21 21 -41 20 -54 -3z"/>
<path d="M17449 11364 c-9 -11 -10 -20 -2 -32 25 -41 86 -14 63 27 -13 25 -42
27 -61 5z"/>
<path d="M12270 10755 c-9 -12 -210 -459 -210 -469 0 -3 22 -6 48 -6 47 0 48
1 70 45 l22 45 123 0 123 0 22 -45 c21 -44 22 -45 72 -45 l50 0 -24 53 c-13
28 -61 136 -107 239 l-84 186 -48 4 c-27 2 -52 -1 -57 -7z m98 -202 c22 -50
37 -94 34 -97 -3 -3 -41 -6 -85 -6 -78 0 -79 0 -73 23 8 32 76 180 80 176 3
-2 22 -45 44 -96z"/>
<path d="M13360 10750 c-23 -23 -24 -33 -10 -61 12 -22 59 -26 78 -7 19 19 15
66 -7 78 -28 14 -38 13 -61 -10z"/>
<path d="M15513 10764 c-10 -4 -13 -63 -13 -245 l0 -239 45 0 45 0 0 95 c0
134 18 165 95 165 54 0 65 -26 65 -152 l0 -108 45 0 45 0 0 113 c-1 172 -35
229 -141 229 -36 0 -59 -6 -80 -21 l-28 -21 -3 92 -3 93 -30 2 c-16 1 -36 0
-42 -3z"/>
<path d="M16969 10751 c-20 -16 -22 -23 -14 -47 11 -32 55 -45 81 -23 21 17
18 66 -5 79 -27 14 -35 13 -62 -9z"/>
<path d="M17126 10754 c-19 -18 -21 -55 -4 -72 7 -7 24 -12 38 -12 51 0 69 55
28 84 -28 20 -43 20 -62 0z"/>
<path d="M13190 10670 l0 -91 -31 23 c-42 31 -136 32 -176 2 -62 -46 -87 -115
-73 -195 15 -79 72 -130 154 -137 43 -3 63 0 90 16 28 17 35 18 40 6 3 -9 20
-14 46 -14 l40 0 0 240 0 240 -45 0 -45 0 0 -90z m-32 -155 c25 -29 30 -99 9
-126 -50 -66 -158 -43 -173 37 -19 101 98 164 164 89z"/>
<path d="M16060 10521 l0 -241 45 0 45 0 0 80 0 80 43 0 c42 0 46 -3 112 -80
l68 -80 60 0 59 0 -72 81 -72 82 38 21 c99 55 104 200 11 270 -25 19 -44 21
-183 24 l-154 3 0 -240z m291 130 c10 -13 19 -36 19 -51 0 -15 -9 -38 -19 -51
-17 -21 -29 -24 -110 -27 l-91 -4 0 82 0 82 91 -4 c81 -3 93 -6 110 -27z"/>
<path d="M17700 10520 l0 -240 40 0 40 0 0 73 1 72 67 -73 67 -73 53 1 54 0
-82 90 -82 89 71 78 71 78 -52 3 c-56 3 -48 9 -150 -112 -17 -20 -17 -15 -18
117 l0 137 -40 0 -40 0 0 -240z"/>
<path d="M12733 10610 c-27 -16 -33 -17 -33 -5 0 11 -11 15 -40 15 l-40 0 0
-170 0 -170 45 0 45 0 0 110 c0 99 2 112 21 131 18 18 30 21 74 16 52 -5 52
-5 69 29 l16 35 -35 14 c-47 20 -84 19 -122 -5z"/>
<path d="M13605 10618 c-132 -46 -153 -255 -33 -328 45 -27 131 -27 176 0 26
16 32 17 32 5 0 -11 12 -15 45 -15 l45 0 0 170 0 170 -45 0 c-38 0 -45 -3 -45
-20 0 -18 -2 -18 -36 5 -39 27 -87 31 -139 13z m131 -83 c30 -21 47 -68 40
-109 -9 -48 -47 -76 -101 -76 -57 0 -95 41 -95 102 0 77 94 127 156 83z"/>
<path d="M14087 10615 c-20 -7 -44 -18 -51 -24 -11 -10 -16 -8 -21 8 -5 16
-15 21 -41 21 l-34 0 0 -170 0 -170 39 0 39 0 4 110 c3 122 14 144 75 156 27
5 37 1 63 -24 30 -30 30 -32 30 -136 l0 -106 46 0 47 0 -6 120 c-6 133 -20
171 -72 201 -45 25 -76 29 -118 14z"/>
<path d="M14405 10611 c-83 -37 -87 -134 -7 -175 15 -7 49 -17 76 -21 66 -9
76 -14 76 -36 0 -41 -69 -51 -137 -18 l-43 21 -20 -24 c-25 -30 -25 -33 9 -57
87 -62 235 -43 267 36 31 74 -14 136 -108 148 -76 9 -88 14 -88 35 0 38 62 52
114 25 36 -19 31 -20 56 15 l22 30 -44 20 c-54 25 -121 25 -173 1z"/>
<path d="M15175 10620 c-140 -44 -156 -267 -23 -336 57 -29 160 -13 190 30 4
6 8 1 8 -11 0 -20 5 -23 40 -23 l40 0 0 170 0 170 -40 0 c-34 0 -40 -3 -40
-20 0 -20 0 -20 -29 1 -33 24 -101 33 -146 19z m125 -85 c57 -29 61 -132 7
-170 -26 -18 -96 -19 -118 -2 -48 37 -53 115 -10 158 33 33 75 38 121 14z"/>
<path d="M16613 10619 c-67 -20 -113 -93 -113 -179 0 -49 38 -120 79 -147 46
-31 130 -32 177 -2 29 17 34 18 34 5 0 -12 10 -16 40 -16 l40 0 0 170 0 170
-40 0 c-34 0 -40 -3 -40 -20 0 -20 0 -20 -29 1 -33 24 -101 33 -148 18z m121
-80 c25 -12 56 -63 56 -94 0 -25 -28 -73 -49 -85 -11 -5 -38 -10 -59 -10 -33
0 -45 6 -66 31 -73 87 15 205 118 158z"/>
<path d="M17365 10620 c-107 -33 -148 -200 -73 -295 44 -56 153 -73 216 -35
26 16 32 17 32 5 0 -11 12 -15 45 -15 l45 0 0 170 0 170 -45 0 c-39 0 -45 -3
-45 -20 0 -20 0 -20 -29 1 -33 24 -101 33 -146 19z m131 -85 c30 -21 47 -68
40 -109 -9 -48 -47 -76 -101 -76 -57 0 -95 41 -95 102 0 77 94 127 156 83z"/>
<path d="M18149 10620 c-82 -25 -123 -90 -117 -187 6 -103 59 -155 161 -160
51 -3 69 0 102 19 101 59 116 215 26 291 -49 41 -114 55 -172 37z m105 -91
c48 -38 51 -124 5 -161 -49 -41 -133 -8 -145 58 -17 90 72 156 140 103z"/>
<path d="M13350 10450 l0 -170 45 0 45 0 0 170 0 170 -45 0 -45 0 0 -170z"/>
<path d="M14663 10608 c51 -121 127 -315 127 -325 0 -8 -11 -40 -25 -73 -14
-33 -25 -64 -25 -70 0 -5 19 -10 43 -10 l44 0 101 238 c56 130 102 241 102
245 0 4 -21 7 -46 5 l-46 -3 -46 -113 c-25 -62 -47 -110 -50 -107 -3 3 -22 53
-42 113 l-37 107 -53 3 c-40 2 -51 0 -47 -10z"/>
<path d="M16960 10396 c0 -191 -2 -227 -16 -240 -9 -10 -24 -14 -38 -10 -17 4
-25 -1 -34 -21 -17 -37 -16 -42 20 -54 31 -11 94 -6 103 9 3 4 24 1 48 -8 39
-14 48 -14 83 -1 69 26 74 48 74 317 l0 232 -40 0 -40 0 0 -197 c0 -266 -5
-290 -57 -277 -17 5 -18 18 -15 240 l3 234 -45 0 -46 0 0 -224z"/>
<path d="M12995 9964 c-1747 -8 -3429 -34 -3463 -53 -106 -59 7758 -83 10583
-31 601 11 800 19 788 31 -12 12 -687 28 -1663 39 -890 10 -5109 19 -6245 14z"/>
<path d="M13595 9638 c-4 -12 -65 -385 -65 -400 0 -13 48 -9 52 4 3 8 11 7 28
-5 70 -49 183 12 210 114 28 103 -69 191 -160 145 l-33 -16 7 53 c4 28 9 67
12 85 6 29 4 32 -20 32 -15 0 -29 -6 -31 -12z m155 -204 c22 -21 18 -88 -6
-121 -48 -64 -126 -52 -132 21 -5 53 15 96 52 112 33 14 62 10 86 -12z"/>
<path d="M13013 9621 c-47 -22 -73 -62 -73 -115 0 -43 41 -81 105 -97 47 -12
85 -41 85 -65 0 -8 -11 -26 -25 -39 -31 -32 -101 -35 -136 -6 -19 15 -28 17
-47 8 -29 -13 -25 -34 11 -61 22 -16 43 -21 91 -21 75 0 126 29 152 86 31 70
-3 127 -90 150 -59 15 -86 35 -86 64 0 48 88 74 137 40 18 -13 26 -13 43 -3
25 16 25 22 -1 46 -38 36 -104 41 -166 13z"/>
<path d="M14880 9615 c-18 -22 -8 -50 19 -50 28 0 47 25 38 49 -8 20 -40 21
-57 1z"/>
<path d="M15116 9443 c-16 -104 -31 -194 -33 -200 -4 -9 5 -13 26 -13 36 0 36
0 51 98 l12 72 61 0 c75 0 123 21 154 69 32 48 30 95 -6 132 -29 28 -32 29
-133 29 l-104 0 -28 -187z m218 121 c22 -22 20 -54 -6 -81 -18 -19 -32 -23
-86 -23 l-64 0 7 43 c12 79 11 77 75 77 40 0 64 -5 74 -16z"/>
<path d="M17209 9609 c-9 -17 -8 -24 4 -36 28 -28 75 5 61 42 -9 22 -51 18
-65 -6z"/>
<path d="M16516 9564 c-3 -9 -6 -26 -6 -39 0 -16 -7 -25 -25 -29 -31 -8 -35
-46 -5 -46 16 0 19 -5 15 -22 -19 -85 -24 -153 -12 -177 10 -22 20 -27 60 -29
45 -3 47 -2 47 22 0 21 -5 26 -25 26 -34 0 -37 12 -22 100 l13 75 36 3 c29 3
37 8 41 28 4 22 1 24 -32 24 l-37 0 4 40 c4 37 2 40 -21 40 -14 0 -28 -7 -31
-16z"/>
<path d="M13335 9496 c-41 -18 -82 -68 -95 -117 -28 -105 65 -185 173 -150 47
16 64 36 47 56 -11 13 -15 13 -41 0 -15 -8 -40 -15 -54 -15 -26 0 -75 39 -75
60 0 6 39 10 105 10 l105 0 0 38 c0 101 -78 156 -165 118z m93 -64 c26 -34 15
-42 -58 -42 -67 0 -70 1 -60 20 24 45 89 58 118 22z"/>
<path d="M13964 9496 c-40 -18 -92 -82 -100 -124 -20 -107 77 -185 171 -136
19 10 31 11 33 5 2 -6 14 -11 27 -11 21 0 23 7 40 118 9 64 19 125 21 135 4
13 -1 17 -20 17 -14 0 -28 -4 -31 -10 -4 -6 -17 -4 -35 5 -35 18 -65 18 -106
1z m91 -61 c38 -37 34 -88 -9 -131 -42 -42 -76 -44 -105 -8 -26 34 -27 70 -1
112 33 54 78 65 115 27z"/>
<path d="M14275 9491 c-135 -61 -110 -263 30 -248 22 3 48 8 58 12 28 12 21
-23 -12 -56 -24 -23 -38 -29 -73 -29 -24 0 -53 7 -65 15 -21 15 -23 14 -29
-10 -9 -38 7 -49 79 -53 121 -7 165 43 192 222 9 61 19 121 22 134 4 18 1 22
-20 22 -14 0 -28 -4 -32 -9 -3 -6 -17 -4 -33 5 -36 19 -69 17 -117 -5z m112
-53 c7 -6 13 -28 13 -49 0 -47 -32 -87 -77 -95 -26 -5 -37 -1 -58 21 -22 21
-26 32 -21 58 14 71 93 107 143 65z"/>
<path d="M14605 9490 c-60 -30 -90 -81 -90 -152 0 -49 4 -62 26 -84 34 -33 94
-42 137 -20 18 9 32 12 32 6 0 -5 12 -10 28 -10 l28 0 20 135 20 135 -27 0
c-15 0 -29 -5 -31 -12 -3 -8 -11 -7 -28 5 -32 22 -66 21 -115 -3z m92 -45 c62
-43 15 -175 -63 -175 -84 0 -84 146 0 180 30 12 39 12 63 -5z"/>
<path d="M15515 9490 c-107 -53 -127 -207 -33 -256 39 -20 115 -15 154 10 24
16 25 19 11 34 -13 13 -21 13 -42 4 -38 -17 -69 -15 -99 9 -50 39 -36 49 74
49 l100 0 0 45 c0 57 -17 93 -51 111 -38 19 -67 18 -114 -6z m82 -45 c11 -8
23 -24 26 -35 5 -19 1 -20 -64 -20 -38 0 -69 4 -69 8 0 11 41 48 60 55 23 8
24 8 47 -8z"/>
<path d="M15840 9501 c-8 -6 -31 -8 -51 -5 l-35 6 -20 -134 -19 -133 23 -3
c13 -2 26 -1 28 1 5 4 34 170 34 189 0 4 11 15 24 23 20 13 29 14 47 5 20 -11
21 -17 15 -74 -3 -33 -9 -80 -12 -103 -6 -41 -5 -43 19 -43 28 0 27 -3 47 128
10 58 17 76 35 88 19 12 28 13 46 4 20 -11 21 -17 15 -74 -3 -33 -9 -80 -12
-103 -6 -41 -5 -43 19 -43 27 0 26 -3 52 167 8 54 -14 99 -53 108 -30 6 -76
-7 -87 -25 -5 -8 -12 -7 -24 4 -22 20 -72 29 -91 17z"/>
<path d="M16234 9491 c-57 -26 -87 -72 -92 -141 -4 -52 -1 -60 24 -89 36 -40
95 -51 142 -27 18 9 32 12 32 6 0 -5 11 -10 24 -10 19 0 26 7 30 28 9 42 36
215 36 230 0 15 -47 16 -52 1 -2 -6 -14 -5 -33 5 -39 20 -61 20 -111 -3z m96
-51 c32 -32 27 -100 -9 -139 -69 -73 -160 1 -115 94 28 60 88 81 124 45z"/>
<path d="M16745 9496 c-41 -18 -82 -68 -95 -117 -28 -105 65 -185 173 -150 47
16 64 36 47 56 -11 13 -15 13 -41 0 -52 -27 -110 -11 -122 35 -5 19 -1 20 99
20 l104 0 0 38 c0 101 -78 156 -165 118z m93 -64 c26 -34 15 -42 -58 -42 -67
0 -70 1 -60 20 24 45 89 58 118 22z"/>
<path d="M17065 9494 c-19 -10 -31 -11 -33 -5 -2 6 -14 11 -26 11 -21 0 -24
-8 -42 -132 l-19 -133 23 -3 c13 -2 26 -2 28 1 2 2 11 41 19 85 8 45 19 90 24
101 12 21 64 43 85 35 13 -5 39 40 29 50 -11 11 -58 6 -88 -10z"/>
<path d="M14860 9493 c0 -5 -9 -62 -20 -128 -11 -66 -20 -123 -20 -127 0 -5
13 -8 29 -8 l28 0 18 118 c9 64 19 125 21 135 4 13 -1 17 -25 17 -17 0 -31 -3
-31 -7z"/>
<path d="M17174 9368 l-20 -133 24 -3 c13 -2 26 -1 29 1 4 5 43 231 43 255 0
7 -12 12 -28 12 l-28 0 -20 -132z"/>
<path d="M17470 9449 c-16 -28 -5 -49 24 -49 32 0 53 34 35 56 -17 20 -47 17
-59 -7z"/>
<path d="M17439 9269 c-14 -28 9 -54 39 -45 22 7 37 39 27 56 -11 18 -54 11
-66 -11z"/>
<path d="M12157 8793 c-4 -3 -7 -116 -7 -250 l0 -243 45 0 44 0 3 83 3 82 41
3 c40 3 42 1 114 -83 l74 -85 53 0 c29 0 53 3 53 6 0 4 -32 43 -70 87 l-70 81
27 12 c137 59 115 266 -33 303 -47 12 -266 15 -277 4z m277 -104 c37 -29 37
-89 -1 -119 -23 -18 -38 -20 -107 -18 l-81 3 -3 64 c-2 35 -1 70 2 77 4 10 27
14 84 14 65 0 84 -4 106 -21z"/>
<path d="M12628 8789 c-22 -12 -24 -62 -4 -78 26 -22 70 -9 81 23 8 24 6 31
-14 47 -26 21 -38 23 -63 8z"/>
<path d="M15507 8793 c-4 -7 -196 -439 -214 -480 -4 -10 9 -13 46 -13 52 0 52
0 71 45 l19 45 130 0 129 0 18 -45 c17 -45 17 -45 65 -45 27 0 49 4 49 10 0 5
-48 118 -107 250 l-106 240 -48 0 c-26 0 -50 -3 -52 -7z m97 -211 c20 -46 36
-88 36 -93 0 -5 -39 -9 -86 -9 -47 0 -84 4 -82 8 59 140 84 190 89 184 4 -4
24 -45 43 -90z"/>
<path d="M18212 8793 c-44 -17 -32 -93 15 -93 40 0 56 13 56 46 0 39 -34 62
-71 47z"/>
<path d="M14200 8701 l0 -88 -47 24 c-38 19 -57 23 -92 19 -90 -12 -140 -67
-148 -164 -8 -100 53 -181 148 -197 32 -6 50 -2 90 17 45 23 49 24 49 6 0 -14
8 -18 40 -18 l40 0 0 245 0 245 -40 0 -40 0 0 -89z m-71 -132 c52 -18 77 -91
49 -142 -18 -35 -40 -46 -86 -47 -57 0 -92 35 -92 92 0 51 14 77 53 93 39 17
37 17 76 4z"/>
<path d="M16110 8699 l0 -90 -25 20 c-75 58 -195 27 -242 -63 -10 -19 -17 -55
-17 -93 0 -108 65 -175 171 -177 39 0 60 5 82 21 29 22 29 22 34 2 5 -17 12
-20 44 -17 l38 3 3 243 2 242 -45 0 -45 0 0 -91z m-65 -133 c41 -17 55 -42 55
-96 0 -58 -33 -90 -94 -90 -37 0 -48 5 -70 31 -53 63 -14 160 67 168 4 1 23
-5 42 -13z"/>
<path d="M17062 8548 l3 -243 42 -3 42 -3 3 77 3 77 64 -77 c63 -76 64 -76
112 -76 27 0 49 3 49 6 0 4 -21 32 -47 62 -27 30 -60 70 -76 88 l-27 33 65 74
c36 41 65 77 65 81 0 3 -22 6 -49 6 -48 0 -50 -1 -103 -66 l-53 -66 -3 136 -3
136 -44 0 -45 0 2 -242z"/>
<path d="M13573 8743 c-32 -4 -33 -6 -33 -49 0 -42 -1 -44 -30 -44 -28 0 -30
-2 -30 -40 0 -38 2 -40 30 -40 l30 0 0 -85 c0 -137 32 -185 121 -185 72 0 79
5 66 46 -9 29 -15 34 -42 34 -47 0 -55 15 -55 107 l0 83 45 0 45 0 0 40 0 40
-45 0 -45 0 0 50 c0 34 -4 49 -12 48 -7 0 -28 -3 -45 -5z"/>
<path d="M12833 8641 c-122 -57 -60 -201 88 -201 14 0 34 -6 45 -14 15 -12 17
-18 8 -33 -17 -27 -86 -29 -135 -3 l-40 20 -19 -22 c-11 -13 -19 -28 -20 -35
0 -22 70 -55 129 -60 106 -10 171 33 171 112 0 68 -33 97 -127 110 -28 4 -60
13 -70 21 -17 13 -17 15 6 34 28 24 50 25 98 5 36 -15 38 -15 55 7 23 30 23
35 -7 54 -39 26 -132 28 -182 5z"/>
<path d="M13214 8649 c-40 -11 -90 -67 -105 -118 -23 -79 11 -174 77 -213 64
-38 172 -32 226 12 l23 19 -25 25 c-25 26 -26 26 -67 10 -54 -21 -105 -12
-134 24 l-21 27 134 5 133 5 3 29 c9 72 -37 151 -101 175 -33 13 -99 13 -143
0z m134 -85 c12 -8 22 -22 22 -30 0 -11 -18 -14 -85 -14 -47 0 -85 3 -85 8 1
44 101 69 148 36z"/>
<path d="M14447 8646 c-49 -18 -64 -32 -88 -77 -27 -54 -25 -142 4 -194 26
-47 92 -85 147 -85 19 0 54 11 78 25 40 23 42 23 42 4 0 -16 7 -19 40 -19 l40
0 0 175 0 175 -40 0 c-34 0 -40 -3 -40 -20 0 -20 0 -20 -29 1 -36 27 -104 33
-154 15z m144 -95 c56 -57 30 -162 -44 -176 -69 -13 -122 35 -121 109 1 31 8
46 33 68 43 39 92 38 132 -1z"/>
<path d="M14939 8651 c-14 -5 -38 -16 -52 -26 -26 -17 -27 -17 -27 4 0 18 -6
21 -40 21 l-40 0 0 -176 0 -175 43 3 42 3 5 112 c6 131 18 153 82 153 67 0 78
-21 78 -155 l0 -115 46 0 46 0 -3 129 c-4 112 -7 133 -25 157 -42 56 -101 81
-155 65z"/>
<path d="M16767 8646 c-50 -19 -76 -42 -98 -91 -51 -111 14 -240 130 -260 157
-26 265 151 176 287 -43 64 -133 92 -208 64z m98 -78 c73 -33 70 -160 -3 -186
-67 -23 -122 19 -122 92 0 79 60 124 125 94z"/>
<path d="M17517 8645 c-81 -28 -112 -84 -105 -191 5 -76 25 -109 89 -142 54
-28 116 -25 161 8 l29 22 6 -21 c4 -17 13 -21 44 -21 l39 0 0 175 0 175 -40 0
c-26 0 -43 -5 -46 -15 -5 -12 -12 -11 -42 5 -43 23 -82 25 -135 5z m145 -92
c25 -25 34 -85 18 -123 -35 -85 -162 -70 -185 22 -10 39 12 96 43 113 34 19
99 13 124 -12z"/>
<path d="M17920 8649 c-125 -50 -92 -185 50 -205 68 -9 80 -14 80 -33 0 -44
-72 -55 -140 -21 l-39 20 -20 -29 c-20 -27 -20 -29 -3 -44 49 -44 152 -60 215
-33 50 21 72 52 72 102 0 62 -31 91 -115 106 -70 12 -96 28 -87 51 9 24 60 30
103 12 36 -15 38 -14 61 7 12 12 23 25 23 30 0 5 -19 18 -42 28 -46 21 -118
25 -158 9z"/>
<path d="M12612 8478 l3 -173 43 -3 42 -3 0 175 0 176 -45 0 -45 0 2 -172z"/>
<path d="M16280 8558 c21 -51 54 -129 72 -173 l34 -80 48 0 48 0 69 164 c38
90 69 167 69 172 0 5 -20 9 -44 9 l-43 0 -30 -72 c-17 -40 -39 -98 -48 -128
l-18 -55 -17 40 c-9 22 -32 79 -51 128 l-34 87 -47 0 -47 0 39 -92z"/>
<path d="M18190 8475 l0 -175 45 0 45 0 0 175 0 175 -45 0 -45 0 0 -175z"/>
<path d="M12279 7601 c-21 -16 -22 -22 -11 -45 8 -19 19 -26 40 -26 52 0 70
46 30 74 -28 20 -31 20 -59 -3z"/>
<path d="M15188 7613 c-23 -6 -34 -49 -17 -69 7 -9 24 -14 43 -12 26 3 32 8
34 33 3 26 -19 58 -37 54 -3 -1 -14 -3 -23 -6z"/>
<path d="M16132 7609 c-18 -7 -23 -15 -20 -35 4 -34 27 -49 61 -40 22 5 27 12
27 36 0 19 -7 33 -19 40 -23 12 -19 12 -49 -1z"/>
<path d="M17593 7609 c-43 -16 -24 -79 23 -79 28 0 46 23 42 51 -4 26 -35 40
-65 28z"/>
<path d="M10211 7586 c-15 -18 -3 -46 20 -46 25 0 35 26 19 45 -15 19 -24 19
-39 1z"/>
<path d="M8330 7415 c0 -168 1 -175 20 -175 19 0 20 7 20 175 0 168 -1 175
-20 175 -19 0 -20 -7 -20 -175z"/>
<path d="M9367 7584 c-4 -4 -7 -83 -7 -176 l0 -168 25 0 c23 0 25 3 25 53 l1
52 47 -53 c37 -40 54 -52 77 -52 l29 0 -35 38 c-19 20 -45 49 -59 65 l-24 27
57 58 c31 32 57 61 57 65 0 4 -11 7 -24 7 -16 0 -40 -18 -75 -55 l-50 -56 -3
98 c-2 79 -6 98 -18 101 -9 1 -19 0 -23 -4z"/>
<path d="M12410 7415 l0 -175 40 0 40 0 0 76 c0 91 10 114 50 114 40 0 50 -23
50 -114 l0 -76 41 0 41 0 -4 104 c-3 95 -5 107 -28 131 -21 23 -31 26 -70 23
-25 -3 -53 -8 -62 -12 -16 -7 -18 -2 -18 48 l0 56 -40 0 -40 0 0 -175z"/>
<path d="M18347 7584 c-4 -4 -7 -83 -7 -176 l0 -168 44 0 45 0 3 46 3 47 33
-47 c32 -44 35 -46 83 -46 l50 0 -26 33 c-14 17 -38 47 -52 64 l-25 33 52 65
52 65 -51 0 c-48 0 -51 -2 -83 -46 l-33 -46 -5 88 -5 89 -35 3 c-20 2 -39 0
-43 -4z"/>
<path d="M19294 7580 c-30 -12 -64 -58 -64 -86 0 -21 5 -24 35 -24 29 0 37 5
45 25 11 28 41 33 60 10 22 -27 1 -68 -71 -137 -55 -54 -69 -73 -69 -98 l0
-30 115 0 115 0 0 35 0 35 -57 0 -57 0 41 43 c68 70 87 125 62 181 -21 45
-100 68 -155 46z"/>
<path d="M19810 7524 c0 -66 0 -67 -19 -50 -28 25 -91 31 -128 13 -39 -21 -53
-39 -64 -84 -25 -113 77 -204 174 -155 29 16 37 17 37 6 0 -8 10 -14 25 -14
l25 0 -2 173 c-3 170 -3 172 -25 175 -22 3 -23 0 -23 -64z m-25 -89 c37 -36
35 -97 -4 -136 -39 -38 -74 -38 -113 1 -28 28 -30 36 -25 78 6 55 33 82 84 82
23 0 42 -8 58 -25z"/>
<path d="M7688 7564 c-5 -4 -8 -79 -8 -166 l0 -158 77 0 c101 0 153 24 182 84
12 23 21 58 21 77 0 49 -39 120 -78 142 -34 20 -181 36 -194 21z m193 -72 c24
-26 29 -42 29 -82 0 -91 -31 -125 -124 -136 l-56 -7 0 133 0 132 61 -4 c54 -4
66 -9 90 -36z"/>
<path d="M11540 7405 l0 -165 95 0 95 0 0 30 c0 30 -1 30 -55 30 l-55 0 0 135
0 135 -40 0 -40 0 0 -165z"/>
<path d="M12097 7564 c-4 -4 -7 -20 -7 -36 0 -18 -5 -28 -15 -28 -10 0 -15
-11 -15 -35 0 -24 5 -35 15 -35 11 0 15 -13 15 -54 0 -64 16 -113 40 -126 10
-6 37 -10 59 -10 40 0 41 1 41 35 0 31 -3 35 -25 35 -24 0 -25 3 -25 60 0 57
1 60 25 60 22 0 25 4 25 35 0 30 -3 35 -24 35 -21 0 -25 6 -28 33 -3 29 -7 32
-38 35 -20 2 -39 0 -43 -4z"/>
<path d="M13450 7406 l0 -166 45 0 44 0 3 66 3 66 48 -66 49 -66 50 0 c39 0
48 3 41 13 -118 151 -116 148 -105 170 6 12 34 50 63 85 l51 62 -49 0 c-49 0
-50 0 -99 -65 l-49 -66 -5 63 -5 63 -42 3 -43 3 0 -165z"/>
<path d="M17280 7535 c0 -35 0 -35 45 -35 l45 0 0 -130 0 -130 40 0 40 0 0
129 0 130 43 3 c39 3 42 5 45 36 l3 32 -130 0 -131 0 0 -35z"/>
<path d="M18967 7563 c-4 -3 -7 -19 -7 -35 0 -18 -5 -28 -15 -28 -10 0 -15
-11 -15 -35 0 -23 5 -35 14 -35 10 0 15 -20 18 -76 4 -92 23 -114 95 -114 44
0 44 0 41 32 -2 25 -9 34 -28 38 -23 5 -25 11 -28 62 -3 55 -2 57 25 60 23 2
29 8 31 36 3 30 1 32 -27 32 -29 0 -31 3 -31 35 0 33 -2 35 -33 35 -19 0 -37
-3 -40 -7z"/>
<path d="M10650 7530 c0 -20 -5 -30 -15 -30 -8 0 -15 -9 -15 -20 0 -11 7 -20
15 -20 12 0 15 -17 15 -93 0 -108 11 -127 73 -127 47 0 50 23 5 36 l-33 10 -3
87 -3 87 36 0 c28 0 35 4 35 20 0 16 -7 20 -35 20 -32 0 -35 2 -35 30 0 23 -4
30 -20 30 -16 0 -20 -7 -20 -30z"/>
<path d="M21580 7530 c0 -20 -5 -30 -15 -30 -8 0 -15 -9 -15 -20 0 -11 7 -20
15 -20 12 0 15 -17 15 -93 0 -108 11 -127 73 -127 47 0 50 23 5 36 l-33 10 -3
87 -3 87 36 0 c28 0 35 4 35 20 0 16 -7 20 -35 20 -32 0 -35 2 -35 30 0 23 -4
30 -20 30 -16 0 -20 -7 -20 -30z"/>
<path d="M11830 7496 c-47 -15 -80 -66 -80 -123 0 -101 74 -162 155 -129 19 8
35 11 35 5 0 -5 20 -9 45 -9 l45 0 0 130 0 130 -45 0 c-25 0 -45 -5 -45 -11 0
-5 -5 -7 -10 -4 -28 17 -68 22 -100 11z m98 -78 c7 -7 12 -28 12 -48 0 -43
-14 -60 -51 -60 -29 0 -59 31 -59 60 0 9 7 26 16 38 17 24 62 30 82 10z"/>
<path d="M12785 7496 c-48 -21 -68 -51 -73 -110 -6 -70 17 -118 66 -142 34
-16 40 -16 79 -2 24 9 43 12 43 7 0 -5 20 -9 45 -9 l45 0 0 130 0 130 -45 0
c-25 0 -45 -4 -45 -9 0 -6 -16 -3 -35 5 -41 17 -42 17 -80 0z m105 -85 c14
-26 13 -74 -2 -89 -32 -32 -98 0 -98 46 0 54 76 87 100 43z"/>
<path d="M13856 7500 c-39 -12 -73 -46 -87 -87 -34 -103 65 -206 164 -174 34
12 87 61 87 82 0 16 -67 10 -99 -8 -34 -20 -63 -11 -69 21 -3 14 9 16 89 16
l92 0 -7 40 c-3 23 -12 49 -18 59 -25 41 -101 66 -152 51z m65 -70 c32 -18 21
-30 -26 -30 -47 0 -58 12 -27 29 22 13 29 13 53 1z"/>
<path d="M14205 7503 c-11 -3 -28 -12 -37 -21 -16 -14 -18 -14 -18 1 0 13 -9
17 -40 17 l-40 0 0 -195 0 -195 40 0 40 0 0 74 0 74 43 -16 c39 -14 45 -14 78
2 19 9 43 29 52 45 22 38 22 124 0 161 -23 40 -75 63 -118 53z m39 -89 c9 -8
16 -28 16 -44 0 -16 -7 -36 -16 -44 -22 -23 -71 -20 -84 3 -25 48 -1 101 45
101 13 0 31 -7 39 -16z"/>
<path d="M14463 7500 c-61 -14 -93 -61 -93 -133 0 -86 73 -147 159 -131 38 8
91 53 91 78 0 21 -73 22 -90 1 -16 -19 -44 -19 -64 1 -29 28 -17 34 74 34 l90
0 0 33 c0 36 -30 91 -57 105 -29 16 -76 21 -110 12z m71 -76 c9 -8 16 -17 16
-20 0 -2 -23 -4 -52 -4 -50 0 -51 0 -33 20 22 24 48 26 69 4z"/>
<path d="M15935 7503 c-11 -3 -28 -12 -37 -21 -16 -14 -18 -14 -18 1 0 13 -9
17 -40 17 l-40 0 0 -195 0 -195 40 0 40 0 0 75 c0 41 2 75 3 75 2 0 19 -7 37
-17 30 -14 38 -15 74 -2 51 18 80 65 80 128 -1 92 -62 151 -139 134z m39 -89
c18 -18 21 -56 6 -85 -13 -23 -62 -26 -84 -3 -36 35 -10 104 39 104 13 0 31
-7 39 -16z"/>
<path d="M16620 7492 c-48 -23 -72 -73 -67 -135 5 -61 32 -98 84 -116 35 -13
43 -12 74 3 21 10 35 13 37 6 2 -5 21 -10 43 -10 l39 0 0 130 0 130 -39 0
c-22 0 -41 -5 -43 -10 -2 -7 -16 -5 -40 5 -46 19 -45 19 -88 -3z m120 -94 c13
-25 13 -31 0 -55 -17 -31 -62 -42 -86 -22 -17 14 -19 80 -2 97 22 22 71 10 88
-20z"/>
<path d="M18080 7492 c-48 -23 -72 -73 -67 -135 5 -61 32 -98 84 -116 35 -13
43 -12 73 2 41 21 40 21 40 -1 0 -51 -55 -78 -96 -47 -18 13 -94 21 -94 10 0
-4 7 -19 15 -35 20 -40 63 -60 125 -60 43 0 55 5 88 34 l37 34 3 161 3 161
-40 0 c-28 0 -41 -4 -41 -14 0 -11 -8 -10 -37 5 -46 23 -49 23 -93 1z m119
-96 c19 -41 -2 -80 -45 -84 -37 -4 -57 17 -57 58 0 41 20 62 57 58 23 -2 35
-11 45 -32z"/>
<path d="M8058 7484 c-38 -20 -58 -63 -58 -123 0 -61 32 -105 90 -122 33 -10
44 -9 79 8 32 16 41 17 41 7 0 -8 10 -14 25 -14 l25 0 0 130 c0 125 -1 130
-21 130 -12 0 -23 -8 -26 -20 -5 -20 -5 -20 -30 0 -30 24 -86 26 -125 4z m127
-49 c19 -18 25 -35 25 -67 0 -24 -6 -50 -13 -59 -32 -42 -90 -47 -129 -12 -38
34 -31 129 11 153 31 18 81 11 106 -15z"/>
<path d="M8488 7484 c-38 -20 -58 -63 -58 -123 0 -61 32 -105 90 -122 33 -10
44 -9 79 8 32 16 41 17 41 7 0 -8 11 -14 25 -14 l26 0 -3 127 c-3 114 -5 128
-21 131 -12 3 -20 -4 -24 -17 -5 -21 -5 -21 -30 -1 -30 24 -86 26 -125 4z
m127 -49 c19 -18 25 -35 25 -67 0 -24 -6 -50 -13 -59 -32 -42 -90 -47 -129
-12 -21 19 -33 72 -23 102 19 61 96 81 140 36z"/>
<path d="M8760 7370 c0 -123 1 -130 20 -130 18 0 20 7 20 81 0 109 16 139 76
139 52 0 64 -24 64 -128 0 -91 0 -92 25 -92 25 0 25 1 25 90 0 102 15 130 70
130 55 0 70 -28 70 -130 0 -83 1 -90 20 -90 19 0 20 7 20 101 0 98 -1 101 -29
130 -39 39 -96 40 -140 4 -24 -21 -31 -23 -38 -12 -21 37 -85 47 -133 22 -27
-14 -30 -14 -30 0 0 8 -9 15 -20 15 -19 0 -20 -7 -20 -130z"/>
<path d="M9652 7483 c-94 -46 -79 -207 23 -241 21 -7 52 -10 67 -7 34 8 88 51
88 71 0 22 -29 17 -62 -11 -16 -14 -41 -25 -55 -25 -25 0 -83 48 -83 69 0 7
37 11 105 11 l105 0 0 26 c0 40 -30 93 -61 109 -37 19 -86 19 -127 -2z m118
-43 c40 -40 27 -50 -60 -50 l-81 0 16 29 c17 33 27 39 73 40 19 1 40 -7 52
-19z"/>
<path d="M9938 7484 c-91 -49 -72 -208 28 -243 38 -13 45 -13 85 7 23 12 44
20 46 18 9 -9 -18 -92 -33 -103 -30 -22 -82 -16 -110 12 -23 23 -64 34 -64 17
0 -19 35 -55 66 -68 43 -18 78 -18 119 2 55 26 65 61 65 228 0 136 -1 146 -19
146 -11 0 -21 -9 -24 -21 l-6 -21 -27 21 c-31 25 -86 27 -126 5z m126 -45 c22
-17 26 -28 26 -70 0 -35 -5 -54 -20 -69 -86 -86 -202 48 -118 137 27 29 76 30
112 2z"/>
<path d="M10210 7370 c0 -123 1 -130 20 -130 19 0 20 7 20 130 0 123 -1 130
-20 130 -19 0 -20 -7 -20 -130z"/>
<path d="M10369 7483 c-91 -56 -74 -207 26 -242 40 -13 56 -10 128 27 4 2 7
-3 7 -12 0 -9 8 -16 20 -16 19 0 20 7 20 130 0 123 -1 130 -20 130 -14 0 -20
-7 -20 -21 l0 -21 -34 21 c-40 25 -91 27 -127 4z m123 -43 c52 -40 40 -134
-20 -159 -43 -18 -83 -3 -105 40 -47 90 48 181 125 119z"/>
<path d="M10864 7491 c-56 -24 -87 -111 -61 -173 36 -86 131 -113 190 -53 16
15 17 15 17 -4 0 -16 6 -21 25 -21 l26 0 -3 128 c-3 123 -4 127 -25 130 -18 3
-23 -2 -23 -19 0 -21 -1 -21 -20 -4 -22 20 -95 29 -126 16z m101 -37 c22 -9
45 -57 45 -94 0 -40 -47 -90 -85 -90 -16 0 -38 12 -56 29 -74 75 -2 192 96
155z"/>
<path d="M11130 7370 c0 -123 1 -130 20 -130 19 0 20 7 20 90 0 104 15 130 73
130 55 0 67 -22 67 -128 l0 -92 26 0 26 0 -4 101 c-4 99 -4 102 -36 130 -37
33 -93 39 -130 13 -20 -14 -22 -14 -22 0 0 9 -9 16 -20 16 -19 0 -20 -7 -20
-130z"/>
<path d="M12270 7370 l0 -130 40 0 40 0 0 130 0 130 -40 0 -40 0 0 -130z"/>
<path d="M13040 7370 l0 -130 40 0 40 0 0 76 c0 90 10 114 48 114 44 0 52 -16
52 -107 l0 -83 40 0 40 0 0 99 c0 92 -2 102 -26 130 -21 25 -33 31 -66 31 -21
0 -49 -5 -61 -11 -16 -9 -22 -9 -25 0 -2 6 -21 11 -43 11 l-39 0 0 -130z"/>
<path d="M14670 7370 l0 -130 40 0 40 0 0 69 c0 93 11 121 48 121 44 0 52 -16
52 -107 l0 -83 39 0 39 0 3 85 c4 90 12 105 55 105 36 0 44 -20 44 -107 l0
-83 40 0 40 0 0 101 c0 98 -1 101 -29 130 -24 23 -38 29 -73 29 -27 0 -52 -8
-68 -19 -24 -19 -25 -19 -48 0 -28 21 -82 25 -115 8 -16 -9 -22 -9 -25 0 -2 6
-21 11 -43 11 l-39 0 0 -130z"/>
<path d="M15170 7370 l0 -130 40 0 40 0 0 130 0 130 -40 0 -40 0 0 -130z"/>
<path d="M15300 7370 l0 -130 45 0 45 0 0 83 c0 87 8 107 45 107 37 0 45 -20
45 -107 l0 -83 45 0 45 0 0 83 c0 87 8 107 45 107 37 0 45 -20 45 -107 l0 -83
45 0 45 0 0 78 c0 140 -25 182 -109 182 -32 0 -51 -6 -67 -21 l-23 -21 -22 21
c-25 23 -86 29 -120 11 -13 -7 -19 -7 -19 0 0 5 -20 10 -45 10 l-45 0 0 -130z"/>
<path d="M16117 7493 c-4 -3 -7 -62 -7 -130 l0 -123 45 0 45 0 0 130 0 130
-38 0 c-21 0 -42 -3 -45 -7z"/>
<path d="M16250 7370 l0 -130 40 0 40 0 1 68 c1 95 9 116 43 120 47 6 56 -11
56 -104 l0 -84 45 0 45 0 0 68 c-1 95 -14 153 -40 174 -25 21 -90 24 -123 7
-16 -9 -22 -9 -25 0 -2 6 -21 11 -43 11 l-39 0 0 -130z"/>
<path d="M16880 7370 l0 -130 45 0 45 0 0 84 c0 93 9 110 57 104 l28 -3 3 -92
3 -93 44 0 45 0 0 85 c0 93 -16 147 -48 164 -26 14 -87 14 -113 1 -13 -7 -19
-7 -19 0 0 5 -20 10 -45 10 l-45 0 0 -130z"/>
<path d="M17577 7494 c-4 -4 -7 -63 -7 -131 l0 -123 45 0 46 0 -3 128 -3 127
-35 3 c-20 2 -39 0 -43 -4z"/>
<path d="M17710 7370 l0 -130 40 0 40 0 0 69 c0 93 11 121 48 121 44 0 52 -16
52 -107 l0 -83 40 0 40 0 0 95 c0 100 -13 147 -45 159 -26 10 -85 7 -108 -5
-16 -9 -22 -9 -25 0 -2 6 -21 11 -43 11 l-39 0 0 -130z"/>
<path d="M18659 7472 c-26 -23 -33 -38 -37 -80 -6 -65 1 -93 33 -124 33 -34
79 -42 119 -23 19 10 32 12 34 5 2 -5 21 -10 43 -10 l39 0 0 130 0 130 -40 0
c-31 0 -40 -4 -40 -17 0 -15 -1 -15 -18 0 -30 28 -96 22 -133 -11z m141 -61
c14 -26 13 -74 -2 -89 -20 -20 -76 -15 -88 7 -15 29 -12 67 6 85 22 23 71 20
84 -3z"/>
<path d="M19985 7490 c-62 -25 -91 -112 -62 -182 21 -49 58 -72 118 -72 40 0
54 5 79 29 16 16 30 35 30 42 0 21 -31 15 -56 -12 -14 -16 -34 -25 -52 -25
-36 0 -82 34 -82 61 0 17 8 19 100 19 l100 0 0 30 c0 87 -92 145 -175 110z
m102 -45 c11 -8 23 -24 26 -35 5 -19 1 -20 -74 -20 -64 0 -79 3 -79 15 0 46
82 72 127 40z"/>
<path d="M20220 7370 c0 -123 1 -130 20 -130 19 0 20 7 20 90 0 104 15 130 73
130 55 0 67 -22 67 -128 0 -91 0 -92 25 -92 25 0 25 1 25 86 0 97 -16 145 -56
163 -35 16 -86 14 -112 -5 -20 -14 -22 -14 -22 0 0 9 -9 16 -20 16 -19 0 -20
-7 -20 -130z"/>
<path d="M20559 7483 c-91 -56 -74 -207 27 -242 38 -13 45 -13 85 7 23 12 45
20 47 17 10 -10 -11 -78 -29 -96 -28 -28 -84 -25 -115 6 -31 31 -64 34 -57 5
21 -80 178 -91 223 -17 17 28 20 51 20 185 0 145 -1 152 -20 152 -13 0 -20 -7
-20 -20 0 -20 0 -20 -32 0 -40 24 -94 25 -129 3z m127 -46 c51 -44 29 -148
-34 -162 -44 -9 -81 10 -98 51 -40 95 56 176 132 111z"/>
<path d="M20869 7477 c-92 -61 -61 -221 47 -242 26 -4 46 -1 75 14 32 17 39
18 39 6 0 -9 10 -15 25 -15 l26 0 -3 127 c-3 114 -5 128 -21 131 -12 3 -20 -4
-24 -17 -5 -21 -5 -21 -30 -1 -35 27 -91 26 -134 -3z m136 -42 c37 -36 35 -97
-4 -136 -18 -17 -40 -29 -56 -29 -16 0 -38 12 -56 29 -60 61 -26 161 56 161
25 0 44 -8 60 -25z"/>
<path d="M21150 7370 c0 -123 1 -130 20 -130 19 0 20 7 20 90 0 104 15 130 73
130 55 0 67 -22 67 -128 l0 -92 26 0 26 0 -4 101 c-3 99 -3 101 -36 130 -36
33 -80 38 -124 15 -24 -13 -28 -13 -28 0 0 8 -9 14 -20 14 -19 0 -20 -7 -20
-130z"/>
<path d="M21783 7481 c-56 -35 -75 -101 -47 -170 21 -54 82 -86 139 -75 35 6
95 52 95 73 0 20 -39 11 -64 -14 -33 -33 -79 -33 -111 0 -47 47 -36 55 75 55
l100 0 0 40 c0 60 -41 101 -106 107 -37 3 -57 -1 -81 -16z m126 -47 c12 -15
21 -31 21 -35 0 -5 -36 -9 -80 -9 -87 0 -96 7 -58 47 31 33 90 32 117 -3z"/>
<path d="M22030 7370 c0 -123 1 -130 20 -130 18 0 20 7 20 84 0 100 19 136 74
136 54 0 66 -23 66 -128 0 -91 0 -92 25 -92 25 0 25 1 25 88 0 105 13 132 66
132 59 0 74 -25 74 -130 0 -83 1 -90 20 -90 19 0 20 7 20 101 0 98 -1 101 -29
130 -39 39 -96 40 -140 3 -17 -14 -31 -21 -31 -15 0 15 -54 41 -85 41 -14 0
-39 -7 -55 -15 -27 -14 -30 -14 -30 0 0 8 -9 15 -20 15 -19 0 -20 -7 -20 -130z"/>
<path d="M22570 7493 c-56 -22 -88 -96 -70 -162 22 -82 99 -119 171 -82 32 17
39 18 39 6 0 -9 10 -15 25 -15 l26 0 -3 128 c-3 123 -4 127 -25 130 -18 3 -23
-2 -23 -19 0 -21 -1 -21 -20 -4 -20 18 -93 29 -120 18z m95 -39 c22 -9 45 -57
45 -94 0 -40 -47 -90 -85 -90 -16 0 -38 12 -56 29 -74 75 -2 192 96 155z"/>
<path d="M6631 6876 c-15 -18 -3 -46 19 -46 24 0 33 15 25 40 -7 23 -28 26
-44 6z"/>
<path d="M6775 6865 c-14 -13 -25 -36 -25 -50 0 -16 -6 -25 -15 -25 -8 0 -15
-9 -15 -20 0 -11 7 -20 15 -20 12 0 15 -19 15 -110 0 -103 1 -110 20 -110 18
0 20 8 22 107 3 105 4 107 28 113 14 3 26 14 28 23 3 13 -4 17 -28 17 -25 0
-31 3 -26 16 3 9 6 20 6 25 0 5 11 14 25 19 14 5 25 16 25 25 0 24 -48 18 -75
-10z"/>
<path d="M9194 6875 c-9 -23 3 -45 25 -45 23 0 35 28 20 46 -15 18 -38 18 -45
-1z"/>
<path d="M9630 6875 c-17 -20 -5 -45 20 -45 11 0 23 7 26 15 6 15 -11 45 -26
45 -4 0 -13 -7 -20 -15z"/>
<path d="M9080 6820 l0 -61 -30 16 c-16 8 -48 15 -71 15 -33 0 -47 -6 -75 -34
-30 -30 -34 -40 -34 -85 0 -89 42 -141 113 -141 21 0 51 7 67 15 27 14 30 14
30 0 0 -9 9 -15 25 -15 l25 0 0 175 0 175 -25 0 c-24 0 -25 -3 -25 -60z m-21
-96 c47 -60 13 -154 -55 -154 -20 0 -43 4 -53 10 -46 24 -51 125 -8 155 35 25
92 19 116 -11z"/>
<path d="M9510 6820 l0 -61 -30 16 c-48 25 -105 19 -141 -13 -56 -50 -51 -165
9 -212 30 -24 91 -26 132 -5 27 14 30 14 30 0 0 -9 9 -15 25 -15 l25 0 0 175
0 175 -25 0 c-24 0 -25 -3 -25 -60z m-21 -96 c47 -60 13 -154 -55 -154 -20 0
-43 4 -53 10 -46 24 -51 125 -8 155 35 25 92 19 116 -11z"/>
<path d="M9740 6705 l0 -175 25 0 c23 0 25 3 25 53 l1 52 49 -53 c39 -42 56
-53 75 -50 l25 3 -26 30 c-15 17 -41 44 -57 62 l-30 32 58 65 c57 66 57 66 29
66 -22 0 -40 -12 -76 -52 l-47 -53 -1 98 c0 97 0 97 -25 97 l-25 0 0 -175z"/>
<path d="M11040 6705 c0 -168 1 -175 20 -175 14 0 20 7 20 21 l0 20 26 -20
c33 -26 95 -28 135 -4 30 18 59 76 59 119 0 40 -30 93 -61 109 -41 22 -101 19
-133 -6 l-26 -20 0 65 c0 59 -2 66 -20 66 -19 0 -20 -7 -20 -175z m187 23 c30
-29 32 -94 2 -132 -16 -20 -29 -26 -60 -26 -61 0 -100 53 -85 115 16 64 96 88
143 43z"/>
<path d="M11870 6814 l0 -65 -26 20 c-30 23 -88 28 -127 10 -30 -13 -67 -77
-67 -113 0 -40 24 -90 55 -114 37 -29 103 -30 139 -1 l26 20 0 -20 c0 -14 6
-21 20 -21 19 0 20 7 20 175 0 168 -1 175 -20 175 -18 0 -20 -7 -20 -66z m-33
-79 c43 -30 38 -131 -8 -155 -10 -6 -33 -10 -53 -10 -45 0 -76 37 -76 90 0 54
31 90 79 90 20 0 46 -7 58 -15z"/>
<path d="M12164 6871 c-28 -12 -64 -59 -64 -82 0 -26 37 -25 45 1 17 54 82 69
111 25 31 -47 12 -89 -77 -175 -43 -43 -79 -85 -79 -94 0 -14 15 -16 110 -16
103 0 110 1 110 20 0 18 -7 20 -77 20 l-78 0 52 48 c66 60 93 106 93 159 0 57
-31 93 -85 98 -22 3 -50 1 -61 -4z"/>
<path d="M16844 6867 c-2 -7 -3 -85 -2 -172 3 -157 3 -160 26 -163 l22 -3 0
175 c0 170 -1 176 -20 176 -11 0 -23 -6 -26 -13z"/>
<path d="M17250 6705 c0 -168 1 -175 20 -175 17 0 20 7 20 50 0 28 4 50 8 50
5 0 28 -22 51 -50 33 -40 48 -50 72 -50 l31 0 -56 62 c-31 34 -56 65 -56 69 0
4 25 35 56 68 l56 61 -30 0 c-25 0 -39 -10 -73 -50 -23 -27 -46 -50 -51 -50
-4 0 -8 43 -8 95 0 88 -1 95 -20 95 -19 0 -20 -7 -20 -175z"/>
<path d="M18270 6705 l0 -175 25 0 25 0 0 175 0 175 -25 0 -25 0 0 -175z"/>
<path d="M19160 6705 c0 -168 1 -175 20 -175 19 0 20 7 20 175 0 168 -1 175
-20 175 -19 0 -20 -7 -20 -175z"/>
<path d="M21340 6705 c0 -168 1 -175 20 -175 18 0 20 7 20 58 l0 57 53 -58
c41 -45 58 -57 81 -57 29 0 28 1 -34 66 l-63 65 64 65 63 64 -31 0 c-26 0 -41
-10 -82 -57 l-51 -58 0 103 c0 95 -1 102 -20 102 -19 0 -20 -7 -20 -175z"/>
<path d="M23350 6705 c0 -168 1 -175 20 -175 11 0 20 7 20 15 0 19 11 19 36 0
26 -19 99 -19 130 1 71 47 72 179 2 228 -28 20 -107 20 -132 1 -32 -24 -36
-18 -36 45 0 53 -2 60 -20 60 -19 0 -20 -7 -20 -175z m190 25 c59 -59 23 -160
-57 -160 -54 0 -83 31 -83 89 0 59 28 91 82 91 25 0 45 -7 58 -20z"/>
<path d="M23980 6706 l0 -176 25 0 c25 0 25 0 25 93 0 106 13 130 72 130 53 0
68 -30 68 -134 0 -82 1 -89 20 -89 19 0 20 7 20 99 0 92 -2 102 -26 130 -22
27 -32 31 -74 31 -32 0 -52 -5 -61 -17 -12 -14 -15 -9 -19 43 -4 52 -8 59 -27
62 l-23 3 0 -175z"/>
<path d="M12360 6850 c0 -13 7 -20 20 -20 19 0 20 -7 20 -150 l0 -150 25 0 25
0 0 170 0 170 -45 0 c-38 0 -45 -3 -45 -20z"/>
<path d="M5434 6813 c-11 -27 -20 -51 -22 -55 -2 -5 7 -8 21 -8 21 0 26 7 36
44 14 58 14 66 -3 66 -7 0 -22 -21 -32 -47z"/>
<path d="M5510 6814 c-25 -58 -25 -64 0 -64 21 0 32 19 45 78 11 51 -20 41
-45 -14z"/>
<path d="M5610 6694 l0 -165 23 3 c21 3 22 8 27 111 l5 108 49 -111 c33 -74
54 -110 65 -110 11 0 32 38 66 116 l50 115 3 -115 c2 -108 4 -116 22 -116 19
0 20 8 20 166 0 164 0 165 -22 162 -17 -2 -33 -28 -77 -130 -31 -70 -59 -128
-62 -128 -3 0 -32 59 -64 130 -51 113 -61 130 -82 130 l-23 0 0 -166z"/>
<path d="M8020 6696 l0 -166 25 0 c24 0 25 2 25 70 l0 70 54 0 c44 0 60 5 85
26 40 33 43 89 7 131 -23 26 -31 28 -110 32 l-86 3 0 -166z m162 107 c10 -9
18 -26 18 -38 0 -37 -22 -55 -77 -62 l-53 -6 0 62 0 61 47 0 c29 0 53 -6 65
-17z"/>
<path d="M10815 6843 c-6 -15 -50 -135 -101 -275 -13 -37 -13 -38 11 -38 18 0
26 8 35 35 l12 35 73 0 73 0 12 -35 c9 -27 17 -35 36 -35 22 0 23 2 13 28 -6
15 -30 81 -54 147 -24 66 -46 128 -50 138 -4 9 -17 17 -30 17 -13 0 -26 -8
-30 -17z m53 -105 c39 -106 41 -98 -23 -98 -54 0 -56 1 -49 23 13 44 46 127
49 127 2 0 12 -24 23 -52z"/>
<path d="M13000 6695 c0 -157 1 -165 20 -165 17 0 19 8 22 68 l3 67 63 5 c54
4 67 9 88 33 25 30 31 75 14 108 -18 33 -64 49 -140 49 l-70 0 0 -165z m158
113 c17 -17 15 -73 -3 -88 -8 -6 -36 -12 -62 -13 l-48 -2 -3 58 -3 57 54 0
c29 0 58 -5 65 -12z"/>
<path d="M14470 6695 l0 -165 25 0 c24 0 25 2 25 72 l0 72 66 -72 c47 -51 73
-72 90 -72 33 0 30 10 -17 55 -22 22 -54 56 -69 76 l-29 36 71 79 c65 73 69
79 47 83 -19 2 -38 -12 -91 -70 l-68 -74 0 73 c0 70 -1 72 -25 72 l-25 0 0
-165z"/>
<path d="M15970 6695 l0 -165 25 0 25 0 0 165 0 165 -25 0 -25 0 0 -165z"/>
<path d="M18510 6696 l0 -166 78 0 c102 1 153 23 183 81 26 52 23 135 -7 176
-42 56 -69 68 -165 71 l-89 4 0 -166z m181 107 c34 -20 54 -64 53 -116 -3 -79
-46 -117 -134 -117 l-50 0 0 125 0 125 51 0 c30 0 63 -7 80 -17z"/>
<path d="M20260 6838 c-58 -40 -75 -72 -75 -143 0 -69 15 -99 69 -139 39 -30
143 -30 183 0 37 28 62 71 65 114 l3 35 -87 3 c-83 3 -88 2 -88 -18 0 -18 6
-20 66 -20 63 0 65 -1 59 -22 -4 -13 -20 -35 -36 -50 -62 -58 -169 -23 -188
62 -19 87 33 160 115 160 37 0 51 -5 76 -30 30 -31 68 -40 68 -17 0 15 -45 59
-77 76 -38 19 -116 14 -153 -11z"/>
<path d="M22320 6695 c0 -158 1 -165 20 -165 18 0 20 7 20 70 l0 70 59 0 c44
0 65 5 84 20 55 43 40 136 -24 159 -18 6 -61 11 -95 11 l-64 0 0 -165z m158
113 c17 -17 15 -73 -4 -89 -9 -7 -37 -13 -62 -13 l-47 -1 -3 58 -3 57 54 0
c29 0 58 -5 65 -12z"/>
<path d="M24891 6816 c-14 -58 -14 -66 4 -66 8 0 15 2 15 5 0 2 9 27 20 55
l20 50 -24 0 c-20 0 -26 -8 -35 -44z"/>
<path d="M24977 6853 c-2 -5 -7 -21 -11 -38 -4 -16 -9 -38 -12 -47 -3 -12 0
-18 10 -18 13 0 56 77 56 101 0 11 -37 12 -43 2z"/>
<path d="M7440 6820 c0 -20 -5 -30 -15 -30 -8 0 -15 -9 -15 -20 0 -11 7 -20
15 -20 12 0 15 -17 15 -90 0 -105 14 -130 75 -130 28 0 35 4 35 20 0 15 -7 20
-29 20 -36 0 -41 12 -41 106 l0 74 35 0 c28 0 35 4 35 20 0 16 -7 20 -35 20
-32 0 -35 2 -35 30 0 23 -4 30 -20 30 -16 0 -20 -7 -20 -30z"/>
<path d="M16398 6820 c4 -25 1 -30 -17 -30 -27 0 -28 -26 -1 -40 17 -9 19 -20
17 -94 -2 -101 12 -126 75 -126 31 0 38 4 38 19 0 15 -8 21 -32 23 l-33 3 -3
87 -3 87 33 3 c22 2 34 9 36 21 3 14 -4 17 -32 17 -33 0 -36 2 -36 30 0 25 -4
30 -23 30 -20 0 -23 -4 -19 -30z"/>
<path d="M17500 6820 c0 -20 -5 -30 -15 -30 -8 0 -15 -9 -15 -20 0 -11 7 -20
15 -20 12 0 15 -17 15 -90 0 -105 14 -130 75 -130 28 0 35 4 35 20 0 15 -7 20
-29 20 -36 0 -41 12 -41 106 l0 74 35 0 c28 0 35 4 35 20 0 16 -7 20 -35 20
-32 0 -35 2 -35 30 0 23 -4 30 -20 30 -16 0 -20 -7 -20 -30z"/>
<path d="M6052 6774 c-70 -49 -69 -181 2 -228 31 -20 104 -20 130 -1 25 19 36
19 36 0 0 -8 9 -15 20 -15 19 0 20 7 20 130 0 123 -1 130 -20 130 -11 0 -20
-7 -20 -15 0 -19 -11 -19 -36 0 -25 19 -104 19 -132 -1z m135 -46 c32 -30 32
-102 1 -135 -23 -25 -74 -31 -108 -13 -23 12 -44 73 -36 106 16 63 96 86 143
42z"/>
<path d="M6330 6660 c0 -123 1 -130 20 -130 18 0 20 7 20 80 0 43 5 90 11 104
15 31 61 49 95 36 33 -13 44 -47 44 -141 0 -73 1 -79 21 -79 20 0 21 4 17 106
-3 102 -4 107 -31 130 -33 28 -100 33 -135 8 -20 -14 -22 -14 -22 0 0 9 -9 16
-20 16 -19 0 -20 -7 -20 -130z"/>
<path d="M6630 6660 c0 -123 1 -130 20 -130 19 0 20 7 20 130 0 123 -1 130
-20 130 -19 0 -20 -7 -20 -130z"/>
<path d="M6939 6775 c-52 -28 -74 -116 -44 -179 32 -68 136 -89 194 -40 17 14
31 32 31 40 0 19 -34 18 -51 -2 -41 -50 -139 -25 -139 35 0 7 36 11 100 11
l100 0 0 41 c0 33 -6 47 -34 75 -30 30 -40 34 -82 34 -27 -1 -61 -7 -75 -15z
m129 -51 c12 -14 22 -29 22 -35 0 -5 -36 -9 -80 -9 -83 0 -89 4 -69 41 23 45
88 46 127 3z"/>
<path d="M7215 6778 c-27 -15 -35 -28 -35 -59 0 -34 25 -55 91 -77 70 -24 79
-62 17 -77 -21 -5 -33 -1 -53 19 -26 26 -65 35 -65 15 0 -6 13 -24 29 -40 24
-23 38 -29 74 -29 56 0 97 29 97 69 0 35 -21 54 -84 78 -55 20 -78 45 -59 64
21 21 75 15 91 -9 17 -25 52 -29 52 -7 0 9 -11 27 -25 40 -27 28 -93 34 -130
13z"/>
<path d="M7631 6764 c-92 -77 -41 -234 75 -234 56 0 99 22 119 60 20 38 19
119 -1 148 -39 57 -141 70 -193 26z m149 -41 c18 -22 21 -37 17 -73 -6 -54
-34 -80 -87 -80 -49 0 -80 35 -80 90 0 57 31 90 85 90 36 0 48 -5 65 -27z"/>
<path d="M8332 6774 c-32 -22 -52 -67 -52 -114 0 -83 49 -130 135 -130 38 0
52 5 76 29 16 16 29 34 29 40 0 19 -41 12 -60 -11 -34 -42 -119 -21 -133 33
-5 18 1 19 94 19 113 0 120 5 100 71 -8 27 -23 46 -44 59 -39 24 -114 26 -145
4z m131 -41 c9 -9 17 -24 17 -35 0 -16 -9 -18 -80 -18 -71 0 -79 2 -73 18 21
59 89 77 136 35z"/>
<path d="M8580 6660 l0 -130 25 0 c25 0 25 0 25 93 0 106 13 130 72 130 53 0
68 -30 68 -134 0 -82 1 -89 20 -89 19 0 20 7 20 104 0 98 -1 105 -26 130 -21
20 -36 26 -72 26 -28 0 -52 -6 -64 -17 -17 -15 -18 -15 -18 0 0 11 -8 17 -25
17 l-25 0 0 -130z"/>
<path d="M9200 6660 c0 -123 1 -130 20 -130 19 0 20 7 20 130 0 123 -1 130
-20 130 -19 0 -20 -7 -20 -130z"/>
<path d="M9630 6660 c0 -123 1 -130 20 -130 19 0 20 7 20 130 0 123 -1 130
-20 130 -19 0 -20 -7 -20 -130z"/>
<path d="M10022 6774 c-32 -22 -52 -67 -52 -114 0 -47 20 -92 52 -114 28 -20
90 -20 128 -1 25 13 29 13 34 0 3 -8 15 -15 26 -15 19 0 20 6 20 130 0 124 -1
130 -20 130 -11 0 -23 -7 -27 -15 -5 -14 -8 -14 -29 0 -30 20 -103 19 -132 -1z
m135 -46 c32 -30 32 -102 1 -135 -28 -30 -89 -32 -118 -3 -59 59 -23 160 57
160 24 0 45 -8 60 -22z"/>
<path d="M10300 6660 c0 -123 1 -130 20 -130 18 0 20 7 20 80 0 43 5 90 11
104 15 31 61 49 95 36 33 -13 44 -47 44 -141 0 -73 1 -79 21 -79 20 0 21 4 17
106 -3 102 -4 107 -31 130 -33 28 -100 33 -135 8 -20 -14 -22 -14 -22 0 0 9
-9 16 -20 16 -19 0 -20 -7 -20 -130z"/>
<path d="M11392 6774 c-32 -22 -52 -67 -52 -114 0 -47 20 -92 52 -114 29 -20
90 -20 128 -1 27 14 30 14 30 0 0 -9 9 -15 25 -15 l25 0 0 130 0 130 -25 0
c-16 0 -25 -6 -25 -16 0 -15 -2 -15 -25 0 -31 20 -104 21 -133 0z m135 -46
c32 -30 32 -102 1 -135 -28 -30 -89 -32 -118 -3 -59 59 -23 160 57 160 24 0
45 -8 60 -22z"/>
<path d="M12641 6772 c-8 -15 -7 -23 4 -32 21 -18 47 -4 43 22 -4 29 -34 35
-47 10z"/>
<path d="M13301 6764 c-92 -77 -41 -234 75 -234 25 0 55 5 67 11 23 12 56 48
57 62 0 13 -51 7 -56 -7 -8 -22 -60 -37 -88 -26 -23 8 -56 46 -56 62 0 5 45 8
100 8 116 0 122 5 95 76 -20 53 -54 74 -119 74 -33 0 -52 -6 -75 -26z m147
-41 c26 -36 16 -43 -68 -43 -44 0 -80 3 -80 8 0 16 33 54 53 61 28 10 78 -4
95 -26z"/>
<path d="M13560 6660 c0 -123 1 -130 20 -130 18 0 20 7 20 78 0 92 14 124 58
137 21 6 32 15 32 27 0 23 -37 24 -68 2 -20 -14 -22 -14 -22 0 0 9 -9 16 -20
16 -19 0 -20 -7 -20 -130z"/>
<path d="M13772 6774 c-32 -22 -52 -67 -52 -114 0 -47 20 -92 52 -114 28 -20
107 -21 135 -1 19 13 22 13 27 0 3 -8 15 -15 26 -15 19 0 20 6 20 130 0 124
-1 130 -20 130 -11 0 -23 -7 -26 -15 -5 -13 -8 -13 -27 0 -28 20 -107 19 -135
-1z m135 -46 c32 -30 32 -102 1 -135 -44 -47 -126 -22 -143 44 -8 31 11 90 33
103 30 17 84 11 109 -12z"/>
<path d="M14050 6660 c0 -123 1 -130 20 -130 18 0 20 7 20 74 0 76 12 125 33
138 7 4 29 8 49 8 52 0 68 -33 68 -140 0 -73 2 -80 20 -80 19 0 20 7 20 101 0
98 -1 101 -29 130 -24 23 -38 29 -73 29 -24 0 -54 -7 -66 -16 -20 -14 -22 -14
-22 0 0 9 -9 16 -20 16 -19 0 -20 -7 -20 -130z"/>
<path d="M14773 6755 c-34 -34 -35 -37 -31 -101 4 -60 7 -70 36 -95 26 -23 42
-29 78 -29 24 0 56 7 69 16 23 15 25 15 25 0 0 -10 9 -16 25 -16 l25 0 0 130
0 130 -25 0 c-16 0 -25 -6 -25 -16 0 -14 -2 -14 -22 0 -13 9 -43 16 -71 16
-43 0 -54 -5 -84 -35z m156 -31 c13 -16 21 -41 21 -64 0 -55 -31 -90 -81 -90
-61 0 -100 53 -85 115 17 67 105 90 145 39z"/>
<path d="M15063 6774 c-3 -8 -3 -54 0 -102 5 -81 7 -88 36 -114 36 -32 93 -38
129 -12 20 14 22 14 22 0 0 -10 9 -16 25 -16 l25 0 0 130 0 130 -25 0 c-25 0
-25 0 -25 -93 0 -108 -11 -127 -73 -127 -54 0 -67 25 -67 132 0 82 -1 88 -20
88 -11 0 -23 -7 -27 -16z"/>
<path d="M15370 6660 c0 -123 1 -130 20 -130 18 0 20 7 20 83 0 105 13 131 64
135 64 5 76 -14 76 -125 0 -93 0 -93 25 -93 25 0 25 0 25 93 0 111 12 130 76
125 51 -4 64 -30 64 -135 0 -76 2 -83 20 -83 19 0 20 7 20 99 0 92 -2 102 -26
130 -22 27 -32 31 -75 31 -38 0 -55 -5 -72 -22 l-22 -23 -22 23 c-27 27 -97
30 -131 6 -20 -14 -22 -14 -22 0 0 9 -9 16 -20 16 -19 0 -20 -7 -20 -130z"/>
<path d="M16090 6660 c0 -123 1 -130 20 -130 18 0 20 7 20 83 0 97 14 131 54
135 75 9 96 -22 96 -144 0 -67 2 -74 20 -74 19 0 20 7 20 90 0 97 -14 141 -49
160 -29 15 -93 12 -119 -6 -20 -14 -22 -14 -22 0 0 9 -9 16 -20 16 -19 0 -20
-7 -20 -130z"/>
<path d="M16594 6771 c-73 -45 -69 -187 7 -226 46 -24 112 -19 148 11 17 14
31 32 31 40 0 20 -30 17 -54 -5 -34 -31 -86 -31 -116 -1 -42 42 -28 50 80 50
l100 0 0 41 c0 33 -6 47 -34 75 -29 29 -41 34 -82 34 -31 0 -61 -7 -80 -19z
m129 -39 c9 -8 17 -23 17 -34 0 -16 -9 -18 -75 -18 -80 0 -88 6 -60 47 24 34
82 36 118 5z"/>
<path d="M16991 6764 c-92 -77 -41 -234 75 -234 25 0 55 5 67 11 23 12 56 48
57 62 0 15 -46 6 -63 -13 -16 -20 -32 -24 -72 -21 -20 2 -65 44 -65 61 0 5 46
11 103 12 l102 3 -2 34 c-3 72 -47 111 -127 111 -33 0 -52 -6 -75 -26z m139
-34 c40 -40 27 -50 -60 -50 -44 0 -80 4 -80 9 0 4 9 20 21 35 26 33 88 37 119
6z"/>
<path d="M17660 6689 c0 -98 1 -101 29 -130 23 -23 38 -29 71 -29 23 0 50 5
60 10 13 7 21 7 25 0 3 -5 15 -10 26 -10 18 0 19 8 19 131 0 130 0 130 -22
127 -22 -3 -23 -8 -26 -93 -3 -105 -15 -125 -73 -125 -56 0 -69 24 -69 132 0
81 -2 88 -20 88 -19 0 -20 -7 -20 -101z"/>
<path d="M17991 6764 c-92 -77 -43 -234 73 -234 29 0 52 7 70 21 l26 20 0 -20
c0 -16 6 -21 25 -21 l25 0 0 130 0 130 -25 0 c-19 0 -25 -5 -25 -21 l0 -20
-26 20 c-39 31 -104 28 -143 -5z m146 -40 c22 -22 25 -32 20 -72 -6 -55 -33
-82 -84 -82 -73 0 -111 92 -62 154 29 36 89 37 126 0z"/>
<path d="M18882 6774 c-32 -22 -52 -67 -52 -114 0 -47 20 -92 52 -114 33 -23
109 -21 142 5 l26 20 0 -20 c0 -14 6 -21 20 -21 19 0 20 7 20 130 0 123 -1
130 -20 130 -14 0 -20 -7 -20 -21 l0 -20 -26 20 c-33 26 -109 28 -142 5z m133
-41 c24 -24 35 -59 29 -92 -19 -94 -145 -97 -169 -4 -8 31 11 90 33 103 27 15
89 12 107 -7z"/>
<path d="M19318 6774 c-55 -29 -74 -112 -42 -180 30 -63 117 -84 175 -43 l29
20 0 -20 c0 -14 6 -21 20 -21 19 0 20 7 20 130 0 123 -1 130 -20 130 -11 0
-20 -7 -20 -15 0 -19 -9 -19 -34 0 -25 19 -93 19 -128 -1z m131 -45 c58 -62
21 -159 -59 -159 -65 0 -102 58 -80 126 14 41 33 53 82 54 25 0 44 -7 57 -21z"/>
<path d="M19590 6660 c0 -123 1 -130 20 -130 18 0 20 7 20 68 0 97 14 138 51
151 69 24 99 -21 99 -145 0 -67 2 -74 20 -74 19 0 20 7 20 89 0 104 15 134 68
134 59 0 72 -24 72 -130 0 -86 1 -93 20 -93 19 0 20 7 20 104 0 98 -1 105 -26
130 -34 33 -98 36 -138 5 l-26 -20 -26 20 c-30 23 -92 28 -127 10 -16 -9 -22
-9 -25 0 -2 6 -12 11 -23 11 -18 0 -19 -9 -19 -130z"/>
<path d="M20591 6764 c-92 -77 -41 -234 76 -234 51 0 96 23 112 57 10 21 8 23
-15 23 -13 0 -27 -6 -30 -14 -15 -39 -100 -38 -130 2 -29 37 -18 42 86 42
l100 0 0 41 c0 33 -6 47 -34 75 -30 30 -40 34 -84 34 -40 0 -57 -6 -81 -26z
m110 -14 c14 0 49 -39 49 -55 0 -12 -16 -15 -80 -15 -84 0 -94 6 -66 42 15 21
56 38 74 32 8 -2 18 -4 23 -4z"/>
<path d="M20850 6660 c0 -123 1 -130 20 -130 18 0 20 7 20 85 0 78 2 88 25
110 13 14 33 25 45 25 13 0 20 7 20 20 0 25 -35 27 -68 4 -20 -14 -22 -14 -22
0 0 9 -9 16 -20 16 -19 0 -20 -7 -20 -130z"/>
<path d="M21062 6774 c-32 -22 -52 -67 -52 -114 0 -47 20 -92 52 -114 28 -20
90 -20 128 -1 25 13 29 13 34 0 3 -8 15 -15 26 -15 19 0 20 6 20 130 0 124 -1
130 -20 130 -11 0 -23 -7 -27 -15 -5 -14 -8 -14 -29 0 -30 20 -103 19 -132 -1z
m135 -46 c32 -30 32 -102 1 -135 -28 -30 -89 -32 -118 -3 -59 59 -23 160 57
160 24 0 45 -8 60 -22z"/>
<path d="M21611 6764 c-92 -77 -43 -234 73 -234 29 0 52 7 70 21 l26 20 0 -20
c0 -14 6 -21 20 -21 19 0 20 7 20 130 0 123 -1 130 -20 130 -14 0 -20 -7 -20
-21 l0 -20 -26 20 c-39 31 -104 28 -143 -5z m144 -39 c19 -18 25 -35 25 -65 0
-56 -34 -90 -89 -90 -50 0 -81 35 -81 90 0 55 31 90 81 90 29 0 47 -7 64 -25z"/>
<path d="M21894 6777 c-2 -7 -3 -65 -2 -128 3 -110 4 -114 26 -117 21 -3 22
-1 22 86 0 105 15 135 68 135 59 0 72 -24 72 -130 0 -93 0 -93 25 -93 25 0 25
1 25 78 0 96 -13 145 -45 166 -31 20 -94 21 -123 0 -20 -14 -22 -14 -22 0 0
19 -39 21 -46 3z"/>
<path d="M22621 6764 c-41 -34 -58 -91 -42 -143 17 -59 61 -91 123 -91 45 0
54 4 87 37 36 37 36 38 12 41 -15 2 -30 -3 -36 -12 -39 -52 -145 -28 -145 33
0 7 36 11 100 11 l100 0 0 41 c0 33 -6 47 -34 75 -30 30 -40 34 -84 34 -40 0
-57 -6 -81 -26z m106 -14 c25 -9 53 -44 53 -65 0 -3 -36 -5 -80 -5 -44 0 -80
4 -80 9 0 31 19 49 76 71 1 0 15 -5 31 -10z"/>
<path d="M22880 6660 c0 -123 1 -130 20 -130 18 0 20 7 20 85 0 78 2 88 25
110 13 14 31 25 40 25 8 0 15 9 15 20 0 24 -26 26 -58 4 -20 -14 -22 -14 -22
0 0 9 -9 16 -20 16 -19 0 -20 -7 -20 -130z"/>
<path d="M23052 6684 c3 -102 4 -107 31 -130 33 -28 100 -33 135 -8 20 14 22
14 22 0 0 -9 9 -16 20 -16 19 0 20 7 20 130 0 123 -1 130 -20 130 -18 0 -20
-7 -20 -81 0 -108 -16 -139 -76 -139 -58 0 -69 18 -72 124 -4 88 -6 96 -24 96
-19 0 -20 -6 -16 -106z"/>
<path d="M23709 6775 c-53 -29 -74 -116 -43 -181 30 -63 124 -86 178 -43 l26
20 0 -20 c0 -14 6 -21 20 -21 19 0 20 7 20 130 0 123 -1 130 -20 130 -14 0
-20 -7 -20 -21 l0 -20 -26 20 c-31 25 -96 27 -135 6z m131 -45 c59 -59 23
-160 -57 -160 -54 0 -83 31 -83 89 0 59 28 91 82 91 25 0 45 -7 58 -20z"/>
<path d="M24310 6763 c-87 -78 -38 -233 74 -233 29 0 52 7 70 21 l26 20 0 -20
c0 -16 6 -21 25 -21 l25 0 0 130 0 130 -25 0 c-19 0 -25 -5 -25 -21 l0 -20
-26 20 c-40 32 -105 28 -144 -6z m149 -39 c13 -16 21 -41 21 -64 0 -55 -31
-90 -80 -90 -53 0 -81 26 -87 80 -7 65 22 100 82 100 35 0 48 -5 64 -26z"/>
<path d="M24600 6660 c0 -123 1 -130 20 -130 18 0 20 7 20 86 0 47 5 94 11
105 15 29 52 40 89 28 35 -13 39 -25 42 -134 3 -74 5 -80 26 -83 21 -3 22 -1
22 83 0 93 -16 147 -48 164 -30 16 -94 13 -120 -5 -20 -14 -22 -14 -22 0 0 9
-9 16 -20 16 -19 0 -20 -7 -20 -130z"/>
<path d="M12641 6572 c-8 -15 -7 -23 4 -32 21 -18 47 -4 43 22 -4 29 -34 35
-47 10z"/>
<path d="M12044 6165 c-8 -21 2 -45 19 -45 21 0 38 25 31 44 -8 20 -43 21 -50
1z"/>
<path d="M11930 6111 l0 -61 -40 21 c-103 54 -206 -44 -171 -161 24 -81 123
-118 185 -69 l26 20 0 -21 c0 -16 5 -21 23 -18 22 3 22 4 22 173 0 169 0 170
-22 173 -22 3 -23 0 -23 -57z m-22 -97 c34 -39 26 -108 -17 -141 -9 -7 -31
-13 -49 -13 -79 0 -112 102 -52 162 26 25 36 29 63 24 18 -3 42 -17 55 -32z"/>
<path d="M12160 5995 c0 -168 1 -175 20 -175 19 0 20 7 20 175 0 168 -1 175
-20 175 -19 0 -20 -7 -20 -175z"/>
<path d="M12590 5995 c0 -168 1 -175 20 -175 18 0 20 7 20 58 l1 57 53 -57
c40 -44 60 -58 81 -58 26 0 25 2 -33 68 l-61 69 54 53 c30 30 55 58 55 62 0 4
-11 8 -24 8 -15 0 -39 -17 -70 -50 -26 -27 -49 -50 -51 -50 -3 0 -5 43 -5 95
0 88 -1 95 -20 95 -19 0 -20 -7 -20 -175z"/>
<path d="M14002 5998 c3 -171 3 -173 26 -176 21 -3 22 0 22 53 l0 57 51 -56
c35 -38 59 -56 75 -56 13 0 24 4 24 8 0 4 -25 32 -55 62 -30 30 -55 57 -55 60
0 3 24 32 54 65 54 59 54 60 28 63 -22 3 -36 -7 -74 -50 l-47 -53 -1 98 c0 97
0 97 -25 97 l-25 0 2 -172z"/>
<path d="M15280 5994 l0 -175 23 3 c22 3 22 5 25 176 l2 172 -25 0 -25 0 0
-176z"/>
<path d="M15690 5995 c0 -168 1 -175 20 -175 19 0 20 7 20 90 0 83 2 93 25
115 27 28 62 32 91 11 16 -12 20 -30 24 -113 5 -94 6 -98 28 -101 l24 -4 -4
106 c-3 100 -4 107 -31 133 -34 35 -103 39 -136 9 l-21 -19 0 61 c0 55 -2 62
-20 62 -19 0 -20 -7 -20 -175z"/>
<path d="M19240 5995 c0 -165 1 -175 19 -175 17 0 19 10 23 96 3 86 5 98 27
115 13 10 33 19 46 19 13 0 33 -9 46 -19 22 -17 24 -29 27 -115 4 -88 6 -96
24 -96 19 0 20 6 16 105 -3 99 -5 106 -31 132 -22 23 -36 28 -72 27 -28 -1
-52 -8 -65 -19 -20 -18 -20 -17 -20 43 0 55 -2 62 -20 62 -19 0 -20 -7 -20
-175z"/>
<path d="M16110 5985 l0 -165 70 0 c39 0 86 6 105 14 59 25 73 84 30 134 -24
29 -24 29 -5 47 29 26 26 80 -5 110 -22 23 -32 25 -110 25 l-85 0 0 -165z
m167 109 c18 -25 16 -41 -8 -65 -16 -16 -30 -19 -67 -17 -47 3 -47 3 -50 42
-5 62 1 69 60 64 34 -4 56 -12 65 -24z m1 -136 c7 -7 12 -27 12 -45 0 -40 -21
-53 -89 -53 l-51 0 0 55 0 55 58 0 c32 0 63 -5 70 -12z"/>
<path d="M16394 6137 c-2 -7 -3 -80 -2 -162 l3 -150 88 -3 c82 -3 87 -2 87 18
0 18 -6 20 -65 20 l-65 0 0 55 0 55 60 0 c53 0 60 2 60 20 0 18 -7 20 -61 20
l-60 0 3 53 3 52 63 3 c46 2 62 7 62 17 0 20 -168 22 -176 2z"/>
<path d="M16635 6138 c-3 -8 -4 -81 -3 -163 3 -146 4 -150 25 -153 22 -3 22
-1 25 113 l3 117 50 -113 c30 -68 56 -115 66 -117 12 -2 29 27 65 109 l49 113
5 -110 c5 -104 6 -109 28 -112 l22 -3 0 166 0 166 -26 -3 c-22 -3 -32 -19 -82
-130 -30 -70 -58 -125 -61 -122 -3 3 -31 60 -61 127 -45 98 -60 123 -78 125
-12 2 -24 -3 -27 -10z"/>
<path d="M17162 5988 c3 -155 4 -163 23 -163 18 0 20 8 23 73 l3 72 54 0 c48
0 55 2 55 20 0 18 -7 20 -55 20 l-55 0 0 55 0 55 70 0 c56 0 70 3 70 15 0 12
-17 15 -95 15 l-95 0 2 -162z"/>
<path d="M17400 5985 c0 -157 1 -165 20 -165 18 0 20 8 22 118 l3 117 51 -115
c29 -63 58 -116 66 -118 10 -2 30 31 63 105 26 59 51 112 56 118 5 5 9 -41 9
-108 0 -110 1 -117 20 -117 19 0 20 7 20 165 l0 165 -23 0 c-21 0 -31 -17 -82
-130 -31 -71 -60 -128 -64 -126 -3 2 -31 61 -61 130 -47 108 -58 126 -77 126
l-23 0 0 -165z"/>
<path d="M17800 5985 c0 -158 1 -165 20 -165 19 0 20 7 20 165 0 158 -1 165
-20 165 -19 0 -20 -7 -20 -165z"/>
<path d="M17912 5988 c3 -160 3 -163 26 -166 21 -3 22 0 22 67 l0 71 54 0 c44
0 60 5 85 26 26 21 31 33 31 67 -1 74 -35 97 -145 97 l-75 0 2 -162z m135 121
c31 -12 43 -26 43 -53 0 -36 -29 -56 -82 -56 l-48 0 0 53 c0 30 3 57 7 60 10
10 48 8 80 -4z"/>
<path d="M18275 6133 c-28 -73 -105 -294 -105 -303 0 -6 10 -10 22 -8 14 2 25
15 33 38 l12 35 69 0 69 0 18 -37 c11 -25 24 -38 37 -38 11 0 20 3 19 8 0 4
-26 77 -57 162 -52 143 -59 155 -83 158 -18 2 -29 -3 -34 -15z m64 -126 c11
-32 21 -62 21 -67 0 -6 -25 -10 -56 -10 -41 0 -55 3 -51 13 2 6 15 40 27 75
13 35 26 59 30 55 4 -4 17 -34 29 -66z"/>
<path d="M18620 6034 c0 -130 12 -169 59 -197 36 -21 93 -22 131 -2 50 26 60
60 60 195 0 111 -1 120 -19 120 -17 0 -19 -10 -22 -126 -4 -118 -5 -127 -28
-145 -31 -25 -81 -24 -109 1 -20 19 -22 30 -22 145 l0 125 -25 0 -25 0 0 -116z"/>
<path d="M10735 6076 c-47 -21 -67 -51 -73 -107 -3 -38 0 -61 12 -84 34 -62
118 -85 169 -45 14 11 28 20 31 20 3 0 6 -9 6 -20 0 -13 7 -20 20 -20 19 0 20
7 20 130 0 123 -1 130 -20 130 -11 0 -20 -7 -20 -15 0 -19 2 -19 -45 5 -46 23
-59 24 -100 6z m95 -41 c52 -27 57 -118 9 -157 -12 -10 -36 -18 -53 -18 -77 0
-113 114 -53 166 33 28 56 30 97 9z"/>
<path d="M11080 6083 c-8 -3 -23 -12 -32 -21 -16 -14 -18 -13 -18 1 0 10 -8
17 -20 17 -19 0 -20 -7 -20 -130 0 -121 1 -130 19 -130 17 0 19 10 23 96 3 86
5 98 27 115 13 10 33 19 46 19 13 0 33 -9 46 -19 22 -17 24 -29 27 -115 4 -86
6 -96 23 -96 17 0 19 8 19 100 0 95 -1 101 -27 130 -28 31 -81 46 -113 33z"/>
<path d="M11353 6079 c-87 -25 -109 -163 -37 -230 34 -31 121 -34 153 -5 21
19 21 19 21 -16 0 -55 -32 -88 -85 -88 -35 0 -48 5 -63 25 -20 25 -52 34 -52
14 0 -59 111 -101 183 -68 54 25 64 71 59 272 -2 90 -4 97 -22 97 -12 0 -20
-7 -20 -16 0 -15 -2 -15 -23 -1 -32 20 -77 27 -114 16z m108 -58 c60 -60 23
-160 -59 -161 -49 0 -82 37 -82 92 1 45 12 67 45 86 33 19 65 13 96 -17z"/>
<path d="M12334 6076 c-49 -22 -74 -61 -74 -118 0 -85 46 -138 119 -138 36 0
81 19 82 34 0 6 4 1 9 -11 6 -13 18 -23 30 -23 19 0 20 6 20 130 l0 130 -25 0
c-15 0 -25 -6 -25 -14 0 -11 -8 -10 -37 5 -44 22 -57 23 -99 5z m95 -41 c34
-17 41 -33 41 -86 0 -76 -75 -114 -133 -69 -63 50 -29 165 51 169 7 1 26 -6
41 -14z"/>
<path d="M12880 6083 c-28 -10 -60 -46 -60 -68 0 -34 21 -53 85 -78 60 -23 82
-50 53 -68 -23 -15 -68 -10 -85 11 -18 20 -53 28 -53 11 0 -55 89 -89 154 -60
33 15 52 60 37 88 -13 24 -38 39 -95 55 -31 9 -42 17 -44 35 -7 45 54 56 86
16 35 -44 68 -24 42 25 -15 29 -81 47 -120 33z"/>
<path d="M13135 6076 c-48 -21 -68 -51 -73 -110 -5 -63 15 -109 58 -131 40
-21 92 -19 123 5 25 20 25 20 30 0 3 -12 14 -20 26 -20 20 0 21 5 21 130 l0
130 -25 0 c-15 0 -25 -6 -25 -14 0 -11 -8 -10 -37 5 -43 22 -57 23 -98 5z m94
-41 c34 -17 41 -33 41 -86 0 -76 -75 -114 -133 -69 -63 50 -29 165 51 169 7 1
26 -6 41 -14z"/>
<path d="M13465 6074 c-19 -10 -31 -11 -33 -5 -2 6 -12 11 -23 11 -18 0 -19
-9 -19 -130 0 -121 1 -130 19 -130 17 0 19 10 23 96 3 86 5 98 27 115 13 10
33 19 46 19 13 0 33 -9 46 -19 22 -17 24 -29 27 -115 4 -86 6 -96 23 -96 17 0
19 8 19 95 0 109 -10 138 -55 160 -41 19 -62 19 -100 -1z"/>
<path d="M13743 6075 c-84 -36 -96 -167 -22 -230 39 -32 104 -34 143 -4 l26
20 0 -20 c0 -14 6 -21 20 -21 19 0 20 7 20 130 0 123 -1 130 -20 130 -11 0
-20 -7 -20 -15 0 -12 -6 -12 -37 5 -44 23 -66 24 -110 5z m120 -54 c10 -10 21
-36 24 -58 11 -84 -84 -137 -142 -78 -19 18 -25 35 -25 69 0 37 5 48 32 71 36
30 79 29 111 -4z"/>
<path d="M14305 6076 c-47 -21 -67 -51 -73 -107 -6 -61 14 -106 58 -132 35
-21 90 -22 116 -2 25 19 44 19 44 0 0 -8 9 -15 20 -15 19 0 20 7 20 130 0 123
-1 130 -20 130 -11 0 -20 -7 -20 -15 0 -19 2 -19 -45 5 -46 23 -59 24 -100 6z
m94 -41 c34 -17 41 -33 41 -86 0 -76 -75 -114 -133 -69 -63 50 -29 165 51 169
7 1 26 -6 41 -14z"/>
<path d="M14635 6074 c-19 -10 -31 -11 -33 -5 -2 6 -12 11 -23 11 -18 0 -19
-9 -19 -130 0 -121 1 -130 19 -130 17 0 19 10 23 96 4 86 7 99 27 115 30 24
63 24 92 0 22 -17 24 -29 27 -115 4 -86 6 -96 23 -96 17 0 19 8 19 95 0 109
-10 138 -55 160 -41 19 -62 19 -100 -1z"/>
<path d="M15045 6076 c-49 -22 -68 -51 -73 -110 -7 -91 40 -146 125 -146 73 0
133 62 133 136 0 36 -27 90 -55 108 -34 23 -95 28 -130 12z m104 -52 c26 -22
31 -33 31 -70 0 -114 -145 -131 -165 -20 -8 42 11 86 45 103 37 19 55 16 89
-13z"/>
<path d="M15450 6073 c-67 -34 -90 -130 -47 -194 31 -46 62 -61 121 -56 41 4
55 10 80 38 30 33 30 34 8 37 -12 2 -34 -6 -48 -17 -36 -28 -85 -27 -112 2
-12 13 -22 31 -22 40 0 15 13 17 100 17 l100 0 0 30 c0 90 -97 146 -180 103z
m93 -34 c21 -9 47 -46 47 -64 0 -3 -36 -5 -80 -5 -90 0 -100 11 -55 55 26 27
51 31 88 14z"/>
<path d="M19015 6074 c-20 -12 -30 -13 -33 -5 -2 6 -12 11 -23 11 -18 0 -19
-9 -19 -130 0 -121 1 -130 19 -130 17 0 19 10 23 96 4 86 7 99 27 115 30 24
63 24 92 0 22 -17 24 -29 27 -115 4 -86 6 -96 23 -96 17 0 19 8 19 100 0 95
-1 101 -27 130 -34 38 -85 47 -128 24z"/>
<path d="M19593 6076 c-84 -38 -96 -168 -22 -231 38 -31 91 -33 137 -5 32 20
32 20 32 0 0 -13 7 -20 20 -20 19 0 20 7 20 130 0 123 -1 130 -20 130 -11 0
-20 -7 -20 -15 0 -19 -9 -19 -29 -1 -25 22 -82 28 -118 12z m122 -57 c30 -29
27 -99 -4 -133 -55 -58 -141 -17 -141 67 0 45 11 67 45 86 26 15 75 5 100 -20z"/>
<path d="M19893 6075 c-69 -30 -65 -100 8 -129 22 -9 45 -16 51 -16 6 0 20 -7
29 -16 14 -13 16 -21 8 -35 -13 -26 -70 -25 -94 1 -21 23 -55 27 -55 6 0 -26
59 -66 96 -66 107 0 140 103 45 138 -17 7 -44 17 -61 23 -31 12 -39 36 -18 57
20 20 58 14 83 -14 15 -16 31 -24 40 -20 25 9 -7 61 -46 75 -40 14 -47 13 -86
-4z"/>
<path d="M10395 6043 c9 -21 33 -78 52 -126 l35 -88 -21 -55 c-26 -68 -26 -74
-2 -74 15 0 33 37 91 178 40 97 75 183 78 190 3 10 -2 13 -19 10 -23 -3 -33
-22 -89 -173 -11 -29 -12 -28 -50 70 -34 89 -41 100 -64 103 l-27 3 16 -38z"/>
<path d="M12042 5953 c3 -124 4 -128 26 -131 22 -3 22 -3 22 127 l0 131 -25 0
-26 0 3 -127z"/>
<path d="M12190 5035 l0 -175 30 0 29 0 3 122 3 123 53 -73 c29 -40 57 -70 62
-67 5 3 30 35 57 71 l48 66 5 -119 5 -118 30 0 30 0 0 170 0 170 -35 3 c-33 3
-38 -1 -89 -72 l-53 -75 -55 74 c-49 68 -58 75 -89 75 l-34 0 0 -175z"/>
<path d="M12900 5035 l0 -176 28 3 c24 3 27 7 32 52 l5 48 43 -51 c37 -43 48
-51 78 -51 19 0 34 3 34 6 0 3 -25 33 -55 66 l-54 61 44 49 c25 28 45 54 45
59 0 5 -13 9 -29 9 -22 0 -39 -11 -70 -46 l-40 -46 -3 94 -3 93 -27 3 -28 3 0
-176z"/>
<path d="M14700 5203 c-8 -3 -27 -17 -42 -31 -27 -25 -28 -29 -28 -132 0 -119
9 -142 66 -166 105 -44 225 21 211 114 -12 75 -105 120 -181 88 l-36 -15 0 28
c0 15 8 35 18 44 27 24 97 22 122 -3 11 -11 32 -20 46 -20 22 0 25 4 22 27 -5
43 -58 73 -127 72 -31 0 -63 -3 -71 -6z m118 -189 c47 -32 15 -94 -48 -94 -52
0 -85 28 -76 64 11 43 81 61 124 30z"/>
<path d="M15148 5163 c-12 -27 -45 -102 -75 -167 -29 -66 -53 -123 -53 -128 0
-4 14 -8 30 -8 24 0 35 7 51 35 l21 35 84 0 85 0 15 -35 c12 -31 19 -35 49
-35 19 0 35 2 35 5 0 3 -34 82 -76 175 l-77 170 -34 0 c-31 0 -36 -4 -55 -47z
m81 -87 c39 -89 39 -86 -23 -86 -31 0 -56 4 -56 9 0 12 49 121 54 121 3 0 14
-20 25 -44z"/>
<path d="M17085 5196 c-34 -15 -50 -31 -59 -63 -7 -21 -4 -23 26 -23 22 0 37
7 46 20 17 27 92 28 115 2 39 -43 16 -65 -77 -77 -46 -5 -66 -13 -88 -36 -27
-26 -29 -33 -26 -91 l3 -63 133 -3 132 -3 0 36 0 35 -105 0 c-110 0 -121 5
-92 44 9 12 35 20 81 26 86 11 116 35 116 95 0 22 -7 51 -16 64 -33 46 -126
65 -189 37z"/>
<path d="M17399 5187 c-47 -31 -69 -79 -69 -152 0 -108 57 -175 150 -175 93 0
150 67 150 175 0 108 -57 175 -150 175 -32 0 -58 -7 -81 -23z m135 -58 c24
-19 26 -27 26 -90 0 -61 -3 -73 -25 -94 -15 -16 -36 -25 -55 -25 -19 0 -40 9
-55 25 -22 21 -25 33 -25 94 0 63 2 71 26 90 15 12 39 21 54 21 15 0 39 -9 54
-21z"/>
<path d="M17730 5203 c-27 -10 -70 -56 -70 -75 0 -25 50 -24 73 2 19 22 75 27
108 10 21 -12 26 -52 7 -67 -7 -6 -36 -13 -65 -16 -102 -12 -139 -55 -131
-152 l3 -40 135 0 135 0 0 30 0 30 -102 3 c-94 2 -103 4 -103 22 0 28 39 50
90 50 63 0 107 29 116 76 14 76 -46 135 -138 133 -23 0 -50 -3 -58 -6z"/>
<path d="M18035 5196 c-34 -15 -50 -31 -59 -63 -7 -20 -4 -23 23 -23 18 0 40
9 51 20 42 42 138 14 128 -37 -4 -20 -29 -29 -102 -39 -36 -4 -57 -14 -78 -34
-25 -26 -28 -35 -28 -95 l0 -66 138 3 137 3 0 30 0 30 -107 3 c-113 3 -123 8
-95 46 9 13 33 20 80 25 88 9 117 34 117 101 0 35 -5 52 -22 68 -46 42 -124
54 -183 28z"/>
<path d="M16230 5140 c0 -23 -4 -30 -20 -30 -16 0 -20 -7 -20 -30 0 -23 4 -30
20 -30 18 0 20 -7 20 -60 0 -80 19 -117 64 -126 19 -3 43 -3 55 1 30 9 12 48
-25 55 -28 5 -29 8 -32 67 l-3 62 33 3 c28 2 33 7 33 28 0 21 -5 26 -32 28
-29 3 -33 7 -33 33 0 26 -3 29 -30 29 -27 0 -30 -3 -30 -30z"/>
<path d="M15592 5118 c-7 -7 -32 -11 -57 -9 -79 5 -130 -46 -128 -127 2 -65
49 -112 112 -112 30 0 71 -29 71 -50 0 -18 -39 -50 -61 -50 -29 0 -59 18 -59
35 0 10 -10 15 -30 15 -63 0 -23 -79 51 -100 103 -30 198 72 140 150 l-21 29
20 33 c23 38 25 66 8 103 -9 20 -9 31 0 45 8 14 8 21 -1 28 -25 19 -34 21 -45
10z m-27 -83 c29 -28 31 -51 9 -83 -17 -25 -71 -31 -92 -10 -21 21 -15 85 10
102 31 22 45 20 73 -9z"/>
<path d="M12644 5091 c-70 -43 -71 -167 -2 -215 28 -20 97 -21 125 -1 19 13
22 13 27 -1 4 -9 15 -14 28 -12 22 3 23 6 23 123 0 117 -1 120 -23 123 -13 2
-24 -3 -28 -12 -5 -14 -8 -14 -27 -1 -29 21 -86 19 -123 -4z m121 -56 c14 -13
25 -36 25 -50 0 -31 -41 -75 -70 -75 -29 0 -70 44 -70 75 0 31 41 75 70 75 11
0 32 -11 45 -25z"/>
<path d="M13189 5095 c-30 -16 -59 -70 -59 -109 0 -44 27 -94 59 -110 38 -20
90 -20 118 -1 19 13 22 13 27 0 3 -8 17 -15 31 -15 l25 0 0 125 0 125 -25 0
c-14 0 -28 -7 -31 -15 -5 -13 -8 -13 -27 0 -27 19 -84 19 -118 0z m115 -56
c19 -15 26 -30 26 -54 0 -37 -37 -75 -72 -75 -27 0 -68 45 -68 75 0 30 41 75
68 75 11 0 31 -9 46 -21z"/>
<path d="M13474 5098 c-31 -14 -46 -52 -34 -83 11 -28 63 -55 105 -55 29 0 45
-27 24 -41 -21 -13 -57 -11 -89 6 -27 14 -30 14 -40 -4 -5 -11 -10 -22 -10
-25 0 -15 65 -36 110 -36 41 0 56 5 75 25 50 49 15 125 -57 125 -40 0 -69 17
-61 36 6 15 49 16 91 3 8 -2 19 4 25 14 10 15 8 21 -7 33 -23 16 -101 18 -132
2z"/>
<path d="M13713 5100 c-24 -10 -43 -39 -43 -68 0 -28 40 -59 85 -67 52 -10 69
-23 54 -41 -15 -18 -57 -17 -89 1 -45 24 -70 -20 -28 -49 26 -19 106 -21 142
-5 65 30 52 117 -19 133 -61 13 -87 25 -83 39 6 16 61 21 86 8 14 -7 21 -5 31
11 7 11 11 21 9 23 -30 24 -102 32 -145 15z"/>
<path d="M13954 5091 c-65 -40 -73 -151 -15 -203 36 -32 102 -38 138 -13 19
13 22 13 27 -1 4 -9 15 -14 28 -12 22 3 23 6 23 123 0 117 -1 120 -23 123 -13
2 -24 -3 -28 -12 -5 -14 -8 -14 -27 -1 -29 21 -86 19 -123 -4z m121 -56 c14
-13 25 -36 25 -50 0 -30 -41 -75 -68 -75 -35 0 -72 38 -72 75 0 24 7 39 26 54
35 27 59 26 89 -4z"/>
<path d="M14210 4984 l0 -125 28 3 c27 3 27 4 30 85 3 92 17 111 74 99 24 -5
31 -1 40 20 10 21 9 27 -3 35 -21 13 -83 11 -98 -3 -11 -10 -14 -10 -18 0 -3
6 -16 12 -29 12 l-24 0 0 -126z"/>
<path d="M15687 5103 c-11 -10 -8 -124 3 -165 19 -68 95 -100 148 -62 20 14
23 14 28 0 3 -9 17 -16 30 -16 l24 0 0 126 0 125 -27 -3 c-27 -3 -28 -4 -31
-78 -3 -84 -18 -110 -62 -110 -41 0 -53 23 -58 111 -4 73 -6 79 -27 79 -12 0
-25 -3 -28 -7z"/>
<path d="M15996 5089 c-19 -15 -26 -30 -26 -54 0 -41 26 -62 91 -73 35 -6 44
-12 44 -27 0 -27 -45 -32 -87 -10 -30 15 -34 15 -45 -2 -7 -9 -13 -20 -13 -25
0 -16 61 -38 108 -38 64 0 102 28 102 74 0 42 -26 66 -86 77 -55 10 -59 13
-51 34 7 17 53 20 77 5 10 -6 20 -4 32 7 24 21 23 28 -7 41 -42 19 -109 15
-139 -9z"/>
<path d="M16407 5104 c-14 -14 -7 -155 8 -189 25 -52 80 -68 135 -40 25 13 29
13 34 -1 4 -9 15 -14 28 -12 22 3 23 6 23 123 l0 120 -25 0 c-24 0 -25 -3 -30
-76 -6 -84 -19 -109 -59 -109 -48 0 -56 13 -61 102 -4 74 -7 83 -25 86 -12 2
-24 0 -28 -4z"/>
<path d="M16719 5095 c-31 -17 -44 -57 -28 -86 12 -23 66 -49 103 -49 30 0 42
-16 26 -35 -15 -19 -57 -19 -90 0 -18 9 -29 10 -37 3 -37 -30 17 -68 97 -68
41 0 56 5 75 25 14 13 25 36 25 50 0 37 -42 75 -83 75 -39 0 -73 21 -62 39 7
12 56 12 93 0 21 -6 40 27 25 42 -19 19 -114 22 -144 4z"/>
<path d="M14420 4896 c0 -14 4 -27 9 -30 5 -3 7 -15 4 -26 -4 -15 0 -20 14
-20 14 0 23 11 31 36 14 47 6 64 -29 64 -24 0 -29 -4 -29 -24z"/>
<path d="M9514 4007 c-2 -7 -3 -69 -2 -138 3 -120 4 -124 26 -127 21 -3 22 0
22 60 l0 63 60 -62 c42 -44 68 -63 85 -63 25 0 34 14 16 24 -5 3 -32 32 -59
64 l-51 58 55 61 c30 34 54 64 54 67 0 3 -12 6 -26 6 -20 0 -41 -15 -80 -57
l-53 -58 -1 58 c0 50 -2 57 -20 57 -11 0 -23 -6 -26 -13z"/>
<path d="M10645 4008 c-3 -8 -4 -70 -3 -139 3 -120 4 -124 26 -127 20 -3 22 1
22 36 l0 39 61 6 c49 4 67 11 88 31 36 37 36 96 -2 133 -24 25 -36 28 -107 31
-62 3 -81 1 -85 -10z m155 -58 c24 -24 24 -29 4 -58 -13 -19 -23 -23 -62 -20
-45 3 -47 4 -50 36 -5 52 3 62 48 62 27 0 47 -7 60 -20z"/>
<path d="M11344 4006 c-9 -24 4 -48 23 -44 12 2 18 12 18 28 0 29 -32 41 -41
16z"/>
<path d="M11580 4005 c-11 -13 -11 -19 3 -32 21 -21 49 -9 45 19 -4 28 -30 35
-48 13z"/>
<path d="M17162 3878 l3 -133 25 0 c23 0 25 4 30 53 l5 53 55 -56 c34 -35 63
-55 77 -55 13 0 23 3 23 6 0 4 -26 36 -59 73 l-59 66 56 60 56 60 -30 3 c-24
3 -36 -4 -76 -50 l-48 -53 0 53 c0 51 0 52 -30 52 l-31 0 3 -132z"/>
<path d="M18290 3925 c0 -103 16 -147 61 -170 41 -22 113 -15 141 12 25 26 37
80 38 171 l0 72 -30 0 -30 0 0 -93 c0 -113 -9 -130 -65 -125 -52 4 -65 30 -65
136 0 81 0 82 -25 82 -25 0 -25 -1 -25 -85z"/>
<path d="M19532 3878 l3 -133 60 -3 c33 -2 75 0 93 3 64 12 95 82 52 120 -17
15 -17 19 -5 32 16 15 20 60 7 79 -16 24 -54 34 -132 34 l-81 0 3 -132z m160
74 c23 -23 0 -42 -51 -42 -42 0 -49 3 -54 22 -3 12 -3 26 0 31 7 12 91 3 105
-11z m-1 -102 c45 -25 9 -60 -60 -60 -40 0 -41 1 -41 35 0 34 1 35 41 35 22 0
49 -5 60 -10z"/>
<path d="M19792 3878 l3 -133 98 -3 97 -3 0 25 c0 24 -3 25 -72 28 -71 3 -73
4 -76 30 -3 27 -3 27 70 30 67 3 73 5 76 26 3 21 0 22 -72 22 l-76 0 0 30 0
30 75 0 c73 0 75 1 75 25 l0 25 -100 0 -101 0 3 -132z"/>
<path d="M20030 3874 c0 -135 0 -135 23 -132 21 3 22 9 27 95 l5 92 40 -56 40
-55 25 29 c14 16 35 43 47 59 l22 29 0 -97 c1 -98 1 -98 26 -98 l25 0 0 135 0
135 -30 0 c-24 0 -37 -10 -71 -56 l-41 -56 -40 56 c-33 46 -45 56 -69 56 l-29
0 0 -136z"/>
<path d="M20432 3878 c3 -125 4 -133 23 -133 17 0 20 8 23 48 l3 47 65 0 c62
0 64 1 64 25 0 24 -2 25 -65 25 l-65 0 0 35 0 35 70 0 c68 0 70 1 70 25 0 25
0 25 -95 25 l-96 0 3 -132z"/>
<path d="M20652 3878 c3 -129 4 -133 26 -136 21 -3 22 -1 22 87 0 50 4 91 8
91 5 0 23 -20 41 -45 17 -24 36 -47 40 -50 5 -3 27 18 48 47 l38 53 5 -90 c5
-84 7 -90 28 -93 22 -3 22 -3 22 132 l0 136 -28 0 c-23 0 -36 -10 -66 -55 -21
-30 -41 -53 -45 -51 -4 3 -23 27 -41 55 -30 44 -40 51 -68 51 l-33 0 3 -132z"/>
<path d="M20980 3875 l0 -135 25 0 25 0 0 135 0 135 -25 0 -25 0 0 -135z"/>
<path d="M21080 3874 c0 -135 0 -135 23 -132 18 2 23 10 25 41 3 36 5 37 41
37 89 0 139 47 127 116 -11 55 -46 74 -137 74 l-79 0 0 -136z m160 67 c14 -27
13 -37 -6 -55 -9 -10 -33 -16 -60 -16 l-44 0 0 45 0 45 50 0 c38 0 52 -4 60
-19z"/>
<path d="M21401 3968 c-10 -24 -35 -80 -55 -125 -20 -45 -36 -86 -36 -92 0
-21 40 -11 56 14 15 23 23 25 85 25 64 0 70 -2 81 -25 11 -24 58 -37 58 -16 0
5 -25 66 -56 135 -54 119 -58 126 -86 126 -24 0 -32 -7 -47 -42z m74 -74 c9
-25 15 -47 12 -50 -3 -3 -23 -4 -45 -2 l-41 3 21 48 c11 26 24 47 28 47 4 0
15 -21 25 -46z"/>
<path d="M21690 3909 l0 -101 34 -34 c29 -29 41 -34 80 -34 36 0 52 6 78 29
33 29 33 30 36 135 l4 106 -26 0 -26 0 0 -88 c0 -105 -13 -132 -64 -132 -54 0
-66 23 -66 128 0 91 0 92 -25 92 l-25 0 0 -101z"/>
<path d="M22182 3878 c3 -125 4 -133 23 -133 17 0 20 8 23 60 4 67 14 85 48
85 31 0 44 -27 44 -94 0 -49 2 -56 20 -56 18 0 20 7 20 74 0 56 -4 79 -18 96
-19 23 -62 30 -94 16 -16 -7 -18 -2 -18 38 0 43 -2 46 -25 46 l-26 0 3 -132z"/>
<path d="M9980 3969 c0 -12 -8 -23 -20 -26 -13 -3 -20 -14 -20 -29 0 -17 6
-24 20 -24 18 0 20 -7 20 -59 0 -51 3 -62 22 -75 25 -18 64 -21 72 -7 10 16
-5 40 -27 43 -19 3 -22 11 -25 51 -3 45 -2 47 22 47 21 0 26 5 26 25 0 20 -5
25 -25 25 -20 0 -25 5 -25 25 0 18 -5 25 -20 25 -14 0 -20 -7 -20 -21z"/>
<path d="M11450 3965 c0 -18 -5 -25 -20 -25 -15 0 -20 -7 -20 -25 0 -18 5 -25
20 -25 18 0 20 -7 20 -58 0 -69 20 -96 67 -90 34 4 40 40 8 47 -27 5 -35 19
-35 63 0 33 3 37 28 40 19 2 27 9 27 23 0 14 -8 21 -27 23 -22 3 -28 9 -28 28
0 17 -5 24 -20 24 -15 0 -20 -7 -20 -25z"/>
<path d="M17630 3959 c0 -12 -8 -23 -20 -26 -11 -3 -20 -14 -20 -24 0 -12 7
-19 20 -19 18 0 20 -7 20 -59 0 -51 3 -62 22 -75 25 -18 64 -21 72 -7 10 16
-5 40 -27 43 -18 3 -22 11 -25 50 -3 44 -2 47 25 50 35 4 37 30 3 38 -16 4
-26 14 -28 28 -4 30 -42 31 -42 1z"/>
<path d="M9785 3928 c-33 -19 -44 -41 -45 -86 0 -60 41 -102 98 -102 50 0 92
29 69 48 -11 10 -20 10 -41 1 -20 -9 -32 -9 -51 -1 -44 20 -28 32 45 32 l70 0
0 34 c0 48 -38 86 -87 86 -21 0 -47 -6 -58 -12z m83 -40 c21 -21 13 -28 -33
-28 -47 0 -58 12 -27 29 23 14 45 14 60 -1z"/>
<path d="M10110 3865 c0 -67 3 -79 25 -100 26 -27 54 -31 87 -14 14 8 23 8 31
0 30 -30 37 -12 37 89 0 93 -1 100 -20 100 -18 0 -20 -7 -20 -58 0 -71 -15
-95 -55 -90 -29 3 -30 4 -35 73 -5 63 -7 70 -27 73 -22 3 -23 0 -23 -73z"/>
<path d="M10355 3916 c-28 -29 -40 -66 -31 -102 15 -59 89 -94 136 -64 9 5 19
5 27 -2 7 -5 20 -8 28 -4 12 4 15 24 15 96 0 72 -3 92 -15 96 -8 4 -21 1 -28
-4 -8 -7 -18 -7 -27 -2 -28 18 -80 11 -105 -14z m105 -36 c11 -11 20 -29 20
-40 0 -23 -33 -60 -55 -60 -23 0 -55 37 -55 64 0 25 32 56 57 56 7 0 22 -9 33
-20z"/>
<path d="M10925 3928 c-34 -19 -44 -41 -45 -91 0 -63 31 -97 89 -97 22 0 43 5
47 11 4 8 9 8 17 0 6 -6 19 -11 29 -11 16 0 18 10 18 100 0 90 -2 100 -18 100
-10 0 -23 -5 -29 -11 -8 -8 -13 -8 -17 0 -9 14 -65 14 -91 -1z m83 -44 c47
-33 11 -112 -45 -98 -29 8 -46 49 -32 77 21 40 42 46 77 21z"/>
<path d="M11120 3840 c0 -93 1 -100 20 -100 17 0 20 7 20 49 0 27 4 62 10 76
8 22 15 26 42 23 l33 -3 5 -70 c5 -63 7 -70 28 -73 21 -3 22 0 22 73 0 67 -3
79 -25 100 -26 27 -54 31 -88 14 -16 -9 -22 -9 -25 0 -2 6 -12 11 -23 11 -17
0 -19 -8 -19 -100z"/>
<path d="M11340 3839 c0 -98 0 -100 23 -97 21 3 22 8 25 101 l3 97 -26 0 -25
0 0 -101z"/>
<path d="M11580 3840 c0 -99 0 -101 23 -98 21 3 22 7 22 98 0 91 -1 95 -22 98
-23 3 -23 1 -23 -98z"/>
<path d="M11693 3925 c-30 -21 -44 -75 -32 -120 16 -56 77 -83 129 -55 13 7
21 7 25 0 3 -5 15 -10 26 -10 18 0 19 8 19 100 0 90 -2 100 -18 100 -10 0 -23
-5 -29 -11 -8 -8 -13 -8 -17 0 -10 16 -78 13 -103 -4z m95 -41 c31 -21 30 -69
-3 -90 -47 -31 -96 15 -75 70 14 37 43 45 78 20z"/>
<path d="M17444 3930 c-33 -13 -54 -50 -54 -93 0 -75 80 -120 155 -85 28 13
31 21 11 37 -10 9 -20 9 -40 0 -20 -9 -32 -9 -51 -1 -44 20 -28 32 45 32 l70
0 0 33 c-1 67 -68 105 -136 77z m67 -40 c32 -18 21 -30 -26 -30 -47 0 -58 12
-27 29 22 13 29 13 53 1z"/>
<path d="M18018 3925 c-54 -30 -60 -126 -11 -165 27 -21 78 -26 103 -10 9 5
19 5 27 -2 7 -5 20 -8 28 -4 12 4 15 24 15 96 l0 90 -37 0 c-21 -1 -51 1 -68
4 -18 4 -41 0 -57 -9z m103 -57 c15 -28 3 -67 -26 -80 -50 -23 -97 40 -62 84
25 32 70 29 88 -4z"/>
<path d="M18636 3933 c-4 -4 -22 -6 -42 -5 l-35 3 3 -93 c3 -88 4 -93 26 -96
21 -3 22 0 22 53 0 65 13 95 40 95 27 0 40 -30 40 -95 0 -53 1 -56 23 -53 20
3 23 10 27 67 6 71 25 96 54 72 12 -10 16 -31 16 -78 0 -61 1 -64 23 -61 20 3
22 10 25 62 4 73 -11 111 -50 127 -24 10 -35 9 -62 -3 -27 -14 -35 -14 -51 -2
-20 15 -47 18 -59 7z"/>
<path d="M19190 3931 c-8 -6 -27 -7 -42 -4 l-28 6 0 -97 c0 -95 0 -97 23 -94
20 3 22 10 25 63 3 64 14 85 43 85 21 0 27 -20 31 -95 3 -43 6 -50 26 -53 21
-3 22 0 22 61 0 68 13 92 47 85 15 -3 19 -16 23 -73 5 -63 7 -70 28 -73 21 -3
22 0 22 70 0 82 -14 112 -55 122 -16 4 -39 1 -57 -8 -27 -14 -33 -14 -51 -1
-25 17 -36 18 -57 6z"/>
<path d="M22028 3925 c-16 -9 -28 -11 -28 -5 0 5 -9 10 -20 10 -19 0 -20 -7
-20 -96 0 -93 1 -95 23 -92 20 3 22 10 25 63 4 67 14 85 48 85 31 0 44 -27 44
-94 0 -49 2 -56 20 -56 18 0 20 7 20 74 0 56 -4 79 -17 94 -24 28 -62 35 -95
17z"/>
<path d="M22437 3924 c-82 -45 -48 -184 45 -184 19 0 40 6 47 13 11 10 14 10
18 0 3 -7 13 -13 24 -13 17 0 19 8 19 95 l0 95 -32 -1 c-18 0 -46 2 -63 5 -18
4 -41 0 -58 -10z m103 -64 c13 -25 -3 -66 -30 -75 -13 -4 -31 0 -46 10 -20 13
-24 23 -22 48 5 57 70 69 98 17z"/>
<path d="M22660 3927 c-17 -8 -26 -22 -28 -43 -4 -37 11 -51 63 -62 21 -4 40
-13 43 -20 6 -19 -28 -26 -61 -14 -23 9 -34 9 -45 0 -23 -20 21 -48 74 -48 49
0 84 25 84 60 0 29 -35 60 -69 60 -32 0 -59 24 -41 35 6 4 26 4 44 1 45 -9 67
16 30 32 -32 15 -63 15 -94 -1z"/>
<path d="M17760 3860 c0 -62 3 -74 25 -95 26 -27 54 -31 87 -14 14 8 23 8 31
0 29 -29 37 -12 37 84 0 88 -1 95 -20 95 -17 0 -20 -7 -20 -53 0 -66 -16 -90
-55 -85 -30 3 -30 4 -33 71 -3 64 -4 67 -27 67 -24 0 -25 -2 -25 -70z"/>
<path d="M18892 3858 c5 -62 9 -75 32 -95 30 -25 56 -29 89 -12 16 9 22 9 25
0 2 -6 12 -11 23 -11 17 0 19 8 19 95 0 95 0 95 -25 95 -24 0 -25 -3 -25 -58
0 -63 -11 -82 -47 -82 -30 0 -43 28 -43 89 0 48 -1 51 -26 51 l-27 0 5 -72z"/>
<path d="M8293 2361 c-292 -3 -534 -9 -538 -12 -14 -15 942 -22 2935 -22 2036
0 3052 9 2860 25 -113 9 -4579 17 -5257 9z"/>
<path d="M17578 2361 c-295 -3 -539 -9 -543 -12 -14 -15 959 -22 2940 -22
2024 0 3063 9 2860 25 -120 9 -4577 17 -5257 9z"/>
<path d="M9410 2025 c0 -117 3 -145 14 -145 10 0 15 19 18 66 3 50 9 70 23 80
22 16 25 17 45 4 10 -6 17 -32 20 -77 4 -54 9 -68 23 -71 15 -3 17 5 17 68 0
63 -3 74 -26 97 -21 21 -32 25 -65 20 l-39 -5 0 54 c0 41 -4 54 -15 54 -13 0
-15 -23 -15 -145z"/>
<path d="M10727 2164 c-4 -4 -7 -29 -7 -55 l0 -47 -39 5 c-49 7 -79 -10 -97
-54 -18 -42 -5 -94 29 -118 25 -17 78 -20 94 -4 8 8 13 8 17 0 4 -6 14 -11 22
-11 12 0 14 23 12 142 -3 132 -10 163 -31 142z m-27 -144 c11 -11 20 -31 20
-45 0 -28 -32 -65 -55 -65 -23 0 -55 37 -55 65 0 28 32 65 55 65 8 0 24 -9 35
-20z"/>
<path d="M11655 2145 c-14 -13 -25 -35 -25 -49 0 -14 -8 -30 -17 -35 -17 -10
-17 -12 0 -25 13 -10 17 -28 17 -85 0 -64 2 -71 20 -71 18 0 20 7 20 74 0 74
0 75 28 78 16 2 27 9 27 18 0 9 -11 16 -27 18 -22 3 -28 9 -28 26 0 23 20 48
36 45 21 -3 26 2 14 16 -18 21 -37 19 -65 -10z"/>
<path d="M11957 2164 c-4 -4 -7 -70 -7 -146 0 -132 1 -138 20 -138 20 0 20 5
18 142 -3 132 -10 163 -31 142z"/>
<path d="M12037 2164 c-4 -4 -7 -70 -7 -146 0 -132 1 -138 20 -138 20 0 20 5
18 142 -3 132 -10 163 -31 142z"/>
<path d="M12320 2025 c0 -134 1 -146 18 -143 14 3 18 16 20 70 2 54 7 70 22
78 41 22 70 -22 70 -106 0 -32 4 -44 15 -44 12 0 15 14 15 69 0 55 -4 74 -21
96 -18 22 -28 26 -60 23 l-38 -3 -3 50 c-2 38 -7 51 -20 53 -17 3 -18 -9 -18
-143z"/>
<path d="M18920 2117 l0 -55 -42 5 c-54 6 -94 -22 -104 -71 -7 -38 15 -89 45
-106 25 -13 78 -13 86 0 5 8 11 7 21 -1 28 -23 35 5 32 142 -3 118 -5 134 -20
137 -15 3 -18 -5 -18 -51z m-20 -97 c11 -11 20 -31 20 -45 0 -28 -32 -65 -55
-65 -23 0 -55 37 -55 65 0 28 32 65 55 65 8 0 24 -9 35 -20z"/>
<path d="M19810 2026 c0 -139 1 -146 20 -146 18 0 20 7 20 64 0 45 5 69 16 80
39 40 74 -1 74 -86 0 -51 2 -58 20 -58 18 0 20 7 20 54 0 99 -33 144 -99 134
-30 -4 -30 -4 -33 46 -2 39 -7 52 -20 54 -17 3 -18 -9 -18 -142z"/>
<path d="M8900 2020 c0 -133 1 -140 20 -140 18 0 20 8 22 101 l3 102 35 -52
c19 -28 42 -51 51 -51 10 0 32 24 50 52 l34 53 3 -103 c2 -94 4 -102 22 -102
19 0 20 7 20 140 0 129 -1 140 -18 140 -12 0 -35 -25 -63 -65 -24 -36 -46 -65
-49 -65 -3 0 -25 30 -49 65 -27 40 -51 65 -63 65 -17 0 -18 -11 -18 -140z"/>
<path d="M10932 2153 c-7 -3 -19 -18 -28 -35 -24 -46 -5 -83 55 -104 25 -9 55
-25 66 -36 41 -38 -23 -74 -87 -47 -43 17 -58 -2 -22 -30 61 -48 164 -9 164
63 0 27 -42 65 -89 81 -52 17 -69 38 -50 61 14 17 71 18 87 2 9 -9 15 -9 25 1
29 29 -68 65 -121 44z"/>
<path d="M11529 2144 c-9 -11 -9 -18 -1 -26 14 -14 42 -3 42 16 0 20 -27 27
-41 10z"/>
<path d="M18330 2021 l0 -141 61 0 c107 0 155 52 147 157 -4 44 -11 60 -36 86
-28 28 -39 32 -102 35 l-70 4 0 -141z m141 80 c21 -16 24 -28 24 -81 0 -53 -3
-65 -24 -81 -14 -11 -39 -19 -62 -19 l-39 0 0 100 0 100 39 0 c23 0 48 -8 62
-19z"/>
<path d="M19300 2020 c0 -133 1 -140 20 -140 18 0 20 8 22 102 l3 102 37 -52
c21 -28 44 -52 52 -52 8 0 31 24 53 53 l38 52 3 -102 c2 -95 4 -103 23 -103
19 0 19 6 17 137 -4 167 -13 177 -79 86 -23 -32 -45 -62 -49 -66 -4 -5 -28 21
-54 57 -30 43 -54 66 -67 66 -18 0 -19 -8 -19 -140z"/>
<path d="M20224 2145 c-7 -18 3 -35 21 -35 21 0 28 19 15 35 -16 19 -29 19
-36 0z"/>
<path d="M20584 2145 c-7 -18 3 -35 21 -35 18 0 26 25 12 39 -15 15 -27 14
-33 -4z"/>
<path d="M21052 2143 c-15 -27 -102 -246 -102 -255 0 -4 9 -8 19 -8 14 0 24
13 37 45 l17 45 54 0 54 0 19 -45 c14 -33 25 -45 40 -45 26 0 27 -4 -39 156
-38 91 -54 120 -70 122 -11 2 -24 -4 -29 -15z m47 -89 c15 -42 12 -46 -27 -42
l-30 3 15 38 c8 20 18 37 22 37 4 0 13 -16 20 -36z"/>
<path d="M21412 2147 c-15 -17 1 -42 23 -33 18 6 17 37 -1 43 -6 2 -16 -2 -22
-10z"/>
<path d="M9210 1992 c0 -101 11 -113 96 -110 l59 3 0 90 c0 77 -2 90 -17 93
-16 3 -18 -5 -18 -61 0 -49 -4 -68 -18 -80 -43 -39 -72 -7 -72 79 0 50 -3 64
-15 64 -12 0 -15 -15 -15 -78z"/>
<path d="M9635 2047 c-18 -15 -28 -36 -32 -64 -5 -37 -2 -45 25 -73 32 -31 68
-38 103 -20 13 7 19 7 19 0 0 -5 7 -10 15 -10 12 0 15 17 15 95 0 78 -3 95
-15 95 -8 0 -15 -5 -15 -12 0 -9 -3 -9 -12 0 -20 20 -74 14 -103 -11z m87 -24
c34 -30 13 -113 -29 -113 -22 0 -53 38 -53 65 0 26 31 65 52 65 6 0 20 -7 30
-17z"/>
<path d="M9820 1973 c0 -85 2 -94 18 -91 14 3 18 16 20 76 2 53 7 75 18 79 30
11 44 -17 44 -89 0 -61 2 -69 18 -66 14 3 18 16 20 75 2 54 7 73 19 77 30 12
43 -13 43 -86 0 -61 2 -69 18 -66 21 4 29 85 12 140 -12 42 -45 58 -84 40 -13
-6 -29 -6 -37 -2 -7 5 -35 8 -61 8 l-48 -1 0 -94z"/>
<path d="M10100 1973 c0 -76 3 -93 15 -93 12 0 15 14 15 63 0 74 18 109 47 91
14 -9 19 -26 21 -83 2 -54 6 -71 17 -71 12 0 15 15 15 63 0 74 18 109 47 91
14 -9 19 -26 21 -83 2 -54 6 -71 17 -71 24 0 21 151 -3 173 -21 20 -63 22 -80
5 -8 -8 -15 -8 -24 0 -7 5 -34 10 -60 10 l-48 -1 0 -94z"/>
<path d="M10403 2055 c-34 -24 -47 -76 -29 -118 8 -20 23 -40 34 -46 27 -14
79 -14 88 0 4 8 9 8 17 0 29 -29 37 -12 37 84 0 96 -8 113 -37 84 -8 -8 -13
-8 -17 0 -10 16 -68 13 -93 -4z m87 -35 c11 -11 20 -31 20 -45 0 -27 -31 -65
-53 -65 -29 0 -51 28 -51 65 0 59 46 83 84 45z"/>
<path d="M11100 2065 c0 -2 17 -38 37 -80 40 -80 40 -71 6 -162 -3 -8 3 -13
14 -13 15 0 31 26 73 118 29 64 55 123 57 130 3 7 -3 12 -14 12 -14 0 -28 -17
-48 -60 l-29 -61 -27 61 c-21 45 -33 60 -48 60 -12 0 -21 -2 -21 -5z"/>
<path d="M11336 2039 c-17 -19 -26 -43 -26 -64 0 -21 9 -45 26 -64 24 -29 29
-30 90 -29 l64 2 0 91 0 91 -64 2 c-61 1 -66 0 -90 -29z m96 -16 c35 -31 13
-113 -30 -113 -45 0 -69 75 -35 112 20 22 41 23 65 1z"/>
<path d="M11530 1975 c0 -76 3 -95 14 -95 25 0 28 18 21 105 -5 62 -11 85 -21
85 -11 0 -14 -21 -14 -95z"/>
<path d="M11750 1996 c0 -100 14 -116 100 -113 l60 1 0 93 c0 86 -1 93 -20 93
-18 0 -20 -7 -20 -70 0 -65 -2 -71 -25 -82 -39 -18 -54 3 -57 80 -2 54 -6 67
-20 70 -16 3 -18 -6 -18 -72z"/>
<path d="M12126 2039 c-66 -78 16 -196 105 -149 13 7 19 7 19 0 0 -5 7 -10 15
-10 12 0 15 17 15 95 0 78 -3 95 -15 95 -8 0 -15 -5 -15 -10 0 -7 -6 -7 -19 0
-38 20 -78 12 -105 -21z m96 -16 c35 -31 13 -113 -30 -113 -45 0 -69 75 -35
112 20 22 41 23 65 1z"/>
<path d="M18607 2050 c-49 -39 -41 -131 12 -160 45 -24 143 1 115 30 -8 8 -18
8 -37 -1 -32 -14 -77 1 -77 26 0 12 14 15 66 15 l66 0 -7 33 c-16 72 -83 100
-138 57z m81 -22 c24 -24 13 -38 -28 -38 -43 0 -55 20 -22 39 23 14 36 13 50
-1z"/>
<path d="M19020 2045 c-37 -39 -35 -108 3 -141 30 -26 83 -32 118 -13 16 8 18
13 9 24 -9 11 -17 12 -32 4 -26 -14 -65 -4 -78 21 -10 19 -7 20 60 20 l70 0
-6 28 c-11 50 -38 77 -80 80 -32 2 -44 -2 -64 -23z m81 -15 c34 -19 23 -40
-21 -40 -43 0 -55 20 -22 39 21 13 20 13 43 1z"/>
<path d="M19610 1996 c0 -100 14 -116 100 -113 l60 1 0 93 c0 86 -1 93 -20 93
-18 0 -20 -7 -20 -70 0 -65 -2 -71 -25 -82 -39 -18 -54 3 -57 80 -2 54 -6 67
-20 70 -16 3 -18 -6 -18 -72z"/>
<path d="M20035 2045 c-19 -18 -25 -35 -25 -70 0 -59 32 -95 84 -95 19 0 38 5
42 11 4 8 9 8 17 0 29 -29 37 -12 37 84 0 96 -8 113 -37 84 -8 -8 -13 -8 -17
0 -13 21 -75 12 -101 -14z m95 -25 c26 -26 26 -64 -1 -91 -25 -25 -46 -22 -71
12 -16 21 -17 30 -8 54 19 49 47 58 80 25z"/>
<path d="M20230 1975 c0 -78 3 -95 15 -95 12 0 15 17 15 95 0 78 -3 95 -15 95
-12 0 -15 -17 -15 -95z"/>
<path d="M20300 1973 c0 -86 2 -93 20 -93 17 0 19 8 22 71 2 55 7 74 20 83 28
17 42 -8 46 -84 3 -50 8 -70 18 -70 9 0 14 20 16 71 2 55 7 74 20 83 28 17 40
-5 46 -83 3 -51 9 -71 18 -71 21 0 19 138 -2 168 -17 24 -62 30 -82 10 -8 -8
-15 -8 -24 0 -8 6 -37 10 -66 10 l-52 -1 0 -94z"/>
<path d="M20580 1975 c0 -88 1 -95 20 -95 19 0 20 7 20 95 0 88 -1 95 -20 95
-19 0 -20 -7 -20 -95z"/>
<path d="M20660 1973 c0 -86 1 -93 20 -93 18 0 20 7 20 70 0 65 2 71 25 82 39
18 54 -3 57 -80 2 -54 6 -67 21 -70 15 -3 17 6 17 72 0 100 -14 116 -100 113
l-60 -1 0 -93z"/>
<path d="M21232 2053 c2 -13 14 -19 41 -21 20 -2 37 -6 37 -8 0 -3 -21 -32
-47 -65 -31 -41 -43 -63 -36 -70 5 -5 41 -9 79 -7 53 2 69 6 69 18 0 11 -13
16 -48 18 l-47 3 45 55 c25 31 45 64 45 75 0 17 -8 19 -71 19 -62 0 -70 -2
-67 -17z"/>
<path d="M21410 1976 c0 -90 1 -96 20 -96 20 0 21 5 18 92 -3 79 -6 93 -20 96
-16 3 -18 -6 -18 -92z"/>
<path d="M21482 2053 c2 -13 14 -19 41 -21 20 -2 37 -5 37 -8 0 -2 -20 -30
-45 -62 -25 -31 -45 -63 -45 -70 0 -10 19 -12 78 -10 60 2 77 6 77 18 0 11
-13 16 -48 18 l-47 3 45 55 c25 31 45 64 45 75 0 17 -8 19 -71 19 -62 0 -70
-2 -67 -17z"/>
<path d="M16383 16454 c-7 -18 17 -38 31 -24 11 11 1 40 -14 40 -6 0 -13 -7
-17 -16z"/>
<path d="M16303 16334 c-8 -21 13 -42 28 -27 13 13 5 43 -11 43 -6 0 -13 -7
-17 -16z"/>
<path d="M16459 16324 c-15 -18 -2 -47 24 -52 25 -5 40 33 21 52 -19 20 -28
20 -45 0z"/>
<path d="M15390 16418 c0 -4 7 -8 15 -8 8 0 15 4 15 8 0 5 -7 9 -15 9 -8 0
-15 -4 -15 -9z"/>
<path d="M15415 16380 c3 -5 8 -10 11 -10 2 0 4 5 4 10 0 6 -5 10 -11 10 -5 0
-7 -4 -4 -10z"/>
<path d="M15386 16349 c3 -5 16 -9 29 -9 13 0 26 4 29 9 3 5 -10 9 -29 9 -19
0 -32 -4 -29 -9z"/>
<path d="M15374 16328 c-3 -4 13 -8 35 -8 23 0 41 2 41 4 0 8 -71 12 -76 4z"/>
<path d="M15220 16249 c0 -13 4 -31 10 -39 6 -10 8 -5 6 18 -3 38 -16 56 -16
21z"/>
<path d="M15550 16250 c0 -5 5 -10 11 -10 5 0 7 5 4 10 -3 6 -8 10 -11 10 -2
0 -4 -4 -4 -10z"/>
<path d="M15603 16243 c-3 -10 -8 -22 -11 -27 -3 -5 0 -6 6 -2 7 4 12 13 12
21 0 7 6 16 13 18 9 4 9 6 -1 6 -7 1 -15 -7 -19 -16z"/>
<path d="M15198 16225 c2 -14 6 -25 8 -25 2 0 4 11 4 25 0 14 -4 25 -9 25 -4
0 -6 -11 -3 -25z"/>
<path d="M15738 16173 c7 -3 16 -2 19 1 4 3 -2 6 -13 5 -11 0 -14 -3 -6 -6z"/>
<path d="M14010 16400 c0 -5 5 -10 11 -10 5 0 7 5 4 10 -3 6 -8 10 -11 10 -2
0 -4 -4 -4 -10z"/>
<path d="M14007 16349 c7 -7 15 -10 18 -7 3 3 -2 9 -12 12 -14 6 -15 5 -6 -5z"/>
<path d="M13980 16309 c0 -5 16 -9 35 -9 46 0 46 14 0 17 -19 1 -35 -2 -35 -8z"/>
<path d="M13960 16280 c0 -5 23 -10 50 -10 28 0 50 5 50 10 0 6 -22 10 -50 10
-27 0 -50 -4 -50 -10z"/>
<path d="M13950 16235 c-8 -9 -8 -15 -2 -15 12 0 26 19 19 26 -2 2 -10 -2 -17
-11z"/>
<path d="M13985 16229 c-4 -6 -5 -12 -2 -15 2 -3 7 2 10 11 7 17 1 20 -8 4z"/>
<path d="M14071 16224 c0 -11 3 -14 6 -6 3 7 2 16 -1 19 -3 4 -6 -2 -5 -13z"/>
<path d="M13951 16194 c0 -11 3 -14 6 -6 3 7 2 16 -1 19 -3 4 -6 -2 -5 -13z"/>
<path d="M14048 16170 c-9 -17 -13 -30 -8 -30 5 0 12 9 15 20 4 11 11 18 16
15 5 -3 6 1 3 9 -8 20 -6 21 -26 -14z"/>
<path d="M13972 16164 c-7 -8 -8 -14 -3 -14 10 0 25 19 20 25 -2 1 -10 -3 -17
-11z"/>
<path d="M13870 16147 c0 -10 8 -17 18 -17 9 0 13 4 7 8 -5 4 -13 11 -17 16
-5 5 -8 2 -8 -7z"/>
<path d="M13915 15800 c-3 -5 -1 -20 5 -35 9 -23 13 -25 25 -15 11 9 15 9 15
1 0 -9 5 -9 20 -1 18 10 20 8 20 -25 0 -20 -5 -45 -10 -56 -9 -16 -7 -19 10
-19 18 0 20 4 14 51 -6 49 -5 52 14 47 12 -3 23 -1 26 6 3 7 8 6 15 -4 13 -19
19 -12 23 25 l3 30 -87 2 c-48 1 -90 -2 -93 -7z"/>
<path d="M13707 15583 c-4 -3 -7 -11 -7 -17 0 -6 5 -5 12 2 6 6 9 14 7 17 -3
3 -9 2 -12 -2z"/>
<path d="M13707 15523 c-4 -3 -7 -11 -7 -17 0 -6 5 -5 12 2 6 6 9 14 7 17 -3
3 -9 2 -12 -2z"/>
<path d="M14280 15523 c0 -4 5 -15 10 -23 8 -13 10 -13 10 2 0 9 -4 20 -10 23
-5 3 -10 3 -10 -2z"/>
<path d="M13655 15510 c3 -5 11 -10 16 -10 6 0 7 5 4 10 -3 6 -11 10 -16 10
-6 0 -7 -4 -4 -10z"/>
<path d="M13740 15463 c0 -12 5 -25 10 -28 13 -8 13 15 0 35 -8 12 -10 11 -10
-7z"/>
<path d="M14248 15455 c-4 -20 -2 -23 8 -14 7 6 10 17 7 25 -7 20 -10 18 -15
-11z"/>
<path d="M14196 15413 c-6 -14 -5 -15 5 -6 7 7 10 15 7 18 -3 3 -9 -2 -12 -12z"/>
<path d="M13998 15363 c7 -3 16 -2 19 1 4 3 -2 6 -13 5 -11 0 -14 -3 -6 -6z"/>
<path d="M16710 15400 c0 -18 7 -20 83 -20 84 0 115 9 103 29 -5 7 -42 11 -97
11 -82 0 -89 -1 -89 -20z"/>
<path d="M16730 15320 c0 -6 32 -10 75 -10 43 0 75 4 75 10 0 6 -32 10 -75 10
-43 0 -75 -4 -75 -10z"/>
</g>
</svg>
