<?xml version="1.0" standalone="no"?>
<!DOCTYPE svg PUBLIC "-//W3C//DTD SVG 20010904//EN"
 "http://www.w3.org/TR/2001/REC-SVG-20010904/DTD/svg10.dtd">
<svg version="1.0" xmlns="http://www.w3.org/2000/svg"
 width="3043.000000pt" height="1713.000000pt" viewBox="0 0 3043.000000 1713.000000"
 preserveAspectRatio="xMidYMid meet">

<g transform="translate(0.000000,1713.000000) scale(0.100000,-0.100000)"
fill="#000000" stroke="none">
<path d="M0 8565 l0 -8555 5245 0 5245 0 0 8555 0 8555 -5245 0 -5245 0 0
-8555z m7935 5982 c21 -31 19 -54 -13 -122 -39 -81 -134 -199 -265 -326 -108
-106 -109 -107 -148 -209 -21 -57 -37 -106 -34 -108 2 -2 43 -1 92 3 l87 7 69
66 c43 42 81 91 103 133 40 76 76 114 98 106 25 -10 19 -34 -25 -98 -44 -65
-62 -129 -37 -129 21 0 86 49 129 97 44 49 56 57 64 43 8 -13 -119 -146 -157
-166 -40 -20 -73 -17 -91 9 l-15 22 -33 -32 c-18 -18 -30 -35 -27 -38 3 -3
100 5 214 19 580 70 626 75 648 66 29 -11 53 -66 40 -88 -6 -9 -98 -60 -206
-115 l-195 -99 -41 21 c-42 21 -77 62 -84 96 -3 19 -11 20 -235 20 -223 0
-233 -1 -260 -22 -74 -58 -105 -75 -142 -80 -46 -6 -81 15 -81 48 0 10 -3 20
-7 22 -5 3 -70 -1 -145 -8 -136 -13 -138 -14 -179 -49 -52 -44 -119 -71 -154
-62 -15 4 -34 20 -43 36 -20 35 -18 35 -195 15 -387 -43 -534 -57 -752 -75
-132 -10 -354 -29 -493 -41 l-254 -23 -29 -58 c-35 -69 -37 -83 -6 -44 25 30
57 31 57 2 0 -19 -57 -66 -81 -66 -30 0 -34 27 -10 84 35 85 37 83 -104 66
-44 -5 -197 -21 -340 -35 -454 -44 -982 -104 -1520 -174 -216 -27 -236 -32
-320 -69 -148 -66 -239 -86 -390 -86 -74 0 -149 5 -173 13 -47 13 -17 17 -542
-65 -124 -20 -260 -42 -304 -50 -120 -22 -152 -19 -187 15 -26 27 -32 61 -9
61 4 0 75 9 156 20 82 12 237 32 344 45 107 14 230 30 273 36 l78 11 -40 34
c-46 40 -81 106 -81 155 0 53 42 130 95 177 85 74 235 102 365 67 30 -8 58
-15 62 -15 16 0 58 77 52 94 -12 31 71 102 106 91 28 -9 25 -29 -13 -83 -17
-26 -44 -66 -59 -89 l-27 -41 41 -27 c50 -33 108 -92 127 -128 27 -52 0 -41
-58 24 -61 66 -125 110 -140 93 -4 -5 -38 -54 -76 -108 -61 -91 -66 -101 -50
-112 22 -16 13 -44 -15 -44 -16 0 -20 6 -20 33 0 33 47 140 94 215 l26 41 -43
12 c-68 18 -204 6 -268 -24 -168 -79 -201 -252 -64 -333 44 -25 46 -25 142
-14 54 6 132 16 173 21 41 6 170 21 286 34 l211 22 62 47 c116 90 223 249 251
377 7 32 11 91 8 136 -11 184 -123 316 -327 380 -74 23 -107 28 -234 31 -216
6 -388 -31 -568 -122 -195 -99 -343 -252 -434 -449 -20 -43 -39 -77 -44 -77
-5 0 -14 7 -21 16 -46 54 140 335 305 461 88 67 243 143 360 176 233 66 497
63 672 -6 227 -91 364 -308 333 -528 -18 -127 -82 -249 -188 -361 l-55 -58 34
0 c19 0 133 12 254 25 121 14 326 37 455 50 129 14 269 29 310 35 41 5 149 17
240 25 91 9 219 22 285 30 66 8 215 24 330 35 116 11 217 23 226 26 9 2 27 28
39 57 12 29 105 217 206 420 101 202 180 367 176 367 -15 0 -227 -29 -362 -49
-74 -12 -208 -37 -298 -57 -161 -36 -192 -37 -192 -11 0 25 263 81 600 127
124 17 240 33 258 36 25 4 37 13 49 40 17 36 31 42 51 22 7 -7 8 -17 1 -30 -9
-16 -6 -18 24 -18 18 0 105 9 193 19 87 11 191 23 229 26 39 4 95 11 126 16
173 29 363 48 376 38 23 -20 14 -36 -31 -63 -51 -30 -63 -32 -86 -11 -15 13
-31 13 -151 0 -74 -8 -262 -29 -419 -45 -175 -19 -289 -35 -296 -43 -21 -22
-438 -826 -432 -832 3 -4 334 27 533 50 72 8 209 21 305 30 96 8 186 18 200
20 14 3 119 14 233 25 115 12 231 25 259 30 28 6 68 10 89 10 28 0 41 5 49 19
18 34 11 39 -27 20 -47 -24 -58 -24 -82 2 l-20 21 -33 -24 c-52 -39 -66 -41
-94 -13 -27 27 -28 35 -15 83 l10 32 -40 -6 c-32 -5 -46 -2 -70 15 -27 20 -31
20 -57 7 -41 -21 -93 -83 -121 -144 -28 -59 -52 -66 -61 -17 -4 20 -8 26 -13
18 -11 -17 -58 -16 -82 0 -14 11 -17 23 -13 58 3 24 9 52 13 63 15 35 -14 13
-115 -88 -85 -85 -101 -98 -114 -86 -9 7 -16 19 -16 28 0 12 -5 11 -22 -6 -49
-45 -111 -51 -123 -11 -6 19 -9 18 -50 -15 -52 -43 -67 -44 -94 -10 -27 34
-26 47 3 109 41 90 124 141 188 116 32 -12 58 -51 34 -51 -8 0 -18 5 -21 10
-10 16 -47 12 -83 -10 -53 -32 -117 -150 -82 -150 5 0 36 32 67 70 68 83 87
86 91 17 2 -32 7 -47 17 -47 22 0 141 116 155 150 17 42 46 36 43 -8 -1 -37
-5 -38 71 25 80 67 140 19 93 -74 -42 -82 -29 -92 50 -37 45 31 59 50 100 130
48 94 60 106 82 80 10 -11 9 -21 -4 -46 -19 -37 -15 -46 13 -31 35 19 69 13
90 -16 18 -24 21 -25 53 -14 19 6 50 27 69 45 44 42 94 57 140 42 35 -12 60
-40 47 -53 -4 -4 -17 -2 -27 5 -26 16 -45 15 -80 -3 -34 -18 -86 -89 -95 -131
-7 -29 -7 -29 32 11 21 22 52 58 70 80 27 34 34 38 50 29 14 -9 17 -22 15 -52
-2 -22 1 -43 6 -46 5 -3 32 16 61 41 41 36 62 66 98 142 69 145 200 379 244
439 54 71 111 109 147 96 37 -13 49 -53 34 -111 -19 -71 -105 -185 -251 -336
-134 -137 -134 -137 -177 -244 -24 -59 -42 -108 -41 -110 2 -1 43 2 92 7 l89
9 74 73 c40 40 85 96 99 123 36 70 72 115 93 115 32 0 32 -31 2 -74 -95 -133
-79 -194 26 -98 42 38 64 71 112 170 76 156 182 352 228 419 66 99 149 134
187 80z m98 -309 c9 -13 3 -26 -27 -62 -32 -39 -40 -44 -57 -36 -26 14 -24 24
13 76 33 46 53 52 71 22z m-549 -34 c23 -9 20 -26 -11 -74 -19 -29 -33 -40
-48 -38 -31 5 -29 39 5 81 35 41 32 39 54 31z m-3096 -436 c2 -9 -11 -39 -29
-68 -30 -50 -52 -140 -33 -140 21 0 86 65 120 120 39 63 41 65 63 51 13 -8 11
-18 -12 -63 -30 -58 -34 -88 -14 -88 22 0 117 85 149 134 4 6 10 7 14 3 12
-11 -10 -48 -60 -104 -56 -62 -95 -75 -135 -45 l-27 19 -39 -28 c-72 -50 -125
-47 -125 8 0 23 -2 23 -48 -16 -57 -48 -100 -54 -125 -18 l-15 22 -34 -32
c-41 -40 -70 -42 -97 -7 l-20 26 -27 -21 c-71 -56 -130 10 -94 105 6 15 8 30
4 33 -3 3 -53 -43 -111 -102 -88 -91 -107 -106 -119 -96 -9 7 -13 21 -11 31 7
23 6 23 -38 -12 -45 -36 -87 -39 -109 -9 l-15 22 -36 -32 c-67 -59 -129 -20
-106 67 13 48 65 118 102 137 54 28 139 9 139 -31 0 -18 -5 -18 -33 1 -21 13
-27 13 -64 -6 -47 -23 -90 -79 -99 -129 l-6 -35 49 50 c27 28 59 63 71 79 18
24 24 26 37 16 9 -8 15 -29 15 -56 0 -24 4 -44 9 -44 21 0 132 103 151 140 31
61 74 48 50 -15 -10 -27 -9 -27 33 12 71 66 94 78 122 65 31 -14 32 -43 5
-114 -24 -63 -24 -58 -4 -58 32 0 85 42 118 94 18 28 44 61 58 74 45 41 137
42 159 1 15 -28 6 -34 -25 -14 -23 15 -27 15 -61 -1 -42 -20 -91 -75 -106
-122 -23 -70 6 -50 102 68 32 39 38 43 52 31 13 -10 15 -23 10 -57 -4 -34 -3
-44 8 -44 26 0 120 92 161 157 40 63 69 79 76 41z m652 -361 c0 -8 -18 -39
-40 -71 -62 -89 -70 -109 -70 -183 0 -72 -10 -100 -30 -88 -7 4 -10 32 -9 81
l3 74 -58 59 c-33 33 -55 64 -52 70 12 19 23 13 67 -34 23 -25 47 -45 54 -45
6 0 34 34 63 75 50 72 72 91 72 62z m-1088 -109 c3 -7 -4 -64 -13 -127 -11
-66 -15 -119 -10 -124 5 -5 30 -2 58 7 68 22 118 25 118 6 0 -10 -15 -17 -45
-21 -25 -4 -68 -14 -96 -22 -76 -22 -80 -17 -66 97 7 52 12 115 12 139 0 24 3
47 7 50 10 11 31 8 35 -5z m1490 -50 c-5 -44 13 -88 35 -88 10 0 42 21 71 46
58 51 69 44 21 -11 -33 -38 -77 -65 -104 -65 -9 0 -23 13 -32 29 l-17 29 -33
-44 c-33 -43 -69 -62 -98 -50 -11 4 -15 21 -15 61 l0 55 -45 0 c-42 0 -45 -2
-45 -27 0 -38 -44 -90 -87 -102 -89 -25 -107 56 -33 149 34 43 61 50 95 26 35
-24 83 -29 110 -12 42 28 47 22 39 -54 -6 -62 -5 -70 10 -70 26 0 65 45 92
105 27 62 42 71 36 23z m-884 -10 c15 -15 16 -53 2 -79 -16 -28 1 -24 60 17
51 35 75 39 50 8 -23 -27 -200 -126 -216 -120 -22 8 -17 25 11 32 35 9 75 59
75 95 0 38 -27 39 -62 2 -41 -44 -60 -91 -67 -167 -4 -54 -10 -71 -21 -71 -13
0 -14 17 -12 106 l4 107 -41 4 c-39 3 -41 2 -41 -25 0 -45 -66 -107 -114 -107
-51 0 -66 32 -42 94 16 43 74 106 97 106 6 0 22 -9 36 -20 28 -22 92 -27 110
-9 17 17 36 0 30 -27 -2 -13 0 -24 4 -24 5 0 9 4 9 9 0 5 15 26 34 45 34 37
72 46 94 24z m-1450 -11434 c12 -8 22 -19 22 -23 0 -14 -33 -22 -44 -11 -16
16 -76 12 -83 -6 -8 -22 8 -34 58 -45 53 -12 79 -34 79 -66 0 -40 -18 -62 -59
-73 -46 -12 -107 4 -125 33 -18 28 12 40 42 16 29 -23 61 -24 88 -5 28 22 8
46 -48 61 -26 6 -54 17 -62 25 -22 18 -20 66 4 90 25 25 95 27 128 4z m2493
-10 c46 -41 3 -114 -67 -114 -38 0 -77 -31 -72 -58 3 -14 17 -18 73 -20 108
-5 105 -22 -3 -22 -92 0 -92 0 -92 25 0 48 27 84 68 90 73 11 87 19 90 50 7
58 -78 78 -123 29 -15 -17 -25 -21 -25 -13 1 54 104 76 151 33z m222 -5 c24
-30 12 -38 -16 -11 -49 46 -127 18 -127 -45 0 -30 3 -34 18 -28 75 32 142 6
142 -56 0 -44 -31 -69 -85 -69 -35 0 -52 6 -70 25 -22 21 -25 33 -25 93 0 70
8 90 45 111 30 17 97 6 118 -20z m298 5 c23 -21 25 -67 4 -88 -9 -8 -32 -18
-53 -21 -61 -11 -72 -15 -83 -36 -20 -38 -5 -49 70 -49 38 0 73 -4 76 -10 4
-6 -27 -10 -86 -10 l-92 0 6 41 c7 54 22 68 87 78 32 5 59 16 67 27 17 24 17
30 -7 54 -30 30 -85 27 -115 -6 -15 -17 -25 -21 -25 -13 1 54 104 76 151 33z
m199 -1 c28 -26 30 -34 32 -97 2 -64 0 -71 -26 -92 -37 -32 -89 -32 -121 1
-21 20 -25 34 -25 87 0 68 16 103 54 118 36 15 55 11 86 -17z m211 1 c20 -18
25 -59 10 -83 -5 -7 -37 -21 -72 -30 -61 -16 -64 -18 -67 -49 l-3 -32 70 0
c38 0 73 -4 76 -10 4 -6 -25 -10 -79 -10 -47 0 -87 3 -89 8 -2 4 -2 24 1 45 5
43 38 67 93 67 34 0 69 24 69 47 0 21 -38 53 -65 53 -33 0 -75 -20 -75 -37 0
-7 -4 -13 -10 -13 -12 0 -13 20 -2 37 22 35 108 39 143 7z m-2521 -98 l0 -113
-67 -1 c-75 -1 -98 11 -108 57 -8 37 8 76 40 97 21 14 32 15 61 6 l34 -10 0
39 c0 32 3 39 20 39 19 0 20 -7 20 -114z m670 25 c0 -74 -3 -92 -21 -115 -16
-21 -29 -26 -64 -26 -36 0 -48 5 -69 31 -27 32 -33 49 -16 49 6 0 15 -11 20
-24 19 -50 77 -60 116 -21 23 23 25 31 22 102 l-3 78 -45 6 -45 6 53 1 52 2 0
-89z m1960 -20 c0 -96 2 -110 18 -114 9 -3 -5 -5 -33 -5 -39 -1 -45 1 -27 8
21 9 22 15 22 105 0 90 -1 96 -22 105 -21 8 -20 9 10 9 l32 1 0 -109z m-3210
68 c0 -12 8 -23 20 -26 11 -3 20 -12 20 -19 0 -8 -9 -14 -20 -14 -17 0 -20 -7
-20 -45 0 -39 3 -47 25 -55 36 -14 31 -30 -10 -30 -42 0 -55 20 -55 84 0 34
-4 46 -15 46 -8 0 -15 7 -15 15 0 8 5 15 10 15 6 0 15 11 20 25 12 31 40 33
40 4z m-146 -26 c4 -5 20 -8 34 -8 27 0 27 -1 30 -76 l3 -76 -69 -1 c-84 -2
-107 16 -107 80 0 31 6 45 28 64 28 24 66 31 81 17z m531 -18 c0 -15 -6 -19
-24 -17 -38 4 -51 -15 -51 -74 0 -47 -2 -54 -20 -54 -18 0 -20 7 -20 79 l0 80
33 4 c61 8 82 3 82 -18z m393 -63 l3 -82 -33 0 c-18 1 -49 0 -68 0 -72 -2
-104 80 -54 139 24 29 29 31 87 27 l62 -3 3 -81z m76 30 c10 -29 21 -50 25
-47 3 4 12 25 21 47 15 41 43 68 56 55 4 -4 -13 -58 -38 -120 -36 -88 -50
-113 -67 -115 -24 -4 -25 3 -11 45 9 24 6 41 -19 103 -17 40 -28 77 -25 82 14
22 40 -1 58 -50z m750 37 c24 -19 26 -26 25 -87 l-2 -67 -7 62 c-8 72 -22 93
-61 93 -39 0 -59 -33 -59 -97 0 -30 -5 -53 -10 -53 -7 0 -10 28 -8 77 3 71 5
77 25 78 13 1 26 5 30 8 12 13 40 7 67 -14z m190 0 c17 -14 26 -30 26 -50 l0
-29 -70 0 c-38 0 -70 -4 -70 -8 0 -5 10 -19 21 -31 21 -23 45 -24 94 -7 20 8
20 7 1 -8 -28 -22 -82 -20 -106 4 -29 29 -34 63 -15 99 26 52 76 64 119 30z
m-1682 -40 c6 -62 26 -86 57 -70 17 10 21 21 21 66 0 48 2 55 20 55 18 0 20
-7 20 -78 l0 -78 -59 -1 c-71 -2 -91 14 -98 81 -6 52 0 76 20 76 10 0 16 -16
19 -51z m1222 -85 c50 -36 86 -7 96 77 l7 64 2 -80 1 -80 -51 -3 c-74 -4 -89
13 -87 97 l1 66 6 -63 c4 -47 11 -67 25 -78z m548 -36 c-5 -21 -6 -21 -12 -2
-8 21 -3 37 10 29 4 -3 6 -15 2 -27z m-2277 -82 c68 -29 72 -82 13 -201 -23
-47 -46 -85 -50 -85 -11 0 -98 176 -98 199 0 35 22 69 54 85 38 19 39 19 81 2z
m2975 -51 c33 -17 37 -27 16 -44 -10 -8 -16 -9 -21 -1 -12 19 -80 12 -101 -11
-28 -31 -25 -96 5 -120 39 -31 101 -18 101 21 0 16 -7 20 -30 20 -23 0 -30 4
-30 20 0 17 7 20 50 20 l50 0 0 -55 c0 -50 -2 -56 -30 -70 -16 -8 -48 -15 -71
-15 -33 0 -47 6 -75 34 -30 30 -34 40 -34 84 0 99 89 159 170 117z m-2665 -10
c39 -19 55 -51 55 -109 0 -75 -62 -123 -150 -114 l-35 3 -3 118 -3 117 52 0
c28 0 66 -7 84 -15z m937 -92 l3 -108 65 -5 c81 -7 58 -22 -26 -18 l-59 3 -3
118 c-2 73 1 117 7 117 6 0 11 -45 13 -107z m745 -23 c4 0 22 14 40 32 18 17
35 29 39 25 3 -3 -10 -20 -31 -38 l-36 -32 43 -44 c26 -26 36 -43 27 -43 -8 0
-28 14 -44 30 -16 17 -32 30 -37 30 -4 0 -9 -17 -9 -37 l-1 -38 -7 35 c-7 34
-7 67 0 170 2 36 4 31 6 -22 2 -38 7 -68 10 -68z m1157 60 c7 0 22 -9 34 -20
33 -31 31 -102 -4 -129 -67 -52 -157 7 -138 91 6 32 59 72 82 63 8 -3 19 -5
26 -5z m-2705 -133 c7 -10 23 -17 35 -17 41 0 56 22 65 90 l8 65 2 -82 c1 -72
-1 -82 -16 -82 -10 0 -31 -3 -48 -6 -22 -5 -36 -1 -52 15 -20 18 -23 30 -21
88 l1 67 6 -61 c3 -34 12 -68 20 -77z m261 122 c11 -7 4 -9 -25 -4 -78 11 -92
-40 -16 -59 68 -17 82 -62 27 -87 -33 -15 -113 8 -93 27 3 4 13 1 21 -5 8 -7
30 -11 48 -9 25 2 34 8 36 25 3 18 -4 24 -40 33 -52 14 -68 26 -68 51 0 34 74
53 110 28z m87 -121 c18 -20 45 -23 74 -8 15 9 19 22 19 70 0 32 5 62 10 65 6
4 10 -23 10 -74 0 -69 -2 -80 -17 -80 -10 0 -30 -3 -45 -7 -47 -11 -75 16 -83
81 -4 30 -3 63 1 72 6 13 10 0 12 -42 2 -37 9 -66 19 -77z m173 120 c0 -9 3
-9 12 0 19 19 76 14 98 -8 16 -16 20 -33 20 -80 0 -33 -4 -60 -10 -60 -6 0
-10 26 -10 59 0 51 -3 62 -22 75 -30 21 -44 20 -68 -4 -15 -15 -20 -33 -20
-75 0 -30 -4 -55 -10 -55 -6 0 -10 33 -10 80 0 47 4 80 10 80 6 0 10 -5 10
-12z m560 2 c9 -5 19 -5 27 2 10 8 13 -7 13 -77 0 -78 -2 -86 -15 -75 -12 10
-19 10 -27 2 -19 -19 -65 -14 -93 11 -55 47 -22 147 49 147 17 0 38 -4 46 -10z
m100 -2 c0 -9 3 -9 12 0 16 16 70 15 93 -2 14 -10 20 -30 23 -80 3 -43 1 -66
-6 -66 -6 0 -12 27 -14 62 -3 55 -6 64 -29 77 -24 13 -29 13 -53 -2 -24 -16
-26 -23 -26 -83 0 -41 -4 -63 -10 -59 -5 3 -10 42 -10 86 0 46 4 79 10 79 6 0
10 -5 10 -12z m306 -38 c5 -32 3 -52 -9 -72 -13 -23 -13 -29 -1 -39 19 -15 18
-74 -2 -93 -23 -23 -89 -21 -114 4 -21 21 -26 40 -11 40 5 0 11 -7 15 -15 8
-23 52 -36 80 -25 54 20 35 90 -24 90 -65 0 -101 80 -60 133 20 25 28 28 71
25 l49 -3 6 -45z m314 30 c11 -11 20 -31 20 -45 0 -24 -2 -25 -70 -25 -77 0
-92 -15 -45 -46 24 -16 45 -15 90 1 17 6 17 4 -4 -14 -31 -28 -72 -27 -105 4
-34 31 -36 88 -4 122 28 30 89 32 118 3z m164 14 c9 -3 13 -10 10 -15 -3 -5
-13 -5 -24 1 -30 16 -72 2 -68 -23 2 -16 13 -23 42 -29 22 -5 45 -13 53 -19
33 -28 -4 -79 -58 -79 -15 0 -37 9 -50 21 -21 18 -21 20 -4 13 43 -16 81 -16
94 0 16 20 -1 46 -30 46 -54 0 -89 46 -57 78 13 13 66 16 92 6z m184 -11 c12
-10 24 -30 28 -45 l6 -28 -71 0 c-75 0 -89 -11 -55 -44 18 -19 47 -20 76 -5
11 6 22 8 26 5 10 -11 -32 -35 -61 -36 -34 0 -87 48 -87 80 0 26 25 77 42 83
28 12 77 6 96 -10z m691 -35 c8 -27 18 -48 22 -48 4 0 12 23 19 50 9 38 17 50
31 50 13 0 22 -13 32 -47 8 -27 18 -47 23 -46 4 1 14 22 21 47 10 35 19 46 33
46 26 0 25 -11 -6 -97 -22 -61 -30 -73 -49 -73 -18 0 -25 10 -37 47 l-15 47
-15 -45 c-12 -36 -19 -44 -39 -44 -21 0 -28 10 -51 75 -33 92 -33 92 -6 88 17
-2 26 -15 37 -50z m401 -35 c0 -83 -9 -100 -37 -72 -8 8 -13 8 -17 0 -13 -20
-66 -12 -91 14 -31 30 -33 82 -4 119 19 24 26 26 85 24 l64 -2 0 -83z m-1006
-88 c-7 -18 -8 -18 -14 1 -9 23 -1 39 11 27 6 -6 6 -18 3 -28z"/>
<path d="M7857 14513 c-21 -15 -53 -52 -71 -82 -56 -93 -156 -277 -156 -286 0
-16 61 48 143 150 82 102 131 189 125 225 -3 20 -5 19 -41 -7z"/>
<path d="M7299 14441 c-39 -41 -159 -244 -192 -326 -13 -31 33 14 123 122 81
97 123 167 135 221 10 46 -10 41 -66 -17z"/>
<path d="M7405 13821 c-7 -12 -48 -35 -82 -45 -17 -6 -29 -1 -46 18 l-24 25
-28 -29 c-16 -16 -26 -32 -23 -36 4 -3 50 0 103 7 89 11 97 14 106 37 10 26 6
41 -6 23z"/>
<path d="M7461 13701 c-8 -5 -11 -16 -8 -24 5 -13 12 -14 39 -7 17 6 39 17 47
25 14 13 11 15 -24 15 -22 0 -46 -4 -54 -9z"/>
<path d="M6938 13653 c-10 -2 -18 -11 -18 -19 0 -21 44 -17 71 6 l24 19 -30 0
c-16 -1 -38 -3 -47 -6z"/>
<path d="M2510 13175 c-134 -23 -135 -23 -64 -24 79 -1 168 13 217 34 29 13
30 14 7 13 -14 0 -86 -11 -160 -23z"/>
<path d="M5074 13201 c-49 -75 -14 -132 46 -73 36 36 41 85 11 102 -28 14 -28
14 -57 -29z"/>
<path d="M4195 13168 c-29 -47 -35 -66 -29 -83 17 -42 104 12 104 64 0 57 -45
68 -75 19z"/>
<path d="M5693 1674 c-20 -30 -11 -52 30 -72 34 -16 74 -6 94 24 14 22 14 26
-1 49 -13 20 -25 25 -61 25 -37 0 -47 -4 -62 -26z"/>
<path d="M6228 1786 c-45 -34 -43 -144 3 -178 59 -44 117 17 106 111 -8 68
-63 102 -109 67z"/>
<path d="M3886 1694 c-22 -21 -20 -47 4 -69 29 -26 70 -7 70 33 0 49 -42 69
-74 36z"/>
<path d="M3226 1694 c-9 -8 -16 -23 -16 -33 0 -21 30 -51 52 -51 19 0 48 32
48 53 0 21 -27 47 -50 47 -10 0 -26 -7 -34 -16z"/>
<path d="M4086 1694 c-21 -20 -20 -37 3 -65 16 -21 22 -22 45 -11 19 8 26 19
26 40 0 49 -42 69 -74 36z"/>
<path d="M5130 1710 c-33 -33 -24 -40 45 -40 71 0 85 15 43 44 -31 22 -64 20
-88 -4z"/>
<path d="M2965 1409 c-9 -29 15 -53 44 -44 17 5 21 13 19 33 -4 36 -53 45 -63
11z"/>
<path d="M3232 1323 l3 -98 47 1 c81 1 124 65 94 139 -18 42 -42 55 -101 55
l-46 0 3 -97z"/>
<path d="M6138 1329 c-11 -6 -18 -22 -18 -38 0 -55 56 -69 74 -19 8 22 6 32
-9 48 -21 23 -23 23 -47 9z"/>
<path d="M4490 1347 c-38 -19 -49 -61 -23 -95 39 -52 113 -32 113 31 0 58 -43
88 -90 64z"/>
<path d="M4862 1344 c-15 -10 -22 -25 -22 -48 0 -79 97 -90 115 -14 5 21 1 33
-19 52 -29 30 -43 32 -74 10z"/>
<path d="M5194 1350 c-19 -8 -39 -38 -31 -46 5 -5 37 -7 80 -6 43 2 50 22 15
46 -25 18 -34 19 -64 6z"/>
<path d="M5542 1344 c-31 -21 -27 -41 8 -46 39 -6 90 2 90 13 0 16 -39 49 -58
49 -10 0 -28 -7 -40 -16z"/>
<path d="M6607 1322 c-32 -35 -15 -82 28 -82 12 0 26 5 33 12 19 19 15 66 -7
78 -27 14 -35 13 -54 -8z"/>
<path d="M10507 16633 c-2 -269 -4 -4113 -3 -8543 l1 -8055 4808 0 c3839 0
4807 -3 4807 -12 0 -10 1038 -13 5155 -13 l5155 0 0 8555 0 8555 -5155 0
-5155 0 -3 -982 -2 -983 -3 983 -2 982 -4799 0 -4799 0 -5 -487z m4187 -1395
c8 -13 28 -57 45 -98 16 -42 37 -89 45 -105 15 -28 15 -27 18 56 3 82 4 84 28
84 25 0 25 0 25 -95 l0 -95 -52 -2 c-46 -3 -55 0 -69 22 -14 22 -23 25 -78 25
-54 0 -62 -3 -71 -22 -6 -15 -21 -24 -39 -26 -27 -3 -28 -2 -22 25 4 15 14 42
22 58 8 17 29 64 45 105 17 41 36 78 42 82 22 14 46 8 61 -14z m156 7 c17 -20
5 -45 -20 -45 -11 0 -23 7 -26 15 -6 15 11 45 26 45 4 0 13 -7 20 -15z m820 0
c18 -21 5 -45 -25 -45 -20 0 -25 5 -25 23 0 39 26 50 50 22z m-482 -42 c2 -14
11 -23 25 -25 14 -2 23 -11 25 -25 3 -19 -1 -23 -22 -23 -24 0 -26 -3 -26 -49
0 -44 3 -50 23 -53 14 -2 23 -11 25 -25 3 -21 -1 -23 -37 -23 -52 0 -71 26
-71 97 0 40 -4 53 -15 53 -8 0 -15 9 -15 20 0 11 7 23 15 26 8 4 15 14 15 23
0 24 10 32 35 29 12 -2 21 -12 23 -25z m230 -50 c14 -15 22 -37 22 -59 l0 -34
-66 0 c-48 0 -65 -3 -61 -12 2 -8 22 -13 48 -14 65 -1 69 -3 69 -19 0 -21 -37
-38 -84 -38 -84 0 -127 105 -71 172 40 47 102 49 143 4z m-391 15 c20 -16 -3
-51 -30 -44 -37 9 -49 -8 -56 -75 -5 -57 -9 -64 -28 -67 -23 -3 -23 -1 -23 96
l0 99 62 1 c34 1 68 -4 75 -10z m578 2 c4 -6 3 -20 0 -31 -5 -15 -13 -19 -29
-15 -39 10 -55 -13 -58 -79 -3 -57 -4 -60 -28 -60 -24 0 -25 2 -28 84 -2 46
-1 90 2 96 5 15 133 19 141 5z m63 -131 l-3 -142 -28 -21 c-21 -16 -32 -18
-45 -10 -27 18 -26 43 2 54 26 9 26 10 26 128 0 65 3 122 7 125 3 4 15 7 25 7
17 0 18 -9 16 -141z m92 66 c5 -66 6 -70 30 -70 32 0 50 35 50 98 0 44 2 48
23 45 21 -3 22 -7 22 -98 l0 -95 -68 -2 c-62 -3 -70 -1 -92 23 -21 23 -25 37
-25 94 0 73 4 82 35 78 17 -3 21 -12 25 -73z m200 65 c0 -7 6 -7 19 0 30 16
65 12 89 -10 27 -26 34 -52 30 -121 -3 -47 -6 -54 -25 -57 -22 -3 -23 0 -23
57 0 41 -5 64 -16 75 -37 38 -66 8 -68 -71 -2 -54 -3 -58 -26 -58 -24 0 -25 2
-28 84 -2 46 -1 90 2 98 6 15 46 18 46 3z m-4052 -43 c2 -9 -10 -34 -27 -54
-27 -32 -40 -63 -27 -63 2 0 32 13 68 29 96 44 175 58 245 43 98 -20 120 -66
58 -121 -39 -34 -164 -96 -268 -132 l-68 -24 99 -5 c116 -6 159 -27 193 -98
52 -107 -29 -262 -181 -348 -196 -111 -444 -124 -549 -29 -54 49 -89 170 -62
213 5 9 10 -11 13 -53 7 -87 40 -138 111 -171 129 -60 368 -8 530 114 60 46
92 93 107 159 10 45 9 57 -8 95 -26 59 -69 80 -166 79 -58 0 -251 -33 -263
-45 -10 -9 -64 -144 -105 -261 -44 -126 -48 -134 -44 -85 6 58 40 179 75 268
28 69 27 72 -13 72 -37 0 -55 15 -38 32 5 5 31 15 58 22 49 12 71 36 89 95 7
23 5 23 -42 -12 -28 -20 -53 -34 -56 -31 -18 18 68 115 131 148 26 14 82 101
82 130 0 19 31 57 43 53 7 -2 13 -11 15 -20z m4998 7 c42 -20 64 -59 64 -113
0 -49 -8 -71 -25 -71 -9 0 -16 18 -20 48 -15 108 -44 132 -129 108 -141 -41
-313 -210 -413 -406 -65 -127 -102 -338 -73 -424 18 -56 62 -73 137 -51 64 19
84 30 169 97 76 59 216 239 200 256 -7 7 -171 -19 -224 -35 -38 -12 -55 -14
-63 -6 -20 20 -2 43 33 43 18 0 69 9 113 20 111 28 264 43 366 35 69 -6 92 -4
117 9 57 30 122 11 122 -35 0 -28 -20 -33 -44 -10 -12 12 -32 21 -45 21 -25 0
-110 -74 -98 -86 4 -4 36 3 71 15 35 12 77 21 93 19 24 -2 28 -8 31 -35 4 -39
11 -40 77 -9 40 18 54 31 67 62 9 21 38 89 63 149 71 168 167 355 181 355 34
0 30 -22 -34 -160 -19 -41 -43 -99 -54 -128 -11 -29 -30 -65 -43 -81 -34 -40
-125 -274 -150 -384 -11 -53 26 -26 126 91 80 93 102 126 129 195 64 160 202
451 220 462 6 4 17 2 23 -4 13 -13 1 -52 -50 -156 -19 -38 -41 -91 -49 -118
-8 -26 -27 -62 -42 -80 -26 -30 -85 -167 -131 -305 -22 -64 -27 -112 -13 -112
18 0 181 186 221 253 27 44 111 97 155 97 34 0 66 -25 66 -51 0 -29 -22 -34
-41 -11 -26 32 -63 28 -109 -14 -22 -20 -40 -43 -40 -50 0 -17 -6 -18 65 11
33 13 72 25 87 25 36 0 60 -25 52 -56 l-6 -25 58 26 c60 27 94 51 94 68 0 25
34 77 51 77 26 0 33 -18 15 -43 -9 -12 -23 -32 -32 -44 -27 -38 -12 -27 63 47
41 40 81 70 92 70 30 0 41 -28 30 -80 -6 -25 -12 -66 -16 -92 -5 -47 -5 -48
22 -48 36 0 138 64 170 106 30 40 111 84 153 84 33 0 65 -30 60 -56 -5 -26
-25 -28 -45 -5 -29 34 -72 24 -120 -27 -42 -46 -29 -52 50 -24 92 32 124 27
129 -22 l3 -34 61 29 c46 22 64 36 68 54 8 32 70 102 109 121 16 9 40 13 53
10 32 -8 58 -49 50 -81 -8 -32 -21 -32 -42 0 -24 37 -67 34 -105 -7 -29 -33
-47 -74 -36 -85 9 -8 89 25 112 47 13 13 25 16 34 10 12 -7 11 -17 -7 -58 -28
-64 -27 -70 1 -45 33 30 97 66 97 55 0 -5 -10 -17 -22 -25 -13 -9 -47 -38 -75
-64 -46 -43 -59 -63 -98 -163 -52 -130 -109 -241 -134 -264 -22 -20 -47 -12
-55 18 -13 52 64 218 142 307 31 35 92 144 92 164 0 1 -20 -5 -44 -13 -37 -14
-48 -14 -69 -3 -21 11 -29 9 -74 -18 -63 -39 -100 -41 -109 -6 -3 14 -4 32 0
40 7 20 -10 19 -60 -4 -68 -31 -103 -35 -124 -16 -18 16 -21 16 -52 -8 -77
-57 -132 -71 -164 -40 -14 15 -16 30 -10 101 l6 84 -76 -71 c-75 -70 -106 -85
-118 -56 -4 11 -16 7 -58 -20 -29 -19 -62 -35 -74 -35 -30 0 -46 23 -38 54 8
32 -2 33 -67 5 -52 -23 -93 -28 -121 -15 -13 6 -26 -7 -59 -56 -66 -97 -151
-180 -180 -176 -20 2 -25 10 -27 41 -2 21 2 61 8 89 6 28 9 52 7 54 -2 2 -23
-24 -47 -57 -123 -168 -201 -171 -164 -6 9 40 21 80 26 90 16 30 2 31 -46 3
-24 -14 -56 -26 -70 -26 -24 0 -26 4 -26 40 0 44 -9 48 -53 25 -50 -26 -105
-37 -127 -25 -25 13 -26 56 -3 89 l16 24 -99 -6 c-54 -4 -108 -9 -119 -12 -12
-4 -32 -32 -52 -73 -54 -115 -183 -248 -297 -308 -32 -16 -74 -28 -112 -31
-57 -5 -62 -4 -97 27 -48 41 -61 91 -54 198 14 204 114 410 277 573 83 83 135
120 220 155 66 28 110 30 156 8z m-2496 -29 c0 -13 -26 -15 -172 -15 -94 0
-168 3 -164 8 4 4 58 10 119 13 213 10 217 10 217 -6z m2135 -6 c5 -5 -67 -9
-168 -9 -161 0 -190 4 -171 23 10 9 327 -4 339 -14z m9413 -59 c30 -18 32 -24
32 -73 0 -50 -9 -94 -30 -142 -5 -11 -21 -49 -36 -85 -39 -96 -62 -136 -144
-250 -64 -89 -75 -111 -81 -159 -10 -76 -11 -301 -1 -301 4 0 16 15 28 33 128
199 172 247 228 247 18 0 38 -6 44 -12 19 -24 24 -124 12 -258 -12 -136 -28
-382 -24 -388 1 -2 27 35 58 82 31 47 62 88 67 92 27 16 -38 -160 -86 -235
-36 -58 -48 -65 -84 -47 -51 27 -61 51 -61 146 0 86 21 306 44 458 6 45 8 82
4 82 -8 0 -86 -117 -152 -227 -21 -35 -45 -86 -54 -115 -15 -48 -20 -53 -49
-56 -21 -2 -38 3 -51 16 -17 17 -20 41 -27 183 l-7 164 -42 -85 c-36 -74 -93
-164 -159 -250 -66 -87 -177 7 -177 150 0 70 -12 76 -50 26 -95 -124 -174
-206 -200 -206 -25 0 -80 65 -80 95 0 54 78 188 144 248 55 49 120 77 180 77
54 0 69 -10 59 -37 -4 -9 -10 -10 -22 -3 -19 10 -77 -14 -116 -48 -56 -48
-156 -204 -141 -219 7 -7 206 200 220 228 11 23 58 26 76 4 7 -8 15 -63 18
-126 l7 -112 49 54 c27 30 92 98 143 151 51 53 93 102 93 108 0 7 -9 14 -19
17 -32 8 -34 34 -6 63 18 19 29 45 35 81 5 30 15 99 24 154 35 219 88 369 155
435 59 58 125 72 179 40z m2361 -6 c28 -23 31 -32 31 -79 0 -30 -4 -57 -10
-60 -5 -3 -10 -15 -10 -26 0 -23 -47 -138 -87 -214 -25 -47 -106 -170 -160
-241 -20 -27 -25 -51 -35 -153 -12 -135 -4 -239 16 -222 6 6 34 45 60 88 27
43 72 102 100 131 43 44 56 52 87 52 68 0 66 27 43 -510 l-6 -145 56 83 c58
84 84 104 71 55 -11 -47 -102 -227 -123 -246 -19 -17 -22 -17 -51 -3 -52 27
-66 59 -63 145 3 110 20 301 38 418 9 57 14 108 12 115 -9 27 -195 -271 -210
-336 -10 -45 -21 -56 -60 -56 -47 0 -54 18 -62 157 -3 70 -9 145 -13 165 l-6
38 -32 -28 c-35 -31 -129 -90 -187 -118 -30 -14 -38 -25 -48 -63 -14 -55 -74
-188 -97 -213 -21 -23 -72 -23 -100 1 -45 38 -54 108 -28 220 13 52 13 70 3
97 -7 19 -18 34 -25 34 -68 0 -426 -101 -480 -136 -13 -8 -27 -33 -34 -56 -14
-56 -76 -182 -98 -202 -23 -21 -96 -46 -133 -46 -37 0 -129 26 -153 44 -48 35
60 168 205 251 43 25 83 51 88 58 6 7 20 66 33 132 18 99 23 165 26 385 4 285
-2 357 -30 352 -22 -4 -23 31 -1 52 20 21 36 20 66 -4 87 -68 112 -381 58
-730 -11 -73 -19 -134 -17 -136 1 -2 36 6 77 17 114 30 302 68 375 75 53 5 71
12 95 35 24 23 39 29 76 29 25 0 61 -7 79 -16 30 -14 33 -19 29 -47 -3 -18 -1
-38 4 -45 9 -14 29 -7 163 57 36 17 71 31 77 31 7 0 12 11 12 25 0 15 -6 25
-15 25 -8 0 -19 8 -24 18 -8 15 -4 24 19 44 32 28 30 24 55 183 28 178 32 201
61 291 44 143 93 212 170 239 56 20 79 18 113 -11z m-15079 -61 c0 -14 -6 -34
-14 -42 -7 -9 -16 -25 -20 -36 -6 -21 -3 -21 246 -20 150 0 259 -4 268 -10 25
-16 -55 -23 -270 -25 -266 -2 -265 -2 -294 -70 -13 -30 -49 -108 -80 -172 -77
-161 -75 -175 19 -113 48 32 56 43 77 102 23 66 40 85 61 64 8 -8 5 -17 -10
-33 -27 -29 -58 -137 -44 -151 7 -7 27 -1 63 16 106 53 116 62 134 122 17 61
39 79 60 50 13 -17 15 -17 32 -2 10 9 27 17 37 17 16 0 17 -6 11 -61 l-6 -62
26 39 c39 58 75 94 96 94 25 0 23 -24 -7 -88 -28 -61 -41 -117 -27 -126 8 -5
76 35 112 66 8 7 22 33 30 58 11 33 21 46 38 48 28 4 29 -16 2 -68 -22 -43
-27 -90 -9 -90 17 0 69 39 136 102 94 89 121 78 73 -31 -48 -110 -41 -116 43
-38 40 37 62 67 75 102 13 37 23 50 37 50 14 0 20 -7 19 -22 0 -21 1 -21 33 8
28 24 83 41 83 24 0 -2 -20 -23 -45 -46 -24 -22 -70 -74 -101 -115 -31 -41
-60 -74 -65 -74 -4 0 -9 14 -11 31 l-3 32 -25 -25 c-39 -39 -78 -61 -96 -54
-14 5 -16 16 -11 58 l6 51 -22 -20 c-32 -30 -102 -63 -132 -63 -17 0 -29 8
-37 25 -14 30 -20 31 -44 4 -24 -26 -67 -49 -93 -49 -26 0 -36 35 -27 93 l7
42 -23 -32 c-13 -18 -36 -51 -52 -73 -53 -76 -72 -24 -33 89 14 39 22 71 18
71 -11 0 -43 -37 -80 -92 -35 -52 -50 -59 -58 -28 -5 19 -8 18 -48 -14 -53
-44 -108 -71 -129 -63 -9 4 -21 18 -26 32 l-10 25 -50 -36 c-30 -22 -58 -34
-72 -32 -20 3 -23 9 -22 46 0 23 -1 42 -4 42 -2 0 -23 -14 -46 -30 -111 -80
-171 -31 -137 114 7 27 10 50 8 53 -2 2 -35 -25 -73 -59 -104 -95 -101 -93
-122 -75 -16 14 -22 13 -72 -19 -70 -44 -94 -42 -98 9 -4 43 -12 45 -77 17
-56 -24 -113 -26 -121 -5 -23 59 71 146 159 149 37 1 67 -20 67 -46 0 -21 -34
-20 -50 2 -16 22 -20 22 -50 10 -47 -19 -90 -59 -90 -82 0 -21 18 -19 71 8 15
7 44 16 66 20 47 7 69 -12 59 -51 -8 -33 5 -32 79 8 49 26 65 41 85 81 14 27
31 51 37 54 21 6 26 -26 9 -51 -9 -12 -23 -32 -32 -44 -30 -42 -3 -23 77 53
114 109 125 101 104 -78 l-8 -68 29 0 c16 1 57 18 92 38 62 37 62 38 127 170
36 74 65 138 65 143 0 10 -92 5 -228 -13 -91 -11 -117 -4 -92 27 10 12 24 15
49 12 20 -3 70 -1 111 4 41 5 101 11 132 15 l58 5 10 42 c16 64 28 87 45 87
10 0 15 -9 15 -27z m9253 -23 c66 -52 93 -194 84 -440 -5 -151 -18 -275 -38
-374 -5 -27 -8 -50 -6 -52 2 -2 43 7 93 20 100 27 273 62 349 71 81 10 93 14
100 35 9 27 74 121 99 142 48 40 146 7 146 -49 0 -67 -119 -243 -165 -243 -12
0 -25 -6 -28 -13 -11 -28 -19 -147 -10 -147 17 0 127 85 292 227 46 40 88 70
93 67 4 -3 8 -14 8 -25 0 -30 15 -23 44 21 14 22 31 40 36 40 6 0 10 -54 10
-137 l0 -138 34 57 c55 91 109 159 131 163 60 13 73 9 95 -27 14 -24 20 -51
20 -95 l0 -61 33 33 c37 37 94 53 136 39 39 -14 67 -65 80 -146 6 -40 15 -79
20 -86 18 -29 108 37 315 230 l79 74 4 59 c26 443 55 635 95 635 8 0 21 -13
31 -29 22 -37 23 -202 3 -363 -8 -62 -18 -156 -22 -208 l-7 -94 41 35 c76 65
179 79 224 32 58 -61 44 -115 -50 -210 -62 -61 -163 -136 -206 -153 -30 -11
-36 -46 -23 -131 8 -54 8 -72 -2 -82 -23 -22 -46 25 -65 131 -9 55 -23 106
-31 112 -8 7 -11 24 -8 48 2 20 7 73 9 117 l6 80 -21 -33 c-12 -18 -21 -35
-21 -39 0 -3 -11 -21 -25 -39 -14 -18 -25 -36 -25 -41 0 -12 -137 -145 -178
-172 -75 -52 -141 -45 -208 23 -33 33 -43 51 -48 91 -16 112 -25 111 -78 -2
-22 -49 -47 -96 -55 -105 -24 -27 -58 -22 -98 13 -33 29 -35 35 -35 90 0 32 5
81 11 109 6 27 9 56 6 63 -5 16 -62 -75 -83 -133 -9 -25 -20 -54 -25 -65 -4
-11 -15 -37 -23 -57 -19 -48 -42 -59 -83 -42 -60 25 -67 49 -59 192 l6 127
-127 -124 c-122 -119 -181 -160 -231 -161 -39 0 -80 28 -108 75 -22 39 -25 52
-19 97 4 29 13 75 21 102 l14 48 -28 -4 c-76 -13 -274 -63 -350 -88 -152 -50
-158 -54 -177 -107 -38 -103 -80 -185 -107 -208 -56 -48 -137 -56 -222 -25
-74 28 -80 38 -57 86 29 59 109 133 202 188 46 27 86 51 88 52 2 2 12 40 22
84 30 130 51 402 43 570 -8 188 -15 226 -37 222 -22 -4 -22 26 0 50 21 23 34
23 66 -2z m-9237 -216 c-25 -18 -46 -18 -46 -1 0 19 42 38 55 25 7 -6 3 -14
-9 -24z m1955 -45 c14 -14 19 -30 17 -51 -4 -40 -24 -47 -40 -13 -25 56 -119
8 -143 -72 -9 -32 9 -30 84 9 72 37 92 28 62 -26 -34 -62 -30 -65 30 -23 47
32 65 53 81 90 20 46 48 73 62 60 14 -14 4 -51 -19 -73 -14 -13 -25 -28 -25
-33 0 -6 34 22 75 62 110 107 145 91 112 -54 -16 -73 -12 -95 16 -95 32 0 137
67 176 112 59 69 141 96 189 62 26 -18 28 -36 6 -55 -14 -11 -19 -10 -34 9
-21 26 -40 28 -80 7 -32 -17 -72 -63 -65 -76 3 -4 25 1 48 11 93 41 160 35
156 -14 0 -12 -1 -24 0 -29 1 -4 28 6 61 23 77 39 94 37 47 -5 -47 -41 -101
-67 -130 -63 -18 2 -23 11 -25 41 -4 41 -11 42 -72 12 -47 -24 -89 -28 -115
-11 -22 15 -26 14 -52 -8 -75 -62 -146 -72 -172 -24 -13 22 -13 37 -4 94 7 38
11 69 10 71 -2 1 -37 -29 -79 -67 -77 -70 -95 -79 -115 -59 -9 9 -21 4 -50
-19 -68 -54 -91 -86 -123 -167 -70 -177 -141 -305 -169 -305 -5 0 -14 7 -21
15 -33 40 28 196 124 315 47 57 96 146 96 172 0 4 -13 2 -30 -7 -37 -19 -79
-19 -86 0 -5 12 -13 10 -43 -14 -132 -104 -210 -72 -177 72 8 34 13 63 11 65
-1 2 -38 -29 -81 -67 -80 -72 -107 -84 -118 -55 -5 13 -17 6 -62 -35 -77 -71
-113 -65 -98 15 3 19 4 34 1 34 -3 0 -27 -14 -52 -31 -25 -17 -63 -33 -84 -36
-33 -5 -41 -2 -51 16 -22 41 19 171 54 171 24 0 24 -24 0 -74 -57 -119 -16
-115 121 12 103 95 134 79 75 -38 -49 -97 -42 -102 47 -30 43 35 68 64 84 99
12 28 28 52 35 55 18 7 40 -23 28 -39 -5 -7 -19 -27 -32 -44 -13 -17 -21 -31
-19 -31 2 0 36 32 75 70 107 106 142 93 115 -42 -17 -86 -14 -108 18 -108 33
0 139 69 152 99 30 69 109 141 154 141 13 0 32 -9 44 -21z m-3804 -116 c-3
-10 -5 -4 -5 12 0 17 2 24 5 18 2 -7 2 -21 0 -30z m17358 -219 c39 -25 34 -80
-15 -163 -51 -88 -91 -131 -123 -131 -20 0 -25 -6 -31 -37 -7 -48 -8 -123 0
-123 11 0 92 61 189 142 300 252 331 272 263 164 -72 -113 -159 -208 -303
-331 -89 -75 -159 -82 -214 -19 -40 45 -46 74 -34 153 23 145 64 247 131 319
32 35 45 42 76 42 20 0 48 -7 61 -16z m-5168 -98 c-2 -6 -11 -10 -19 -8 -8 1
-23 -7 -33 -18 -30 -33 -49 -25 -24 9 16 22 30 29 51 29 16 -1 27 -6 25 -12z
m-3480 -138 c-2 -13 -4 -5 -4 17 -1 22 1 32 4 23 2 -10 2 -28 0 -40z m3643
-581 c14 -7 26 -20 28 -29 4 -20 -35 -35 -51 -19 -6 6 -28 11 -50 11 -34 0
-38 -3 -35 -22 2 -19 12 -24 53 -31 65 -11 95 -39 95 -89 0 -32 -5 -41 -32
-58 -21 -12 -51 -20 -80 -20 -39 0 -54 5 -80 30 -32 29 -32 31 -14 45 17 13
22 12 44 -5 32 -26 88 -26 101 -1 13 23 0 36 -49 46 -85 18 -118 61 -89 114
26 46 95 58 159 28z m2686 -12 c18 -12 24 -24 24 -54 0 -46 -29 -70 -94 -78
-60 -8 -76 -19 -76 -53 l0 -30 85 0 c50 0 85 -4 85 -10 0 -6 -40 -10 -100 -10
l-100 0 0 29 c0 67 37 101 109 101 52 0 85 42 63 78 -23 35 -125 29 -137 -8
-8 -25 -25 -26 -25 -2 0 55 104 78 166 37z m213 14 c27 -10 51 -34 51 -53 0
-13 -21 -5 -40 14 -22 22 -78 27 -111 10 -14 -8 -19 -21 -19 -50 l0 -38 30 14
c36 18 89 10 120 -18 16 -15 20 -29 18 -61 -3 -37 -7 -44 -41 -61 -47 -22 -99
-15 -133 19 -21 21 -24 33 -24 99 0 91 5 105 44 122 38 16 64 17 105 3z m336
-3 c86 -36 35 -146 -69 -146 -44 0 -56 -10 -56 -46 l0 -34 79 0 c44 0 83 -4
86 -10 4 -6 -30 -10 -94 -10 l-101 0 0 43 c0 54 22 77 82 84 64 7 88 22 88 54
0 55 -92 70 -136 22 -27 -29 -40 -26 -29 7 7 23 55 49 93 50 12 0 38 -6 57
-14z m214 3 c41 -15 61 -54 61 -124 0 -75 -20 -111 -69 -126 -51 -15 -105 9
-120 53 -27 77 -6 172 43 194 38 16 45 17 85 3z m229 0 c39 -13 60 -59 43 -95
-12 -28 -65 -54 -110 -54 -36 0 -63 -25 -59 -54 3 -19 10 -21 83 -24 121 -4
119 -22 -3 -22 l-102 0 0 43 c0 56 23 78 87 84 56 6 83 26 83 60 0 53 -113 63
-141 12 -14 -26 -31 -24 -27 4 2 13 16 29 38 39 40 21 65 22 108 7z m-2698
-125 c0 -124 0 -125 -22 -123 -13 1 -39 -1 -59 -5 -95 -20 -157 97 -86 162 30
27 59 34 91 23 25 -10 26 -10 26 29 0 36 3 40 25 40 l25 0 0 -126z m718 27
c-3 -89 -6 -102 -27 -125 -30 -32 -81 -43 -122 -26 -34 14 -64 63 -54 88 5 14
9 11 22 -13 8 -16 22 -36 31 -42 24 -20 76 -16 100 7 19 18 22 31 22 105 l0
85 -44 0 c-25 0 -48 5 -51 10 -4 6 19 10 60 10 l67 0 -4 -99z m2122 -16 c0
-93 3 -115 14 -115 8 0 18 -4 21 -10 4 -6 -15 -10 -49 -10 -31 0 -56 5 -56 10
0 6 9 10 20 10 19 0 20 7 20 105 0 98 -1 105 -20 105 -11 0 -20 5 -20 10 0 6
16 10 35 10 l35 0 0 -115z m-3462 68 c2 -15 10 -23 23 -23 26 0 26 -40 -1 -47
-16 -4 -20 -14 -20 -49 0 -37 3 -44 19 -44 23 0 37 -30 19 -42 -23 -14 -48 -9
-73 17 -19 18 -25 35 -25 68 0 31 -5 47 -15 51 -12 4 -15 -7 -15 -65 l0 -71
-27 3 c-16 1 -40 -1 -55 -6 -64 -17 -118 23 -118 90 0 22 7 50 15 61 20 30 71
49 98 37 12 -5 38 -8 57 -7 19 1 41 3 48 3 6 1 12 9 12 19 0 25 10 33 35 30
12 -2 21 -12 23 -25z m407 -27 c28 -20 12 -44 -32 -48 l-38 -3 -3 -62 c-3 -59
-4 -63 -27 -63 -25 0 -25 1 -25 90 l0 91 35 -3 c19 -1 37 1 41 5 11 11 28 8
49 -7z m430 1 l70 -2 19 -54 20 -54 24 56 c20 46 29 57 48 57 30 0 30 -2 0
-76 -63 -157 -78 -184 -102 -184 -28 0 -28 0 -13 50 10 32 8 46 -17 108 -15
40 -31 72 -36 72 -4 0 -8 -34 -8 -76 l0 -76 -27 3 c-16 1 -40 -1 -55 -6 -42
-11 -76 2 -98 38 -23 36 -25 65 -9 101 14 30 67 58 94 50 11 -3 51 -6 90 -7z
m856 3 c5 0 18 -9 29 -20 16 -16 20 -33 20 -90 0 -40 -4 -70 -10 -70 -6 0 -10
27 -10 62 0 68 -17 98 -55 98 -43 0 -59 -23 -63 -94 -6 -98 -22 -80 -22 25 0
85 1 90 20 84 11 -3 28 -2 37 4 10 6 24 8 31 6 8 -3 18 -5 23 -5z m251 -33 c4
-7 8 -24 8 -39 l0 -28 -75 0 c-81 0 -93 -10 -55 -45 19 -17 63 -18 103 0 10 4
17 3 17 -4 0 -7 -16 -19 -36 -27 -66 -28 -134 17 -134 88 0 33 27 68 64 83 26
11 36 11 66 -1 19 -8 38 -20 42 -27z m-1824 -27 c3 -59 14 -80 43 -80 25 0 33
16 39 80 4 48 8 55 28 58 21 3 22 1 22 -87 l0 -91 -42 0 c-24 -1 -56 -1 -72
-2 -47 -1 -66 31 -66 114 0 66 1 69 23 66 19 -3 22 -10 25 -58z m1282 -6 c0
-70 12 -94 48 -94 48 0 61 18 64 89 2 41 8 66 16 69 9 3 12 -19 12 -86 l0 -91
-29 1 c-15 1 -33 -2 -40 -6 -6 -4 -27 -2 -45 4 -25 8 -38 20 -45 42 -12 34
-15 121 -5 131 15 15 24 -8 24 -59z m620 -113 c0 -10 -7 -24 -15 -31 -13 -11
-15 -8 -15 17 0 16 3 33 6 36 11 10 24 -3 24 -22z m-12372 -11735 c26 -25 2
-42 -37 -26 -39 16 -84 6 -79 -18 2 -11 19 -20 50 -27 83 -18 113 -72 66 -122
-29 -31 -114 -33 -146 -3 -12 12 -22 25 -22 29 0 18 33 21 51 6 10 -10 30 -15
51 -13 28 2 33 7 33 28 0 21 -6 26 -45 33 -55 11 -80 32 -80 66 0 31 8 43 35
60 26 15 103 8 123 -13z m615 2 c5 -16 -3 -211 -9 -218 -3 -2 -13 1 -24 8 -12
7 -21 8 -25 2 -3 -6 -20 -10 -36 -10 -63 0 -102 83 -64 137 18 26 67 38 94 23
20 -10 21 -8 21 30 0 33 3 40 19 40 11 0 21 -6 24 -12z m631 -40 c13 -29 34
-75 46 -103 12 -27 24 -53 27 -57 2 -5 -1 -8 -7 -8 -6 0 -16 11 -22 25 -10 23
-17 25 -75 25 -60 0 -64 -2 -82 -31 -28 -46 -32 -21 -6 36 13 28 35 76 48 108
14 31 31 57 37 57 5 0 21 -24 34 -52z m1136 -53 c0 -87 3 -105 15 -105 8 0 15
-4 15 -10 0 -5 -20 -10 -45 -10 -25 0 -45 5 -45 10 0 6 9 10 20 10 19 0 20 7
20 95 0 90 -1 96 -22 105 -21 8 -20 9 10 9 l32 1 0 -105z m310 85 c43 -43 14
-95 -58 -106 -66 -9 -82 -20 -82 -54 l0 -30 75 0 c45 0 75 -4 75 -10 0 -7 -30
-10 -82 -8 -79 3 -83 4 -86 27 -9 58 24 91 88 91 28 0 70 29 70 48 0 21 -28
43 -62 48 -30 5 -41 2 -62 -19 -29 -29 -43 -21 -20 11 21 31 114 32 144 2z
m201 1 c21 -17 24 -28 24 -91 0 -66 -2 -74 -28 -96 -57 -49 -131 -18 -142 60
-9 55 1 102 26 127 25 25 89 25 120 0z m209 -1 c43 -43 13 -96 -60 -106 -53
-7 -84 -31 -78 -61 3 -15 15 -18 76 -21 39 -2 72 -7 72 -13 0 -6 -32 -9 -82
-7 l-83 3 -3 31 c-4 45 24 74 78 81 75 9 105 55 58 87 -33 23 -75 20 -103 -9
-23 -22 -25 -22 -25 -5 0 26 27 39 83 40 34 0 52 -5 67 -20z m100 -81 c0 -92
2 -101 20 -106 36 -9 21 -23 -25 -23 -25 0 -45 5 -45 10 0 6 7 10 15 10 8 0
15 6 16 13 8 138 6 168 -14 182 -21 15 -21 15 6 15 l27 0 0 -101z m-1073 36
l28 -8 -30 -6 c-33 -7 -42 -35 -30 -97 4 -26 11 -33 33 -36 24 -4 25 -5 8 -13
-31 -14 -51 7 -54 56 -4 66 -11 89 -27 89 -12 0 -10 5 5 20 11 11 20 26 21 33
0 6 4 2 9 -9 5 -12 21 -25 37 -29z m-2027 -51 c6 -58 15 -74 40 -74 25 0 34
16 40 75 3 35 9 50 20 50 12 0 15 -15 15 -79 l0 -80 -57 -3 c-51 -3 -58 -1
-77 23 -15 19 -21 41 -21 79 0 28 3 55 7 59 16 15 28 -4 33 -50z m205 44 c6 0
20 4 32 7 16 5 29 0 47 -19 22 -21 26 -34 26 -86 0 -53 -2 -61 -17 -58 -14 2
-19 15 -21 55 -6 97 -63 99 -72 2 -4 -46 -8 -54 -25 -54 -18 0 -20 8 -23 69
-4 82 2 101 26 91 9 -4 22 -7 27 -7z m445 2 c9 -5 19 -5 26 1 6 5 19 7 28 3
13 -5 16 -20 16 -73 0 -36 -4 -71 -8 -76 -4 -6 -35 -11 -69 -13 -56 -2 -63 0
-82 24 -35 45 -24 115 22 134 29 12 49 12 67 0z m146 -53 l17 -51 21 52 c16
41 26 52 43 52 l23 0 -21 -52 c-49 -126 -72 -168 -90 -168 -22 0 -23 8 -9 44
7 21 3 41 -20 98 -19 49 -25 75 -18 79 21 13 37 -3 54 -54z m584 -23 c0 -73
-2 -85 -14 -75 -10 8 -16 9 -21 1 -9 -14 -58 -12 -80 4 -14 10 -20 30 -23 80
-3 44 -1 66 7 66 7 0 11 -22 11 -58 0 -65 11 -82 51 -82 39 0 59 33 59 97 0
29 2 53 5 53 3 0 5 -39 5 -86z m148 80 c28 -6 32 -11 38 -50 5 -33 2 -51 -11
-70 -15 -23 -15 -27 -1 -43 39 -43 5 -101 -59 -101 -35 0 -75 24 -75 46 0 20
9 18 29 -7 32 -40 101 -21 101 27 0 25 -26 44 -60 44 -32 0 -70 44 -70 80 0
19 9 40 25 55 26 27 35 29 83 19z m368 -8 c17 -13 15 -14 -31 -13 -43 2 -50
-1 -50 -16 0 -14 14 -24 50 -35 32 -11 51 -23 53 -35 6 -28 -27 -57 -63 -57
-34 0 -75 24 -62 36 4 4 13 2 19 -4 14 -14 57 -16 77 -3 23 15 4 39 -36 47
-21 4 -44 11 -50 17 -20 15 -15 44 9 61 28 20 58 20 84 2z m-276 -50 c0 -61
16 -86 55 -86 39 0 55 25 55 86 0 30 5 54 10 54 6 0 10 -31 10 -74 l0 -74 -46
-7 c-68 -10 -94 11 -94 74 0 27 -3 56 -6 65 -3 9 -1 16 5 16 7 0 11 -21 11
-54z m480 -101 c0 -14 -4 -25 -9 -25 -6 0 -8 36 -2 48 5 10 11 -2 11 -23z
m7890 -181 c16 -16 24 -34 24 -56 -1 -37 -72 -188 -89 -188 -18 0 -87 149 -87
187 0 39 16 61 57 79 36 16 62 10 95 -22z m-9895 -9 c37 -36 33 -80 -15 -175
-22 -44 -44 -80 -49 -80 -15 0 -91 161 -91 194 0 77 100 117 155 61z m12835
-1 c22 -22 0 -37 -35 -24 -37 14 -83 -4 -96 -37 -24 -63 5 -113 64 -113 55 0
81 46 30 52 -17 2 -29 10 -31 21 -3 14 4 17 47 17 l51 0 0 -44 c0 -59 -32 -86
-101 -86 -66 0 -99 29 -106 93 -9 73 21 124 82 140 29 7 78 -3 95 -19z m-2652
0 c48 -34 65 -101 37 -154 -20 -39 -63 -60 -125 -60 l-50 0 0 115 0 115 58 0
c36 0 66 -6 80 -16z m1000 -192 c85 -4 79 -22 -8 -22 l-70 0 2 118 2 117 5
-105 6 -105 63 -3z m706 107 c17 17 37 31 45 31 10 -1 1 -14 -24 -35 l-40 -34
38 -38 c51 -53 47 -62 -8 -17 l-45 36 0 -36 c0 -20 -4 -36 -10 -36 -12 0 -14
213 -2 224 4 4 9 -22 12 -59 l5 -67 29 31z m-11611 75 c59 -28 82 -104 52
-169 -20 -41 -51 -55 -120 -55 l-55 0 0 120 0 120 45 0 c24 0 60 -7 78 -16z
m1066 1 c32 -16 41 -33 41 -74 0 -47 -33 -71 -95 -71 l-55 0 0 -40 c0 -29 -4
-40 -15 -40 -12 0 -15 19 -15 108 0 71 4 112 12 120 17 17 93 15 127 -3z m792
-4 c18 -15 21 -22 12 -31 -8 -9 -20 -9 -48 0 -33 11 -40 10 -64 -7 -39 -30
-49 -77 -24 -111 17 -22 28 -27 64 -27 38 0 44 3 47 23 3 19 -1 22 -27 22 -24
0 -31 4 -31 20 0 17 7 20 50 20 l50 0 0 -49 c0 -42 -4 -53 -26 -70 -51 -40
-152 -14 -174 45 -13 34 -13 90 1 117 32 64 120 89 170 48z m11382 -44 l28 6
-3 -79 -3 -79 -67 -3 c-61 -2 -68 -1 -87 24 -52 66 8 159 85 133 11 -4 32 -5
47 -2z m-3210 -124 c10 -16 69 -17 85 -1 7 7 12 38 12 70 0 32 4 58 10 58 6 0
10 -32 10 -77 l0 -78 -51 -3 c-74 -4 -89 13 -87 97 l1 66 6 -60 c3 -33 10 -66
14 -72z m271 118 c4 -5 -11 -7 -31 -5 -21 3 -44 1 -52 -5 -20 -13 -6 -39 26
-47 65 -15 89 -47 57 -78 -18 -19 -85 -21 -102 -4 -21 21 -13 27 21 14 21 -9
40 -11 55 -5 36 14 24 42 -23 54 -22 6 -46 14 -52 18 -16 10 -17 39 -1 55 14
14 94 16 102 3z m87 -122 c23 -14 65 -10 80 7 8 10 13 39 13 70 -1 30 3 54 7
54 5 0 9 -35 9 -77 l0 -78 -51 -3 c-74 -4 -89 13 -88 97 l2 66 7 -64 c4 -36
13 -67 21 -72z m283 109 c18 -25 23 -138 6 -138 -6 0 -10 26 -10 59 0 68 -17
94 -59 89 -32 -4 -51 -39 -51 -95 0 -24 -4 -43 -10 -43 -6 0 -10 31 -10 73 l0
73 59 2 c52 2 62 0 75 -20z m458 5 c10 -9 18 -29 18 -45 0 -28 0 -28 -66 -28
-57 0 -65 -2 -62 -17 5 -26 52 -40 88 -26 33 12 41 0 11 -17 -44 -23 -95 -10
-116 31 -20 38 -19 62 6 93 16 20 29 26 61 26 25 0 49 -7 60 -17z m190 0 c14
-12 18 -31 18 -80 0 -40 -4 -62 -10 -58 -5 3 -10 32 -10 64 0 61 -11 81 -45
81 -39 0 -56 -22 -63 -85 l-6 -60 -7 45 c-4 25 -8 59 -8 76 l-1 31 57 2 c40 1
62 -4 75 -16z m193 8 c-3 -5 0 -21 7 -36 9 -21 8 -32 -5 -61 -16 -32 -16 -37
-2 -57 20 -29 19 -53 -5 -77 -36 -36 -130 -16 -130 28 0 14 3 14 18 -4 47 -57
128 -30 107 36 -4 14 -18 22 -45 26 -51 8 -80 36 -80 77 0 57 23 77 86 77 31
0 53 -4 49 -9z m328 -23 c32 -43 18 -58 -58 -58 -47 0 -65 -4 -65 -13 0 -34
58 -49 101 -27 12 7 19 7 19 1 0 -15 -35 -31 -66 -31 -65 0 -101 93 -53 141
30 30 95 23 122 -13z m161 23 c4 -5 -11 -7 -32 -4 -27 4 -42 1 -51 -11 -18
-22 -6 -34 45 -47 55 -14 74 -42 48 -70 -28 -31 -114 -24 -114 9 0 12 3 13 12
4 14 -14 84 -16 92 -3 12 19 -7 39 -42 46 -20 4 -43 11 -49 17 -16 13 -17 40
-1 56 14 14 84 16 92 3z m195 -22 c25 -45 10 -59 -64 -59 -36 0 -65 -3 -65 -7
0 -3 7 -15 17 -25 18 -20 64 -24 94 -8 23 13 25 7 3 -14 -22 -23 -76 -20 -102
4 -29 28 -30 92 -1 121 30 30 98 23 118 -12z m560 5 c58 -74 -26 -169 -109
-124 -26 14 -41 65 -29 98 14 37 36 52 80 52 29 0 42 -6 58 -26z m102 -28 c18
-52 19 -52 39 12 19 59 46 58 61 -3 6 -25 15 -48 20 -50 4 -3 14 16 21 42 11
38 19 49 37 51 17 3 22 0 19 -10 -3 -7 -15 -43 -27 -80 -19 -57 -26 -68 -45
-68 -18 0 -27 10 -40 43 l-18 42 -12 -40 c-9 -32 -17 -41 -37 -43 -24 -3 -28
3 -47 60 -11 35 -24 71 -28 81 -6 16 -3 18 17 15 19 -2 28 -14 40 -52z
m-12712 -99 c17 -22 49 -22 73 0 13 12 18 31 18 75 0 32 4 58 10 58 6 0 10
-34 10 -81 0 -60 -3 -80 -12 -76 -7 2 -24 0 -37 -5 -39 -14 -79 8 -91 51 -12
43 -13 83 -2 108 4 12 9 -5 12 -48 3 -36 11 -73 19 -82z m257 128 c18 -15 16
-16 -21 -10 -81 11 -87 -42 -7 -58 34 -7 43 -13 48 -34 5 -20 2 -31 -16 -45
-12 -10 -31 -18 -41 -18 -23 0 -69 21 -69 32 0 11 4 10 34 -3 34 -16 76 -4 76
21 0 14 -11 22 -42 31 -24 7 -49 17 -55 22 -20 15 -15 44 9 61 28 20 59 20 84
1z m204 -70 c0 -63 -3 -85 -12 -83 -7 1 -23 -2 -36 -6 -38 -13 -80 11 -93 53
-12 40 -9 109 4 101 5 -3 10 -30 12 -60 3 -37 9 -58 21 -67 44 -32 84 0 84 68
0 44 7 79 16 79 2 0 4 -38 4 -85z m164 64 c23 -18 26 -27 26 -85 0 -36 -4 -64
-10 -64 -5 0 -10 26 -10 58 0 31 -4 62 -8 68 -12 18 -41 24 -67 14 -23 -9 -25
-14 -25 -75 0 -51 -3 -65 -15 -65 -12 0 -15 16 -15 81 0 75 2 81 19 76 10 -2
25 -1 32 4 22 14 45 10 73 -12z m501 7 c18 -2 20 -11 23 -79 2 -49 -1 -77 -8
-77 -5 0 -10 5 -10 10 0 6 -13 4 -30 -5 -37 -19 -74 -11 -100 22 -29 38 -26
79 10 115 26 26 35 29 63 23 18 -4 41 -8 52 -9z m192 -10 c36 -31 39 -95 5
-128 -32 -33 -88 -30 -118 6 -33 38 -31 80 5 117 36 35 70 37 108 5z m596 -7
c26 -33 22 -94 -9 -126 -21 -21 -32 -24 -62 -19 -47 7 -72 37 -72 88 0 56 38
93 88 84 20 -3 45 -15 55 -27z m85 19 c6 -7 13 -30 17 -51 9 -47 27 -43 39 9
8 35 21 53 37 54 9 0 27 -44 35 -86 l7 -38 21 59 c13 38 27 61 39 63 23 5 22
-16 -5 -100 -14 -44 -28 -70 -40 -74 -26 -8 -36 2 -49 49 l-12 42 -14 -42
c-14 -41 -46 -65 -63 -46 -11 12 -50 133 -50 155 0 21 23 24 38 6z m362 2 c12
-6 21 -7 25 0 3 5 12 7 20 3 12 -4 15 -24 15 -84 l0 -79 -27 0 c-16 0 -42 -2
-58 -5 -22 -5 -37 -1 -58 15 -23 18 -27 29 -27 70 0 41 4 52 26 69 29 23 55
26 84 11z m9770 -127 c0 -5 -5 -15 -10 -23 -8 -12 -10 -11 -10 8 0 12 5 22 10
22 6 0 10 -3 10 -7z m-10720 -22 c0 -17 -12 -41 -21 -41 -5 0 -9 11 -9 25 0
16 6 25 15 25 8 0 15 -4 15 -9z"/>
<path d="M14641 15139 c-16 -46 -14 -49 19 -49 17 0 30 5 30 10 0 12 -28 70
-34 70 -2 0 -9 -14 -15 -31z"/>
<path d="M15315 15120 c-4 -6 8 -10 29 -10 20 0 36 5 36 10 0 6 -13 10 -29 10
-17 0 -33 -4 -36 -10z"/>
<path d="M12035 15050 c-58 -12 -136 -44 -181 -75 -30 -20 -47 -44 -71 -98
-17 -40 -28 -73 -24 -75 15 -5 247 81 336 125 125 62 150 89 106 112 -28 15
-120 21 -166 11z"/>
<path d="M18943 14217 c-27 -50 -44 -97 -37 -97 6 0 67 131 62 135 -2 2 -13
-15 -25 -38z"/>
<path d="M25872 14991 c-41 -41 -67 -98 -95 -211 -29 -114 -50 -220 -44 -226
12 -12 115 177 161 294 58 150 48 212 -22 143z"/>
<path d="M28243 15002 c-52 -41 -96 -140 -123 -277 -6 -33 -15 -73 -20 -90
-17 -63 -21 -87 -11 -81 29 18 134 208 161 289 7 22 18 51 26 65 18 34 19 112
2 112 -7 0 -23 -8 -35 -18z"/>
<path d="M27588 14164 c-5 -4 -8 -21 -8 -38 0 -21 3 -27 11 -19 6 6 9 23 7 38
-2 15 -6 23 -10 19z"/>
<path d="M27551 13988 c0 -28 2 -30 9 -13 12 28 12 45 0 45 -5 0 -10 -15 -9
-32z"/>
<path d="M26720 13866 c-52 -34 -114 -106 -102 -118 17 -17 90 32 122 81 45
67 40 76 -20 37z"/>
<path d="M23228 14283 c-33 -38 -48 -83 -27 -83 11 0 54 88 46 96 -2 2 -11 -4
-19 -13z"/>
<path d="M23160 14150 c-6 -12 -9 -24 -7 -27 3 -2 11 5 17 17 6 12 9 24 7 27
-3 2 -11 -5 -17 -17z"/>
<path d="M24761 14131 c-71 -53 -121 -113 -121 -146 l0 -27 28 17 c77 51 182
160 182 190 0 17 -45 0 -89 -34z"/>
<path d="M22299 13859 c-66 -47 -99 -81 -99 -101 0 -10 2 -18 5 -18 14 0 82
40 96 56 21 24 52 84 46 90 -2 2 -24 -10 -48 -27z"/>
<path d="M14985 14190 c-16 -33 -26 -62 -24 -65 3 -2 18 23 33 56 15 33 26 62
24 65 -3 2 -17 -23 -33 -56z"/>
<path d="M28703 14288 c-22 -25 -84 -170 -72 -166 17 6 91 145 87 164 -3 15
-5 15 -15 2z"/>
<path d="M26562 13404 c-22 -15 -28 -48 -13 -73 5 -7 29 -15 54 -18 36 -4 49
-1 66 16 26 26 27 45 1 71 -24 24 -77 26 -108 4z"/>
<path d="M27120 13500 c-16 -16 -20 -33 -20 -85 0 -52 4 -69 20 -85 24 -24 67
-26 98 -4 19 13 22 24 22 89 0 65 -3 76 -22 89 -31 22 -74 20 -98 -4z"/>
<path d="M24607 13413 c-12 -12 -7 -60 7 -73 39 -31 98 26 66 64 -12 16 -61
22 -73 9z"/>
<path d="M23896 13414 c-19 -18 -21 -55 -4 -72 19 -19 55 -14 72 9 16 23 12
47 -12 67 -21 16 -37 15 -56 -4z"/>
<path d="M24831 13411 c-24 -24 -25 -34 -11 -62 22 -40 90 -16 90 33 -1 40
-50 58 -79 29z"/>
<path d="M25940 13430 c-33 -33 -24 -40 45 -40 37 0 65 4 65 10 0 19 -40 50
-65 50 -14 0 -34 -9 -45 -20z"/>
<path d="M14268 1459 c-21 -12 -24 -49 -6 -67 18 -18 56 -14 68 7 14 27 13 37
-6 55 -18 18 -32 20 -56 5z"/>
<path d="M14952 1487 c-12 -29 -22 -56 -22 -60 0 -4 23 -7 50 -7 28 0 50 3 50
7 0 14 -44 113 -50 113 -3 0 -16 -24 -28 -53z"/>
<path d="M16572 1550 c-44 -18 -58 -117 -21 -164 36 -46 100 -30 115 30 11 43
-3 107 -26 126 -25 20 -34 21 -68 8z"/>
<path d="M14466 1454 c-30 -30 -13 -74 29 -74 27 0 45 18 45 45 0 42 -44 59
-74 29z"/>
<path d="M15326 1474 c-9 -8 -16 -28 -16 -44 0 -54 59 -80 93 -42 50 55 -26
138 -77 86z"/>
<path d="M23777 1139 c-24 -14 -22 -56 4 -70 18 -9 25 -7 42 9 11 11 17 27 14
36 -9 23 -40 36 -60 25z"/>
<path d="M13865 1111 c-11 -36 17 -67 49 -55 40 15 28 74 -14 74 -19 0 -31 -6
-35 -19z"/>
<path d="M24030 1055 l0 -95 46 0 c37 0 51 5 75 29 64 64 19 161 -75 161 l-46
0 0 -95z"/>
<path d="M14140 1035 l0 -95 46 0 c91 0 136 91 78 159 -22 27 -32 31 -75 31
l-49 0 0 -95z"/>
<path d="M15200 1075 l0 -55 49 0 c71 0 100 37 71 91 -9 15 -22 19 -65 19
l-55 0 0 -55z"/>
<path d="M27386 1054 c-22 -22 -20 -50 5 -68 22 -15 48 -11 61 8 14 21 8 55
-11 66 -27 14 -37 13 -55 -6z"/>
<path d="M25277 1072 c-29 -32 -21 -42 37 -42 64 0 75 11 44 39 -27 26 -60 27
-81 3z"/>
<path d="M25650 1068 c-24 -26 -25 -46 -4 -76 31 -45 104 -19 104 37 0 56 -62
80 -100 39z"/>
<path d="M25977 1072 c-30 -33 -21 -42 43 -42 65 0 76 12 42 43 -24 22 -65 21
-85 -1z"/>
<path d="M26330 1070 c-32 -32 -24 -40 39 -40 67 0 77 7 55 38 -19 28 -67 29
-94 2z"/>
<path d="M26905 1046 c-21 -31 -5 -66 28 -66 44 0 62 43 31 74 -22 23 -41 20
-59 -8z"/>
<path d="M15429 1056 c-37 -18 -47 -60 -22 -94 26 -35 59 -40 89 -11 55 51 -1
139 -67 105z"/>
<path d="M15615 1045 c-14 -13 -25 -33 -25 -45 0 -26 43 -70 68 -70 26 0 62
42 62 72 0 27 -40 68 -67 68 -8 0 -25 -11 -38 -25z"/>
<path d="M16215 1034 c-9 -9 -15 -28 -13 -43 3 -23 8 -26 38 -26 30 0 35 3 38
26 3 25 -19 59 -38 59 -5 0 -16 -7 -25 -16z"/>
<path d="M16698 1039 c-25 -14 -23 -65 2 -79 48 -26 91 30 55 70 -20 22 -32
24 -57 9z"/>
</g>
</svg>
