<?xml version="1.0" standalone="no"?>
<!DOCTYPE svg PUBLIC "-//W3C//DTD SVG 20010904//EN"
 "http://www.w3.org/TR/2001/REC-SVG-20010904/DTD/svg10.dtd">
<svg version="1.0" xmlns="http://www.w3.org/2000/svg"
 width="3043.000000pt" height="1713.000000pt" viewBox="0 0 3043.000000 1713.000000"
 preserveAspectRatio="xMidYMid meet">

<g transform="translate(0.000000,1713.000000) scale(0.100000,-0.100000)"
fill="#000000" stroke="none">
<path d="M0 8565 l0 -8555 8345 0 8345 0 0 40 c0 22 2 40 3 40 9 0 67 -32 72
-40 3 -4 24 -12 48 -16 l42 -8 -40 -7 c-22 -3 43 -7 144 -8 175 -1 225 5 129
15 -23 3 -63 11 -88 19 -25 8 -74 19 -110 26 -88 15 -144 36 -166 60 -16 18
-17 25 -5 67 32 117 54 221 55 267 1 28 6 56 10 63 4 7 10 38 13 70 3 31 11
63 16 71 9 10 6 17 -8 27 -15 11 -20 11 -27 1 -6 -9 -8 -9 -8 1 0 7 -6 12 -12
11 -18 -3 -68 19 -68 29 0 5 7 32 16 61 13 43 13 55 2 68 -7 9 -12 18 -10 20
8 11 0 33 -13 33 -8 0 -15 5 -15 10 0 6 6 10 13 10 8 0 7 4 -3 10 -13 9 -13
10 0 10 13 0 13 1 0 10 -10 6 -11 10 -2 10 6 0 12 7 12 15 0 8 -6 15 -12 15
-9 0 -9 3 1 9 12 8 11 12 -4 27 -16 16 -17 31 -12 134 3 63 10 129 16 145 16
50 19 165 4 165 -7 0 -13 -6 -13 -14 0 -23 -31 -29 -37 -6 -3 11 -9 20 -15 20
-11 0 -1 121 12 134 6 6 10 27 10 49 0 21 4 36 9 33 5 -3 17 25 26 62 9 37 26
94 36 127 10 33 28 98 40 145 11 47 27 104 34 128 8 23 12 42 10 42 -6 0 -56
-106 -80 -170 -13 -36 -27 -56 -39 -58 -15 -3 -18 0 -13 17 3 12 1 24 -5 27
-5 3 -6 13 -2 23 3 9 6 35 5 58 -1 23 3 44 9 48 6 3 8 10 5 15 -3 5 -2 18 4
27 5 10 12 56 15 103 4 47 13 119 20 160 18 97 87 434 90 437 1 1 12 0 23 -3
16 -4 23 -15 25 -38 2 -23 8 -32 26 -34 12 -2 22 2 22 8 0 8 9 10 25 6 31 -8
43 14 26 50 -8 19 -8 29 2 44 14 24 -1 56 -27 54 -10 -1 -28 9 -41 22 -31 31
-56 23 -49 -15 4 -19 1 -30 -8 -33 -12 -5 -12 7 -2 76 6 44 15 101 18 126 3
25 8 113 11 195 3 83 8 173 10 200 3 28 10 130 15 227 7 134 13 183 24 200 9
12 16 30 16 40 0 29 20 21 31 -12 6 -16 16 -30 22 -30 7 0 13 -10 13 -22 3
-49 14 -164 19 -188 8 -43 13 -83 19 -140 4 -30 8 -66 11 -80 2 -14 7 -52 10
-84 3 -33 9 -64 12 -70 4 -6 7 -24 8 -41 0 -16 3 -34 6 -40 4 -5 6 -25 4 -43
-1 -18 2 -35 7 -38 5 -3 6 -14 3 -24 -3 -10 -1 -21 5 -25 6 -3 8 -10 5 -15 -3
-5 0 -32 6 -62 19 -84 17 -101 -14 -127 -27 -23 -57 -79 -57 -108 0 -24 30
-27 54 -4 28 26 40 27 26 2 -15 -29 -12 -118 5 -150 8 -16 28 -40 44 -53 25
-21 30 -35 36 -91 4 -37 13 -74 21 -84 13 -17 13 -17 14 0 0 11 5 15 11 11 8
-4 8 -9 0 -17 -16 -16 -13 -79 5 -105 8 -12 12 -27 9 -32 -3 -6 1 -13 10 -16
9 -4 14 -13 11 -20 -3 -8 9 -25 28 -39 40 -31 46 -31 46 -3 0 30 -51 128 -67
128 -14 0 -15 16 -4 65 l6 29 17 -26 c22 -33 50 -107 49 -130 0 -10 4 -18 10
-18 5 0 9 -11 9 -25 0 -14 7 -28 15 -31 9 -4 15 -19 15 -39 0 -32 70 -155 88
-155 5 0 31 -22 58 -49 58 -57 97 -73 112 -44 6 11 7 25 2 33 -6 10 1 24 25
47 44 43 53 89 30 150 -10 25 -28 55 -41 66 -13 11 -24 24 -24 29 0 15 19 8
39 -13 11 -12 24 -18 30 -14 6 3 11 1 11 -4 0 -6 4 -11 10 -11 5 0 7 7 4 15
-4 8 -1 15 5 15 6 0 11 -7 11 -15 0 -20 23 -19 42 3 18 19 51 90 52 110 1 7
11 23 23 36 12 12 23 31 25 41 1 11 11 26 21 33 9 7 17 21 17 31 0 10 9 26 19
35 19 17 19 17 14 -6 -4 -12 -21 -50 -39 -84 -22 -42 -29 -65 -23 -75 6 -9 12
-10 17 -4 4 6 31 47 61 90 30 44 78 107 106 140 57 65 120 157 152 220 19 38
29 72 39 128 1 12 10 60 19 107 9 47 21 114 26 150 6 36 21 99 34 140 13 41
32 109 41 150 22 90 35 105 75 84 16 -8 29 -12 29 -9 0 3 9 1 20 -5 17 -9 19
-8 13 7 -6 16 -5 17 12 3 17 -14 18 -13 12 2 -4 11 -2 18 6 18 14 0 11 -108
-5 -127 -5 -6 -10 -26 -11 -45 -2 -18 -12 -53 -24 -78 -23 -47 -36 -150 -20
-150 5 0 7 -10 4 -22 -4 -12 -1 -28 5 -36 9 -10 9 -15 -1 -21 -13 -9 -21 -184
-9 -196 8 -9 68 48 68 64 0 6 6 11 13 11 18 0 17 -68 -1 -72 -8 -2 -20 -19
-26 -38 -9 -27 -16 -34 -31 -32 -11 2 -23 9 -27 15 -5 8 -8 7 -8 -3 0 -12 -2
-12 -9 -1 -14 21 -20 0 -14 -51 4 -36 10 -48 27 -53 13 -4 16 -8 9 -12 -8 -3
-13 -24 -13 -54 0 -37 -4 -51 -17 -56 -9 -4 -19 -1 -21 5 -9 28 -22 9 -22 -33
0 -26 -5 -45 -11 -45 -6 0 -9 -7 -5 -15 3 -8 1 -15 -3 -15 -5 0 -7 -9 -4 -20
3 -12 0 -21 -8 -21 -60 -7 -79 -6 -79 2 0 5 -4 9 -10 9 -5 0 -10 -9 -10 -21 0
-11 -7 -27 -15 -35 -11 -12 -15 -12 -15 -2 0 19 -49 -37 -65 -75 -7 -17 -27
-45 -44 -61 -17 -17 -31 -33 -31 -37 0 -5 -11 -20 -25 -35 -14 -15 -25 -34
-25 -42 0 -16 -14 -29 -73 -68 -39 -25 -60 -60 -62 -104 -4 -68 -6 -80 -20
-94 -9 -8 -16 -18 -16 -21 0 -2 -2 -12 -6 -21 -8 -22 13 -63 40 -75 13 -6 29
-20 36 -31 11 -17 4 -16 -42 11 -30 17 -61 31 -70 31 -8 0 -17 6 -20 13 -8 22
-127 57 -168 51 l-35 -6 25 -29 c14 -16 31 -29 38 -29 7 0 13 -5 13 -10 0 -6
-11 -8 -25 -4 -16 4 -25 2 -25 -6 0 -17 -104 -6 -136 15 l-26 17 18 -34 c26
-46 55 -78 72 -78 12 0 12 4 -2 25 -21 32 -20 34 7 31 69 -8 79 -23 50 -75
-17 -29 -17 -31 2 -45 11 -8 16 -18 11 -23 -4 -4 -16 3 -25 17 -27 42 -50 60
-74 60 -39 0 -77 -23 -82 -50 -3 -14 -10 -43 -15 -66 -6 -27 -6 -54 1 -78 5
-20 7 -41 4 -46 -4 -6 5 -24 18 -40 14 -16 27 -34 29 -40 2 -6 21 -17 42 -24
21 -7 34 -16 28 -20 -6 -3 -29 0 -51 8 l-41 14 0 -32 c0 -51 24 -76 70 -73 22
1 42 8 45 14 2 7 14 13 25 13 14 0 21 6 19 17 -3 39 2 60 15 60 18 0 27 -73
20 -152 -4 -33 -7 -70 -8 -82 0 -12 -4 -25 -9 -29 -4 -4 -5 -22 -1 -39 4 -22
1 -35 -10 -44 -14 -12 -16 -11 -16 7 0 29 -26 48 -45 32 -12 -10 -18 -10 -31
1 -9 7 -37 16 -62 19 -42 4 -47 8 -52 35 -8 38 -26 73 -53 103 -18 20 -20 26
-8 44 7 11 9 23 4 27 -4 3 -10 20 -11 36 -2 17 -8 32 -13 33 -5 2 -9 21 -9 42
0 58 -8 72 -31 57 -10 -6 -19 -17 -19 -24 0 -7 -6 -10 -12 -8 -18 6 -47 -38
-53 -79 -3 -29 -1 -36 13 -36 18 0 42 -18 42 -31 0 -4 -11 -10 -24 -13 -31 -8
-45 -45 -22 -61 20 -15 21 -75 3 -118 -31 -71 -39 -109 -28 -120 6 -6 11 -27
11 -47 0 -20 5 -41 11 -47 6 -6 13 -49 15 -95 3 -45 9 -126 15 -178 10 -91 17
-191 22 -330 2 -36 -1 -82 -5 -104 -5 -23 -5 -43 1 -50 5 -6 6 -37 2 -74 l-7
-62 430 1 c237 1 420 5 406 9 -17 5 -19 8 -7 9 13 1 17 10 17 36 0 24 5 35 14
35 25 0 29 20 32 159 1 75 3 136 4 136 1 0 4 71 6 159 2 100 8 163 15 172 7 9
9 29 5 53 -3 23 -2 42 4 46 7 4 7 12 0 25 -7 13 -7 21 0 25 6 4 8 11 4 16 -7
11 -6 282 2 389 2 41 7 115 11 165 4 58 11 94 20 104 13 13 13 16 -1 27 -19
13 -29 99 -15 126 5 9 10 32 11 50 3 29 7 34 28 33 20 0 26 -6 31 -35 3 -19
11 -46 16 -60 13 -32 15 -118 3 -125 -18 -11 -11 -64 9 -74 14 -8 21 -26 26
-73 3 -35 11 -97 16 -138 6 -41 12 -115 14 -165 8 -167 21 -330 29 -347 6 -13
4 -18 -8 -18 -17 0 -21 -12 -8 -24 12 -12 29 -175 19 -185 -5 -5 -6 -39 -2
-78 8 -83 9 -159 1 -278 -4 -49 -8 -106 -9 -125 -1 -19 -6 -38 -12 -42 -5 -4
40 -8 101 -8 l111 0 3 33 c1 17 3 46 3 62 0 39 -22 147 -34 161 -13 15 -20
152 -9 159 6 3 10 15 10 26 0 10 4 19 8 19 9 0 15 -10 76 -141 30 -64 73 -119
91 -119 3 0 6 19 6 43 2 32 3 35 6 13 3 -16 16 -38 29 -48 13 -11 24 -26 24
-34 0 -8 10 -14 26 -14 25 0 26 2 20 33 -10 44 -25 124 -32 169 -6 34 -2 42
40 89 39 43 46 57 41 78 -5 19 -3 23 5 15 35 -34 37 -318 3 -372 -22 -34 -36
-45 -96 -80 -26 -15 -50 -35 -53 -45 -3 -9 -17 -24 -32 -32 -26 -14 -25 -14
33 -14 34 -1 55 3 47 7 -9 6 -6 12 12 20 13 6 27 20 31 31 3 12 17 24 30 27
14 3 26 16 30 32 6 24 7 25 17 8 6 -10 8 -43 6 -72 l-5 -54 792 0 792 0 11 83
c16 120 20 195 39 792 3 121 6 270 5 332 -2 132 -3 131 109 140 109 9 113 15
120 170 4 70 10 139 13 153 6 24 -10 110 -41 230 -17 68 -29 370 -13 370 5 0
10 -9 10 -19 0 -11 5 -23 10 -26 11 -7 13 8 10 67 -1 20 4 47 11 60 7 13 14
42 16 65 4 37 1 43 -26 59 l-31 18 0 112 c0 128 -4 124 103 124 44 0 57 3 57
15 0 9 -9 15 -24 15 -14 0 -28 5 -32 11 -5 9 1 10 22 4 16 -5 42 -8 58 -7 16
1 35 -3 42 -9 8 -6 19 -9 26 -7 18 6 -91 68 -119 68 -15 0 -28 10 -38 29 -8
16 -24 32 -35 36 -15 5 -20 14 -18 35 1 16 -5 37 -15 48 -13 14 -17 35 -15 95
0 42 5 74 9 71 4 -2 11 1 15 7 4 8 3 9 -4 5 -9 -5 -12 9 -12 48 0 31 4 56 9
56 5 0 11 7 13 16 3 14 7 13 31 -6 15 -12 27 -17 27 -11 0 6 7 11 15 11 23 0
19 62 -6 94 -15 19 -20 35 -15 56 4 23 1 33 -17 45 -20 14 -22 14 -29 -2 -6
-17 -7 -16 -7 1 -1 10 9 27 21 37 11 11 16 19 10 19 -7 0 -12 5 -12 10 0 6 9
10 19 10 11 0 23 -4 26 -10 11 -18 43 -10 51 12 4 13 7 46 7 75 0 49 5 58 30
54 10 -1 9 27 -1 31 -5 1 -12 27 -15 57 -6 47 -4 54 13 58 14 4 20 14 20 33 0
16 6 31 13 33 10 4 10 6 0 6 -18 1 -16 31 2 31 9 0 15 9 15 21 0 17 -5 20 -24
17 -13 -3 -32 1 -42 9 -10 7 -12 13 -5 13 7 0 9 5 6 10 -3 6 -17 10 -30 10
-12 0 -26 7 -29 16 -10 25 -7 148 4 164 7 11 10 -3 10 -46 0 -50 3 -63 18 -66
15 -4 17 5 18 84 1 86 0 89 -23 94 -52 13 0 29 85 26 39 -2 43 -4 37 -23 -5
-14 -2 -25 6 -30 11 -7 9 -9 -5 -9 -11 0 -16 -3 -13 -7 4 -3 0 -14 -9 -24 -25
-27 -14 -63 19 -67 22 -3 28 -8 27 -25 -1 -12 -2 -934 -1 -2049 l1 -2028 4670
0 4670 0 0 8555 0 8555 -15215 0 -15215 0 0 -8555z m21090 6808 c0 -1502 -2
-1734 -14 -1717 -14 19 -15 19 -40 -5 -20 -19 -26 -34 -26 -68 l0 -43 40 6 40
7 -1 -3479 c-1 -1914 -3 -3471 -6 -3461 -3 13 -11 17 -25 14 -19 -5 -20 -2
-14 150 6 155 -6 319 -25 337 -5 6 -9 -42 -10 -130 -1 -76 -2 -161 -4 -189 -1
-27 -2 -75 -3 -105 -2 -36 -5 -50 -11 -41 -5 8 -7 -12 -4 -52 7 -86 -5 -199
-20 -194 -7 2 -11 14 -10 26 2 15 -3 21 -17 21 -11 0 -20 -6 -20 -12 -1 -7 -7
-2 -15 12 -7 14 -24 28 -37 32 l-23 6 22 7 c13 4 24 18 28 36 4 16 12 30 18
30 7 1 17 2 22 4 6 1 18 3 28 3 20 2 22 25 6 88 -9 33 -16 44 -31 44 -15 0
-18 5 -14 23 3 12 3 16 0 8 -5 -11 -8 -11 -15 0 -6 10 -9 8 -9 -8 0 -16 -6
-23 -20 -23 -16 0 -20 7 -21 33 l-2 32 -7 -35 c-7 -31 -8 -29 -9 23 0 31 -5
57 -11 57 -9 0 -14 -15 -11 -33 1 -5 -11 -7 -26 -5 -23 2 -29 8 -31 36 -3 29
-6 32 -30 30 -18 -2 -27 2 -30 15 -2 12 3 17 17 17 12 0 21 5 21 10 0 6 8 10
18 10 16 1 16 1 0 14 -11 8 -18 26 -18 45 0 29 -2 31 -15 17 -8 -8 -15 -23
-15 -34 0 -11 -7 -26 -16 -33 -15 -12 -16 -9 -9 40 6 45 5 53 -7 48 -8 -3 -21
-2 -28 3 -9 6 -7 9 8 14 11 4 24 14 28 24 6 13 9 9 14 -18 l7 -35 2 35 c1 40
-12 66 -28 56 -6 -4 -9 -11 -7 -15 3 -4 -11 -5 -30 -3 l-34 4 25 24 c27 25 32
44 13 44 -10 0 -10 2 -2 8 7 4 14 25 15 47 4 35 1 40 -16 40 -32 0 -46 15 -43
43 2 20 -2 28 -22 34 l-25 7 25 -1 c37 -2 100 13 100 23 0 5 -10 9 -22 9 -32
1 -74 25 -59 34 6 4 11 14 11 22 0 18 28 48 53 57 18 7 24 27 7 27 -6 0 -8 11
-4 25 5 20 3 24 -9 19 -9 -3 -18 -11 -20 -18 -6 -16 -96 -29 -132 -20 -18 4
-24 11 -20 23 4 14 -2 17 -32 16 -21 -1 -37 -6 -36 -11 1 -6 -4 -11 -12 -11
-10 0 -12 8 -8 29 4 21 2 28 -11 28 -9 0 -16 -4 -16 -10 0 -5 -4 -10 -9 -10
-5 0 -15 38 -21 84 -10 63 -16 83 -26 79 -15 -5 -16 -1 -16 67 0 55 0 54 16
41 19 -16 29 22 14 54 -10 23 -5 74 19 190 8 34 10 36 15 18 3 -13 13 -23 22
-23 21 0 21 38 0 42 -15 3 -17 23 -19 153 -1 90 -9 189 -20 249 -13 75 -15
104 -6 122 6 14 11 34 11 44 0 11 6 20 14 20 16 0 26 21 26 53 0 12 7 31 15
41 8 11 15 30 15 43 0 13 4 23 8 23 10 0 8 67 -3 95 -16 43 -36 81 -52 100
-16 18 -138 65 -170 65 -6 0 -18 10 -27 23 -12 15 -18 18 -22 10 -3 -7 -13
-13 -22 -13 -18 0 -52 28 -52 44 0 6 5 4 10 -4 8 -12 10 -9 10 12 0 21 6 29
26 34 19 5 22 9 12 15 -10 6 -10 9 0 9 6 0 12 5 12 10 0 6 -7 10 -16 10 -9 0
-27 9 -41 20 -14 11 -34 20 -45 20 -10 0 -21 7 -25 16 -5 13 -7 13 -14 2 -7
-10 -9 -9 -9 4 0 9 4 19 9 22 16 10 18 78 4 115 l-14 36 4 -32 c3 -25 -1 -33
-17 -37 -13 -3 -26 0 -32 9 -10 14 -12 14 -18 0 -8 -22 -39 -19 -54 5 -7 12
-18 18 -24 14 -8 -5 -9 2 -5 24 5 24 3 32 -8 32 -8 0 -15 -4 -15 -9 0 -6 -9
-9 -20 -8 -15 1 -20 8 -20 29 0 21 -5 28 -20 28 -11 0 -20 -7 -20 -15 0 -9 -9
-15 -21 -15 -18 0 -21 4 -16 29 5 24 2 31 -13 36 -14 4 -20 15 -20 36 0 26 -9
34 -32 30 -11 -1 3 90 18 121 16 32 18 68 4 68 -5 0 -10 14 -10 31 0 19 -4 28
-11 23 -6 -3 -8 -17 -5 -30 7 -27 3 -29 -25 -14 -24 13 -25 37 -1 43 9 3 2 5
-15 6 -31 1 -33 3 -33 36 0 24 -5 35 -15 35 -10 0 -15 11 -15 35 0 23 -5 35
-14 35 -10 0 -16 20 -21 70 -4 39 -11 70 -16 70 -5 0 -9 -4 -9 -10 0 -5 -9
-10 -20 -10 -11 0 -20 5 -20 10 0 6 -7 10 -15 10 -8 0 -15 7 -15 15 0 8 -9 15
-20 15 -13 0 -20 7 -20 20 0 11 -7 20 -15 20 -10 0 -15 11 -15 35 0 28 -4 35
-20 35 -16 0 -20 7 -21 33 -2 30 -2 30 -6 5 -2 -15 3 -38 11 -50 31 -44 22
-58 -38 -58 l-54 0 -7 70 c-6 60 -10 70 -26 70 -15 0 -19 7 -19 35 0 28 -4 35
-20 35 -18 0 -20 7 -20 69 0 38 -4 71 -10 73 -5 2 -12 39 -15 83 -9 120 -14
145 -30 145 -11 0 -15 14 -15 55 0 48 -2 55 -20 55 -17 0 -20 7 -20 50 0 38
-4 50 -15 50 -12 0 -15 16 -15 85 0 78 -2 85 -20 85 -18 0 -20 7 -20 70 l0 71
-32 -6 -33 -6 0 176 c0 116 -4 178 -11 183 -6 4 -13 26 -17 50 -4 34 -2 42 11
43 10 1 -1 5 -23 10 -30 6 -23 7 28 3 86 -6 141 10 157 45 7 14 15 95 19 182
7 154 7 155 45 230 21 40 51 87 67 102 31 30 37 65 19 111 -8 23 -15 26 -54
26 -61 0 -103 -37 -146 -132 -32 -68 -35 -83 -41 -213 -12 -214 -10 -210 -103
-239 -15 -5 -17 -13 -13 -41 3 -19 2 -35 -4 -35 -5 0 -9 14 -9 30 0 25 -5 31
-28 36 -37 8 -55 38 -58 99 -1 28 -7 147 -13 266 -8 163 -15 226 -28 255 -12
29 -16 61 -14 122 l3 82 -31 0 c-31 0 -31 0 -31 -54 0 -33 -5 -56 -12 -58 -8
-3 -5 -18 10 -50 36 -72 54 -180 50 -293 -4 -123 -25 -172 -127 -292 -125
-146 -171 -164 -303 -123 -99 31 -149 78 -177 169 -24 78 -41 223 -41 357 0
94 1 100 41 177 45 87 93 143 139 159 17 5 30 14 30 18 0 15 102 33 157 27 54
-6 126 -40 165 -79 24 -24 48 -17 48 15 0 17 -6 24 -17 24 -47 0 -53 3 -53 28
0 29 26 35 33 8 3 -11 5 -7 6 10 0 15 6 27 12 27 14 0 2 133 -12 138 -5 2 -9
19 -9 38 0 25 4 34 16 34 12 0 14 5 9 18 -4 9 -10 27 -13 40 -2 13 -13 29 -23
35 -11 7 -19 17 -19 23 0 6 -11 36 -24 67 -14 30 -22 64 -19 76 4 15 1 21 -11
21 -13 0 -16 12 -16 65 0 51 3 65 15 65 12 0 15 14 15 65 0 51 -3 65 -15 65
-12 0 -15 14 -15 70 0 43 4 70 11 70 6 0 4 7 -5 15 -22 23 -66 20 -66 -5 0
-11 -4 -20 -10 -20 -5 0 -10 -9 -10 -20 0 -11 5 -20 10 -20 6 0 10 -5 10 -11
0 -6 -7 -9 -15 -6 -8 4 -17 2 -20 -3 -4 -6 3 -10 14 -10 12 0 21 -4 21 -10 0
-5 -11 -10 -25 -10 -22 0 -25 4 -25 40 0 22 5 40 10 40 6 0 10 5 10 10 0 6 -7
10 -15 10 -13 0 -15 27 -16 178 -1 97 -4 167 -6 155 -5 -27 -23 -31 -24 -5 -1
11 -4 9 -9 -8 -4 -14 -9 -104 -9 -200 -1 -166 -8 -219 -26 -190 -9 14 -9 232
0 260 4 12 2 26 -3 33 -7 8 -5 36 5 82 9 39 16 79 17 90 0 11 7 26 14 34 11
12 11 15 0 22 -10 7 -10 11 -1 17 8 5 12 33 11 82 -1 47 3 75 10 78 7 2 2 14
-12 29 -27 29 -24 53 5 53 25 0 24 27 -1 35 -17 5 -20 15 -19 58 0 29 3 46 6
40 2 -7 11 -13 19 -13 10 0 14 12 14 41 0 41 -1 41 -30 36 -29 -6 -30 -5 -31
31 -1 20 -3 29 -6 20 -2 -10 -9 -18 -14 -18 -5 0 -9 8 -10 18 0 15 -2 14 -10
-3 -7 -16 -8 -14 -4 10 4 17 13 35 21 41 16 13 19 34 4 34 -5 0 -10 -7 -10
-15 0 -8 -5 -15 -11 -15 -7 0 -10 25 -7 72 2 63 1 73 -15 76 -19 4 -24 22 -6
22 17 0 38 -32 39 -58 0 -22 24 -28 26 -6 0 5 4 17 8 27 5 9 5 34 2 55 -9 54
-7 83 6 99 8 10 8 27 -2 67 -7 30 -10 63 -8 74 9 31 -8 47 -49 47 -34 0 -38 3
-41 28 -2 15 -8 27 -13 27 -5 0 -9 7 -9 15 0 8 5 15 10 15 6 0 10 9 10 20 0
11 -4 20 -10 20 -5 0 -10 7 -10 15 0 8 5 15 10 15 6 0 10 6 10 14 0 9 7 12 20
9 17 -5 20 0 20 31 0 23 -5 39 -15 42 -8 4 -15 17 -15 30 0 15 6 24 15 24 8 0
15 7 15 15 0 8 -7 15 -15 15 -14 0 -20 17 -16 48 1 6 -5 12 -14 12 -8 0 -15 5
-15 10 0 6 5 10 10 10 6 0 10 5 10 10 0 6 -6 10 -14 10 -12 0 -23 21 -30 55
-1 6 -6 18 -10 28 -5 10 -6 21 -2 24 3 4 6 -1 6 -10 0 -10 4 -17 9 -17 5 0 7
9 4 19 -3 11 0 28 6 38 10 15 11 11 9 -24 -3 -30 0 -43 9 -43 19 0 18 206 -1
225 -11 12 -13 7 -10 -33 3 -36 2 -41 -5 -22 -5 14 -10 21 -11 15 -1 -5 -5 -1
-9 10 -5 11 -4 25 1 32 10 12 5 63 -7 83 -4 6 -2 17 5 25 7 9 8 15 0 20 -19
12 -11 55 13 65 15 6 17 9 6 9 -27 1 -37 110 -11 119 7 2 11 -4 10 -15 -3 -34
2 -53 13 -53 19 0 34 25 35 60 1 19 7 64 14 100 11 61 11 69 -10 113 -12 26
-26 47 -31 47 -5 0 -9 28 -10 63 -1 59 -1 61 -14 33 -10 -25 -12 15 -13 257
l0 286 67 4 c36 2 706 4 1489 5 l1422 2 0 -1737z m-2970 1111 c0 -8 -5 -12
-10 -9 -6 4 -8 11 -5 16 9 14 15 11 15 -7z m-13 -586 c-3 -8 -6 -5 -6 6 -1 11
2 17 5 13 3 -3 4 -12 1 -19z m278 -2358 c-3 -5 -16 -10 -28 -9 -20 1 -20 2 3
9 14 4 26 8 28 9 2 1 0 -3 -3 -9z m-7616 -607 c23 -6 24 -8 17 -87 -3 -45 -13
-117 -21 -161 -21 -122 -33 -258 -45 -511 -11 -236 -22 -340 -39 -357 -14 -14
-202 -30 -214 -18 -17 17 -25 91 -18 177 7 93 7 94 -59 94 -45 0 -43 3 -61
-150 -6 -58 -16 -111 -21 -117 -6 -8 -34 -13 -67 -13 -83 0 -88 7 -94 125 -16
293 -28 699 -25 835 l3 155 35 3 c49 5 135 -7 154 -21 14 -10 17 -48 22 -282
3 -149 7 -275 9 -281 4 -13 92 -1 108 15 20 20 28 99 34 321 3 129 10 245 14
258 8 21 13 22 126 22 65 0 129 -3 142 -7z m4280 -46 c29 -14 28 7 15 -285 -4
-108 -3 -167 4 -174 7 -7 25 -3 58 12 115 52 201 63 235 29 20 -20 21 -29 16
-101 -6 -84 -24 -120 -71 -134 -70 -22 -126 -47 -126 -57 0 -7 31 -32 70 -56
38 -23 79 -55 91 -69 23 -29 49 -87 49 -107 0 -21 -45 -68 -83 -89 l-36 -18
-73 60 c-40 33 -84 71 -97 86 -42 45 -47 35 -37 -73 13 -144 12 -145 -79 -161
-51 -9 -79 -10 -86 -3 -14 14 -35 142 -49 293 -8 85 -9 230 -5 455 7 292 10
334 26 367 10 20 24 39 31 42 19 8 118 -3 147 -17z m-2759 -34 c75 -65 92
-143 39 -187 -24 -20 -41 -26 -80 -26 -44 0 -55 5 -91 39 -37 34 -41 43 -41
85 0 41 5 52 38 86 50 51 78 52 135 3z m5588 7 c45 -33 66 -66 76 -123 6 -33
3 -41 -23 -67 -26 -26 -37 -30 -86 -30 -53 0 -60 3 -96 39 -34 34 -39 44 -39
86 0 42 5 52 39 86 47 47 74 49 129 9z m-1359 0 l26 -7 -2 -103 c-1 -57 -9
-139 -17 -184 -18 -95 -40 -296 -61 -561 -9 -104 -18 -200 -22 -212 -6 -27
-78 -51 -103 -36 -8 6 -60 77 -115 159 -55 83 -118 173 -140 202 -48 64 -47
66 -69 -113 -26 -201 -20 -185 -74 -185 -83 0 -123 11 -134 36 -7 15 -7 62 1
151 6 70 16 254 21 408 6 154 13 290 16 303 3 16 21 30 60 47 31 14 63 25 71
25 8 0 35 -45 64 -107 28 -60 83 -162 122 -228 l72 -120 2 50 c12 259 25 469
30 482 5 13 22 14 116 8 60 -4 121 -11 136 -15z m-3309 -8 c18 -15 26 -47 55
-217 62 -371 97 -549 137 -709 22 -87 36 -162 31 -166 -19 -18 -133 -71 -141
-66 -10 6 -60 145 -89 246 -21 72 -29 77 -118 79 l-51 1 -34 -102 c-39 -116
-32 -111 -137 -83 -34 10 -64 23 -67 31 -3 8 3 53 14 102 18 82 60 299 130
665 16 87 30 167 30 177 0 28 24 41 97 49 106 13 119 12 143 -7z m-1252 -44
c25 -12 65 -40 89 -63 36 -35 43 -48 43 -80 0 -43 -39 -119 -70 -135 -22 -12
-47 -3 -70 24 -16 20 -62 20 -98 2 -42 -22 -129 -117 -147 -158 -19 -48 -20
-204 0 -313 17 -95 19 -147 5 -197 -14 -49 -30 -64 -94 -84 -52 -16 -55 -16
-86 2 -20 12 -38 33 -45 54 -12 36 -28 207 -45 500 -5 91 -17 203 -25 249 -25
129 -8 165 80 176 65 9 88 -3 111 -55 20 -44 25 -47 44 -25 47 56 174 124 234
125 16 0 50 -10 74 -22z m5658 -23 c58 -24 83 -119 49 -185 -16 -31 -28 -35
-137 -44 -63 -5 -115 -30 -124 -59 -7 -23 16 -50 81 -92 71 -47 86 -67 134
-183 49 -121 58 -171 41 -232 -25 -93 -121 -154 -283 -180 -76 -13 -79 -12
-100 9 -18 18 -22 33 -22 89 0 91 18 119 82 127 81 10 121 24 142 51 18 23 19
28 6 47 -8 11 -61 52 -119 91 -108 74 -178 146 -197 205 -15 43 -6 119 20 168
41 79 148 167 231 189 62 17 154 17 196 -1z m-6462 -32 c93 -48 202 -151 213
-201 4 -20 8 -138 8 -262 0 -227 -18 -426 -40 -457 -6 -9 -41 -21 -78 -28 -54
-10 -70 -10 -85 1 -16 11 -26 10 -62 -2 -81 -28 -188 16 -260 107 -50 63 -53
76 -48 191 3 76 9 104 32 156 41 88 97 129 249 183 37 13 67 29 67 35 0 23
-41 62 -81 78 -23 10 -72 20 -108 23 -95 8 -101 13 -101 81 0 86 14 106 80
113 75 9 179 0 214 -18z m3445 -16 c29 -18 82 -59 118 -92 59 -56 64 -64 74
-120 25 -139 -6 -661 -42 -700 -5 -5 -39 -14 -77 -21 -55 -9 -70 -8 -83 3 -13
11 -23 11 -60 -2 -76 -27 -176 9 -244 87 -62 73 -67 88 -63 207 3 94 6 112 33
165 42 82 88 118 211 163 57 21 104 43 104 49 0 7 -17 27 -39 47 -41 37 -106
57 -184 57 -24 0 -48 5 -55 12 -14 14 -16 136 -2 158 12 19 96 29 185 23 56
-3 81 -11 124 -36z m2319 14 c61 -31 181 -130 200 -164 15 -27 17 -67 20 -274
3 -209 0 -259 -17 -364 -12 -68 -23 -125 -26 -127 -2 -3 -36 -10 -75 -17 -56
-10 -73 -9 -88 1 -15 10 -26 10 -63 -3 -40 -15 -49 -15 -101 1 -67 19 -128 64
-172 125 -30 42 -31 45 -31 155 1 94 4 119 24 163 36 82 99 133 219 179 56 21
102 44 102 50 0 23 -41 62 -81 78 -23 10 -72 20 -108 23 -36 3 -72 10 -78 16
-18 13 -17 151 0 165 32 27 218 22 275 -7z m-2942 -28 c97 -47 151 -105 176
-187 21 -74 37 -243 28 -307 -5 -35 -10 -112 -10 -170 0 -216 -23 -259 -136
-259 -59 0 -68 3 -95 29 -18 19 -29 40 -29 58 -1 38 28 269 45 374 18 101 19
173 5 200 -8 14 -21 19 -49 19 -61 0 -100 -34 -145 -125 -39 -78 -40 -83 -47
-223 -4 -78 -10 -156 -14 -172 -8 -38 -48 -60 -110 -60 -66 0 -79 17 -93 130
-13 105 -27 391 -27 541 0 115 13 139 76 139 59 0 89 -15 95 -50 8 -38 16 -38
49 3 15 17 43 44 63 59 52 39 141 39 218 1z m-1622 -196 c18 -13 18 -28 7
-358 -7 -189 -14 -354 -16 -366 -6 -26 -50 -42 -125 -46 -49 -2 -55 0 -67 24
-23 47 -31 192 -26 447 l6 253 27 19 c16 11 38 24 51 29 36 14 123 13 143 -2z
m5607 -8 c6 -7 8 -40 5 -72 -3 -33 -9 -189 -13 -349 -5 -243 -9 -293 -22 -309
-20 -25 -155 -49 -173 -31 -6 6 -15 33 -20 59 -13 69 -22 623 -11 652 5 13 29
35 54 48 36 20 55 24 107 21 41 -3 67 -9 73 -19z m759 -709 l-11 -25 6 25 c2
14 6 39 6 55 l2 30 4 -30 c2 -17 -1 -42 -7 -55z m190 -540 c0 -13 -7 -20 -20
-20 -11 0 -20 -7 -20 -15 0 -8 9 -15 20 -15 11 0 20 -7 20 -15 0 -9 -9 -15
-25 -15 -21 0 -25 5 -25 28 0 15 3 37 6 50 8 28 44 30 44 2z m0 -175 c0 -8 -9
-15 -20 -15 -11 0 -20 7 -20 15 0 8 9 15 20 15 11 0 20 -7 20 -15z m0 -75 c0
-5 -9 -10 -20 -10 -11 0 -20 5 -20 10 0 6 9 10 20 10 11 0 20 -4 20 -10z m-7
-67 c-7 -2 -19 -2 -25 0 -7 3 -2 5 12 5 14 0 19 -2 13 -5z m37 -34 c0 -17 -4
-28 -10 -24 -5 3 -10 17 -10 31 0 13 5 24 10 24 6 0 10 -14 10 -31z m110 -394
c0 -8 7 -15 15 -15 8 0 15 -7 15 -15 0 -8 -7 -15 -15 -15 -8 0 -15 -4 -15 -10
0 -17 -42 -11 -56 8 -16 21 -18 36 -3 27 6 -4 13 2 16 14 6 24 43 29 43 6z
m-43 -177 c-3 -8 -6 -5 -6 6 -1 11 2 17 5 13 3 -3 4 -12 1 -19z m456 -255
c-14 -3 -23 -13 -26 -31 -4 -24 -4 -24 -6 6 -1 29 2 32 27 31 22 -1 23 -2 5
-6z m147 -308 c0 -19 -4 -35 -10 -35 -5 0 -10 16 -10 35 0 19 5 35 10 35 6 0
10 -16 10 -35z m20 -115 c0 -5 -4 -10 -10 -10 -5 0 -10 5 -10 10 0 6 5 10 10
10 6 0 10 -4 10 -10z m88 -845 c-8 -9 -238 -11 -238 -3 0 4 55 8 122 8 67 0
119 -2 116 -5z m90 -4 c8 -5 1 -8 -20 -9 -18 -1 -40 3 -48 8 -11 7 -6 10 20
10 19 0 41 -4 48 -9z m-351 -7 c-3 -3 -12 -4 -19 -1 -8 3 -5 6 6 6 11 1 17 -2
13 -5z m183 -59 c0 -8 7 -15 15 -15 8 0 15 7 15 15 0 30 33 -1 36 -34 4 -29 2
-31 -29 -32 -17 -1 -47 0 -66 1 -25 1 -31 -2 -26 -12 5 -9 5 -10 -2 -3 -16 15
-4 83 16 88 31 9 41 7 41 -8z m498 -82 c6 -27 14 -68 18 -93 4 -36 3 -41 -6
-27 -8 13 -22 17 -49 16 -20 -2 -43 1 -51 6 -8 5 -11 4 -6 -3 3 -6 1 -14 -5
-17 -5 -4 -7 -14 -4 -24 4 -9 10 -41 14 -71 6 -51 8 -55 34 -58 19 -2 27 1 27
12 0 18 15 21 25 6 3 -5 14 -10 24 -10 14 0 20 -11 25 -52 8 -72 8 -146 -1
-151 -5 -2 -100 2 -213 9 -113 7 -254 13 -315 14 -126 1 -236 19 -243 39 -3 8
0 11 6 7 6 -3 5 6 -3 21 -16 35 -31 283 -16 283 19 0 26 -23 38 -117 4 -38 8
-43 30 -43 34 0 60 16 77 48 11 18 15 22 16 10 0 -19 37 -48 60 -48 8 0 25 14
36 31 l21 30 6 -31 c7 -34 34 -41 45 -10 7 18 9 18 35 5 15 -8 34 -12 42 -8
23 8 18 32 -10 45 -18 8 -22 14 -15 24 21 24 47 4 56 -44 7 -37 13 -47 29 -47
17 0 20 7 20 50 0 46 8 64 28 65 4 0 7 -11 7 -25 0 -14 9 -44 20 -65 15 -30
26 -40 45 -40 27 0 58 41 36 48 -9 3 -9 7 0 18 14 18 5 29 -24 29 -13 0 -22 6
-22 15 0 9 7 14 18 12 22 -4 35 27 16 39 -8 5 -27 7 -44 4 -49 -9 -185 -11
-185 -3 0 5 -4 8 -10 8 -5 0 -10 -6 -10 -14 0 -7 -9 -16 -20 -19 -15 -4 -20 0
-20 16 0 12 -3 33 -7 47 -5 20 -4 23 8 15 17 -12 41 -12 133 -1 45 6 70 5 75
-2 15 -24 71 -18 71 8 0 16 7 20 35 20 19 0 35 -4 35 -10 0 -5 5 -10 10 -10
14 0 12 37 -2 44 -7 4 -3 4 10 2 18 -3 22 0 22 20 0 40 15 27 28 -23z m-628
12 c0 -8 -7 -15 -15 -15 -8 0 -15 7 -15 15 0 8 7 15 15 15 8 0 15 -7 15 -15z
m190 -44 c0 -16 -7 -34 -15 -41 -8 -7 -15 -22 -15 -33 0 -16 -3 -18 -12 -9
-15 15 -53 16 -78 2 -14 -7 -19 -6 -23 9 -6 23 -51 32 -100 21 -20 -4 -37 -5
-37 -1 1 15 17 26 40 26 20 0 24 4 22 23 -2 15 2 22 12 22 10 0 16 -9 16 -21
0 -17 4 -19 23 -13 12 4 26 12 30 18 6 8 10 8 14 -1 7 -18 73 -17 73 1 0 13
13 20 43 25 4 0 7 -12 7 -28z m-263 -3 c-3 -8 -6 -5 -6 6 -1 11 2 17 5 13 3
-3 4 -12 1 -19z m78 -98 c7 -21 -10 -60 -25 -60 -6 0 -10 18 -10 40 0 43 23
57 35 20z m115 -22 c0 -7 -5 -20 -10 -28 -8 -12 -10 -9 -10 13 0 15 5 27 10
27 6 0 10 -6 10 -12z m540 -38 c0 -28 -2 -30 -21 -20 -20 11 -20 12 -2 30 24
24 23 25 23 -10z m-4972 -125 c13 -4 22 -3 22 3 0 6 47 11 124 11 l123 2 7
-47 c3 -26 5 -92 4 -148 0 -56 -3 -85 -5 -66 -6 62 -13 81 -25 74 -7 -4 -31
-7 -54 -5 -42 2 -43 1 -49 -33 -4 -19 -14 -37 -22 -40 -12 -5 -14 -1 -11 19 3
14 2 25 -2 25 -4 0 -10 8 -14 18 -3 9 -12 33 -20 52 -14 34 -15 34 -13 -43 2
-56 -1 -77 -11 -77 -16 0 -55 22 -65 37 -4 7 -14 10 -21 7 -8 -3 -30 -1 -49 4
-44 12 -58 3 -59 -36 -1 -32 -11 -41 -24 -21 -4 7 -10 7 -16 1 -7 -7 -15 -6
-25 4 -8 8 -29 14 -48 14 -24 0 -34 5 -38 20 -5 21 -27 28 -27 9 0 -5 -4 -8
-10 -4 -5 3 -6 13 -3 22 4 11 2 14 -5 9 -18 -11 -52 12 -52 35 0 15 -5 18 -24
13 -16 -4 -25 -1 -29 10 -8 19 -27 21 -27 4 -1 -7 -7 -26 -14 -43 -12 -27 -13
-21 -15 72 l-2 103 208 2 c234 3 259 3 291 -7z m-3548 -154 c0 -5 -9 -13 -20
-16 -11 -4 -18 -10 -15 -15 3 -5 1 -11 -4 -15 -6 -3 -8 -21 -6 -40 3 -22 1
-35 -6 -35 -8 0 -8 -4 1 -15 17 -21 4 -35 -34 -35 -18 0 -36 -3 -39 -6 -4 -4
-29 -15 -57 -24 -44 -15 -50 -15 -50 -1 0 29 -21 -5 -22 -36 -1 -37 11 -61 22
-43 6 9 12 9 28 -1 31 -19 39 -3 11 20 -28 22 -25 28 19 37 30 6 32 5 32 -22
0 -21 7 -32 25 -41 24 -11 25 -10 25 24 0 20 4 32 10 28 6 -4 7 -11 4 -17 -4
-6 -2 -8 4 -4 6 3 13 2 17 -4 3 -5 15 -10 26 -10 10 0 19 -5 19 -11 0 -7 -11
-8 -30 -4 l-31 7 7 -41 c5 -31 3 -41 -7 -42 -8 0 -51 -2 -96 -4 -45 -2 -91 -6
-102 -10 -43 -13 -18 -20 64 -17 56 2 85 0 85 -7 0 -6 -5 -11 -12 -11 -6 0 -8
-3 -4 -7 8 -8 13 -10 44 -12 11 0 24 -11 30 -23 6 -13 11 -18 11 -12 1 6 12 9
26 6 27 -5 35 -22 10 -22 -8 0 -15 -4 -15 -9 0 -5 -3 -16 -6 -25 -4 -11 0 -16
14 -16 19 0 39 -17 31 -25 -2 -1 -124 -6 -271 -10 l-268 -7 -1 48 c-1 27 -2
60 -4 74 -1 14 -5 120 -9 237 l-8 212 128 4 c309 7 424 7 424 -2z m3500 -95
c0 -3 -4 -8 -10 -11 -5 -3 -10 -1 -10 4 0 6 5 11 10 11 6 0 10 -2 10 -4z
m-3473 -131 c8 -22 -6 -33 -17 -15 -13 20 -12 30 0 30 6 0 13 -7 17 -15z m201
-56 c-3 -33 -4 -33 -8 8 -3 23 -2 39 3 34 5 -5 7 -24 5 -42z m3032 -49 c0 -5
-2 -10 -4 -10 -3 0 -8 5 -11 10 -3 6 -1 10 4 10 6 0 11 -4 11 -10z m5424 -335
c3 -8 1 -15 -4 -15 -6 0 -10 7 -10 15 0 8 2 15 4 15 2 0 6 -7 10 -15z m256
-285 c0 -11 -4 -20 -10 -20 -5 0 -10 9 -10 20 0 11 5 20 10 20 6 0 10 -9 10
-20z m-80 -10 c0 -12 7 -20 17 -20 9 0 14 -3 10 -6 -12 -12 -47 8 -47 27 0 10
5 19 10 19 6 0 10 -9 10 -20z m-2932 -273 c1 -78 11 -220 22 -316 11 -96 19
-176 17 -177 -2 -2 -39 -9 -83 -15 -145 -20 -233 -38 -266 -52 -83 -37 -167
-79 -210 -106 -41 -26 -48 -28 -52 -13 -8 30 -35 243 -47 376 -6 70 -15 142
-20 160 -15 51 -11 76 14 85 12 5 58 24 102 41 244 99 424 157 490 159 l30 1
3 -143z m3302 -317 c0 -11 -7 -20 -15 -20 -8 0 -15 9 -15 20 0 11 7 20 15 20
8 0 15 -9 15 -20z m0 -100 c0 -5 -4 -10 -10 -10 -5 0 -10 5 -10 10 0 6 5 10
10 10 6 0 10 -4 10 -10z m210 -101 c0 -60 -4 -108 -9 -105 -24 15 -37 196 -14
196 7 0 13 5 13 10 0 6 2 10 5 10 3 0 5 -50 5 -111z m-1 -151 c-1 -31 -1 -31
-8 -8 -5 14 -6 28 -4 33 9 15 13 6 12 -25z m-6 -126 c3 7 6 -25 6 -72 l0 -85
-22 42 c-16 31 -21 55 -18 90 3 41 5 45 16 29 10 -13 14 -14 18 -4z m-54 -373
c-2 -89 -19 -79 -19 12 0 46 4 68 10 64 6 -4 10 -37 9 -76z m47 44 c-3 -8 -1
-11 4 -8 6 4 10 -29 10 -89 0 -77 -3 -96 -14 -96 -8 0 -17 -12 -19 -27 -2 -16
-5 12 -6 60 0 58 3 86 9 82 7 -4 8 13 4 51 -6 44 -4 55 5 50 7 -5 10 -15 7
-23z m-1329 -215 c-3 -8 -6 -5 -6 6 -1 11 2 17 5 13 3 -3 4 -12 1 -19z m445
-151 c34 -140 59 -243 78 -312 10 -38 21 -97 25 -130 3 -33 12 -73 19 -90 8
-16 17 -41 21 -55 7 -22 6 -23 -9 -11 -17 14 -21 5 -10 -23 5 -13 9 -14 20 -5
11 9 14 7 14 -14 0 -18 8 -28 29 -37 16 -6 37 -20 47 -31 16 -18 16 -19 -7
-28 -16 -5 -29 -5 -37 2 -10 8 -19 7 -33 -1 -16 -10 -19 -9 -25 16 -4 15 -12
36 -19 48 -7 11 -16 60 -19 107 -3 48 -12 105 -20 127 -7 22 -10 43 -5 46 12
7 12 54 0 54 -5 0 -11 -8 -14 -17 -2 -10 -7 14 -11 52 -4 39 -19 99 -33 135
-14 36 -29 94 -34 130 -18 139 -6 158 23 37z m-602 -83 c0 -8 -4 -12 -10 -9
-5 3 -10 13 -10 21 0 8 5 12 10 9 6 -3 10 -13 10 -21z m1498 -74 c-2 -30 -28
-44 -28 -15 0 8 -4 15 -10 15 -20 0 -10 19 13 23 12 2 23 5 25 6 1 0 1 -12 0
-29z m-158 -10 c-14 -11 -28 -20 -32 -20 -4 0 -10 -9 -13 -20 -6 -19 -35 -29
-35 -12 0 10 38 45 65 60 33 18 42 13 15 -8z m157 -62 c-3 -8 -6 -5 -6 6 -1
11 2 17 5 13 3 -3 4 -12 1 -19z m-252 2 c-3 -5 -16 -15 -28 -21 -21 -10 -21
-9 2 10 25 23 36 27 26 11z m-5688 -202 c-3 -8 -6 -5 -6 6 -1 11 2 17 5 13 3
-3 4 -12 1 -19z m-3594 -325 c-7 -2 -21 -2 -30 0 -10 3 -4 5 12 5 17 0 24 -2
18 -5z m6911 -294 c16 -65 30 -255 16 -221 -11 26 -24 30 -16 5 7 -23 46 -250
46 -269 0 -8 -6 -14 -14 -14 -14 0 -11 -45 4 -65 4 -5 11 -41 15 -78 4 -47 13
-73 25 -85 18 -17 18 -18 -13 -17 -63 3 -65 4 -69 41 -2 19 0 38 5 41 6 3 7 1
3 -5 -4 -7 -1 -12 9 -12 18 0 18 28 -4 120 -5 25 -10 88 -11 140 0 52 -7 130
-15 173 -8 43 -14 102 -13 130 1 41 2 44 5 17 3 -19 9 -39 14 -44 16 -17 11
98 -6 120 -15 20 -20 66 -8 77 10 10 12 5 27 -54z m-6933 -307 c8 -22 35 -39
78 -53 22 -6 20 -7 -16 -8 -73 -2 -143 39 -143 85 0 21 2 21 37 9 20 -7 40
-22 44 -33z m9549 8 c0 -5 -8 -10 -17 -10 -15 0 -16 2 -3 10 19 12 20 12 20 0z
m-3925 -10 c3 -6 -1 -7 -9 -4 -18 7 -21 14 -7 14 6 0 13 -4 16 -10z m-38 -40
c12 0 23 4 25 10 5 17 49 12 168 -21 63 -18 125 -32 138 -31 13 0 29 -10 39
-24 15 -23 41 -35 27 -13 -9 15 15 29 46 28 17 -1 19 -3 8 -6 -19 -5 -25 -23
-8 -23 6 0 10 -7 10 -15 0 -13 27 -21 55 -15 6 1 4 -5 -3 -12 -9 -9 -46 -14
-115 -15 -56 -1 -104 -2 -107 -3 -3 0 4 -8 15 -17 20 -15 20 -15 -2 -10 -23 5
-22 13 -9 -98 4 -25 0 -37 -12 -45 -16 -9 -16 -9 1 -10 14 0 16 -5 11 -25 -4
-17 -2 -25 7 -25 8 0 27 -12 44 -26 24 -21 27 -27 15 -35 -11 -8 -12 -12 -2
-16 6 -2 12 -12 12 -20 0 -12 8 -15 41 -10 47 6 44 4 53 39 5 22 2 27 -16 31
-13 3 6 3 42 0 35 -2 66 -6 68 -8 12 -12 9 -57 -4 -62 -16 -6 -19 -43 -4 -43
6 0 10 -7 10 -16 0 -8 -4 -12 -10 -9 -5 3 -10 0 -10 -7 0 -7 -9 -24 -20 -38
-11 -14 -20 -41 -20 -61 0 -20 -7 -53 -15 -73 -8 -19 -20 -58 -26 -85 -5 -27
-18 -56 -29 -66 -17 -15 -20 -14 -45 10 -32 29 -27 44 10 27 14 -7 28 -12 29
-12 6 0 -10 66 -19 79 -4 7 -1 26 5 42 17 39 -2 79 -37 79 -29 0 -41 -27 -19
-43 13 -10 14 -18 5 -51 -6 -21 -9 -50 -6 -63 2 -13 -1 -30 -9 -37 -11 -11 -1
-26 57 -85 38 -39 69 -74 69 -78 -1 -9 -117 -86 -137 -91 -7 -2 -13 -8 -13
-13 0 -5 -4 -9 -10 -9 -5 0 -10 10 -10 23 0 44 -97 118 -177 135 -31 7 -38 13
-45 42 -5 19 -13 44 -18 55 -24 52 -38 118 -44 210 -6 113 -11 142 -32 205
-31 90 -46 299 -27 373 5 20 29 23 36 5 4 -10 6 -10 6 -1 1 7 -8 17 -19 23
-23 12 -44 56 -34 71 4 6 13 4 23 -5 10 -9 27 -16 38 -16z m-326 -45 c14 -36
12 -107 -3 -116 -7 -5 -8 -17 -2 -35 11 -36 6 -117 -7 -109 -5 4 -9 0 -9 -9 0
-8 -6 -17 -12 -20 -10 -5 -10 -7 0 -12 19 -9 14 -34 -8 -34 -11 0 -20 -6 -21
-12 -1 -7 -2 -24 -2 -38 -2 -18 -8 -25 -23 -26 -12 -1 -26 -4 -31 -7 -17 -11
-33 41 -32 106 0 34 3 56 6 50 7 -18 48 -16 63 2 9 11 14 58 15 148 1 73 5
141 8 152 3 11 6 21 6 23 3 9 42 -38 52 -63z m822 -34 c30 4 39 -4 12 -10 -39
-9 -44 -6 -37 22 5 18 7 19 10 4 2 -10 9 -17 15 -16z m2631 20 c3 -5 -3 -11
-14 -14 -11 -3 -29 -21 -41 -41 -25 -43 -32 -46 -23 -9 6 22 4 25 -10 20 -25
-10 -19 9 10 32 27 22 69 28 78 12z m655 -8 c0 -10 -4 -27 -9 -38 -7 -16 -9
-13 -9 18 -1 20 4 37 9 37 6 0 10 -8 9 -17z m-3134 -33 c-3 -5 -18 -10 -33 -9
-24 0 -25 1 -7 9 28 12 47 12 40 0z m-65 -10 c0 -5 -12 -10 -27 -9 -25 0 -26
1 -8 9 27 12 35 12 35 0z m640 -39 c6 -22 19 -67 30 -100 23 -72 34 -155 20
-146 -6 3 -10 14 -10 24 0 10 -11 43 -24 72 -13 30 -26 78 -30 107 -4 29 -9
59 -12 67 -4 8 -1 15 5 15 5 0 15 -18 21 -39z m1811 -34 c-10 -9 -11 -8 -5 6
3 10 9 15 12 12 3 -3 0 -11 -7 -18z m-3514 -34 c-3 -10 -5 -2 -5 17 0 19 2 27
5 18 2 -10 2 -26 0 -35z m1166 -19 c-3 -8 -1 -14 5 -14 14 0 34 -57 36 -103 1
-21 9 -43 17 -48 10 -6 10 -9 2 -9 -8 0 -13 -15 -13 -39 0 -44 -16 -56 -55
-41 -14 5 -31 7 -39 4 -8 -3 -17 -1 -21 5 -3 6 -16 11 -28 12 -21 0 -21 1 -2
9 11 4 24 4 30 -1 5 -5 13 -9 17 -9 12 0 10 38 -2 45 -8 5 -7 11 1 21 8 10 8
14 0 14 -6 0 -11 13 -11 30 0 22 4 28 15 24 18 -7 19 0 4 29 -7 11 -14 37 -16
56 -3 20 -7 38 -9 40 -3 3 5 10 18 17 19 10 25 9 40 -8 9 -11 14 -26 11 -34z
m-1263 18 c0 -15 -2 -15 -10 -2 -13 20 -13 33 0 25 6 -3 10 -14 10 -23z m3658
2 c-14 -15 -32 -24 -39 -21 -9 3 -5 8 13 15 14 6 29 16 33 21 3 6 9 11 13 11
4 0 -5 -12 -20 -26z m179 10 c2 -6 -15 -19 -37 -29 -23 -10 -45 -26 -50 -34
-8 -13 -9 -13 -10 5 0 42 85 93 97 58z m543 -66 c-1 -26 -3 -30 -10 -16 -6 9
-7 23 -4 32 9 25 14 19 14 -16z m-560 -38 c0 -5 -18 -18 -40 -29 -22 -10 -40
-15 -40 -11 0 19 13 40 21 34 5 -3 17 0 26 5 23 13 33 14 33 1z m570 -14 c0
-3 -4 -8 -10 -11 -5 -3 -10 -1 -10 4 0 6 5 11 10 11 6 0 10 -2 10 -4z m-4437
-23 c3 -5 8 -23 12 -40 10 -48 -11 -41 -23 7 -9 35 -2 55 11 33z m3887 -42 c0
-11 -58 -84 -76 -94 -11 -6 -14 -1 -14 20 1 20 11 36 37 56 37 28 53 33 53 18z
m-301 -33 c8 -18 15 -39 16 -48 1 -8 8 -27 15 -42 10 -22 11 -34 1 -54 -15
-33 -26 -28 -75 29 -45 54 -44 72 2 27 18 -16 37 -30 43 -30 15 0 4 73 -17
114 -16 33 -17 36 -6 36 4 0 14 -15 21 -32z m-3479 -64 c0 -8 -6 -11 -13 -8
-22 8 -38 43 -31 71 7 26 7 26 25 -12 11 -21 19 -44 19 -51z m146 19 c-8 -81
-14 -109 -37 -182 -20 -64 -23 -89 -34 -326 -3 -66 -10 -131 -15 -145 -5 -14
-12 -124 -15 -245 -3 -121 -10 -224 -14 -228 -17 -17 -21 109 -10 334 11 244
8 393 -9 425 -12 24 -33 89 -43 134 -4 19 -13 53 -19 75 -6 22 -13 58 -16 80
-3 21 -8 43 -10 47 -3 4 6 8 19 8 22 0 26 -5 30 -42 7 -59 36 -177 48 -199 5
-11 16 -19 23 -19 10 0 13 18 12 73 0 39 -3 74 -6 77 -12 12 -30 51 -30 66 0
16 2 16 19 0 19 -17 20 -17 23 15 4 40 21 48 36 17 10 -22 11 -22 11 -2 1 11
8 29 16 40 8 10 15 27 15 37 0 9 3 17 6 17 4 0 4 -26 0 -57z m-227 -3 c0 -10
-3 -8 -9 5 -12 27 -12 43 0 25 5 -8 9 -22 9 -30z m2081 30 c0 -5 -4 -10 -10
-10 -5 0 -10 5 -10 10 0 6 5 10 10 10 6 0 10 -4 10 -10z m1607 -32 c-3 -7 -5
-2 -5 12 0 14 2 19 5 13 2 -7 2 -19 0 -25z m10 -50 c-3 -7 -5 -2 -5 12 0 14 2
19 5 13 2 -7 2 -19 0 -25z m-2354 -9 c7 0 -1 -5 -17 -10 -38 -11 -43 -6 -19
18 13 13 19 15 21 6 2 -7 9 -13 15 -14z m2123 -61 c13 -58 3 -52 -14 8 -14 48
-15 60 -5 50 5 -4 13 -30 19 -58z m-2210 4 c1 -23 -10 -30 -21 -12 -3 6 -17
10 -31 10 -30 0 -32 17 -1 23 38 8 52 2 53 -21z m59 -12 c-3 -5 -12 -7 -20 -3
-21 7 -19 13 6 13 11 0 18 -4 14 -10z m302 -72 c-3 -8 -6 -5 -6 6 -1 11 2 17
5 13 3 -3 4 -12 1 -19z m-397 -32 c0 -19 -17 -29 -25 -16 -3 5 -1 10 5 10 6 0
8 5 5 10 -3 6 -1 10 4 10 6 0 11 -6 11 -14z m418 -11 c-3 -3 -9 2 -12 12 -6
14 -5 15 5 6 7 -7 10 -15 7 -18z m69 -177 c-3 -8 -6 -5 -6 6 -1 11 2 17 5 13
3 -3 4 -12 1 -19z m-8721 -178 c-14 -43 -27 -98 -27 -122 -1 -43 -2 -43 -10
12 -4 30 -5 64 -2 75 3 11 5 37 5 58 -2 29 4 44 25 65 24 23 28 25 31 9 2 -9
-8 -53 -22 -97z m7651 18 c-3 -7 -5 -2 -5 12 0 14 2 19 5 13 2 -7 2 -19 0 -25z
m-7442 -15 c4 -16 10 -35 16 -43 51 -82 60 -110 48 -152 -6 -23 -8 -55 -5 -71
9 -47 -78 -206 -101 -184 -10 11 -4 137 8 172 8 21 9 45 2 77 -7 31 -7 77 0
137 11 92 22 114 32 64z m8832 -30 c-3 -10 -5 -2 -5 17 0 19 2 27 5 18 2 -10
2 -26 0 -35z m-8987 -43 c0 -5 -2 -10 -4 -10 -3 0 -8 5 -11 10 -3 6 -1 10 4
10 6 0 11 -4 11 -10z m8310 -7 c26 -22 26 -37 1 -23 -11 5 -35 10 -53 10 l-33
1 30 14 c17 7 31 14 32 14 2 1 12 -7 23 -16z m-90 -22 c0 -5 -16 -15 -35 -21
-40 -13 -45 -25 -13 -33 39 -11 15 -16 -39 -9 -61 8 -59 20 7 50 49 22 80 27
80 13z m-8325 -210 c-9 -9 -13 4 -19 69 l-6 65 15 -64 c8 -36 12 -67 10 -70z
m7965 62 c19 -21 42 -59 51 -86 10 -26 31 -64 47 -85 66 -84 110 -154 105
-168 -3 -8 -1 -20 4 -27 6 -6 13 -23 16 -36 4 -18 3 -21 -6 -12 -17 17 -24 13
-30 -15 -4 -21 5 -39 38 -79 46 -57 62 -109 45 -147 -13 -28 -50 -54 -59 -41
-3 5 -17 10 -29 10 -26 2 -61 35 -89 85 -10 18 -27 40 -38 50 -14 12 -16 17
-6 18 9 0 11 7 8 22 -7 26 8 58 28 58 8 0 15 7 15 15 0 11 -11 15 -36 15 -19
0 -44 5 -55 10 -26 15 -24 40 4 40 21 1 21 1 -5 21 -27 20 -28 37 -4 68 6 7
11 19 11 25 1 6 5 28 9 48 5 23 4 50 -4 72 -9 29 -19 38 -48 46 -59 15 -92 87
-54 116 28 22 46 16 82 -23z m165 10 c9 -13 10 -23 2 -40 -10 -22 -11 -22 -29
-7 -26 24 -23 64 5 64 5 0 15 -8 22 -17z m195 -185 c33 -24 60 -47 60 -51 0
-4 -15 -5 -34 -2 -25 5 -35 3 -39 -9 -5 -12 0 -16 23 -16 17 0 30 -3 30 -8 0
-4 -18 -6 -39 -4 -39 4 -40 3 -39 -27 1 -20 7 -33 20 -36 32 -11 20 -25 -21
-25 -37 0 -39 2 -54 48 -8 26 -18 60 -22 77 -3 16 -19 48 -34 70 l-27 41 33
-4 c18 -2 36 -8 39 -13 7 -12 24 -11 24 1 0 6 -7 10 -16 10 -8 0 -13 4 -9 9 3
5 -3 12 -14 16 -13 4 -17 12 -14 25 3 12 -3 23 -16 32 -26 16 -27 25 -3 30 12
3 28 -14 55 -58 25 -43 56 -76 97 -106z m280 158 c0 -3 -4 -8 -10 -11 -5 -3
-10 -1 -10 4 0 6 5 11 10 11 6 0 10 -2 10 -4z m-29 -57 c-5 -13 -10 -19 -10
-12 -1 15 10 45 15 40 3 -2 0 -15 -5 -28z m-646 -87 c-1 -10 -6 -41 -10 -69
-4 -29 -10 -53 -13 -53 -27 1 -52 47 -48 86 2 16 4 39 5 51 1 14 9 23 24 25
25 5 47 -16 42 -40z m618 23 c-3 -9 -8 -14 -10 -11 -3 3 -2 9 2 15 9 16 15 13
8 -4z m-140 -132 c-7 -2 -19 -2 -25 0 -7 3 -2 5 12 5 14 0 19 -2 13 -5z m-19
-49 c9 -24 0 -29 -18 -11 -8 8 -12 17 -9 21 11 10 21 7 27 -10z m-129 -84 c3
-5 -3 -10 -15 -10 -12 0 -18 5 -15 10 3 6 10 10 15 10 5 0 12 -4 15 -10z m45
-14 c0 -2 -7 -6 -15 -10 -8 -3 -15 -1 -15 4 0 6 7 10 15 10 8 0 15 -2 15 -4z
m-302 -43 c-2 -10 -7 -18 -12 -18 -5 0 -10 8 -12 18 -1 9 4 17 13 17 8 0 13
-7 11 -17z m-811 -365 c-2 -13 -4 -5 -4 17 -1 22 1 32 4 23 2 -10 2 -28 0 -40z
m1107 -64 c3 -9 6 -23 6 -32 0 -13 -3 -12 -15 4 -16 21 -19 44 -6 44 5 0 12
-7 15 -16z m66 -37 c0 -7 -9 -23 -20 -35 -17 -18 -19 -26 -10 -42 7 -14 7 -26
1 -39 -9 -16 -6 -19 19 -23 24 -4 29 -1 26 11 -2 9 -7 34 -10 56 -6 39 -6 40
11 19 10 -11 24 -19 31 -16 6 2 16 -8 22 -23 13 -33 12 -35 -1 -35 -6 0 -19
-10 -28 -21 -17 -21 -18 -21 -73 -5 -31 9 -64 16 -75 16 -10 0 -24 4 -32 9
-25 16 6 43 41 36 25 -6 28 -4 28 20 0 15 4 24 10 20 6 -3 10 3 10 14 0 20 24
51 41 51 5 0 9 -6 9 -13z m-295 -287 c-3 -4 6 -22 20 -38 29 -35 31 -48 9 -56
-8 -3 -12 -2 -9 3 3 5 0 13 -6 16 -5 4 -8 13 -5 20 3 8 1 15 -4 17 -5 2 -12
16 -16 32 -5 21 -4 27 5 22 6 -4 9 -11 6 -16z m369 -24 c-6 -16 -8 -17 -16 -2
-11 19 0 42 13 29 6 -6 7 -18 3 -27z m583 -98 c-2 -13 -4 -3 -4 22 0 25 2 35
4 23 2 -13 2 -33 0 -45z m-1860 0 c-3 -8 -6 -5 -6 6 -1 11 2 17 5 13 3 -3 4
-12 1 -19z m1859 -65 c-10 -10 -19 5 -10 18 6 11 8 11 12 0 2 -7 1 -15 -2 -18z
m24 -32 c0 -12 -20 -25 -27 -18 -7 7 6 27 18 27 5 0 9 -4 9 -9z m884 -63 c7
-5 5 -8 -6 -8 -14 0 -18 8 -17 33 2 27 2 28 6 7 3 -14 10 -28 17 -32z m-1307
-50 c-3 -10 0 -18 6 -18 16 0 2 -10 -21 -15 -18 -3 -20 1 -17 33 2 20 3 39 4
41 1 2 8 -2 17 -10 8 -7 13 -21 11 -31z m431 -32 c-2 -35 -7 -62 -11 -59 -5 3
-7 19 -6 37 1 17 -2 39 -6 50 -7 15 6 35 23 36 1 0 1 -29 0 -64z m879 2 c-2
-13 -4 -3 -4 22 0 25 2 35 4 23 2 -13 2 -33 0 -45z m-20 20 c-3 -8 -6 -5 -6 6
-1 11 2 17 5 13 3 -3 4 -12 1 -19z m-1281 -43 c-19 -15 -19 -15 -1 -29 13 -9
20 -30 23 -70 2 -31 1 -56 -3 -56 -4 0 -20 8 -36 17 -24 14 -29 24 -29 55 0
24 5 38 13 38 7 0 8 3 2 8 -25 18 -4 50 35 51 11 0 10 -3 -4 -14z m444 -85 c0
-11 -4 -20 -10 -20 -5 0 -10 9 -10 20 0 11 5 20 10 20 6 0 10 -9 10 -20z m837
-82 c-3 -7 -5 -2 -5 12 0 14 2 19 5 13 2 -7 2 -19 0 -25z m-1767 17 c0 -3 -7
-17 -16 -30 -13 -19 -14 -28 -5 -39 14 -17 51 -9 51 10 0 7 12 21 26 30 22 15
27 15 35 3 5 -8 7 -30 4 -49 -3 -19 -7 -74 -10 -123 -7 -134 -14 -163 -36
-164 -10 -1 -19 2 -19 8 0 5 6 9 12 9 7 0 1 8 -12 17 -14 9 -27 18 -29 19 -2
2 1 10 8 17 9 11 8 17 -4 27 -8 7 -15 22 -15 34 0 11 -8 34 -19 49 -23 35 -29
165 -9 179 15 9 38 11 38 3z m537 -217 c-3 -8 -6 -5 -6 6 -1 11 2 17 5 13 3
-3 4 -12 1 -19z m-32 -58 c3 -6 -4 -10 -17 -10 -18 0 -20 2 -8 10 19 12 18 12
25 0z m-464 -100 c5 0 9 -9 9 -20 0 -15 -7 -20 -25 -20 -20 0 -25 5 -25 26 0
20 4 25 16 20 9 -3 20 -6 25 -6z m-866 -100 c-7 -22 -35 -24 -42 -3 -3 7 3 9
16 6 16 -4 21 -1 21 13 0 9 3 15 6 11 3 -3 3 -15 -1 -27z"/>
<path d="M18138 16113 c7 -3 16 -2 19 1 4 3 -2 6 -13 5 -11 0 -14 -3 -6 -6z"/>
<path d="M18110 16046 c0 -14 5 -26 11 -26 7 0 10 -12 7 -30 -3 -16 -1 -30 4
-30 14 0 9 81 -7 96 -13 14 -15 13 -15 -10z"/>
<path d="M18426 15214 c-4 -10 -2 -22 3 -27 7 -7 13 -5 17 7 4 10 2 22 -3 27
-7 7 -13 5 -17 -7z"/>
<path d="M18278 14613 c7 -3 16 -2 19 1 4 3 -2 6 -13 5 -11 0 -14 -3 -6 -6z"/>
<path d="M18330 14330 c0 -16 5 -30 10 -30 6 0 10 14 10 30 0 17 -4 30 -10 30
-5 0 -10 -13 -10 -30z"/>
<path d="M18303 14233 c4 -3 7 -11 7 -19 0 -8 7 -14 15 -14 8 0 15 7 15 15 0
8 -4 15 -9 15 -5 0 -15 2 -23 3 -7 2 -10 2 -5 0z"/>
<path d="M18493 13465 c0 -38 2 -53 4 -32 2 20 2 52 0 70 -2 17 -4 1 -4 -38z"/>
<path d="M18542 13438 c-1 -26 -7 -38 -17 -38 -12 0 -15 -15 -15 -74 0 -50 -4
-76 -12 -79 -14 -5 0 -38 19 -44 12 -4 37 177 31 232 l-5 40 -1 -37z"/>
<path d="M18550 13248 c1 -13 7 -34 15 -48 14 -24 14 -24 15 23 0 35 -4 47
-15 47 -9 0 -15 -9 -15 -22z"/>
<path d="M18561 13094 c0 -11 3 -14 6 -6 3 7 2 16 -1 19 -3 4 -6 -2 -5 -13z"/>
<path d="M18600 12970 c0 -16 7 -20 30 -20 23 0 30 4 30 20 0 16 -7 20 -30 20
-23 0 -30 -4 -30 -20z"/>
<path d="M20292 12523 c-8 -190 -10 -404 -6 -530 8 -237 6 -244 -60 -259 -62
-13 -67 -19 -48 -65 25 -64 48 -74 123 -55 34 8 73 23 87 32 l25 16 -9 162
c-9 182 -9 260 1 673 l7 292 -25 25 c-16 16 -37 26 -55 26 l-28 0 -12 -317z"/>
<path d="M19845 12640 c-3 -5 -1 -10 4 -10 6 0 11 5 11 10 0 6 -2 10 -4 10 -3
0 -8 -4 -11 -10z"/>
<path d="M19651 12624 c0 -11 3 -14 6 -6 3 7 2 16 -1 19 -3 4 -6 -2 -5 -13z"/>
<path d="M19354 12564 c33 -147 37 -193 31 -394 -8 -263 -16 -318 -50 -347
-19 -17 -39 -23 -71 -23 -55 0 -64 -17 -35 -64 24 -39 43 -46 123 -46 101 0
124 24 135 135 5 58 3 66 -24 106 -36 52 -43 99 -33 203 5 52 16 93 34 127 29
57 32 91 12 166 -15 57 -53 112 -99 145 l-30 21 7 -29z"/>
<path d="M19997 12533 c16 -118 9 -460 -12 -587 -21 -133 -19 -130 -117 -144
-43 -7 -60 -6 -70 4 -11 11 -22 11 -65 -3 -52 -16 -74 -13 -155 22 -54 22 31
-78 91 -109 51 -27 127 -44 146 -34 9 5 65 10 124 11 143 3 144 4 137 116 -8
119 -16 381 -17 563 l0 152 -35 34 -34 33 7 -58z"/>
<path d="M19592 12515 c6 -73 14 -88 32 -64 9 14 24 16 84 11 81 -5 86 0 46
48 -29 33 -67 53 -128 64 l-39 7 5 -66z"/>
<path d="M19941 12544 c0 -11 3 -14 6 -6 3 7 2 16 -1 19 -3 4 -6 -2 -5 -13z"/>
<path d="M20235 12511 c-3 -5 -1 -12 5 -16 5 -3 10 1 10 9 0 18 -6 21 -15 7z"/>
<path d="M18318 12421 c-38 -31 -60 -95 -65 -196 -5 -79 -3 -96 16 -133 24
-48 52 -55 75 -19 24 38 75 189 81 242 6 42 3 55 -17 85 -28 42 -55 48 -90 21z"/>
<path d="M19226 12423 c-6 -14 -5 -15 5 -6 7 7 10 15 7 18 -3 3 -9 -2 -12 -12z"/>
<path d="M18460 12399 c0 -5 5 -7 10 -4 6 3 10 8 10 11 0 2 -4 4 -10 4 -5 0
-10 -5 -10 -11z"/>
<path d="M19704 12242 c-51 -43 -61 -119 -19 -146 14 -9 30 -14 36 -10 20 12
39 73 39 124 0 41 -3 50 -17 50 -10 -1 -27 -9 -39 -18z"/>
<path d="M18855 12139 c-4 -6 -5 -12 -2 -15 2 -3 7 2 10 11 7 17 1 20 -8 4z"/>
<path d="M19465 12057 c-9 -22 3 -73 15 -61 5 5 5 25 1 44 -6 28 -10 31 -16
17z"/>
<path d="M19540 11925 c-8 -9 -8 -15 -2 -15 12 0 26 19 19 26 -2 2 -10 -2 -17
-11z"/>
<path d="M18165 11910 c3 -5 8 -10 11 -10 2 0 4 5 4 10 0 6 -5 10 -11 10 -5 0
-7 -4 -4 -10z"/>
<path d="M19690 11840 c0 -5 4 -10 9 -10 6 0 13 5 16 10 3 6 -1 10 -9 10 -9 0
-16 -4 -16 -10z"/>
<path d="M18947 11414 c-13 -13 -7 -24 14 -24 11 0 19 5 17 12 -5 14 -22 21
-31 12z"/>
<path d="M18948 11343 c6 -2 18 -2 25 0 6 3 1 5 -13 5 -14 0 -19 -2 -12 -5z"/>
<path d="M19951 10684 c0 -11 3 -14 6 -6 3 7 2 16 -1 19 -3 4 -6 -2 -5 -13z"/>
<path d="M20100 10588 c0 -32 0 -32 16 -10 15 22 12 42 -7 42 -5 0 -9 -15 -9
-32z"/>
<path d="M20960 10501 c0 -6 5 -13 10 -16 6 -3 10 1 10 9 0 9 -4 16 -10 16 -5
0 -10 -4 -10 -9z"/>
<path d="M19502 10260 c0 -19 2 -27 5 -17 2 9 2 25 0 35 -3 9 -5 1 -5 -18z"/>
<path d="M19710 9850 c0 -16 5 -30 10 -30 6 0 10 14 10 30 0 17 -4 30 -10 30
-5 0 -10 -13 -10 -30z"/>
<path d="M21045 9830 c3 -5 11 -10 16 -10 6 0 7 5 4 10 -3 6 -11 10 -16 10 -6
0 -7 -4 -4 -10z"/>
<path d="M19694 9736 c-6 -7 -15 -22 -18 -34 -6 -19 -3 -22 18 -22 23 0 26 4
26 35 0 37 -7 43 -26 21z"/>
<path d="M19733 9645 c0 -22 2 -30 4 -17 2 12 2 30 0 40 -3 9 -5 -1 -4 -23z"/>
<path d="M19783 9575 c0 -22 2 -30 4 -17 2 12 2 30 0 40 -3 9 -5 -1 -4 -23z"/>
<path d="M20906 8722 c-3 -5 -2 -21 3 -34 8 -20 10 -21 16 -6 8 20 -9 56 -19
40z"/>
<path d="M20646 7771 c-4 -7 -5 -15 -2 -18 9 -9 19 4 14 18 -4 11 -6 11 -12 0z"/>
<path d="M20420 7555 c0 -28 15 -34 24 -9 10 25 7 34 -9 34 -9 0 -15 -9 -15
-25z"/>
<path d="M20825 7491 c-3 -5 -1 -12 5 -16 5 -3 10 1 10 9 0 18 -6 21 -15 7z"/>
<path d="M20648 7283 c7 -3 16 -2 19 1 4 3 -2 6 -13 5 -11 0 -14 -3 -6 -6z"/>
<path d="M20690 7190 c0 -5 5 -10 10 -10 6 0 10 5 10 10 0 6 -4 10 -10 10 -5
0 -10 -4 -10 -10z"/>
<path d="M20685 7140 c3 -5 8 -10 11 -10 2 0 4 5 4 10 0 6 -5 10 -11 10 -5 0
-7 -4 -4 -10z"/>
<path d="M20740 7100 c0 -5 7 -10 15 -10 8 0 15 5 15 10 0 6 -7 10 -15 10 -8
0 -15 -4 -15 -10z"/>
<path d="M20803 7083 c-18 -7 -16 -23 2 -23 8 0 15 7 15 15 0 8 -1 15 -2 14
-2 0 -9 -3 -15 -6z"/>
<path d="M20860 6996 c0 -9 7 -16 16 -16 9 0 14 5 12 12 -6 18 -28 21 -28 4z"/>
<path d="M20858 6893 c7 -3 16 -2 19 1 4 3 -2 6 -13 5 -11 0 -14 -3 -6 -6z"/>
<path d="M20770 6800 c0 -5 9 -10 20 -10 11 0 20 5 20 10 0 6 -9 10 -20 10
-11 0 -20 -4 -20 -10z"/>
<path d="M21056 6655 c-3 -8 -1 -15 4 -15 6 0 10 7 10 15 0 8 -2 15 -4 15 -2
0 -6 -7 -10 -15z"/>
<path d="M20928 6543 c7 -3 16 -2 19 1 4 3 -2 6 -13 5 -11 0 -14 -3 -6 -6z"/>
<path d="M10676 12474 c-4 -10 -1 -14 6 -12 15 5 23 28 10 28 -5 0 -13 -7 -16
-16z"/>
<path d="M10266 12283 c-6 -14 -5 -15 5 -6 7 7 10 15 7 18 -3 3 -9 -2 -12 -12z"/>
<path d="M15134 12396 c-10 -8 -16 -17 -13 -20 3 -3 14 3 24 14 21 23 17 26
-11 6z"/>
<path d="M12300 12705 c-8 -9 -8 -15 -2 -15 12 0 26 19 19 26 -2 2 -10 -2 -17
-11z"/>
<path d="M17897 12713 c-4 -3 -7 -11 -7 -17 0 -6 5 -5 12 2 6 6 9 14 7 17 -3
3 -9 2 -12 -2z"/>
<path d="M15968 12633 c7 -3 16 -2 19 1 4 3 -2 6 -13 5 -11 0 -14 -3 -6 -6z"/>
<path d="M16290 12575 c0 -8 2 -15 4 -15 2 0 6 7 10 15 3 8 1 15 -4 15 -6 0
-10 -7 -10 -15z"/>
<path d="M16079 12353 c-13 -16 -12 -17 4 -4 9 7 17 15 17 17 0 8 -8 3 -21
-13z"/>
<path d="M16426 12275 c4 -8 7 -15 9 -15 2 0 5 7 9 15 3 9 0 15 -9 15 -9 0
-12 -6 -9 -15z"/>
<path d="M16276 12023 c-6 -14 -5 -15 5 -6 7 7 10 15 7 18 -3 3 -9 -2 -12 -12z"/>
<path d="M15866 11902 l-19 -27 26 24 c28 26 32 31 20 31 -5 0 -17 -13 -27
-28z"/>
<path d="M13082 12284 c-26 -103 -25 -108 17 -97 22 6 23 9 17 62 -9 71 -22
85 -34 35z"/>
<path d="M11650 12455 c-7 -9 -11 -18 -8 -20 3 -3 11 1 18 10 7 9 11 18 8 20
-3 3 -11 -1 -18 -10z"/>
<path d="M11641 12244 c0 -11 3 -14 6 -6 3 7 2 16 -1 19 -3 4 -6 -2 -5 -13z"/>
<path d="M11661 12024 c0 -11 3 -14 6 -6 3 7 2 16 -1 19 -3 4 -6 -2 -5 -13z"/>
<path d="M11027 12633 c-4 -3 -7 -11 -7 -17 0 -6 5 -5 12 2 6 6 9 14 7 17 -3
3 -9 2 -12 -2z"/>
<path d="M11310 12540 c0 -5 5 -10 11 -10 5 0 7 5 4 10 -3 6 -8 10 -11 10 -2
0 -4 -4 -4 -10z"/>
<path d="M10971 12334 c0 -11 3 -14 6 -6 3 7 2 16 -1 19 -3 4 -6 -2 -5 -13z"/>
<path d="M11073 12238 c-50 -55 -56 -103 -17 -139 l26 -24 23 27 c24 28 44
125 30 147 -11 18 -40 12 -62 -11z"/>
<path d="M11320 12140 c0 -5 5 -10 10 -10 6 0 10 5 10 10 0 6 -4 10 -10 10 -5
0 -10 -4 -10 -10z"/>
<path d="M10840 12032 c0 -23 5 -42 10 -42 7 0 8 14 4 38 -9 51 -14 53 -14 4z"/>
<path d="M10917 11933 c-4 -3 -7 -13 -7 -22 1 -13 3 -13 11 2 11 19 8 33 -4
20z"/>
<path d="M11065 11840 c-3 -5 -2 -10 4 -10 5 0 13 5 16 10 3 6 2 10 -4 10 -5
0 -13 -4 -16 -10z"/>
<path d="M14635 12640 c-3 -5 -1 -10 4 -10 6 0 11 5 11 10 0 6 -2 10 -4 10 -3
0 -8 -4 -11 -10z"/>
<path d="M14441 12624 c0 -11 3 -14 6 -6 3 7 2 16 -1 19 -3 4 -6 -2 -5 -13z"/>
<path d="M14730 12545 c0 -8 4 -15 10 -15 5 0 7 7 4 15 -4 8 -8 15 -10 15 -2
0 -4 -7 -4 -15z"/>
<path d="M14387 12343 c-4 -3 -7 -13 -7 -22 1 -13 3 -13 11 2 11 19 8 33 -4
20z"/>
<path d="M14481 12225 c-41 -47 -44 -104 -6 -129 14 -9 30 -14 35 -11 21 13
41 67 43 118 2 46 0 52 -19 55 -14 2 -32 -9 -53 -33z"/>
<path d="M14255 12060 c-9 -14 4 -70 16 -70 6 0 7 15 3 38 -8 44 -10 47 -19
32z"/>
<path d="M14330 11925 c-8 -9 -8 -15 -2 -15 12 0 26 19 19 26 -2 2 -10 -2 -17
-11z"/>
<path d="M14485 11840 c-3 -5 -2 -10 4 -10 5 0 13 5 16 10 3 6 2 10 -4 10 -5
0 -13 -4 -16 -10z"/>
<path d="M16985 12640 c-3 -5 -1 -10 4 -10 6 0 11 5 11 10 0 6 -2 10 -4 10 -3
0 -8 -4 -11 -10z"/>
<path d="M16785 12630 c-3 -5 -1 -10 4 -10 6 0 11 5 11 10 0 6 -2 10 -4 10 -3
0 -8 -4 -11 -10z"/>
<path d="M17070 12540 c0 -5 5 -10 10 -10 6 0 10 5 10 10 0 6 -4 10 -10 10 -5
0 -10 -4 -10 -10z"/>
<path d="M16726 12335 c-3 -8 -1 -15 4 -15 6 0 10 7 10 15 0 8 -2 15 -4 15 -2
0 -6 -7 -10 -15z"/>
<path d="M16830 12232 c-16 -16 -32 -46 -36 -66 -6 -33 -3 -42 19 -64 26 -25
27 -25 47 -7 23 21 40 74 40 128 0 31 -3 37 -21 37 -11 0 -33 -13 -49 -28z"/>
<path d="M17086 12145 c-3 -8 -1 -15 4 -15 6 0 10 7 10 15 0 8 -2 15 -4 15 -2
0 -6 -7 -10 -15z"/>
<path d="M16601 12040 c0 -14 4 -32 9 -40 9 -13 10 -13 9 0 -1 8 -5 26 -9 40
l-8 25 -1 -25z"/>
<path d="M16676 11931 c-4 -7 -5 -15 -2 -18 9 -9 19 4 14 18 -4 11 -6 11 -12
0z"/>
<path d="M16825 11840 c-8 -13 5 -13 25 0 13 8 13 10 -2 10 -9 0 -20 -4 -23
-10z"/>
<path d="M12255 12479 c-11 -17 1 -21 15 -4 8 9 8 15 2 15 -6 0 -14 -5 -17
-11z"/>
<path d="M17890 11819 c0 -5 5 -7 10 -4 6 3 10 8 10 11 0 2 -4 4 -10 4 -5 0
-10 -5 -10 -11z"/>
<path d="M19740 8594 c0 -15 6 -16 35 -5 17 7 17 8 -8 13 -19 4 -27 1 -27 -8z"/>
<path d="M19835 8600 c-16 -7 -17 -9 -3 -9 9 -1 20 4 23 9 7 11 7 11 -20 0z"/>
<path d="M19970 8375 c0 -8 7 -15 15 -15 8 0 15 7 15 15 0 8 -7 15 -15 15 -8
0 -15 -7 -15 -15z"/>
<path d="M20108 8243 c7 -3 16 -2 19 1 4 3 -2 6 -13 5 -11 0 -14 -3 -6 -6z"/>
<path d="M15230 8309 c7 -11 14 -18 17 -15 8 8 -5 36 -17 36 -7 0 -7 -6 0 -21z"/>
<path d="M11240 8000 c0 -5 5 -10 10 -10 6 0 10 5 10 10 0 6 -4 10 -10 10 -5
0 -10 -4 -10 -10z"/>
<path d="M11330 7986 c0 -8 -3 -21 -6 -30 -9 -25 12 -19 24 7 l11 22 0 -22 c1
-13 6 -23 12 -23 7 0 9 9 5 23 -3 12 -6 25 -6 30 0 14 -40 7 -40 -7z"/>
<path d="M11225 7920 c-3 -5 -1 -10 4 -10 6 0 11 5 11 10 0 6 -2 10 -4 10 -3
0 -8 -4 -11 -10z"/>
<path d="M17306 6842 c-3 -5 -6 -26 -7 -48 -2 -48 -8 -74 -18 -74 -4 0 -5 16
-3 36 5 39 -7 54 -45 54 -21 0 -23 -4 -23 -64 0 -73 13 -92 52 -77 14 5 28 16
31 24 3 9 15 12 34 10 19 -3 34 1 42 11 18 22 31 20 31 -5 0 -12 5 -19 13 -16
16 5 14 104 -2 135 -18 33 -34 16 -27 -28 5 -30 2 -39 -12 -44 -9 -3 -23 -9
-31 -12 -10 -5 -12 5 -10 46 3 34 0 55 -8 57 -6 2 -14 0 -17 -5z"/>
<path d="M17155 6770 c-3 -6 -5 -26 -4 -45 2 -19 0 -37 -4 -41 -4 -4 -7 9 -7
30 0 41 -17 54 -49 36 -29 -15 -51 -62 -51 -110 0 -48 17 -59 55 -34 15 10 41
25 58 34 30 16 32 21 32 75 0 55 -14 81 -30 55z m-50 -71 c4 -6 -1 -16 -11
-24 -23 -16 -25 -15 -17 13 6 24 18 28 28 11z"/>
<path d="M17164 6570 c-81 -41 -119 -73 -111 -94 6 -14 13 -12 54 18 27 18 72
46 101 60 28 14 52 31 52 36 0 18 -36 10 -96 -20z"/>
<path d="M17175 4070 c3 -5 14 -10 23 -10 15 0 15 2 2 10 -20 13 -33 13 -25 0z"/>
<path d="M17222 4065 c4 -4 3 -14 -3 -22 -7 -8 -8 -13 -1 -13 15 0 23 28 9 36
-7 4 -9 4 -5 -1z"/>
<path d="M17488 3973 c7 -3 16 -2 19 1 4 3 -2 6 -13 5 -11 0 -14 -3 -6 -6z"/>
<path d="M17225 3701 c-7 -12 12 -24 25 -16 11 7 4 25 -10 25 -5 0 -11 -4 -15
-9z"/>
<path d="M17422 3592 c-10 -3 -10 -7 -1 -18 11 -14 39 -20 39 -8 0 12 -26 30
-38 26z"/>
<path d="M17480 3570 c0 -5 5 -10 10 -10 6 0 10 5 10 10 0 6 -4 10 -10 10 -5
0 -10 -4 -10 -10z"/>
<path d="M17452 3503 c2 -10 14 -19 26 -21 21 -3 22 -1 12 17 -13 26 -43 28
-38 4z"/>
<path d="M17485 3460 c-19 -8 -19 -9 3 -9 12 -1 22 4 22 9 0 6 -1 10 -2 9 -2
0 -12 -4 -23 -9z"/>
<path d="M17431 3039 c0 -19 3 -28 6 -21 2 6 9 10 14 6 15 -9 10 23 -6 36 -13
11 -15 8 -14 -21z"/>
<path d="M17575 2450 c-3 -5 1 -10 10 -10 9 0 13 5 10 10 -3 6 -8 10 -10 10
-2 0 -7 -4 -10 -10z"/>
<path d="M20995 4010 c-8 -14 3 -30 21 -30 8 0 14 9 14 20 0 21 -24 28 -35 10z"/>
<path d="M18404 2772 c-14 -9 -24 -62 -12 -62 10 0 -10 -42 -26 -52 -7 -5 -6
-8 3 -8 11 0 9 -4 -5 -14 -18 -14 -18 -15 -1 -20 44 -15 45 -15 40 5 -3 10 -2
27 2 36 5 10 8 21 7 25 -1 4 5 19 13 35 8 15 15 22 15 16 0 -7 5 -13 10 -13
15 0 12 17 -7 40 -19 22 -23 23 -39 12z"/>
<path d="M20871 2533 c-7 -8 -10 -17 -7 -20 9 -9 29 13 25 25 -2 6 -10 3 -18
-5z"/>
<path d="M17042 2513 c-18 -9 -42 -27 -52 -41 -21 -26 -60 -140 -60 -173 0
-24 25 -25 40 -1 9 14 10 13 6 -8 -12 -67 -17 -147 -17 -280 0 -80 -4 -163 -9
-185 -5 -22 -12 -53 -16 -70 l-7 -30 22 19 21 19 -11 -34 c-7 -19 -17 -41 -24
-49 -7 -8 -20 -33 -30 -55 -9 -22 -27 -52 -41 -66 -28 -29 -19 -45 20 -35 16
4 35 30 66 88 47 91 53 100 50 78 -5 -30 0 -42 15 -36 8 3 19 -3 25 -12 10
-15 11 -15 5 2 -3 11 0 23 7 28 10 6 10 10 0 16 -9 6 -8 17 6 48 11 21 24 62
31 89 7 28 16 66 21 85 5 19 12 73 15 120 8 129 23 184 62 230 19 22 41 40 49
40 18 0 18 3 -6 50 -11 22 -20 59 -20 82 0 43 -1 43 -58 71 -68 32 -67 31
-110 10z"/>
<path d="M17247 2283 c-24 -23 11 -108 65 -160 32 -31 126 -78 135 -69 10 10
-9 26 -52 45 -52 23 -57 31 -15 25 50 -8 34 12 -25 31 -30 9 -62 27 -70 38
-15 21 -14 22 10 25 33 4 32 20 -2 28 -41 10 -45 14 -32 30 11 14 -1 20 -14 7z"/>
<path d="M17750 2195 c0 -8 2 -15 4 -15 2 0 6 7 10 15 3 8 1 15 -4 15 -6 0
-10 -7 -10 -15z"/>
<path d="M17747 2032 c-10 -11 -14 -23 -9 -26 12 -7 35 19 30 34 -2 7 -11 3
-21 -8z"/>
<path d="M17797 2002 c-21 -23 -21 -32 -2 -32 12 0 35 28 35 44 0 12 -17 5
-33 -12z"/>
<path d="M17160 1881 c0 -34 4 -51 9 -45 19 18 22 59 7 79 -14 19 -15 16 -16
-34z"/>
<path d="M17142 1752 c-7 -5 -14 -18 -17 -30 -3 -16 1 -22 15 -22 15 0 19 6
17 30 -1 16 -2 30 -2 30 0 0 -6 -4 -13 -8z"/>
<path d="M17189 1734 c-29 -34 -39 -83 -32 -157 6 -66 8 -72 51 -113 25 -24
47 -44 49 -44 6 0 -6 110 -13 122 -4 5 -7 30 -9 55 -1 25 -7 48 -13 52 -6 3
-12 28 -14 55 -3 46 -4 47 -19 30z"/>
<path d="M16940 1540 c0 -5 5 -10 11 -10 5 0 7 5 4 10 -3 6 -8 10 -11 10 -2 0
-4 -4 -4 -10z"/>
<path d="M17434 1495 c-7 -18 3 -35 22 -35 15 0 17 9 8 34 -8 20 -23 21 -30 1z"/>
<path d="M17080 1475 c-7 -9 -8 -15 -2 -15 5 0 12 7 16 15 3 8 4 15 2 15 -2 0
-9 -7 -16 -15z"/>
<path d="M16840 1396 c0 -7 7 -19 15 -26 13 -11 15 -8 15 14 0 16 -5 26 -15
26 -8 0 -15 -6 -15 -14z"/>
<path d="M16931 414 c0 -11 3 -14 6 -6 3 7 2 16 -1 19 -3 4 -6 -2 -5 -13z"/>
<path d="M16881 353 c0 -16 3 -22 6 -15 2 6 11 12 19 12 8 0 14 7 14 15 0 8
-9 15 -20 15 -15 0 -20 -6 -19 -27z"/>
<path d="M16866 187 c0 -17 8 -34 18 -39 22 -12 36 0 16 12 -10 7 -11 10 -2
10 19 0 14 16 -10 32 -22 15 -23 14 -22 -15z"/>
<path d="M20710 30 c0 -13 7 -20 20 -20 18 0 19 3 10 20 -6 11 -15 20 -20 20
-6 0 -10 -9 -10 -20z"/>
<path d="M20598 13 c7 -3 16 -2 19 1 4 3 -2 6 -13 5 -11 0 -14 -3 -6 -6z"/>
</g>
</svg>
