<?xml version="1.0" standalone="no"?>
<!DOCTYPE svg PUBLIC "-//W3C//DTD SVG 20010904//EN"
 "http://www.w3.org/TR/2001/REC-SVG-20010904/DTD/svg10.dtd">
<svg version="1.0" xmlns="http://www.w3.org/2000/svg"
 width="3043.000000pt" height="1713.000000pt" viewBox="0 0 3043.000000 1713.000000"
 preserveAspectRatio="xMidYMid meet">

<g transform="translate(0.000000,1713.000000) scale(0.100000,-0.100000)"
fill="#000000" stroke="none">
<path d="M0 8568 l0 -8553 15215 0 15215 0 0 8554 0 8554 -4356 -5 c-2395 -3
-4357 -7 -4359 -10 -2 -2 -5 -2648 -7 -5879 -3 -6166 -1 -5935 -43 -5896 -7 6
-10 18 -8 24 6 15 -23 20 -56 11 -5 -2 -9 1 -9 6 0 5 -5 12 -11 16 -6 3 -13
16 -16 29 -2 12 0 19 4 16 5 -3 8 6 7 20 -1 17 -7 25 -19 25 -10 0 -20 6 -23
14 -3 8 -14 13 -25 11 -11 -2 -17 0 -14 4 3 5 -11 11 -30 13 -24 3 -31 1 -25
-7 7 -8 -3 -11 -32 -11 -28 1 -43 -4 -46 -14 -4 -12 -3 -13 10 -2 13 11 16 9
21 -14 4 -21 1 -25 -14 -21 -10 3 -31 -4 -46 -16 -23 -19 -26 -19 -20 -4 4 12
3 16 -4 11 -6 -4 -15 0 -20 7 -8 11 -12 10 -24 -5 -12 -16 -19 -18 -39 -8 -19
9 -27 8 -37 -4 -9 -11 -15 -12 -25 -3 -18 15 -18 37 1 55 8 8 11 22 8 31 -5
12 -3 14 7 8 18 -11 80 -7 95 5 14 12 57 1 48 -13 -4 -6 -1 -7 6 -3 7 5 10 15
7 23 -3 8 -2 11 3 8 10 -6 27 33 22 50 -1 6 3 4 10 -2 18 -18 29 -16 29 5 0
14 -2 15 -10 2 -5 -8 -10 -11 -10 -7 0 5 14 22 30 39 17 17 29 33 26 36 -3 3
1 10 9 16 13 9 13 15 3 38 -8 16 -21 28 -32 28 -11 0 -16 3 -13 7 4 3 2 12 -4
20 -6 7 -7 13 -2 13 5 0 10 6 10 14 0 8 -6 12 -14 9 -7 -3 -13 -12 -13 -20 0
-9 -5 -11 -12 -6 -13 8 -18 9 -40 12 -9 1 -8 4 2 11 8 5 13 10 10 11 -3 0 -21
2 -40 4 -26 3 -30 2 -15 -5 17 -7 17 -9 3 -9 -11 -1 -15 -6 -12 -16 4 -9 15
-13 30 -11 13 3 26 0 30 -5 3 -5 10 -7 15 -4 5 4 9 -1 9 -10 0 -9 -4 -14 -9
-11 -4 3 -19 -4 -32 -15 l-23 -20 28 5 c22 4 25 2 16 -8 -6 -8 -25 -13 -43
-12 -18 2 -35 -1 -38 -6 -3 -5 -28 -11 -54 -13 -49 -4 -102 -34 -98 -54 2 -6
-2 -11 -7 -11 -6 0 -10 7 -10 15 0 8 -4 15 -9 15 -5 0 -7 -10 -3 -22 4 -15 2
-19 -8 -13 -7 4 -16 2 -21 -6 -7 -11 -9 -11 -9 -1 0 10 -3 10 -15 -1 -8 -9
-20 -18 -27 -20 -10 -4 -10 -8 1 -15 19 -14 22 -39 5 -39 -8 0 -14 7 -14 14 0
8 -7 21 -15 29 -13 14 -15 13 -15 -6 0 -15 -5 -20 -15 -17 -8 4 -17 2 -20 -4
-4 -5 -14 -8 -22 -7 -9 2 -18 -3 -20 -10 -3 -8 1 -10 11 -6 9 3 23 1 31 -6 13
-11 14 -10 9 4 -3 9 -1 16 5 16 6 0 11 -6 11 -12 0 -9 4 -8 10 2 5 8 10 10 10
4 0 -5 -5 -15 -12 -22 -7 -7 -9 -12 -5 -12 4 0 2 -6 -5 -14 -7 -8 -17 -12 -22
-9 -4 3 -2 10 5 15 11 8 11 9 -1 5 -8 -2 -14 -11 -14 -20 1 -9 -4 -13 -12 -10
-24 9 -5 -23 22 -37 13 -7 22 -15 20 -17 -2 -3 -14 0 -25 6 -17 10 -20 9 -15
-4 4 -8 14 -15 23 -15 12 0 17 -7 16 -23 -3 -31 14 -60 31 -53 8 3 14 1 14 -4
0 -6 -5 -10 -11 -10 -6 0 -9 -6 -6 -12 2 -7 8 -13 14 -13 5 0 17 -8 27 -18 18
-17 19 -17 32 0 13 17 14 17 8 -1 -5 -14 -3 -17 12 -14 10 2 18 10 16 18 -2
10 0 11 10 3 7 -6 23 -9 36 -7 15 3 22 -1 22 -11 0 -11 7 -14 25 -11 17 3 25
0 25 -10 0 -11 4 -13 17 -6 18 10 35 0 46 -28 4 -11 6 -12 6 -1 1 9 6 8 19 -6
9 -10 13 -13 9 -6 -13 18 0 32 23 26 11 -3 27 0 35 7 12 10 15 10 15 0 0 -9 7
-8 25 4 29 19 35 20 35 5 0 -5 -5 -7 -10 -4 -5 3 -10 -1 -10 -11 0 -12 6 -15
25 -12 17 4 25 1 25 -9 0 -9 5 -11 12 -7 7 5 27 9 45 10 27 1 33 -2 33 -18 0
-26 20 -12 21 15 1 16 3 14 10 -10 7 -23 16 -33 29 -33 11 0 20 -5 20 -11 0
-6 13 -8 35 -5 l35 6 0 -455 c0 -278 -4 -455 -9 -455 -6 0 -13 5 -17 12 -5 7
-3 8 6 3 8 -5 11 -3 8 6 -3 8 -11 13 -17 12 -16 -4 -14 7 6 29 15 17 15 18
-13 19 -16 1 -41 2 -56 3 -15 1 -24 -2 -21 -7 4 -6 -5 -8 -21 -5 -21 4 -26 2
-22 -9 3 -8 6 -17 6 -19 0 -2 5 -4 11 -4 5 0 7 5 4 10 -3 6 1 10 11 10 13 0
14 -3 5 -13 -6 -8 -7 -18 -3 -22 4 -5 -10 1 -31 13 -43 25 -51 27 -41 10 5 -8
0 -9 -14 -6 -12 4 -20 3 -17 -2 3 -4 -10 -6 -28 -5 -17 1 -35 -3 -39 -9 -5 -7
-11 -8 -15 -1 -5 6 -14 11 -22 13 -11 2 -10 -2 3 -22 15 -24 15 -27 -4 -46
-11 -11 -20 -16 -20 -11 0 5 7 17 16 25 14 14 13 16 -10 14 -14 -1 -23 -4 -21
-6 2 -3 0 -13 -6 -24 -13 -23 -32 -13 -24 13 7 22 -13 26 -21 4 -4 -8 -11 -12
-18 -8 -6 4 -4 -2 4 -12 8 -10 10 -16 4 -12 -6 4 -19 -2 -29 -13 -10 -11 -24
-16 -33 -13 -10 4 -13 2 -8 -5 4 -7 -3 -14 -19 -18 -13 -3 -22 -10 -19 -15 3
-5 1 -9 -5 -9 -5 0 -11 -10 -13 -22 -2 -13 -10 -23 -18 -23 -8 -1 -14 -6 -13
-11 1 -6 -13 -11 -30 -12 -68 -4 -85 -7 -80 -15 2 -4 0 -7 -6 -7 -18 0 -22 20
-7 35 8 8 19 15 24 15 6 0 12 4 14 8 2 5 16 12 31 16 22 5 27 4 21 -6 -5 -10
-4 -11 7 0 7 6 22 12 32 12 16 0 17 3 7 15 -6 8 -9 18 -6 24 4 5 -3 7 -16 3
-16 -4 -19 -2 -14 9 4 8 1 7 -6 -3 -11 -12 -18 -14 -33 -5 -19 10 -19 10 0 18
16 6 17 8 3 8 -10 1 -15 7 -12 19 4 13 -2 17 -26 19 -16 1 -30 -1 -30 -6 0
-12 -50 -32 -62 -25 -6 4 -5 -2 1 -15 10 -17 9 -22 -2 -27 -9 -3 -13 -13 -10
-24 6 -22 -14 -63 -28 -55 -5 4 -9 -1 -9 -10 0 -13 -9 -16 -42 -15 -61 3 -75
1 -63 -8 6 -4 18 -19 27 -33 9 -14 37 -34 65 -44 26 -10 64 -28 83 -40 46 -28
116 -55 124 -48 3 4 22 6 41 5 19 -1 36 2 39 7 11 17 108 12 143 -9 21 -12 52
-20 82 -20 37 0 58 -7 92 -30 45 -30 68 -31 99 -5 10 8 34 11 72 8 56 -5 58
-6 58 -34 0 -16 -5 -29 -12 -29 -9 0 -8 -4 2 -11 12 -9 11 -10 -7 -6 -18 4
-23 1 -23 -14 0 -12 -7 -19 -18 -19 -10 0 -22 -3 -25 -7 -4 -3 -22 -7 -39 -9
-18 -1 -27 0 -20 3 10 4 7 9 -10 19 -45 26 -50 27 -75 13 -33 -18 -103 -16
-134 4 -18 11 -37 13 -76 8 -56 -8 -103 -38 -81 -52 21 -13 1 -21 -22 -9 -13
7 -34 13 -47 15 -14 1 -29 9 -34 16 -5 9 -9 9 -9 3 0 -7 -12 -12 -27 -13 -16
0 -37 -1 -48 -1 -25 -1 -66 20 -59 32 9 14 -21 36 -47 33 -13 -1 -34 -3 -47
-4 -13 0 -20 -5 -17 -12 4 -5 -10 -3 -32 6 -21 9 -39 20 -41 25 -2 5 -13 5
-27 0 -18 -7 -28 -5 -40 6 -8 9 -15 11 -15 5 0 -6 -7 -8 -15 -5 -8 4 -15 2
-15 -4 0 -6 -12 -5 -29 4 -22 11 -35 12 -57 3 -16 -6 -30 -10 -31 -10 -15 4
-22 -4 -27 -33 -4 -19 -12 -37 -19 -40 -9 -3 -8 -7 3 -15 13 -10 13 -11 0 -12
-8 -1 -21 -1 -27 0 -7 1 -13 -2 -13 -7 0 -4 -17 -9 -37 -10 -48 -3 -75 -11
-69 -21 6 -9 -40 -8 -49 1 -4 4 -13 4 -21 1 -8 -3 -14 0 -14 6 0 6 -7 8 -15 5
-10 -4 -13 -13 -10 -25 4 -11 3 -19 -2 -18 -20 3 -25 -2 -13 -16 11 -14 14
-13 27 5 14 20 40 29 28 10 -4 -6 -1 -18 7 -27 11 -14 11 -16 -4 -11 -20 8
-31 -1 -18 -16 6 -8 -8 -20 -45 -38 -55 -27 -69 -24 -70 12 0 8 -6 14 -12 13
-7 -2 -13 4 -13 12 0 9 -8 19 -17 22 -10 4 -21 11 -24 15 -17 25 -117 -40
-102 -66 3 -6 0 -6 -8 2 -7 6 -24 12 -39 12 -24 1 -80 40 -80 58 0 5 -23 6
-50 2 -33 -4 -50 -3 -50 4 0 8 -3 8 -8 0 -10 -16 -75 -10 -80 7 -2 8 -14 22
-26 31 -11 9 -21 23 -21 30 0 17 -41 36 -68 31 -16 -3 -23 -12 -25 -31 -1 -14
-6 -30 -11 -35 -14 -14 9 -57 30 -57 10 0 21 5 24 10 7 12 25 4 25 -12 0 -5
-6 -8 -12 -5 -8 3 -14 -5 -14 -20 -1 -14 -12 -31 -23 -40 -12 -8 -19 -18 -16
-23 6 -10 -35 -41 -45 -35 -9 5 -23 -33 -21 -52 2 -18 -9 -16 -32 4 -11 10
-17 12 -13 6 4 -7 2 -13 -4 -13 -7 0 -10 -6 -8 -12 9 -27 -15 -34 -38 -11 -22
22 -23 53 -2 53 5 0 5 6 0 16 -6 10 -5 30 1 52 10 31 9 36 -12 53 -13 11 -29
19 -37 19 -8 0 -11 6 -8 15 4 10 0 15 -13 15 -11 0 -20 -7 -20 -15 0 -8 4 -12
9 -9 4 3 8 0 8 -5 0 -11 -13 -15 -38 -12 -11 2 -11 -2 -2 -19 15 -28 -5 -57
-26 -39 -11 9 -14 7 -14 -9 0 -11 10 -27 23 -35 12 -9 17 -16 10 -16 -6 -1
-14 3 -18 9 -3 6 -15 6 -29 0 -13 -5 -27 -6 -30 -3 -3 3 -12 0 -21 -7 -11 -9
-15 -9 -15 -1 0 7 -5 9 -11 6 -6 -4 -8 -14 -5 -22 3 -8 1 -11 -4 -8 -6 3 -10
1 -10 -4 0 -6 -8 -10 -17 -9 -45 3 -65 -2 -59 -17 4 -11 -1 -14 -17 -11 -29 5
-60 -12 -50 -27 4 -7 -2 -5 -12 3 -17 14 -18 14 -7 -6 8 -16 24 -23 63 -27 29
-4 55 -10 58 -15 5 -7 41 -21 71 -26 3 -1 10 -4 15 -7 6 -3 22 -5 37 -4 15 0
26 -3 25 -8 -1 -5 4 -12 11 -14 7 -3 11 1 10 7 -2 7 7 14 20 16 15 3 21 0 16
-7 -3 -6 -2 -14 4 -18 5 -3 12 -15 14 -25 4 -24 36 -57 69 -73 23 -11 22 -12
-9 -6 -27 5 -31 3 -26 -11 3 -9 10 -14 14 -11 5 3 14 -1 22 -8 7 -8 25 -17 39
-20 14 -4 38 -18 53 -32 15 -14 33 -25 40 -25 8 0 17 -11 20 -24 8 -34 -9 -76
-32 -76 -26 0 -87 -48 -87 -68 -1 -19 53 -112 64 -112 4 0 13 -11 19 -25 6
-14 17 -25 24 -25 9 0 8 3 -2 10 -13 8 -13 10 1 10 9 0 20 -7 23 -16 4 -9 9
-14 13 -11 11 12 61 -33 67 -61 18 -87 16 -106 -11 -108 -7 -1 -20 -2 -28 -3
-8 0 -19 -11 -26 -22 -8 -15 -8 -19 0 -15 6 4 11 1 11 -7 0 -13 6 -14 147 -20
27 -2 33 -6 33 -24 0 -12 -11 -34 -23 -49 -19 -22 -36 -29 -85 -35 -66 -7 -85
-20 -90 -60 -5 -44 26 -61 110 -60 40 1 98 -4 128 -11 30 -6 60 -10 65 -9 6 2
21 4 35 5 14 1 30 5 37 9 9 6 52 1 98 -12 24 -7 35 -15 35 -27 0 -8 4 -14 8
-14 4 0 9 -11 10 -24 1 -16 -5 -25 -17 -29 -12 -3 -21 -15 -23 -31 -2 -15 -7
-27 -13 -28 -5 -1 -21 -12 -34 -24 -45 -42 1 -96 94 -109 11 -1 23 -3 28 -4
16 -3 6 -20 -14 -23 -14 -2 -25 -15 -34 -40 -11 -34 -11 -37 9 -43 33 -11 67
-17 114 -19 23 0 42 -4 42 -9 0 -4 15 -4 33 -1 52 11 147 6 147 -8 0 -4 6 -5
14 -2 8 3 26 -2 40 -11 20 -13 26 -14 26 -4 0 7 7 3 16 -9 8 -12 23 -22 32
-22 14 0 17 -10 17 -53 0 -28 3 -58 8 -64 7 -10 3 -13 -14 -13 -19 0 -21 -2
-9 -10 8 -5 11 -12 7 -16 -3 -4 -13 -1 -21 5 -11 10 -15 8 -19 -6 -4 -15 -5
-15 -6 2 0 12 4 26 10 32 8 8 6 14 -9 22 -10 6 -23 7 -28 3 -5 -4 0 3 10 15
11 13 21 23 24 23 2 0 -1 -7 -8 -15 -10 -12 -9 -15 8 -15 13 0 21 8 24 24 4
17 1 23 -9 19 -7 -3 -13 0 -13 6 0 17 -48 13 -81 -6 -33 -20 -35 -26 -14 -47
8 -8 15 -23 15 -33 0 -13 -2 -15 -9 -5 -6 10 -10 10 -20 -2 -9 -11 -9 -16 0
-22 9 -5 7 -11 -7 -22 -18 -13 -18 -14 4 -7 17 5 29 1 43 -14 21 -22 25 -41 8
-41 -5 0 -8 4 -5 9 3 5 -1 12 -10 15 -8 3 -12 10 -9 16 3 6 -1 7 -9 4 -15 -6
-20 -26 -17 -69 2 -18 0 -18 -18 5 -13 17 -17 29 -11 41 10 17 4 29 -13 29 -5
0 -7 -6 -4 -13 3 -8 1 -20 -4 -28 -7 -11 -13 -10 -31 10 -13 13 -17 21 -10 17
8 -5 12 0 12 15 0 20 -2 21 -17 7 -10 -9 -24 -13 -32 -10 -10 3 -12 -1 -8 -16
4 -19 2 -20 -13 -12 -28 15 -40 12 -40 -10 0 -11 -5 -20 -11 -20 -5 0 -7 5 -4
10 3 6 1 10 -4 10 -6 0 -11 -6 -12 -12 0 -7 -4 -4 -9 7 -5 11 -9 15 -9 9 -1
-7 -8 -14 -16 -17 -18 -8 -67 17 -57 29 4 4 -1 2 -11 -5 -9 -7 -17 -10 -17 -6
0 4 -7 1 -17 -6 -15 -13 -15 -12 -4 8 7 15 8 23 1 23 -5 0 -10 -3 -10 -8 0 -4
-9 -13 -21 -20 -12 -8 -18 -9 -15 -4 3 6 -1 13 -10 16 -12 5 -15 2 -10 -9 3
-9 2 -14 -3 -10 -5 3 -12 -1 -15 -7 -3 -9 -11 -6 -25 11 -13 14 -21 18 -21 10
0 -9 -14 -15 -40 -16 -22 0 -40 3 -40 9 0 5 -4 6 -10 3 -5 -3 -18 -1 -29 5
-16 8 -22 7 -29 -6 -11 -19 -22 -20 -33 -2 -5 8 -9 8 -9 2 0 -13 -48 -16 -56
-3 -3 5 -12 9 -20 9 -10 0 -12 -5 -8 -12 5 -8 1 -8 -10 1 -13 11 -19 12 -25 3
-6 -9 -15 -8 -40 4 -28 14 -35 14 -42 3 -7 -11 -9 -11 -9 -1 0 8 -6 12 -13 10
-6 -3 -12 -10 -12 -15 0 -6 -4 -15 -9 -20 -5 -5 -6 -3 -2 5 4 7 1 12 -8 12 -9
0 -16 -5 -16 -11 0 -5 -5 -7 -10 -4 -6 4 -7 12 -3 18 4 7 0 6 -10 -2 -20 -16
-49 -8 -41 12 4 11 -7 14 -50 13 -30 -1 -58 -5 -62 -9 -4 -4 -13 -2 -19 3 -9
8 -14 6 -19 -5 -4 -11 -13 -14 -31 -9 -14 3 -25 2 -25 -4 0 -5 -10 -10 -22
-10 -13 0 -44 -2 -70 -4 -27 -2 -50 1 -52 7 -3 6 -5 5 -5 -2 -1 -6 -10 -9 -21
-6 -19 5 -27 24 -67 163 -8 30 -20 66 -25 80 -6 14 -18 59 -28 100 -10 41 -25
95 -33 120 -8 25 -20 65 -27 90 -7 25 -19 61 -26 80 -8 19 -21 76 -29 125 -8
50 -16 100 -18 112 -2 13 -9 28 -14 35 -5 7 -18 49 -28 93 -10 44 -22 85 -26
90 -3 6 -9 28 -13 50 -4 22 -18 72 -31 110 -27 83 -66 206 -90 290 -9 33 -21
71 -25 85 -5 14 -21 86 -35 160 -23 121 -84 325 -120 405 -7 17 -22 53 -33 80
-11 28 -55 122 -97 210 -43 88 -86 181 -96 207 -77 196 -285 538 -409 673 -18
20 -33 54 -44 100 -9 39 -29 95 -45 126 -16 31 -32 70 -35 87 -10 44 -72 99
-156 139 -41 19 -111 52 -155 73 -201 97 -303 133 -504 180 -96 22 -231 80
-526 225 -82 41 -177 81 -210 89 -33 8 -90 22 -127 31 -37 10 -72 22 -77 29
-5 6 -14 58 -20 116 -10 98 -15 113 -70 225 -73 147 -86 187 -72 214 6 11 20
22 30 26 29 9 86 76 121 142 66 123 94 160 144 188 23 13 55 89 55 131 1 18
10 39 21 49 11 10 20 23 20 30 0 6 24 47 53 91 28 43 58 90 64 104 37 74 147
277 157 290 7 8 44 78 82 154 38 77 76 153 86 170 33 62 41 304 13 391 -20 63
-33 126 -49 240 -27 182 -121 317 -321 458 -55 39 -102 74 -105 77 -9 9 -233
118 -320 156 -47 20 -103 44 -125 54 -85 39 -122 51 -209 70 -50 11 -109 20
-132 20 -51 0 -144 -29 -162 -50 -10 -11 -15 -12 -18 -2 -9 20 -34 14 -45 -10
-10 -23 -59 -54 -59 -37 0 13 -34 28 -76 34 -38 5 -37 -9 1 -18 11 -3 -1 -5
-26 -6 -28 -1 -52 -7 -59 -16 -11 -13 -10 -14 3 -10 8 4 18 2 21 -3 9 -14 -81
-19 -99 -6 -9 7 -25 10 -36 7 -10 -3 -25 0 -33 6 -10 8 -16 9 -21 1 -3 -5 -17
-10 -31 -10 -13 0 -24 -4 -24 -8 0 -4 -32 -17 -71 -27 -39 -11 -75 -25 -81
-32 -6 -7 -23 -13 -39 -13 -40 0 -46 -18 -7 -22 32 -3 31 -4 -22 -22 -30 -10
-61 -21 -69 -24 -9 -3 -12 -1 -7 6 5 9 1 9 -16 3 -13 -5 -22 -14 -21 -20 2 -6
-4 -8 -12 -5 -17 7 -85 -22 -85 -36 0 -6 -7 -10 -15 -10 -8 0 -15 -1 -15 -3 0
-1 -20 -51 -44 -110 -46 -111 -69 -151 -118 -203 -54 -58 -71 -130 -74 -309
-1 -88 -5 -205 -8 -259 -6 -89 -10 -103 -36 -136 -16 -20 -36 -43 -45 -50 -19
-16 -20 0 0 53 l13 39 -25 -24 c-24 -22 -25 -26 -19 -112 6 -78 5 -90 -11
-102 -17 -13 -17 -13 4 -14 16 0 21 -5 18 -20 -2 -11 0 -20 6 -20 5 0 9 -10 9
-22 0 -19 2 -20 10 -8 8 13 10 12 10 -2 0 -10 -4 -18 -9 -18 -4 0 -6 -11 -3
-25 2 -15 -2 -33 -11 -43 -8 -9 -20 -34 -26 -54 -7 -20 -28 -50 -46 -65 l-34
-28 -6 -135 c-8 -184 -11 -199 -41 -212 -17 -8 -38 -36 -59 -79 -33 -66 -33
-68 -22 -138 6 -39 15 -71 19 -71 4 0 27 -17 52 -37 25 -21 55 -45 67 -53 20
-15 22 -24 21 -110 -1 -87 1 -96 28 -136 33 -50 166 -208 203 -243 l26 -23
-43 -53 c-51 -62 -117 -181 -140 -250 l-16 -50 -157 -53 -158 -53 -40 21 c-54
27 -69 25 -112 -14 -39 -35 -150 -86 -188 -86 -11 0 -26 -5 -33 -12 -7 -7 -47
-18 -90 -24 -42 -7 -102 -19 -132 -27 -246 -66 -251 -67 -267 -52 -8 8 -11 15
-7 15 3 0 2 6 -4 13 -6 6 -10 17 -9 22 2 19 -51 30 -78 15 -14 -7 -23 -15 -20
-18 2 -3 0 -13 -6 -23 -12 -24 -41 -25 -37 -1 1 9 -1 22 -4 28 -4 6 -10 33
-14 60 -3 27 -8 52 -10 56 -3 4 -7 31 -9 60 -3 29 -7 64 -10 78 -11 47 -6 115
9 145 20 38 20 94 0 123 -10 15 -11 22 -3 22 8 0 7 5 -2 17 -10 11 -10 14 -1
9 8 -5 12 0 12 13 0 12 5 21 11 21 5 0 7 -5 3 -12 -4 -7 -3 -8 4 -4 7 4 12 16
12 27 0 11 4 17 10 14 6 -3 7 1 4 9 -3 9 -1 16 5 16 7 0 27 15 46 34 29 30 39
34 77 31 43 -3 90 -16 118 -35 54 -35 67 -39 111 -29 24 6 51 12 60 14 9 2 33
13 55 24 21 12 45 21 53 21 8 0 23 8 34 17 11 10 17 12 13 5 -7 -11 -4 -11 12
-1 12 7 19 15 17 17 -2 2 9 16 24 30 33 32 52 88 26 78 -9 -3 -18 1 -22 10 -3
9 -13 14 -24 11 -11 -3 -17 -1 -14 3 7 12 -48 7 -57 -5 -4 -5 -14 -2 -26 8
-10 9 -24 17 -30 17 -15 0 -16 17 -2 25 6 4 7 11 4 17 -4 7 -2 8 4 4 17 -10
32 26 20 48 -8 14 -7 17 1 12 6 -4 11 -1 11 6 0 7 7 3 15 -9 8 -12 12 -29 8
-39 -5 -14 -2 -13 15 4 28 28 46 28 39 2 -5 -21 -5 -21 23 -3 16 10 29 21 29
26 1 4 10 16 22 28 16 16 18 23 8 35 -7 8 -7 14 -1 14 5 0 12 -7 16 -15 8 -21
27 -19 64 9 26 19 30 26 19 34 -10 9 -17 8 -25 0 -9 -9 -12 -9 -12 0 0 16 -27
15 -33 -1 -3 -9 -20 -13 -47 -13 -23 1 -44 -2 -46 -6 -3 -5 -9 -6 -14 -3 -5 3
-11 1 -15 -5 -3 -5 -13 -10 -22 -10 -13 0 -13 3 -3 15 7 9 10 18 6 22 -3 3 -6
2 -6 -3 0 -6 -10 -10 -22 -11 -13 0 -30 -2 -38 -4 -10 -3 -15 3 -14 19 0 16
-6 24 -23 28 -13 4 -23 14 -23 24 0 11 -5 22 -12 26 -7 5 -5 11 7 21 11 7 15
13 11 13 -5 0 -3 7 4 15 14 17 35 21 25 5 -10 -17 32 -11 46 6 17 21 20 43 8
66 -7 13 -6 18 3 16 8 -2 11 8 9 31 -2 22 1 31 8 27 6 -4 11 -3 11 3 0 5 -6
12 -12 14 -7 3 -1 6 14 6 16 1 27 4 27 9 -4 21 3 32 18 32 12 0 14 3 6 11 -8
8 -17 8 -33 -1 -18 -10 -21 -9 -15 0 6 10 1 11 -19 6 -18 -4 -26 -2 -26 6 0
10 -2 10 -9 -1 -6 -10 -10 -10 -16 -1 -5 8 -11 6 -21 -7 -8 -11 -13 -13 -14
-5 0 10 -5 10 -20 2 -11 -6 -20 -8 -20 -4 0 3 -6 2 -13 -4 -28 -23 -145 -10
-154 17 -10 27 -43 65 -43 50 0 -11 -2 -11 -10 1 -14 21 -12 33 3 24 6 -4 8
-3 4 1 -12 14 -39 15 -34 1 3 -7 -2 -13 -10 -13 -9 0 -18 9 -21 19 -2 10 -8
15 -13 13 -4 -3 -6 -13 -3 -23 5 -14 4 -14 -4 -2 -9 12 -13 12 -30 -4 -19 -17
-21 -16 -35 4 -10 15 -16 17 -19 8 -3 -7 9 -20 26 -29 17 -9 30 -24 30 -32 -1
-10 10 -18 27 -22 16 -4 34 -16 40 -27 6 -11 13 -17 16 -14 3 3 0 12 -7 21 -9
11 -9 15 -1 15 22 0 23 -29 1 -60 -12 -17 -26 -27 -32 -24 -7 4 -8 2 -4 -4 4
-7 2 -12 -3 -12 -6 0 -11 -8 -11 -17 0 -14 -2 -15 -9 -4 -5 7 -14 10 -20 7 -7
-5 -10 -2 -9 6 2 7 10 16 18 20 13 6 13 7 -1 7 -9 1 -24 -9 -35 -21 -10 -12
-13 -18 -6 -14 6 4 12 5 12 3 0 -3 -17 -15 -37 -28 -53 -31 -116 -29 -149 5
-23 22 -54 26 -54 6 0 -13 -59 -30 -65 -19 -4 5 -11 6 -17 3 -7 -4 -8 -2 -4 5
4 6 3 18 -3 25 -16 19 11 28 45 16 33 -13 37 -13 28 3 -6 9 -4 9 7 0 18 -17
29 -16 29 3 0 8 -4 13 -9 9 -6 -3 -7 6 -2 22 4 16 7 33 5 38 -5 17 41 66 64
68 12 1 22 4 22 8 0 4 16 6 36 4 29 -3 35 -1 30 12 -6 14 -4 14 11 2 9 -8 14
-9 10 -3 -3 6 3 21 14 32 16 18 17 22 4 22 -8 0 -15 6 -15 14 0 8 -5 18 -12
22 -7 5 -8 3 -3 -7 8 -12 6 -12 -8 0 -10 8 -20 11 -24 8 -3 -4 -12 -2 -19 4
-8 6 -20 9 -29 6 -8 -4 -17 -2 -20 3 -3 4 1 11 7 13 8 3 6 6 -4 6 -13 1 -17 8
-14 30 2 23 0 28 -13 24 -9 -2 -5 2 8 10 15 9 20 17 13 21 -6 4 -8 14 -5 23 4
10 2 14 -5 9 -6 -3 -14 -1 -18 5 -4 6 -19 9 -36 5 -21 -4 -30 -1 -35 10 -5 13
-7 13 -14 2 -7 -10 -9 -9 -9 5 0 17 -34 53 -48 51 -4 -1 -17 6 -30 16 -12 10
-31 16 -42 13 -14 -4 -20 0 -20 11 0 10 6 13 15 10 11 -5 13 -2 8 12 -5 13 -3
15 7 9 9 -6 11 -4 5 4 -5 9 -11 9 -17 3 -7 -7 -19 -7 -35 -1 -22 8 -23 7 -12
-14 9 -17 9 -20 -1 -10 -7 6 -20 9 -29 5 -14 -5 -14 -4 -2 11 17 21 5 22 -15
2 -12 -11 -12 -15 -2 -15 7 0 -2 -13 -20 -29 -17 -17 -32 -39 -32 -50 0 -13
-7 -21 -17 -21 -14 0 -15 -2 -4 -9 16 -10 3 -19 -26 -16 -14 1 -19 -3 -16 -12
4 -9 0 -11 -11 -7 -8 3 -15 9 -14 12 2 21 -4 32 -19 32 -15 0 -15 -1 1 -13 16
-12 17 -14 1 -27 -12 -10 -19 -10 -27 -2 -7 7 -19 12 -27 11 -11 0 -12 -2 -3
-6 13 -5 17 -24 5 -22 -21 3 -24 -3 -12 -18 12 -15 12 -16 -4 -10 -10 4 -21 7
-23 7 -3 0 -3 4 0 8 3 5 -1 9 -9 9 -13 0 -12 -4 2 -19 9 -10 13 -21 10 -25 -4
-3 -7 -1 -7 5 0 18 -19 14 -47 -8 -14 -11 -31 -20 -37 -20 -6 1 0 7 13 14 16
9 19 14 10 18 -15 5 -51 -27 -41 -36 3 -3 -2 -6 -12 -6 -9 0 -19 7 -22 15 -5
12 -9 13 -20 4 -11 -9 -11 -15 -3 -25 8 -10 6 -12 -10 -9 -12 2 -19 0 -16 -6
4 -5 14 -9 23 -9 16 -1 15 -1 -1 -11 -9 -5 -22 -7 -28 -3 -7 4 -9 0 -5 -13 8
-25 -3 -55 -16 -47 -6 4 -6 -1 0 -13 7 -12 8 -33 2 -58 -5 -21 -7 -43 -4 -47
3 -4 0 -8 -6 -8 -6 0 -9 -4 -6 -9 3 -5 -1 -14 -9 -21 -8 -7 -15 -19 -15 -26 0
-8 -5 -14 -11 -14 -5 0 -7 -4 -4 -10 3 -6 -1 -11 -9 -11 -9 -1 -21 -2 -27 -3
-6 0 -18 -12 -26 -26 -15 -24 -15 -24 2 -5 16 18 17 19 11 1 -3 -10 -1 -26 6
-34 11 -13 11 -15 -2 -8 -13 7 -13 6 0 -6 29 -25 69 -134 61 -163 -2 -5 -5
-21 -7 -34 -3 -13 -10 -34 -16 -45 -7 -12 -13 -55 -14 -96 -2 -41 -6 -86 -9
-100 -7 -32 -17 -132 -19 -187 0 -24 -4 -43 -7 -43 -4 0 -6 -25 -5 -55 0 -30
5 -55 9 -55 4 0 3 -9 -3 -20 -7 -14 -8 -20 0 -20 10 0 -16 -49 -34 -61 -5 -4
-5 -13 -1 -20 5 -8 5 -11 1 -7 -15 13 -35 -16 -25 -34 6 -12 6 -18 -1 -18 -5
0 -10 -5 -10 -12 0 -6 3 -9 6 -5 10 10 42 -26 36 -41 -3 -10 -1 -13 6 -8 8 5
10 1 5 -10 -4 -11 -8 -13 -11 -6 -2 7 -7 10 -11 7 -5 -2 -17 2 -27 10 -16 13
-17 16 -4 25 19 12 9 13 -24 0 -27 -10 -59 -4 -51 10 3 4 -1 8 -8 7 -49 -1
-54 3 -50 36 2 17 4 39 3 47 -1 42 1 111 5 127 5 26 35 114 49 143 17 34 11
168 -9 206 -8 16 -15 35 -15 42 0 7 -4 10 -10 7 -5 -3 -10 2 -11 12 -1 10 -3
32 -4 48 -6 48 -17 199 -16 215 10 232 3 376 -20 422 -4 9 -5 32 -2 52 4 24 2
36 -6 36 -6 0 -11 7 -11 17 0 15 -1 15 -19 -1 -17 -16 -18 -15 -16 9 2 14 -1
27 -6 31 -5 3 -9 0 -9 -6 0 -6 -5 -8 -11 -4 -8 5 -6 10 5 16 9 5 16 14 16 20
0 6 -7 5 -17 -3 -17 -13 -17 -13 -3 6 8 11 21 24 28 28 7 5 9 14 6 20 -4 7 -1
7 7 -1 12 -11 11 -15 -5 -24 -15 -8 -16 -12 -5 -19 19 -12 26 -11 26 4 1 6 4
36 7 65 5 37 3 61 -7 80 -11 24 -11 30 1 41 8 8 10 16 5 20 -5 3 -9 15 -8 26
0 11 -4 23 -10 28 -6 4 -6 10 2 15 14 9 0 38 -14 29 -5 -3 -10 0 -10 8 0 8 4
12 9 9 4 -3 6 5 5 18 -4 25 -13 26 -39 3 -16 -13 -18 -13 -18 4 0 11 -8 22
-17 24 -13 3 -12 5 5 6 14 1 22 6 19 14 -2 6 -10 11 -17 9 -11 -3 -11 0 -1 12
7 8 10 20 6 26 -3 5 -2 10 4 10 6 0 8 7 4 16 -6 16 -7 16 -18 0 -7 -9 -16 -16
-20 -16 -4 0 -2 6 4 14 6 7 9 21 5 30 -3 9 -2 16 4 16 5 0 12 10 15 23 6 20 5
21 -7 4 -13 -17 -14 -17 -21 0 -5 12 -9 14 -12 6 -3 -7 -12 -13 -21 -13 -14 0
-14 2 -3 9 11 7 11 9 0 13 -24 8 -48 -3 -46 -23 1 -10 5 -19 10 -19 4 0 6 -4
3 -9 -3 -4 -1 -22 4 -40 6 -21 5 -31 -2 -31 -6 0 -5 -7 3 -17 9 -10 9 -14 2
-10 -9 6 -8 -3 2 -28 9 -19 11 -35 5 -35 -5 0 -7 -7 -4 -15 4 -8 1 -15 -6 -15
-7 0 -10 -8 -7 -19 2 -10 1 -25 -4 -33 -4 -8 -8 -39 -8 -69 0 -30 -1 -76 -1
-104 0 -27 6 -72 13 -100 11 -41 11 -59 1 -98 -7 -27 -11 -80 -9 -119 3 -50 0
-77 -11 -92 -8 -13 -11 -25 -8 -28 3 -4 -8 -5 -25 -4 -16 1 -28 -1 -25 -5 2
-4 -5 -9 -17 -12 -15 -4 -23 1 -29 19 -10 24 -10 24 -47 8 -21 -8 -47 -17 -58
-20 -11 -2 -21 -8 -23 -14 -2 -6 -8 -8 -13 -4 -5 3 -9 1 -9 -5 0 -5 6 -12 13
-15 10 -5 10 -7 0 -12 -18 -8 -16 -31 3 -42 11 -6 13 -11 5 -16 -17 -11 -13
-26 6 -19 10 4 14 2 9 -5 -3 -6 2 -17 12 -24 18 -13 40 -54 23 -44 -4 3 -16
-3 -26 -14 -14 -15 -15 -23 -6 -33 6 -8 8 -17 4 -20 -3 -4 -1 -7 7 -7 10 0 10
-3 0 -15 -9 -11 -9 -15 -1 -15 7 0 9 -5 5 -12 -4 -6 -3 -8 4 -4 15 9 43 -34
33 -52 -4 -8 -4 -33 1 -56 15 -73 17 -105 6 -112 -7 -4 -6 -10 3 -16 11 -7 9
-9 -6 -5 -17 3 -20 -1 -19 -27 1 -24 -2 -32 -16 -32 -10 0 -16 5 -13 12 2 6
-3 18 -11 27 -15 14 -14 16 6 23 20 6 20 8 5 19 -15 11 -21 59 -6 49 19 -11
17 16 -2 30 -12 8 -18 19 -15 24 3 6 3 12 -1 14 -15 6 -53 85 -45 93 4 5 2 5
-5 1 -14 -8 -27 28 -17 46 4 7 3 10 -1 5 -5 -4 -15 -1 -24 7 -41 35 -111 12
-111 -36 0 -25 36 -58 62 -58 10 0 18 -5 18 -11 0 -6 7 -8 16 -5 14 5 15 4 4
-9 -8 -10 -9 -19 -3 -28 6 -6 10 -24 9 -39 -1 -14 2 -24 6 -22 11 7 10 -28 -2
-46 -6 -9 -5 -17 3 -22 9 -6 9 -10 0 -16 -8 -5 -9 -13 -3 -22 8 -13 10 -13 10
-1 0 8 3 12 6 9 9 -9 -13 -45 -32 -52 -9 -3 -22 -2 -28 3 -15 13 -49 -22 -35
-36 6 -6 2 -17 -11 -28 -11 -10 -20 -28 -20 -39 0 -21 -19 -60 -20 -41 0 6 -8
-5 -16 -22 -9 -18 -24 -33 -33 -33 -14 0 -14 -2 -1 -10 8 -5 13 -10 10 -11
-34 -6 -43 -8 -48 -14 -4 -3 0 -10 8 -15 8 -6 13 -10 10 -11 -3 0 -15 -2 -27
-5 -17 -3 -20 0 -16 16 4 14 -5 24 -36 39 -23 12 -41 19 -41 15 0 -10 -26 20
-35 41 -4 11 -7 48 -6 83 3 56 0 65 -23 87 -14 12 -27 18 -28 13 -3 -7 -17 -7
-43 2 -66 22 -87 21 -124 -8 -41 -30 -98 -37 -141 -15 -17 8 -35 11 -42 7 -8
-5 -9 -2 -5 9 6 16 -4 22 -27 18 -5 -1 -6 5 -2 14 3 9 -3 24 -15 36 -11 11
-17 24 -14 29 4 6 1 10 -4 10 -6 0 -11 5 -11 10 0 6 -12 21 -27 34 -15 13 -23
28 -19 35 10 16 26 4 27 -22 1 -19 2 -19 9 5 11 37 20 49 31 43 5 -4 3 -13 -6
-21 -16 -17 -20 -40 -7 -48 5 -3 8 3 8 12 -1 9 4 18 9 19 6 1 9 -8 7 -20 -3
-18 0 -17 12 7 21 37 20 62 -1 70 -15 6 -15 8 2 20 16 12 17 13 1 19 -10 4
-15 3 -11 -3 3 -6 0 -10 -7 -10 -8 0 -14 9 -15 19 -1 14 4 19 17 16 11 -2 22
0 24 4 3 4 -5 8 -17 8 -24 2 -49 -15 -42 -27 3 -5 1 -11 -4 -15 -6 -3 -8 6 -5
22 4 23 3 26 -7 16 -15 -15 -33 -17 -24 -3 3 6 2 10 -3 10 -5 0 -12 -9 -15
-20 -3 -11 -12 -20 -21 -20 -13 0 -13 -3 4 -20 25 -25 37 -25 43 -2 3 9 4 6 4
-9 -1 -26 -25 -36 -38 -16 -4 5 -12 8 -20 5 -8 -3 -5 -11 10 -25 13 -12 20
-27 16 -33 -6 -9 -9 -9 -15 0 -5 8 -9 7 -13 -4 -4 -9 -2 -16 3 -16 6 0 10 -5
10 -11 0 -8 -4 -8 -14 0 -7 6 -20 9 -28 6 -17 -7 -43 19 -34 34 4 5 -2 12 -13
16 -11 3 -25 13 -33 22 -11 14 -11 16 1 8 10 -6 12 -4 6 5 -13 21 -14 60 -2
105 5 22 9 57 8 78 0 20 3 37 8 37 4 0 0 30 -10 67 -11 37 -19 77 -19 89 0 12
-6 25 -12 27 -9 4 -10 6 -1 6 8 1 9 10 5 29 -4 15 -7 46 -7 70 0 23 -2 42 -6
42 -3 0 -4 11 -1 25 2 14 8 25 12 25 5 0 4 17 -2 38 -14 48 -16 95 -4 104 14
9 9 208 -5 208 -9 0 -6 57 4 66 4 5 -3 14 -15 21 -13 7 -17 12 -10 13 9 0 11
7 7 19 -3 11 -1 22 5 26 8 5 5 12 -7 22 -17 14 -17 14 3 10 12 -2 21 1 21 8 0
8 -7 11 -15 7 -11 -4 -13 -2 -7 9 7 11 5 11 -10 -1 -17 -14 -18 -13 -12 11 5
20 3 29 -9 33 -8 3 -12 10 -9 16 3 5 2 10 -4 10 -5 0 -12 -6 -14 -12 -4 -10
-6 -10 -6 0 -1 7 -5 11 -11 7 -5 -3 -7 -12 -4 -19 3 -8 1 -17 -5 -21 -6 -3
-11 -19 -11 -34 0 -15 -5 -32 -12 -39 -9 -9 -9 -12 2 -12 10 0 11 -3 4 -8 -17
-10 -27 -82 -12 -82 9 0 9 -3 1 -11 -7 -7 -8 -23 -3 -45 5 -19 4 -37 -1 -40
-5 -3 -6 -10 -3 -16 17 -28 21 -299 4 -323 -3 -5 -6 -17 -5 -25 1 -8 -5 -33
-13 -55 -7 -22 -12 -73 -12 -115 1 -41 1 -77 0 -80 -7 -18 -5 -48 3 -43 6 4 8
-18 4 -56 -3 -44 -12 -73 -30 -97 -22 -31 -23 -40 -16 -77 5 -23 12 -49 16
-57 3 -8 6 -18 5 -22 -7 -37 -11 -70 -13 -109 -2 -40 -7 -49 -35 -69 -29 -19
-32 -24 -19 -37 18 -18 19 -24 2 -17 -7 2 -18 14 -25 25 -10 16 -10 19 -1 13
9 -5 10 -2 6 9 -3 9 -2 19 3 22 16 10 -1 35 -24 36 -20 0 -20 1 -2 8 19 7 19
8 1 15 -11 4 -22 2 -27 -6 -6 -10 -8 -10 -8 0 0 6 -8 12 -17 12 -14 1 -12 4 7
15 22 12 21 20 -3 16 -4 0 -7 4 -7 10 0 5 -6 7 -12 3 -9 -5 -9 -3 1 9 7 9 18
14 25 10 8 -4 7 -2 -1 7 -8 9 -9 19 -1 36 14 31 4 53 -31 65 -26 9 -29 14 -21
33 6 16 4 28 -5 37 -13 15 -33 69 -20 57 13 -13 39 24 43 61 10 111 11 114 55
99 17 -6 40 -17 51 -24 10 -7 23 -11 30 -8 15 6 14 86 -2 92 -6 2 -10 7 -7 12
6 10 -21 64 -40 80 -8 7 -15 19 -15 26 0 8 -4 14 -10 14 -5 0 -10 7 -10 15 0
8 -11 17 -25 21 -20 5 -23 9 -15 25 9 15 8 17 -6 12 -11 -4 -15 -2 -11 4 8 13
-2 45 -12 39 -3 -2 -6 7 -6 20 0 13 3 24 7 24 11 0 5 44 -7 52 -7 5 -6 8 1 8
6 0 11 10 10 23 -1 12 -7 21 -14 20 -6 -2 -9 4 -6 12 4 9 0 15 -10 15 -19 0
-21 11 -3 29 10 11 8 11 -10 2 -28 -14 -30 -2 -4 26 21 22 18 35 -5 26 -8 -3
-11 -9 -8 -14 3 -5 -5 -4 -19 2 -19 8 -22 16 -19 40 3 23 7 27 17 19 11 -9 12
-6 8 11 -4 15 -3 20 5 15 7 -4 12 -1 12 8 0 9 -6 16 -12 16 -10 0 -9 3 1 9 9
6 10 10 2 16 -7 4 -11 16 -9 28 2 15 -2 22 -14 21 -10 -1 -14 4 -11 12 3 8 9
11 14 8 5 -3 9 -2 10 3 0 4 2 16 4 26 2 9 -1 15 -6 11 -5 -3 -7 -10 -4 -15 4
-5 -1 -9 -10 -9 -14 0 -14 4 -1 34 13 32 13 34 -10 45 -13 6 -24 16 -24 23 0
10 2 10 9 0 6 -11 11 -10 25 3 18 18 21 30 6 20 -5 -3 -10 -2 -10 4 0 5 5 11
11 13 7 2 4 10 -7 18 -14 12 -16 12 -9 1 5 -9 4 -12 -3 -8 -5 4 -8 17 -4 29 3
14 2 19 -6 14 -7 -4 -12 -2 -12 4 0 8 -9 10 -25 6 -17 -4 -24 -2 -23 6 2 6 -6
14 -16 16 -14 3 -17 0 -13 -11 3 -9 1 -17 -4 -19 -6 -2 -5 -15 2 -36 6 -17 15
-29 20 -26 5 3 9 -2 9 -10 0 -9 -6 -15 -12 -13 -8 1 -12 -6 -10 -18 2 -11 3
-28 3 -38 0 -13 6 -16 27 -11 23 5 25 3 12 -8 -8 -7 -15 -17 -16 -23 -1 -27
-17 -64 -25 -59 -5 3 -9 1 -9 -4 0 -6 7 -13 16 -16 8 -3 12 -2 9 3 -8 14 15
25 26 14 6 -6 4 -15 -6 -23 -8 -7 -15 -23 -15 -37 0 -13 -4 -22 -10 -18 -5 3
-7 13 -4 23 5 16 5 16 -6 0 -6 -10 -18 -15 -28 -12 -14 5 -14 3 2 -10 11 -9
14 -16 8 -16 -7 0 -12 -7 -12 -16 0 -8 -5 -12 -10 -9 -6 4 -8 11 -5 16 4 5 -2
9 -12 9 -15 0 -16 2 -3 11 13 9 13 10 0 6 -9 -2 -14 -14 -13 -26 2 -12 -1 -20
-6 -17 -5 3 -11 -1 -15 -9 -3 -8 -1 -15 5 -15 6 0 3 -7 -5 -16 -20 -20 -20
-28 -1 -20 12 4 13 2 5 -13 -5 -11 -9 -49 -7 -85 2 -58 0 -67 -20 -77 -12 -7
-20 -16 -17 -20 2 -4 0 -10 -6 -14 -5 -3 -10 -1 -10 4 0 6 -8 11 -17 10 -11 0
-13 -3 -5 -6 18 -7 15 -33 -5 -34 -10 0 -35 -2 -55 -5 -32 -4 -37 -2 -31 12 5
13 2 16 -9 11 -12 -4 -17 3 -21 31 -9 64 -7 5246 2 5260 4 8 12 12 17 10 5 -1
10 9 12 25 2 18 -1 27 -11 27 -8 0 -17 14 -21 31 -11 57 -7 2259 4 2259 6 0
29 -9 52 -21 45 -23 58 -16 58 29 0 23 40 72 60 72 5 0 10 5 10 11 0 5 -3 8
-7 6 -7 -4 -38 0 -138 20 l-40 8 -3 512 -2 512 31 17 c24 12 46 14 92 9 33 -3
64 -8 68 -10 4 -3 18 -1 30 4 24 8 24 8 -7 24 -17 9 -57 16 -94 16 -36 1 -76
2 -90 3 l-25 3 -3 501 -2 501 -1538 6 c-845 4 -2805 7 -4354 7 l-2818 0 0
-8552z m14280 462 c0 -5 -4 -10 -10 -10 -5 0 -10 5 -10 10 0 6 5 10 10 10 6 0
10 -4 10 -10z m-110 -74 c0 -3 -4 -8 -10 -11 -5 -3 -10 -1 -10 4 0 6 5 11 10
11 6 0 10 -2 10 -4z m-323 -1048 c1 -13 4 -49 7 -80 3 -32 2 -58 -2 -58 -24 0
-51 34 -57 72 -7 38 -5 44 21 65 16 13 29 23 29 23 0 0 1 -10 2 -22z m-4327
-123 c0 -8 -2 -15 -4 -15 -2 0 -6 7 -10 15 -3 8 -1 15 4 15 6 0 10 -7 10 -15z
m-485 -13 c-3 -3 -11 0 -18 7 -9 10 -8 11 6 5 10 -3 15 -9 12 -12z m2028 -9
c-7 -2 -19 -2 -25 0 -7 3 -2 5 12 5 14 0 19 -2 13 -5z m2758 -29 c-9 -28 -9
-29 -10 -3 -1 14 2 29 6 32 11 12 13 2 4 -29z m253 -20 c11 -44 -1 -64 -40
-64 -29 0 -34 3 -34 23 0 57 62 91 74 41z m-4970 -90 c3 -8 2 -12 -4 -9 -6 3
-10 10 -10 16 0 14 7 11 14 -7z m-44 -29 c0 -8 -4 -15 -10 -15 -5 0 -7 7 -4
15 4 8 8 15 10 15 2 0 4 -7 4 -15z m2675 -325 c-3 -5 -12 -10 -18 -10 -7 0 -6
4 3 10 19 12 23 12 15 0z m-135 -69 c0 -5 -7 -12 -16 -15 -14 -5 -15 -4 -4 9
14 17 20 19 20 6z m956 -98 c-7 -7 -26 7 -26 19 0 6 6 6 15 -2 9 -7 13 -15 11
-17z m84 -17 c0 -2 -7 -7 -16 -10 -8 -3 -12 -2 -9 4 6 10 25 14 25 6z m-1750
-138 c0 -6 3 -8 7 -5 9 9 34 -13 27 -24 -3 -5 -2 -9 3 -8 20 3 27 -2 13 -11
-9 -6 -11 -13 -5 -17 13 -11 18 -36 5 -28 -5 3 -10 0 -10 -9 0 -22 -48 -13
-66 13 -9 12 -23 20 -31 19 -9 -2 -18 3 -20 10 -3 8 1 10 13 5 12 -4 15 -3 10
5 -4 7 -2 12 4 12 6 0 9 4 5 9 -3 5 4 12 15 16 11 4 18 11 15 16 -4 5 -1 9 4
9 6 0 11 -5 11 -12z m1304 -180 c-3 -4 -1 -8 5 -8 16 0 24 -69 12 -103 -6 -18
-9 -22 -7 -10 3 15 0 20 -10 16 -8 -3 -14 1 -14 10 0 9 -6 20 -13 24 -23 14
-26 39 -7 53 11 8 17 17 15 20 -2 4 2 7 10 7 8 0 12 -4 9 -9z m631 -63 c6 -5
12 -21 13 -34 3 -21 1 -23 -20 -18 -21 6 -22 5 -5 -7 17 -13 16 -14 -7 -12
-15 0 -26 5 -26 9 0 5 -4 6 -8 3 -4 -2 -8 3 -8 12 0 9 -3 26 -7 37 -6 17 -2
20 26 20 17 0 37 -4 42 -10z m-3630 -15 c3 -5 1 -10 -4 -10 -6 0 -11 5 -11 10
0 6 2 10 4 10 3 0 8 -4 11 -10z m3213 -65 c1 -15 -2 -24 -8 -20 -6 3 -10 0
-10 -7 0 -7 -10 -2 -23 12 -15 16 -22 33 -19 47 4 21 6 21 31 9 17 -9 27 -23
29 -41z m557 18 c-28 -20 -41 -16 -19 6 10 10 23 16 28 13 5 -3 1 -11 -9 -19z
m-727 -132 c9 -13 18 -33 19 -44 2 -11 7 -25 12 -31 10 -12 -20 -56 -39 -56
-6 0 -8 -4 -5 -10 8 -13 3 -13 -33 5 -20 10 -35 28 -42 50 -11 34 -6 75 10 75
4 0 10 9 13 19 7 28 45 23 65 -8z m-53 -244 c0 -1 6 -12 13 -25 11 -19 10 -25
-4 -40 -14 -14 -18 -14 -22 -3 -3 10 -8 8 -17 -8 -11 -22 -12 -22 -49 15 -20
20 -35 38 -34 40 17 17 68 33 88 28 14 -3 25 -6 25 -7z m-77 -238 c-10 -7 -10
-9 0 -9 6 0 12 -5 12 -11 0 -14 -18 -2 -30 21 -8 15 -7 17 11 13 16 -4 18 -8
7 -14z m-1472 -55 c2 -19 -2 -22 -24 -20 -21 2 -28 9 -30 30 -2 15 2 34 9 42
10 12 14 11 27 -8 9 -12 17 -32 18 -44z m1634 -23 c3 -1 13 -14 22 -29 14 -23
15 -32 5 -42 -7 -7 -7 -10 -1 -7 12 7 11 -145 -2 -220 -4 -27 -2 -48 5 -57 10
-12 17 -86 13 -142 -2 -24 -61 -53 -99 -49 -15 1 -20 -2 -16 -14 3 -11 0 -10
-12 4 -12 14 -19 16 -22 7 -3 -6 -10 -9 -16 -5 -17 11 -67 12 -67 2 0 -5 -9
-1 -19 8 -11 9 -18 20 -15 25 3 4 1 8 -4 8 -15 0 -21 35 -9 55 7 13 6 16 -2
11 -13 -8 -16 46 -3 58 7 8 8 13 11 42 0 8 4 13 9 11 4 -3 7 13 7 34 1 27 -3
38 -11 35 -17 -7 -46 29 -42 51 2 11 12 18 26 17 21 -1 21 0 4 16 -13 13 -18
14 -20 3 -5 -18 -18 -17 -26 2 -3 9 0 18 7 21 7 2 12 17 11 31 -1 30 15 54 31
46 6 -2 1 3 -10 12 -20 17 -19 17 7 11 15 -3 30 -1 33 4 4 6 11 8 16 5 5 -4 9
3 9 14 0 14 9 21 32 26 21 5 33 4 36 -4 2 -6 8 -11 13 -11 6 0 8 4 5 9 -4 5
-1 11 5 13 9 3 70 2 89 -1z m9080 -380 c0 -5 -9 -11 -19 -14 -14 -3 -18 -1
-14 9 6 15 33 19 33 5z m-325 -61 c-3 -5 -13 -10 -21 -10 -9 0 -12 -5 -8 -12
4 -7 3 -9 -1 -5 -19 17 -13 37 11 37 14 0 22 -4 19 -10z m145 -4 c0 -3 -4 -8
-10 -11 -5 -3 -10 -1 -10 4 0 6 5 11 10 11 6 0 10 -2 10 -4z m40 -86 c0 -5 -2
-10 -4 -10 -3 0 -8 5 -11 10 -3 6 -1 10 4 10 6 0 11 -4 11 -10z m-9080 -45
c-7 -8 -17 -15 -23 -15 -6 0 -2 7 9 15 25 19 30 19 14 0z m-183 -22 c-4 -3 -2
-12 3 -18 8 -9 6 -14 -5 -18 -8 -4 -12 -13 -9 -22 3 -8 1 -15 -5 -15 -6 0 -11
9 -11 20 0 11 5 20 11 20 6 0 9 6 6 14 -5 13 0 26 11 26 3 0 2 -3 -1 -7z m123
3 c0 -2 -7 -6 -15 -10 -8 -3 -15 -1 -15 4 0 6 7 10 15 10 8 0 15 -2 15 -4z
m2803 -522 c29 -56 101 -104 157 -104 17 0 53 11 79 25 37 18 54 35 70 68 12
24 21 54 21 66 0 31 24 21 28 -12 5 -42 -33 -103 -83 -132 -56 -33 -137 -43
-186 -22 -81 34 -160 137 -143 190 13 42 29 39 35 -7 4 -24 14 -56 22 -72z
m-1273 -243 c35 -25 38 -78 9 -139 -26 -53 -117 -148 -166 -174 l-32 -17 25
-44 c13 -25 31 -51 39 -57 8 -7 15 -18 15 -25 0 -19 -26 -26 -42 -12 -19 15
-61 115 -53 126 3 5 -9 13 -27 16 -36 8 -48 -2 -80 -72 -18 -42 -48 -59 -48
-28 0 16 44 91 96 165 17 25 43 68 57 95 33 66 75 111 89 97 8 -8 -8 -41 -60
-119 l-72 -108 31 -3 c40 -4 92 32 141 96 40 52 77 126 78 154 0 27 -29 48
-69 48 -64 0 -178 -88 -203 -157 -13 -34 -31 -39 -36 -10 -5 27 34 82 91 126
92 71 160 84 217 42z m305 -1 c9 -14 -54 -124 -86 -150 -8 -7 -49 -100 -44
-100 3 0 -3 -9 -12 -19 -20 -24 -62 -120 -63 -143 0 -10 -5 -18 -10 -18 -20 0
-23 33 -7 76 18 49 18 49 -38 30 -49 -17 -65 -7 -65 41 0 39 40 86 68 81 30
-6 21 -51 -13 -68 -28 -14 -29 -15 -8 -18 14 -2 41 10 68 29 36 26 57 55 102
138 31 58 60 112 66 119 11 14 33 16 42 2z m1215 -15 c78 -40 65 -142 -30
-233 -66 -64 -93 -75 -162 -69 l-59 5 -20 -41 c-26 -51 -49 -78 -60 -71 -19
11 -6 42 47 109 30 39 71 95 91 125 47 70 83 110 100 110 26 0 12 -32 -44
-102 -92 -112 -89 -106 -60 -113 39 -10 66 3 125 59 93 88 119 176 60 204 -58
27 -173 -28 -211 -100 -10 -21 -26 -38 -34 -38 -28 0 -7 62 33 97 77 68 162
90 224 58z m656 -79 c3 -8 -10 -36 -30 -62 -20 -26 -36 -51 -36 -55 0 -5 -6
-9 -13 -9 -15 0 -147 -229 -147 -255 0 -21 -34 -16 -38 5 -1 9 13 42 33 74 19
33 33 61 31 64 -3 2 -21 -5 -41 -17 -42 -25 -63 -27 -71 -7 -5 13 -10 13 -39
-1 -43 -21 -69 -11 -61 22 5 20 3 23 -11 18 -27 -10 -76 -45 -91 -65 -7 -10
-20 -18 -28 -18 -17 0 -19 31 -2 48 19 19 2 25 -33 13 -45 -15 -57 -14 -69 9
-8 14 -7 29 4 54 22 54 79 75 91 35 8 -23 -17 -48 -47 -49 -10 0 -18 -4 -18
-10 0 -17 32 -11 88 15 55 25 72 25 72 0 0 -12 6 -12 34 2 44 20 70 11 64 -22
-7 -34 7 -32 72 10 32 20 68 35 86 35 27 0 40 10 87 68 30 37 60 77 66 90 13
25 39 29 47 8z m-1516 -26 c0 -6 -12 -29 -26 -51 -28 -45 -27 -56 6 -39 25 14
97 23 117 16 12 -5 11 -11 -6 -32 -12 -15 -21 -31 -21 -35 0 -12 37 -11 45 1
4 6 25 20 47 31 30 15 43 18 52 9 8 -8 7 -13 -4 -20 -27 -18 0 -10 41 10 23
12 48 18 60 15 21 -7 25 -20 9 -30 -5 -3 -10 -13 -10 -21 0 -12 11 -9 50 12
28 15 53 24 57 21 8 -8 11 -6 -55 -45 -52 -32 -105 -41 -117 -22 -4 6 -1 17 5
25 27 32 -18 14 -63 -25 -45 -40 -77 -51 -77 -27 0 7 5 18 12 25 17 17 3 26
-20 13 -32 -17 -59 -13 -77 12 -15 20 -17 21 -26 5 -6 -11 -22 -18 -41 -18
-29 0 -30 2 -24 33 l6 32 -46 -47 c-42 -45 -74 -61 -74 -38 0 5 -17 8 -37 7
-33 -2 -38 1 -41 21 -4 24 -4 24 -25 5 -12 -11 -34 -24 -50 -31 -24 -10 -30
-9 -44 8 -22 25 -35 25 -58 0 -22 -24 -31 -25 -39 -4 -8 20 21 82 43 93 29 15
99 23 105 12 4 -6 0 -23 -8 -39 -8 -16 -13 -32 -9 -35 8 -9 54 17 77 42 11 12
28 21 39 21 15 0 18 -5 15 -25 -7 -36 6 -31 28 10 11 21 26 35 37 35 17 0 18
-5 13 -37 l-6 -38 25 30 c14 17 33 44 42 60 8 17 22 38 31 48 17 19 42 23 42
7z m1818 -12 c2 -9 -13 -37 -32 -63 -20 -26 -36 -51 -36 -56 0 -5 -6 -9 -14
-9 -8 0 -25 -19 -39 -42 -33 -58 -94 -179 -101 -200 -7 -23 -25 -23 -33 -2 -4
10 7 42 26 77 18 32 30 61 28 63 -3 3 -21 -5 -41 -17 -24 -14 -45 -19 -61 -15
-15 4 -37 0 -55 -9 -38 -19 -70 -6 -70 30 0 24 44 85 61 85 14 0 11 -34 -6
-56 -39 -51 -7 -45 82 17 54 37 80 49 97 45 25 -6 77 42 136 127 33 47 52 55
58 25z m202 -27 c0 -18 -20 -47 -70 -104 -35 -40 -80 -110 -80 -124 0 -8 19
-1 49 17 26 17 53 30 60 30 18 0 13 -30 -6 -37 -10 -4 -28 -13 -41 -21 -18
-12 -20 -17 -10 -23 25 -16 58 -9 91 21 28 24 44 30 80 30 55 0 65 -12 38 -46
-38 -49 -18 -58 49 -24 22 11 46 20 55 20 12 0 15 -6 10 -20 -8 -24 4 -26 31
-5 10 8 30 15 43 15 22 0 23 -3 18 -36 -5 -32 -4 -35 16 -28 12 3 32 12 44 20
26 17 33 17 33 4 0 -14 -95 -60 -125 -60 -21 0 -26 4 -25 23 1 12 2 25 1 29
-2 15 -62 -16 -86 -44 -19 -23 -29 -28 -37 -20 -8 8 -8 18 0 36 10 23 10 24
-28 19 -31 -4 -41 -2 -52 16 -13 21 -38 28 -52 14 -4 -5 -22 -8 -39 -8 -18 -1
-42 -4 -54 -8 -16 -6 -27 -3 -40 12 -23 28 -39 26 -68 -5 -28 -31 -60 -27 -50
6 7 23 6 24 -29 10 -28 -10 -56 8 -56 38 0 26 38 82 55 82 19 0 19 -29 0 -54
-23 -30 -7 -37 36 -16 24 13 57 44 84 83 77 106 135 177 145 177 6 0 10 -8 10
-19z m-500 -70 c0 -19 -47 -64 -58 -57 -18 11 14 66 38 66 11 0 20 -4 20 -9z
m295 -32 c7 -11 -31 -59 -47 -59 -13 0 -9 24 8 48 17 24 29 28 39 11z m-2071
-295 c13 -33 5 -85 -18 -127 -60 -107 -87 -158 -225 -432 -150 -299 -165 -319
-195 -272 -9 14 -5 29 18 72 16 32 35 55 45 55 11 0 12 3 4 8 -9 5 16 65 87
210 55 111 100 208 100 215 0 7 -5 18 -11 24 -18 18 52 140 129 225 37 41 56
47 66 22z m774 -76 c3 -32 -5 -46 -62 -116 -35 -43 -81 -106 -102 -138 -20
-33 -47 -71 -59 -86 -13 -15 -33 -48 -46 -74 -12 -26 -31 -56 -41 -66 -10 -10
-18 -27 -18 -37 0 -11 -5 -23 -10 -26 -8 -5 -8 -11 0 -20 8 -9 8 -15 0 -20 -5
-3 -10 -17 -10 -30 0 -13 -7 -46 -16 -72 -9 -26 -16 -58 -16 -70 -1 -26 1 -26
-32 -13 -37 14 -43 62 -16 136 12 32 26 73 31 91 5 18 16 44 24 60 20 39 10
41 -28 7 -91 -85 -142 -103 -171 -62 l-15 21 -53 -36 c-86 -60 -148 -46 -134
29 7 34 6 35 -16 29 -31 -10 -124 -101 -155 -152 -14 -24 -31 -43 -38 -43 -14
0 -35 49 -31 72 3 19 66 138 112 212 17 28 54 12 54 -23 0 -15 -5 -32 -12 -39
-27 -27 8 -9 64 33 74 55 106 65 125 39 8 -10 11 -28 8 -39 -3 -11 -9 -35 -12
-54 l-6 -34 49 28 c27 15 68 47 92 71 71 73 121 102 171 100 39 -1 47 3 81 41
56 64 185 235 204 271 32 62 79 68 84 10z m5998 -248 c25 0 41 -30 22 -41 -9
-6 -5 -11 12 -18 14 -5 19 -10 13 -10 -21 -1 -14 -21 7 -21 11 0 20 -4 20 -10
0 -5 7 -10 15 -10 8 0 15 -6 16 -12 1 -7 5 3 10 22 4 19 6 41 4 48 -2 6 0 12
6 12 21 0 35 -24 31 -53 -3 -19 -1 -27 6 -24 5 4 17 -5 27 -19 30 -46 -3 -74
-40 -34 -10 12 -39 30 -63 40 -25 11 -51 28 -58 38 -9 11 -13 13 -14 4 0 -7
-4 -11 -9 -8 -5 3 -11 -1 -15 -9 -4 -11 -16 -14 -43 -10 -24 3 -42 0 -53 -10
-9 -8 -28 -14 -41 -14 -13 1 -31 -1 -40 -5 -22 -10 -49 51 -29 64 8 5 13 24
12 48 -2 45 -5 43 81 42 26 0 47 4 47 9 0 6 12 3 28 -5 15 -7 37 -14 48 -14z
m-4826 -99 c0 -18 -83 -101 -101 -101 -16 0 -17 4 -9 26 18 48 53 83 83 83 15
1 27 -3 27 -8z m5730 -23 c0 -4 -6 -26 -12 -48 -12 -37 -15 -40 -50 -40 -31 0
-38 4 -38 20 0 11 9 29 20 40 11 11 20 26 20 33 0 8 3 16 6 20 8 7 54 -14 54
-25z m-475 12 c-3 -5 -16 -10 -28 -10 -18 0 -19 2 -7 10 20 13 43 13 35 0z
m-6470 -27 c22 -26 28 -28 106 -28 73 0 84 -2 87 -18 2 -10 -4 -27 -14 -38
-32 -36 -5 -32 60 9 77 50 108 59 125 38 13 -16 6 -82 -10 -92 -17 -10 -9 -24
14 -24 32 0 92 34 160 91 33 27 69 52 82 55 35 9 65 -12 65 -45 0 -34 -21 -54
-80 -77 -60 -23 -66 -30 -40 -44 19 -10 34 -8 89 14 37 15 103 49 147 76 121
77 171 87 204 40 24 -34 26 -33 -62 -50 -46 -9 -58 -15 -58 -30 0 -11 9 -24
20 -30 44 -23 19 -80 -50 -115 -62 -32 -95 -32 -115 -1 -23 35 -11 56 29 49
23 -3 38 0 50 12 23 23 16 37 -23 48 -28 7 -37 5 -52 -12 -11 -11 -19 -24 -19
-28 0 -4 -12 -9 -27 -9 -16 -1 -54 -11 -87 -23 -70 -25 -104 -15 -120 34 -6
17 -11 32 -13 34 -1 2 -34 -10 -73 -28 -88 -41 -134 -40 -137 3 -1 16 2 37 7
47 7 12 5 21 -8 30 -9 7 -14 9 -10 5 4 -5 -18 -26 -50 -47 -31 -21 -77 -60
-100 -88 -78 -91 -118 -54 -58 53 44 78 45 93 9 94 -16 0 -40 3 -55 7 -23 6
-29 3 -37 -18 -15 -40 -71 -97 -95 -97 -12 0 -32 7 -45 16 -20 14 -23 23 -18
61 6 56 65 123 109 123 15 0 33 7 40 15 18 20 26 19 53 -12z m4862 -5 c-3 -8
-6 -5 -6 6 -1 11 2 17 5 13 3 -3 4 -12 1 -19z m-273 -43 c-4 -8 -11 -15 -16
-15 -6 0 -5 6 2 15 7 8 14 15 16 15 2 0 1 -7 -2 -15z m1096 -68 c0 -7 -4 -6
-10 3 -8 12 -10 12 -10 1 0 -8 -3 -12 -6 -8 -9 9 6 28 17 22 5 -4 9 -12 9 -18z
m-4575 -6 c4 -13 -6 -35 -30 -67 -31 -41 -34 -49 -22 -61 13 -13 19 -13 48 3
34 17 83 53 147 106 33 29 94 39 107 18 4 -6 -10 -10 -34 -10 -23 0 -41 -3
-41 -7 0 -5 -14 -16 -31 -26 -34 -19 -34 -36 -1 -18 13 7 31 7 58 -1 l39 -10
-40 -34 c-58 -48 -90 -60 -121 -44 -21 12 -30 11 -62 -4 -66 -32 -92 -37 -123
-20 -49 25 -50 84 -3 109 11 6 18 18 16 28 -9 46 79 81 93 38z m356 -8 c12
-16 12 -17 -1 -7 -8 6 -22 14 -30 17 -13 5 -12 6 1 6 9 1 23 -7 30 -16z m3693
-14 c23 19 28 -5 12 -56 -4 -12 1 -28 14 -43 24 -28 25 -31 5 -23 -9 3 -15 2
-13 -3 5 -14 -43 -85 -53 -78 -5 3 -9 0 -9 -6 0 -6 -4 -9 -9 -6 -5 4 -11 0
-14 -6 -3 -10 -7 -10 -19 0 -11 9 -17 9 -20 2 -6 -20 -60 17 -74 50 -12 26
-17 30 -40 24 -17 -4 -25 -3 -21 3 4 6 -13 16 -36 23 -48 15 -64 26 -53 37 4
4 11 1 16 -7 8 -12 10 -10 10 8 0 13 4 20 10 17 6 -3 10 3 10 14 0 25 -1 25
37 6 22 -11 38 -13 56 -6 14 5 38 10 53 9 38 0 83 18 90 37 5 12 9 13 20 4 11
-9 17 -9 28 0z m1801 -47 c-13 -13 -23 22 -12 42 11 20 12 20 15 -7 2 -16 1
-32 -3 -35z m-1287 6 c16 -16 15 -38 0 -38 -21 1 -51 28 -43 39 8 14 28 14 43
-1z m-983 -7 c3 -5 1 -12 -5 -16 -5 -3 -10 1 -10 9 0 18 6 21 15 7z m-3057
-13 c-5 -13 -10 -16 -93 -54 -81 -38 -183 -41 -196 -6 -6 17 -5 22 7 22 8 0
13 -4 10 -9 -3 -5 19 -12 49 -16 51 -6 60 -4 132 34 84 43 97 47 91 29z m-238
-8 c0 -5 -4 -10 -10 -10 -5 0 -10 5 -10 10 0 6 5 10 10 10 6 0 10 -4 10 -10z
m4000 -71 c0 -4 11 -10 25 -13 17 -4 23 -11 19 -19 -5 -9 -4 -9 5 -1 17 16 48
6 54 -17 3 -10 1 -17 -3 -14 -5 3 -8 -6 -7 -21 3 -36 -28 -57 -47 -32 -7 10
-22 19 -32 21 -10 2 -28 8 -38 12 -13 6 -21 4 -24 -3 -6 -20 -46 -13 -64 12
-17 23 -17 25 4 51 13 16 27 25 38 22 10 -2 23 -1 29 3 15 9 41 9 41 -1z
m-820 -109 c0 -5 -2 -10 -4 -10 -3 0 -8 5 -11 10 -3 6 -1 10 4 10 6 0 11 -4
11 -10z m1369 -94 c17 -13 43 -17 35 -5 -8 13 30 11 44 -3 21 -21 13 -37 -24
-44 -25 -4 -39 -3 -44 6 -4 7 -25 14 -46 15 -22 2 -39 4 -39 5 0 1 -8 3 -18 5
-13 2 -16 -1 -12 -15 5 -16 -8 -34 -25 -35 -3 0 -14 -6 -24 -12 -18 -10 -18
-13 -5 -34 17 -28 18 -55 1 -52 -6 2 -9 -4 -6 -11 4 -11 0 -13 -15 -9 -12 3
-21 1 -21 -6 0 -6 -3 -10 -7 -9 -9 1 -40 -9 -65 -23 -31 -16 -65 -10 -92 18
-25 25 -26 28 -9 34 10 4 21 5 26 2 4 -2 7 0 7 5 0 5 15 7 33 5 30 -4 31 -3
14 11 -18 14 -18 15 2 25 12 7 18 17 15 26 -4 8 -2 15 4 15 12 0 10 33 -3 42
-12 9 -3 18 24 23 13 2 31 7 42 10 10 4 37 7 60 7 23 0 52 6 66 13 25 13 58
10 82 -9z m-376 -19 c7 -18 -8 -41 -21 -33 -6 3 -14 1 -18 -5 -4 -8 -3 -9 4
-5 7 4 12 4 13 -1 0 -4 2 -16 4 -26 5 -24 -26 -39 -48 -22 -11 8 -17 23 -15
43 2 23 5 28 14 21 9 -8 11 -5 7 12 -5 19 -3 21 15 17 12 -4 20 -2 16 3 -3 5
1 9 9 9 8 0 17 -6 20 -13z m42 -37 c-3 -5 -10 -10 -16 -10 -5 0 -9 5 -9 10 0
6 7 10 16 10 8 0 12 -4 9 -10z m1191 -39 c23 -18 23 -19 5 -35 -17 -16 -20
-16 -35 -1 -18 19 -22 55 -5 55 6 0 22 -8 35 -19z m-1419 -73 c-3 -8 -6 -5 -6
6 -1 11 2 17 5 13 3 -3 4 -12 1 -19z m484 -47 c-7 -5 -12 -12 -12 -16 1 -5 -5
-10 -14 -11 -23 -3 -18 22 8 33 24 12 39 7 18 -6z m-213 -163 c2 -9 -4 -23
-13 -31 -8 -9 -15 -24 -15 -35 0 -16 -8 -21 -43 -23 -75 -7 -104 51 -41 80 15
6 24 15 20 18 -4 4 6 12 21 19 31 13 65 -1 71 -28z m-209 -55 c2 -2 -3 -3 -11
-3 -9 0 -19 7 -22 16 -6 15 -4 15 11 3 10 -7 20 -15 22 -16z m-99 -9 c0 -10
-6 -14 -14 -11 -8 3 -16 1 -19 -6 -2 -8 -5 -8 -11 1 -6 10 13 24 42 31 1 1 2
-6 2 -15z m-2874 -181 c15 -43 32 -85 39 -93 7 -10 9 -41 6 -90 -4 -50 -2 -86
7 -108 16 -42 12 -60 -10 -39 -12 12 -18 13 -27 4 -7 -7 -11 -7 -10 -2 5 16
-11 55 -22 55 -6 0 -7 -5 -3 -12 4 -7 3 -8 -4 -4 -7 4 -12 1 -12 -8 0 -8 8
-20 18 -25 14 -9 13 -10 -8 -7 -14 3 -31 5 -37 5 -14 1 -18 31 -5 31 5 0 20 9
33 21 19 17 21 22 9 29 -8 6 -19 10 -23 10 -5 0 -6 4 -2 9 3 5 1 12 -5 16 -5
3 -8 20 -6 38 3 18 7 66 11 107 6 78 15 140 20 140 2 0 15 -35 31 -77z m163
-520 c16 -43 30 -113 22 -117 -4 -3 -23 -1 -42 3 -18 4 -40 6 -46 4 -16 -6
-17 -33 -2 -33 7 0 10 -12 7 -30 -4 -24 -2 -27 9 -19 9 8 13 8 13 1 0 -6 -5
-14 -10 -17 -6 -4 -8 -10 -5 -15 3 -5 2 -11 -3 -14 -4 -2 -6 -20 -4 -40 3 -27
10 -36 29 -41 18 -4 24 -11 20 -24 -4 -16 1 -18 37 -16 30 2 47 -3 63 -18 18
-16 25 -18 37 -7 13 10 17 8 27 -14 14 -30 7 -41 -32 -51 -22 -5 -27 -2 -32
16 -4 13 -9 20 -13 16 -4 -3 -16 -2 -27 4 -13 7 -17 7 -13 1 10 -17 -13 -25
-30 -11 -14 11 -14 13 0 21 25 14 19 24 -13 23 -31 0 -35 -10 -13 -33 6 -7 12
-18 12 -23 0 -6 -11 2 -25 17 -14 15 -29 24 -33 20 -4 -4 1 -14 12 -21 18 -13
17 -14 -8 -21 -16 -4 -26 -13 -26 -24 0 -11 -4 -22 -10 -25 -5 -3 -10 -2 -10
4 0 5 -9 9 -20 8 -11 -1 -20 -5 -20 -9 0 -4 -7 -8 -15 -8 -9 0 -12 -6 -9 -15
4 -9 -1 -18 -11 -21 -9 -4 -14 -13 -11 -21 3 -8 1 -11 -4 -8 -6 3 -10 1 -10
-4 0 -6 4 -11 9 -11 5 0 7 -21 6 -47 -1 -36 4 -57 21 -83 20 -29 22 -36 9 -43
-8 -4 -15 -15 -15 -24 0 -10 -6 -14 -20 -10 -11 3 -20 1 -20 -5 0 -5 -5 -6
-10 -3 -6 4 -18 1 -26 -6 -10 -8 -18 -9 -25 -2 -22 22 -32 722 -11 781 5 14
62 13 62 -1 0 -5 7 -4 15 3 12 10 20 9 41 -4 26 -18 84 -14 84 5 0 6 4 8 8 5
5 -3 16 4 25 15 23 27 43 24 56 -8z m3041 -277 c0 -3 -4 -8 -10 -11 -5 -3 -10
-1 -10 4 0 6 5 11 10 11 6 0 10 -2 10 -4z m-2950 -65 c0 -5 -9 -7 -20 -4 -11
3 -20 7 -20 9 0 2 9 4 20 4 11 0 20 -4 20 -9z m2964 -13 c-5 -7 -2 -9 9 -5 11
4 14 2 10 -9 -3 -7 -9 -14 -15 -14 -5 0 -6 -4 -3 -10 3 -5 2 -10 -3 -10 -6 0
-12 7 -16 15 -3 8 -1 15 4 15 6 0 9 3 9 8 -2 12 1 22 7 22 3 0 2 -5 -2 -12z
m-669 -108 c3 -6 -1 -7 -9 -4 -18 7 -21 14 -7 14 6 0 13 -4 16 -10z m625 0 c0
-5 -5 -10 -11 -10 -5 0 -7 5 -4 10 3 6 8 10 11 10 2 0 4 -4 4 -10z m30 -35 c0
-2 -9 -3 -19 -2 -11 0 -18 5 -15 9 4 6 34 0 34 -7z m-3290 -375 c-18 -11 -22
-7 -14 14 5 13 10 14 18 6 8 -8 7 -13 -4 -20z m-11 -44 c10 -12 8 -13 -8 -9
-12 3 -18 9 -15 14 7 12 10 11 23 -5z m46 4 c3 -5 1 -10 -4 -10 -6 0 -11 5
-11 10 0 6 2 10 4 10 3 0 8 -4 11 -10z m-5 -85 c-6 -7 -6 -16 -2 -20 4 -5 1
-5 -5 -1 -8 4 -13 1 -13 -8 0 -8 -4 -18 -10 -21 -6 -3 -7 1 -4 10 9 23 -4 67
-18 59 -7 -4 -8 -3 -4 5 4 6 12 9 17 6 5 -4 9 -1 9 4 0 6 9 3 20 -6 13 -11 16
-21 10 -28z m13 -171 c9 -4 17 -11 17 -16 0 -5 4 -7 9 -3 5 3 12 1 16 -5 3 -5
1 -10 -4 -10 -6 0 -11 -7 -11 -15 0 -8 -4 -15 -10 -15 -5 0 -10 5 -10 10 0 6
-6 5 -14 -2 -11 -11 -11 -15 3 -26 14 -11 14 -12 -3 -10 -10 2 -21 -3 -24 -11
-3 -10 0 -12 12 -8 13 5 17 2 14 -9 -2 -9 -13 -20 -25 -25 -20 -7 -21 -5 -19
37 2 24 0 47 -5 50 -24 14 1 81 26 69 5 -3 18 -8 28 -11z"/>
<path d="M12035 5710 c-3 -5 -1 -10 4 -10 6 0 11 5 11 10 0 6 -2 10 -4 10 -3
0 -8 -4 -11 -10z"/>
<path d="M15048 3523 c7 -3 16 -2 19 1 4 3 -2 6 -13 5 -11 0 -14 -3 -6 -6z"/>
<path d="M15936 3361 c-9 -14 43 -23 62 -11 15 9 14 10 -5 5 -12 -3 -24 -1
-28 5 -8 12 -22 13 -29 1z"/>
<path d="M19810 3379 c0 -5 12 -9 27 -9 30 0 27 9 -6 15 -11 2 -21 0 -21 -6z"/>
<path d="M17266 1821 c-4 -7 -5 -15 -2 -18 9 -9 19 4 14 18 -4 11 -6 11 -12 0z"/>
<path d="M17275 1780 c-3 -5 1 -10 10 -10 9 0 13 5 10 10 -3 6 -8 10 -10 10
-2 0 -7 -4 -10 -10z"/>
<path d="M17414 1564 c-18 -14 -18 -15 4 -4 12 6 22 13 22 15 0 8 -5 6 -26
-11z"/>
<path d="M17454 1544 c3 -9 6 -18 6 -20 0 -2 9 -4 20 -4 28 0 25 13 -6 27 -22
10 -25 10 -20 -3z"/>
<path d="M9275 15960 c-3 -5 -3 -10 2 -11 4 0 16 -2 26 -4 15 -3 16 -1 6 11
-14 16 -25 18 -34 4z"/>
<path d="M9382 15063 c-43 -13 -55 -14 -61 -4 -10 15 -14 15 -49 -3 -15 -8
-56 -14 -91 -15 -57 0 -142 -22 -165 -42 -5 -5 13 -7 40 -4 27 3 76 7 109 10
33 3 69 7 80 8 11 2 36 -2 55 -9 28 -9 44 -8 80 3 43 14 98 17 130 8 15 -5 45
43 35 53 -12 13 -115 9 -163 -5z"/>
<path d="M9992 15034 c32 -31 73 -41 82 -18 11 28 -13 45 -61 42 l-44 -2 23
-22z"/>
<path d="M10130 14968 c0 -6 14 -24 31 -39 25 -22 36 -26 50 -18 29 15 23 33
-16 52 -42 20 -65 22 -65 5z"/>
<path d="M8910 14440 c0 -5 5 -10 10 -10 6 0 10 5 10 10 0 6 -4 10 -10 10 -5
0 -10 -4 -10 -10z"/>
<path d="M9086 13992 c-8 -13 4 -94 16 -109 21 -26 24 -12 12 48 -13 64 -18
76 -28 61z"/>
<path d="M12649 13760 c-1 -3 -3 -15 -4 -26 -1 -12 -5 -33 -9 -48 -6 -24 -4
-27 16 -24 29 4 35 37 14 75 -8 15 -16 26 -17 23z"/>
<path d="M9194 13595 c1 -85 4 -98 22 -113 21 -17 61 -108 55 -127 -1 -5 6 -1
17 9 17 15 19 22 10 47 -5 16 -14 29 -19 29 -5 0 -9 12 -9 26 0 14 -9 46 -19
72 -10 26 -23 69 -27 96 -16 87 -31 66 -30 -39z"/>
<path d="M9404 13173 c9 -30 26 -107 29 -133 5 -33 39 -90 54 -90 13 0 35 -34
31 -47 -1 -4 4 -18 11 -31 7 -13 10 -30 7 -37 -3 -8 13 -27 40 -47 24 -18 60
-59 79 -90 28 -48 33 -64 29 -99 -5 -44 12 -101 45 -148 10 -14 21 -44 25 -66
4 -22 14 -47 21 -55 8 -8 14 -19 15 -25 5 -27 18 -37 36 -28 24 12 31 11 74
-9 37 -17 70 -20 70 -6 0 4 7 8 15 8 23 0 18 12 -20 49 -19 19 -35 40 -35 48
0 8 -4 11 -10 8 -5 -3 -10 0 -10 8 0 7 -15 31 -32 53 -35 42 -73 104 -63 104
13 0 -27 59 -60 89 -20 17 -33 31 -29 31 3 0 1 6 -5 13 -6 8 -8 17 -5 20 8 8
-26 117 -37 117 -11 0 -59 49 -59 60 0 11 -118 130 -128 130 -4 0 -13 9 -20
20 -7 12 -8 20 -2 20 13 0 4 39 -24 102 -20 45 -54 69 -42 31z"/>
<path d="M10007 12803 c-10 -10 -8 -25 2 -19 5 4 4 -5 -2 -18 -7 -13 -16 -22
-22 -18 -5 3 -3 -3 5 -13 14 -17 13 -18 -12 -11 -16 3 -28 2 -28 -3 0 -5 -12
-12 -27 -16 -16 -3 -36 -14 -45 -22 -20 -18 -25 -48 -6 -37 8 5 9 2 4 -12 -4
-10 -4 -15 0 -11 4 4 18 0 31 -8 21 -14 24 -14 42 4 11 11 23 16 27 13 5 -4 3
1 -4 10 -11 13 -11 16 0 14 7 -1 18 -4 23 -8 13 -8 50 29 59 59 5 14 1 31 -10
48 -11 17 -13 25 -4 25 10 0 10 3 0 15 -14 16 -23 19 -33 8z"/>
<path d="M9447 12793 c-4 -3 -7 -11 -7 -17 0 -6 5 -5 12 2 6 6 9 14 7 17 -3 3
-9 2 -12 -2z"/>
<path d="M9318 12656 c-10 -7 -18 -21 -18 -30 0 -9 -7 -19 -15 -23 -11 -4 -14
-14 -11 -33 4 -28 -34 -87 -48 -73 -5 6 -10 -12 -7 -29 0 -5 -2 -7 -6 -7 -20
3 -31 -2 -37 -17 -3 -8 -2 -12 4 -9 6 3 7 -1 4 -9 -7 -18 -13 -19 -34 -6 -8 5
-17 5 -20 1 -3 -5 -28 -20 -57 -35 -59 -29 -124 -34 -143 -11 -7 8 -19 15 -27
15 -8 0 -12 4 -9 9 7 11 -14 20 -31 14 -20 -7 -15 -27 11 -56 13 -14 21 -29
18 -32 -4 -3 1 -3 11 1 12 4 26 -2 44 -20 25 -25 35 -30 60 -27 7 1 22 -3 34
-9 16 -9 24 -8 38 4 17 15 74 22 116 13 11 -3 26 0 34 6 10 9 18 5 34 -13 17
-21 19 -22 14 -5 -7 20 -7 20 8 1 8 -11 15 -23 15 -28 0 -4 5 -8 11 -8 8 0 8
5 -1 15 -7 8 -9 15 -4 15 5 1 -1 9 -13 19 -12 10 -19 21 -16 25 3 3 0 12 -7
21 -9 11 -9 15 -1 15 8 0 9 6 2 18 -11 21 5 56 21 46 6 -4 8 -3 5 4 -4 5 7 22
24 37 23 18 29 29 21 37 -11 11 -10 14 25 83 19 39 19 40 1 58 -10 10 -16 22
-13 27 9 14 -17 12 -37 -4z m-92 -313 c-10 -10 -46 -11 -40 -1 3 4 15 8 26 8
12 0 18 -3 14 -7z m12 -30 c-10 -2 -18 -9 -18 -15 0 -6 -3 -9 -6 -5 -10 10 6
27 24 26 15 -1 15 -2 0 -6z"/>
<path d="M10174 12480 c-5 -5 -19 -11 -32 -13 -40 -6 -82 -45 -82 -76 0 -17 6
-31 15 -35 24 -9 75 5 75 21 0 8 4 12 9 9 5 -4 7 3 4 14 -4 15 0 20 16 20 17
0 21 6 21 29 0 32 -11 46 -26 31z"/>
<path d="M9548 12440 c2 -8 5 -21 5 -27 0 -15 27 -18 27 -3 0 6 -4 10 -10 10
-5 0 -6 7 -3 17 4 10 2 14 -4 10 -6 -4 -13 -4 -16 0 -2 5 -2 1 1 -7z"/>
<path d="M9590 12415 c-5 -14 -16 -25 -24 -25 -10 0 -13 -6 -10 -15 4 -8 1
-15 -6 -15 -9 0 -10 -3 -1 -14 6 -7 10 -20 8 -27 -2 -8 -2 -11 0 -6 3 4 11 7
18 7 15 0 26 35 14 47 -5 5 0 9 13 10 31 3 42 17 29 42 -15 28 -29 27 -41 -4z"/>
<path d="M13750 12316 c0 -9 7 -12 21 -9 16 4 17 8 7 14 -19 13 -28 11 -28 -5z"/>
<path d="M9390 12300 c-6 -11 -16 -18 -22 -14 -5 4 -14 0 -19 -7 -6 -10 -9
-11 -9 -1 0 6 -4 12 -10 12 -5 0 -10 -5 -10 -10 0 -15 54 -34 58 -21 2 5 9 8
16 5 7 -3 22 4 34 14 16 14 18 22 10 30 -18 18 -36 14 -48 -8z"/>
<path d="M9355 12201 c-3 -5 0 -13 6 -17 7 -4 9 -3 5 4 -3 5 0 13 6 15 9 4 10
6 1 6 -6 1 -14 -3 -18 -8z"/>
<path d="M11180 12195 c0 -9 6 -12 15 -9 8 4 15 10 15 15 0 5 -7 9 -15 9 -8 0
-15 -7 -15 -15z"/>
<path d="M10045 12150 c-4 -12 -1 -27 5 -35 7 -8 10 -15 6 -15 -8 0 22 -60 39
-77 7 -6 15 -9 19 -6 3 4 6 2 6 -3 0 -5 15 -9 33 -9 40 1 38 13 -8 61 -33 34
-40 47 -35 69 2 11 -29 35 -46 35 -7 0 -16 -9 -19 -20z"/>
<path d="M10531 12058 c-17 -15 -39 -28 -49 -28 -12 0 -13 -3 -5 -8 10 -6 10
-12 -1 -28 -13 -16 -27 -19 -109 -19 -53 0 -99 -3 -103 -8 -11 -11 15 -53 40
-64 43 -20 91 -35 108 -35 10 1 20 -4 23 -9 4 -5 12 -6 18 -3 7 4 9 4 5 0 -9
-11 22 -97 44 -120 10 -11 23 -35 30 -53 7 -18 15 -33 19 -33 4 0 9 -9 12 -20
6 -23 49 -45 71 -37 26 10 19 55 -13 85 -51 48 -68 85 -62 139 5 37 11 50 29
58 19 8 21 15 16 40 -4 16 -7 37 -8 45 -1 8 -5 18 -11 22 -6 5 -6 8 2 8 11 0
11 9 4 86 -2 19 -27 11 -60 -18z"/>
<path d="M9990 11722 c0 -7 -6 -12 -14 -12 -9 0 -12 -7 -9 -20 4 -16 9 -18 24
-9 14 7 19 7 17 -2 -2 -6 3 -14 10 -16 20 -7 14 32 -8 52 -11 10 -20 13 -20 7z"/>
<path d="M9673 11685 c-6 -17 25 -58 37 -50 5 3 10 0 12 -7 2 -6 10 -8 17 -4
7 5 10 14 7 22 -3 7 -1 16 5 19 13 9 1 25 -18 25 -9 0 -13 -6 -9 -15 3 -8 1
-15 -5 -15 -6 0 -13 9 -16 20 -6 24 -21 26 -30 5z"/>
<path d="M9982 11615 c4 -4 2 -17 -4 -28 -8 -16 -7 -23 8 -34 13 -10 14 -13 3
-13 -30 -1 49 -39 98 -48 49 -9 52 -8 62 16 7 13 10 27 7 29 -3 3 1 12 9 20
16 15 20 44 8 42 -5 -1 -12 0 -18 1 -5 1 -28 3 -50 4 -22 1 -60 6 -85 10 -25
5 -42 5 -38 1z"/>
<path d="M10985 11595 c-35 -29 -10 -90 32 -79 13 4 20 10 17 15 -3 5 0 9 5 9
6 0 10 3 10 8 -1 4 0 9 1 12 1 3 3 14 4 25 2 16 -4 20 -27 20 -17 0 -35 -4
-42 -10z"/>
<path d="M9803 11580 c4 -24 27 -51 38 -44 5 3 9 0 9 -5 0 -6 5 -11 10 -11 18
0 11 36 -10 55 -28 26 -50 28 -47 5z"/>
<path d="M10667 11540 c9 -33 30 -44 49 -26 20 21 3 46 -31 46 -18 0 -22 -4
-18 -20z"/>
<path d="M11060 11510 c0 -5 5 -10 11 -10 5 0 7 5 4 10 -3 6 -8 10 -11 10 -2
0 -4 -4 -4 -10z"/>
<path d="M9849 11486 c9 -11 8 -18 -4 -30 -9 -9 -15 -28 -13 -43 3 -24 8 -27
43 -29 22 -1 43 0 46 2 10 6 -8 78 -21 82 -6 2 -17 10 -24 18 -20 19 -43 19
-27 0z"/>
<path d="M9555 11440 c3 -5 8 -10 11 -10 2 0 4 5 4 10 0 6 -5 10 -11 10 -5 0
-7 -4 -4 -10z"/>
<path d="M10750 11350 c0 -5 10 -15 23 -21 12 -6 35 -23 51 -38 16 -14 26 -20
22 -13 -4 7 -3 19 3 26 18 21 -10 46 -57 51 -23 2 -42 0 -42 -5z"/>
<path d="M10128 11271 c-18 -18 -25 -51 -10 -51 4 0 16 7 26 15 10 8 22 12 27
10 17 -11 21 19 4 32 -23 16 -26 16 -47 -6z"/>
<path d="M10830 11249 c0 -5 5 -7 10 -4 6 3 10 8 10 11 0 2 -4 4 -10 4 -5 0
-10 -5 -10 -11z"/>
<path d="M10843 11215 c-7 -20 8 -87 20 -86 4 1 17 -9 29 -21 14 -14 23 -18
26 -10 2 7 8 9 14 6 6 -4 6 2 -1 14 -6 12 -17 25 -24 29 -7 4 -19 23 -26 41
-17 40 -29 49 -38 27z"/>
<path d="M10001 11143 c12 -21 31 -48 41 -59 19 -22 26 -41 27 -78 1 -20 1
-20 15 0 9 12 11 23 5 29 -12 12 -11 25 2 25 5 0 7 -4 4 -10 -3 -5 -1 -10 4
-10 13 0 14 17 2 24 -5 3 -8 20 -7 36 1 17 -4 36 -11 42 -7 6 -13 17 -13 24 0
10 -14 14 -46 14 l-46 0 23 -37z"/>
<path d="M10959 11099 c-2 -26 2 -84 7 -102 5 -15 2 -16 -22 -7 -24 9 -31 8
-50 -12 -43 -45 -34 -136 10 -111 10 5 17 14 16 19 -2 5 9 15 24 22 21 11 30
11 42 2 7 -7 14 -8 14 -3 0 5 11 15 25 21 14 6 25 8 25 3 0 -5 -6 -12 -12 -14
-10 -4 -10 -6 0 -6 7 -1 15 6 18 14 4 8 10 15 16 15 5 0 6 -4 3 -10 -8 -13 1
-13 28 1 12 7 19 8 14 4 -10 -11 22 -45 42 -44 11 0 12 2 3 6 -9 4 -10 9 -2
18 8 9 6 14 -5 19 -8 3 -15 10 -15 15 0 31 -108 151 -135 151 -8 0 -20 3 -29
6 -10 4 -16 1 -17 -7z"/>
<path d="M10660 11005 c0 -8 2 -15 4 -15 2 0 6 7 10 15 3 8 1 15 -4 15 -6 0
-10 -7 -10 -15z"/>
<path d="M10727 10861 c-10 -4 -18 -10 -18 -14 0 -4 -1 -12 -3 -19 -12 -40
-12 -58 0 -68 7 -7 19 -8 26 -4 19 12 51 13 66 1 7 -5 15 -7 19 -3 3 3 0 6 -7
6 -9 0 -6 7 8 20 22 21 37 27 27 10 -3 -6 1 -7 9 -4 9 3 17 9 17 13 8 44 6 60
-9 66 -9 3 -18 1 -20 -4 -5 -14 -59 -14 -67 -1 -7 11 -22 12 -48 1z"/>
<path d="M10643 10726 c-26 -12 -31 -46 -8 -46 8 0 18 -1 22 -2 4 -2 8 12 9
30 1 17 1 31 0 31 -1 -1 -11 -6 -23 -13z"/>
<path d="M11760 10675 c0 -10 -10 -15 -27 -15 -26 0 -26 0 -7 -21 10 -11 20
-16 22 -10 2 6 7 9 12 6 12 -8 33 23 26 40 -7 19 -26 20 -26 0z"/>
<path d="M11226 10651 c-3 -5 1 -11 9 -14 9 -4 12 -1 8 9 -6 16 -10 17 -17 5z"/>
<path d="M11610 10610 c0 -5 5 -10 11 -10 5 0 7 5 4 10 -3 6 -8 10 -11 10 -2
0 -4 -4 -4 -10z"/>
<path d="M11031 10581 c-14 -26 -21 -91 -9 -91 4 0 8 -6 8 -14 0 -9 17 -16 46
-21 52 -7 67 4 57 42 -3 15 -1 23 8 23 8 0 5 6 -6 14 -11 8 -24 12 -29 9 -5
-4 -7 3 -4 15 6 23 -20 41 -33 21 -4 -8 -10 -6 -17 6 -9 17 -10 17 -21 -4z"/>
<path d="M10636 10414 c-10 -26 -7 -33 14 -31 11 1 20 5 20 9 0 4 7 5 15 2 26
-11 16 5 -14 20 -26 14 -30 14 -35 0z"/>
<path d="M10572 10409 c-12 -5 -22 -11 -22 -14 0 -4 5 -3 10 0 6 3 10 0 10 -7
0 -9 3 -9 10 2 9 13 11 13 19 0 6 -8 13 -11 17 -8 13 14 -21 35 -44 27z"/>
<path d="M10340 10359 c0 -11 4 -18 10 -14 5 3 7 12 3 20 -7 21 -13 19 -13 -6z"/>
<path d="M10607 10354 c6 -16 19 -18 27 -5 3 5 -3 11 -13 14 -14 3 -18 1 -14
-9z"/>
<path d="M11239 10313 c-13 -14 -18 -23 -11 -19 8 5 12 0 12 -13 0 -11 8 -37
17 -56 15 -31 22 -36 45 -33 34 5 36 1 6 -12 -19 -8 -17 -9 10 -4 26 5 38 1
58 -19 13 -14 39 -30 57 -37 17 -6 40 -16 50 -21 11 -6 17 -6 17 1 0 5 7 7 15
4 9 -4 15 0 15 7 0 11 3 11 10 -1 5 -8 10 -10 10 -4 0 6 -7 17 -15 24 -8 7
-15 18 -15 24 0 6 -12 17 -27 24 -16 6 -38 26 -50 44 -20 29 -27 32 -64 29
-42 -3 -79 21 -79 52 0 13 -19 37 -30 37 -4 0 -17 -12 -31 -27z"/>
<path d="M12161 10290 c-8 -4 -10 -13 -7 -19 4 -6 2 -11 -4 -11 -7 0 -6 -5 2
-14 8 -9 15 -10 19 -4 4 6 9 5 12 -3 3 -8 6 -4 6 9 1 12 -5 22 -11 22 -10 0
-9 3 1 9 7 5 9 11 4 14 -5 3 -15 2 -22 -3z"/>
<path d="M11824 10192 c-30 -20 -43 -79 -23 -99 9 -9 17 -5 33 15 12 15 20 31
18 36 -2 5 2 13 9 17 7 4 9 14 6 23 -7 17 -25 20 -43 8z"/>
<path d="M10857 10064 c-9 -9 12 -46 22 -39 5 2 14 -2 20 -9 8 -9 8 -17 2 -20
-5 -3 -12 0 -14 6 -11 26 -16 -81 -6 -109 11 -31 59 -83 76 -83 8 0 11 5 7 12
-4 6 -3 8 4 4 6 -3 13 2 15 11 3 10 4 -1 2 -25 -3 -35 -1 -42 11 -38 11 4 12
2 4 -13 -7 -14 -6 -22 5 -31 10 -8 13 -32 10 -96 -3 -81 -2 -84 20 -90 13 -3
26 -12 29 -20 4 -11 10 -12 31 -2 14 6 25 14 26 17 0 3 2 30 4 58 2 29 8 61
13 70 5 10 8 27 5 38 -2 11 -6 46 -10 78 -4 40 -10 57 -20 57 -8 0 -11 5 -7
11 5 9 -1 10 -22 4 -80 -20 -103 -9 -99 48 1 20 -1 37 -5 37 -13 0 -19 40 -7
40 7 0 4 5 -5 11 -11 6 -15 16 -11 26 5 12 2 15 -10 10 -20 -7 -67 14 -67 31
0 13 -13 16 -23 6z"/>
<path d="M11650 10020 c0 -13 5 -18 15 -14 8 4 15 12 15 20 0 8 -7 14 -15 14
-8 0 -15 -9 -15 -20z"/>
<path d="M11183 9943 c-7 -3 -13 -11 -13 -19 0 -8 -5 -14 -11 -14 -6 0 -3 -7
6 -16 11 -12 19 -13 29 -5 7 6 16 8 19 4 4 -3 7 3 7 14 0 24 -19 42 -37 36z"/>
<path d="M11305 9822 c2 -2 -4 -12 -13 -22 -36 -42 -11 -102 33 -80 3 1 8 3
13 4 4 1 12 4 18 8 16 11 68 13 82 4 7 -4 12 -4 12 -1 0 3 -19 15 -42 25 -24
11 -36 20 -28 21 8 0 3 5 -12 11 -16 5 -28 16 -28 23 0 8 -9 13 -20 12 -10 -1
-17 -3 -15 -5z"/>
<path d="M11461 9772 c-5 -10 -8 -27 -7 -38 2 -10 -1 -24 -6 -30 -5 -8 -3 -14
7 -18 9 -3 13 -2 10 4 -3 6 -2 10 4 10 5 0 12 -4 16 -10 9 -15 50 33 46 55 -7
45 -51 62 -70 27z"/>
<path d="M10961 9114 c0 -11 3 -14 6 -6 3 7 2 16 -1 19 -3 4 -6 -2 -5 -13z"/>
<path d="M9035 8260 c3 -5 8 -10 11 -10 2 0 4 5 4 10 0 6 -5 10 -11 10 -5 0
-7 -4 -4 -10z"/>
<path d="M9490 8250 c0 -5 5 -10 11 -10 5 0 7 5 4 10 -3 6 -8 10 -11 10 -2 0
-4 -4 -4 -10z"/>
<path d="M9018 8233 c7 -3 16 -2 19 1 4 3 -2 6 -13 5 -11 0 -14 -3 -6 -6z"/>
<path d="M8994 8189 c0 -10 4 -19 8 -19 4 0 8 6 8 14 0 8 -4 17 -8 20 -4 2 -8
-4 -8 -15z"/>
<path d="M9485 8152 c-18 -12 -35 -96 -22 -104 6 -4 15 -2 19 5 5 9 10 9 18
-1 5 -6 7 -10 4 -7 -11 8 -34 -16 -33 -34 0 -12 2 -11 9 4 5 11 9 15 9 9 1 -7
9 -15 18 -18 10 -4 14 -4 11 -1 -4 4 -3 17 2 29 7 21 -9 59 -24 56 -4 -1 -12
1 -19 3 -6 3 -2 6 11 6 12 1 22 6 22 12 0 5 6 7 13 4 6 -4 3 1 -8 10 -11 9
-19 21 -17 26 2 11 0 11 -13 1z"/>
<path d="M9087 8053 c5 -13 2 -15 -11 -10 -10 4 -15 3 -11 -3 3 -6 12 -10 20
-10 18 0 27 27 10 34 -10 3 -12 0 -8 -11z"/>
<path d="M9505 7980 c3 -5 8 -10 11 -10 2 0 4 5 4 10 0 6 -5 10 -11 10 -5 0
-7 -4 -4 -10z"/>
<path d="M10970 7935 c0 -8 4 -15 10 -15 5 0 7 7 4 15 -4 8 -8 15 -10 15 -2 0
-4 -7 -4 -15z"/>
<path d="M10807 7913 c-11 -10 -8 -55 3 -48 5 3 6 13 3 21 -3 9 0 20 8 25 8 5
9 9 3 9 -6 0 -14 -3 -17 -7z"/>
<path d="M9004 7689 c0 -13 3 -15 13 -7 7 6 13 12 13 13 0 2 -6 5 -13 8 -7 3
-13 -3 -13 -14z"/>
<path d="M10796 7644 c-8 -22 -8 -23 12 -20 9 2 16 6 15 9 -2 4 -3 12 -3 17 0
16 -17 12 -24 -6z"/>
<path d="M10793 7603 c-7 -3 -13 -11 -13 -19 0 -8 -5 -14 -11 -14 -6 0 -8 -9
-3 -22 3 -12 7 -99 9 -194 2 -160 3 -173 24 -203 l23 -32 16 22 c16 23 18 65
9 199 -12 165 -18 214 -26 224 -5 6 -10 18 -12 27 -2 9 -10 14 -16 12z"/>
<path d="M9120 7500 c0 -5 5 -10 11 -10 5 0 7 5 4 10 -3 6 -8 10 -11 10 -2 0
-4 -4 -4 -10z"/>
<path d="M12155 7471 c-3 -5 -1 -12 5 -16 5 -3 10 1 10 9 0 18 -6 21 -15 7z"/>
<path d="M12325 7390 c-3 -5 -1 -10 4 -10 6 0 11 5 11 10 0 6 -2 10 -4 10 -3
0 -8 -4 -11 -10z"/>
<path d="M8786 7252 c-2 -4 4 -8 14 -8 10 0 16 4 14 8 -3 4 -9 8 -14 8 -5 0
-11 -4 -14 -8z"/>
<path d="M12470 7216 c0 -2 7 -7 16 -10 8 -3 12 -2 9 4 -6 10 -25 14 -25 6z"/>
<path d="M12670 7121 c0 -5 7 -12 16 -15 14 -5 15 -4 4 9 -14 17 -20 19 -20 6z"/>
<path d="M12950 6511 c0 -6 4 -13 10 -16 6 -3 7 1 4 9 -7 18 -14 21 -14 7z"/>
<path d="M12779 5767 c-22 -30 -3 -52 26 -31 16 12 16 14 3 14 -11 0 -15 6
-11 20 7 26 2 25 -18 -3z"/>
<path d="M21435 5770 c-3 -5 1 -10 9 -10 9 0 16 5 16 10 0 6 -4 10 -9 10 -6 0
-13 -4 -16 -10z"/>
<path d="M21455 5740 c-3 -6 1 -7 9 -4 18 7 21 14 7 14 -6 0 -13 -4 -16 -10z"/>
<path d="M20990 5610 c-9 -6 -10 -10 -3 -10 6 0 15 5 18 10 8 12 4 12 -15 0z"/>
<path d="M21351 5534 c-13 -28 -9 -40 8 -29 6 3 8 11 5 17 -5 7 -2 8 6 3 12
-7 30 10 30 30 0 6 -5 3 -10 -5 -6 -10 -10 -11 -10 -2 0 21 -16 13 -29 -14z"/>
<path d="M21280 5515 c0 -8 2 -15 4 -15 2 0 6 7 10 15 3 8 1 15 -4 15 -6 0
-10 -7 -10 -15z"/>
<path d="M20818 5393 c7 -3 16 -2 19 1 4 3 -2 6 -13 5 -11 0 -14 -3 -6 -6z"/>
<path d="M20815 5340 c-3 -5 -1 -10 4 -10 6 0 11 5 11 10 0 6 -2 10 -4 10 -3
0 -8 -4 -11 -10z"/>
<path d="M21108 4293 c10 -4 10 -8 1 -19 -10 -12 -9 -13 5 -8 10 4 25 -1 38
-12 14 -13 22 -15 25 -7 2 7 12 9 21 6 16 -6 15 -5 -1 14 -9 11 -15 22 -13 24
2 2 -17 5 -42 6 -26 1 -41 -1 -34 -4z"/>
<path d="M21237 4274 c4 -12 3 -15 -5 -10 -7 4 -12 3 -12 -2 0 -10 41 -24 49
-17 2 3 -1 5 -7 5 -7 0 -12 5 -12 11 0 5 5 7 10 4 6 -3 10 -4 10 -1 0 3 -9 10
-20 16 -16 9 -19 8 -13 -6z"/>
<path d="M20160 4140 c1 -17 21 -32 37 -28 22 6 34 -5 53 -49 8 -18 21 -35 28
-38 7 -3 10 0 7 5 -3 6 1 10 9 10 9 0 16 5 16 11 0 5 5 7 10 4 6 -3 10 1 10
10 0 10 -4 13 -12 8 -7 -4 -21 -9 -31 -10 -14 -2 -17 1 -12 17 5 16 3 19 -12
14 -16 -5 -16 -4 -3 8 14 12 14 15 -1 30 -13 12 -19 13 -23 5 -3 -9 -7 -9 -13
1 -9 11 -63 14 -63 2z"/>
<path d="M20890 4101 c0 -6 4 -13 10 -16 6 -3 7 1 4 9 -7 18 -14 21 -14 7z"/>
<path d="M20298 4093 c7 -3 16 -2 19 1 4 3 -2 6 -13 5 -11 0 -14 -3 -6 -6z"/>
<path d="M20453 4084 c-7 -3 -9 -12 -6 -20 3 -7 9 -11 14 -8 5 3 9 0 9 -6 0
-6 5 -8 10 -5 6 3 10 0 10 -7 0 -10 3 -9 10 2 5 8 12 11 16 8 3 -4 12 -2 19 5
22 20 -45 46 -82 31z"/>
<path d="M19445 3949 c-4 -6 -5 -12 -2 -15 2 -3 7 2 10 11 7 17 1 20 -8 4z"/>
<path d="M19366 3917 c3 -12 14 -31 23 -41 13 -16 13 -18 1 -11 -8 4 -6 -1 5
-12 19 -20 21 -20 40 -2 20 18 48 12 51 -11 3 -23 5 -24 14 -10 8 12 10 12 16
-3 3 -9 14 -17 24 -17 10 0 22 -6 28 -13 10 -12 36 -18 89 -21 12 0 21 -5 20
-10 -1 -6 7 -12 17 -14 27 -6 127 19 120 30 -3 4 0 8 5 8 6 0 14 0 19 0 4 0 7
-5 7 -11 0 -6 11 -19 25 -28 22 -15 24 -15 17 1 -4 13 1 22 19 31 24 12 25 15
10 30 -14 13 -14 16 -1 19 10 2 7 7 -10 15 -14 6 -23 8 -20 3 9 -15 -32 -41
-59 -36 -14 2 -28 0 -32 -5 -3 -6 -12 -8 -20 -5 -8 3 -14 1 -14 -4 0 -6 -5
-10 -11 -10 -5 0 -8 4 -5 9 3 4 -6 13 -19 19 -14 7 -25 16 -25 22 0 6 5 8 10
5 18 -11 10 4 -16 30 -14 14 -30 23 -35 19 -5 -3 -16 0 -24 6 -8 7 -33 12 -55
12 -22 -1 -38 3 -35 7 2 5 -6 11 -20 13 -13 3 -22 1 -19 -3 3 -5 -2 -9 -10 -9
-9 0 -16 -4 -16 -9 0 -7 -22 -8 -69 -3 -7 1 -11 8 -8 15 3 8 -4 14 -20 15 -21
2 -23 -1 -17 -21z"/>
<path d="M20280 3909 c-11 -8 -12 -12 -2 -16 6 -2 12 -9 12 -14 0 -6 -9 -5
-21 2 -17 9 -23 8 -30 -2 -13 -21 39 -45 63 -30 11 7 28 9 39 6 26 -9 24 12
-3 26 -13 7 -27 18 -33 25 -7 10 -14 11 -25 3z"/>
<path d="M19325 3839 c-4 -6 -1 -15 6 -20 8 -5 10 -9 5 -9 -5 0 -3 -6 3 -13 6
-8 7 -18 3 -22 -4 -5 -1 -5 6 -1 16 10 15 51 -2 65 -11 9 -16 9 -21 0z"/>
<path d="M19370 3744 c0 -3 6 -12 14 -19 12 -12 15 -12 19 -1 3 8 -1 17 -9 20
-19 7 -24 7 -24 0z"/>
<path d="M18940 2829 c0 -5 5 -7 10 -4 6 3 10 8 10 11 0 2 -4 4 -10 4 -5 0
-10 -5 -10 -11z"/>
<path d="M19190 2489 c-13 -6 -28 -15 -32 -22 -9 -14 -11 -83 -2 -74 4 3 13 0
21 -8 17 -17 58 -11 86 13 22 20 22 64 -1 85 -21 19 -36 20 -72 6z"/>
<path d="M19186 2068 c3 -5 10 -6 15 -3 13 9 11 12 -6 12 -8 0 -12 -4 -9 -9z"/>
<path d="M19465 2050 c3 -24 1 -30 -12 -28 -20 4 -26 -12 -13 -32 7 -11 12
-12 21 -3 14 14 39 6 39 -14 0 -8 -4 -11 -10 -8 -5 3 -10 1 -10 -5 0 -6 -4 -9
-9 -6 -5 3 -12 -1 -15 -10 -5 -14 -9 -14 -23 -3 -10 8 -14 9 -10 2 4 -6 3 -14
-3 -18 -13 -8 -13 -25 1 -25 5 0 8 4 4 9 -3 5 -1 12 5 16 6 3 13 -1 16 -9 8
-21 27 -9 20 13 -4 11 -2 10 10 -4 16 -20 16 -20 9 4 l-7 24 26 -19 c14 -11
28 -27 31 -36 8 -22 25 -24 25 -3 0 18 5 18 31 4 20 -10 20 -11 2 -31 -18 -21
-18 -21 4 -16 17 5 20 2 16 -11 -4 -11 -1 -10 10 4 18 22 22 51 8 59 -5 4 -7
-4 -5 -16 4 -21 4 -21 -4 -3 -12 27 -4 45 16 37 15 -5 15 -4 3 11 -7 9 -20 17
-27 17 -8 0 -14 7 -14 15 0 9 -7 18 -15 21 -8 4 -15 12 -15 19 0 7 -9 15 -19
18 -15 3 -18 1 -14 -11 5 -12 2 -14 -11 -9 -10 4 -22 7 -27 7 -5 0 -9 6 -9 14
0 8 -6 17 -12 20 -10 5 -10 7 0 12 13 6 7 24 -8 24 -5 0 -7 -14 -5 -30z m52
-107 c-3 -10 -5 -4 -5 12 0 17 2 24 5 18 2 -7 2 -21 0 -30z m70 21 c-3 -4 -2
-15 3 -24 8 -15 5 -19 -20 -22 -36 -5 -38 -1 -7 12 22 9 22 9 -3 10 l-25 0 25
14 c29 16 36 19 27 10z"/>
<path d="M19206 2051 c-3 -5 -16 -7 -29 -5 -12 2 -16 2 -9 -2 6 -3 12 -14 12
-23 0 -10 6 -18 14 -18 8 0 12 6 9 12 -2 7 3 15 11 18 9 4 16 11 16 17 0 12
-17 13 -24 1z"/>
<path d="M19505 2030 c-3 -5 -1 -10 4 -10 6 0 11 5 11 10 0 6 -2 10 -4 10 -3
0 -8 -4 -11 -10z"/>
<path d="M19463 1894 c-3 -8 -11 -13 -17 -11 -6 3 -16 -1 -22 -8 -9 -9 -4 -12
22 -13 19 -1 34 4 34 10 0 7 4 7 14 -1 11 -9 15 -8 20 5 9 23 7 31 -4 14 -5
-8 -10 -10 -10 -4 0 19 -30 25 -37 8z"/>
<path d="M19655 1900 c-3 -5 -1 -10 4 -10 6 0 11 5 11 10 0 6 -2 10 -4 10 -3
0 -8 -4 -11 -10z"/>
<path d="M19320 1881 c0 -6 4 -13 10 -16 6 -3 7 1 4 9 -7 18 -14 21 -14 7z"/>
<path d="M19505 1840 c-3 -5 -1 -10 4 -10 6 0 11 5 11 10 0 6 -2 10 -4 10 -3
0 -8 -4 -11 -10z"/>
<path d="M19343 1818 c1 -7 13 -18 27 -25 22 -11 22 -12 5 -13 -11 0 -27 -5
-35 -11 -13 -8 -13 -9 2 -7 9 2 23 -5 30 -15 13 -17 14 -17 15 5 1 12 8 27 16
33 8 5 12 16 9 24 -3 10 0 12 12 8 9 -4 16 -2 16 3 0 13 -23 13 -37 -1 -8 -8
-13 -8 -17 0 -10 15 -47 14 -43 -1z m46 -12 c10 -12 8 -13 -8 -9 -12 3 -18 9
-15 14 7 12 10 11 23 -5z"/>
<path d="M19460 1812 c0 -6 -8 -13 -17 -15 -16 -4 -16 -5 -1 -6 18 -1 34 16
24 26 -3 4 -6 1 -6 -5z"/>
<path d="M19427 1774 c-3 -3 -3 -13 0 -22 4 -10 2 -13 -5 -8 -17 10 -24 -10
-7 -24 19 -16 33 -6 33 25 0 26 -10 39 -21 29z"/>
<path d="M19165 1750 c-3 -5 -1 -10 4 -10 6 0 11 5 11 10 0 6 -2 10 -4 10 -3
0 -8 -4 -11 -10z"/>
<path d="M19217 1740 c23 -18 63 -29 69 -18 4 6 3 8 -4 4 -6 -3 -14 -1 -19 6
-4 7 -18 13 -31 14 -12 0 -19 -2 -15 -6z"/>
<path d="M19470 1740 c-8 -5 -10 -10 -5 -10 6 0 17 5 25 10 8 5 11 10 5 10 -5
0 -17 -5 -25 -10z"/>
<path d="M19345 1730 c6 -9 2 -10 -15 -5 -15 5 -20 4 -16 -4 9 -13 33 -14 41
-2 3 5 0 13 -6 17 -8 5 -9 3 -4 -6z"/>
<path d="M19216 1712 c-3 -4 4 -9 15 -9 23 -2 25 3 4 10 -8 4 -16 3 -19 -1z"/>
<path d="M19366 1712 c-2 -4 4 -9 15 -9 11 -1 17 2 14 8 -7 11 -22 12 -29 1z"/>
<path d="M20291 1544 c0 -11 3 -14 6 -6 3 7 2 16 -1 19 -3 4 -6 -2 -5 -13z"/>
<path d="M20165 1530 c-3 -5 1 -10 10 -10 9 0 13 5 10 10 -3 6 -8 10 -10 10
-2 0 -7 -4 -10 -10z"/>
<path d="M19815 1520 c-3 -5 -1 -10 4 -10 6 0 11 5 11 10 0 6 -2 10 -4 10 -3
0 -8 -4 -11 -10z"/>
<path d="M19955 1510 c3 -5 8 -10 11 -10 2 0 4 5 4 10 0 6 -5 10 -11 10 -5 0
-7 -4 -4 -10z"/>
</g>
</svg>
