<?xml version="1.0" standalone="no"?>
<!DOCTYPE svg PUBLIC "-//W3C//DTD SVG 20010904//EN"
 "http://www.w3.org/TR/2001/REC-SVG-20010904/DTD/svg10.dtd">
<svg version="1.0" xmlns="http://www.w3.org/2000/svg"
 width="3045.000000pt" height="1712.000000pt" viewBox="0 0 3045.000000 1712.000000"
 preserveAspectRatio="xMidYMid meet">

<g transform="translate(0.000000,1712.000000) scale(0.100000,-0.100000)"
fill="#000000" stroke="none">
<path d="M10 8565 l0 -8555 15215 0 15215 0 0 8555 0 8555 -15215 0 -15215 0
0 -8555z m14380 -4120 l0 -115 -205 0 -205 0 0 -545 0 -545 -130 0 -130 0 0
545 0 545 -205 0 -205 0 0 115 0 115 540 0 540 0 0 -115z m1360 -272 c202 -55
309 -218 310 -470 l0 -83 -364 0 -364 0 10 -35 c35 -113 180 -182 331 -155 66
12 141 41 167 65 14 13 24 6 89 -59 l72 -73 -32 -27 c-88 -74 -220 -116 -369
-116 -245 0 -417 114 -481 320 -29 91 -28 240 0 332 79 251 348 379 631 301z
m1090 0 c201 -55 309 -218 310 -465 l0 -88 -361 0 -361 0 6 -32 c22 -110 178
-185 329 -158 65 12 141 41 167 65 13 12 24 5 89 -58 l73 -72 -38 -32 c-84
-73 -212 -113 -361 -113 -164 0 -290 47 -377 140 -165 176 -169 504 -9 681
123 136 332 188 533 132z m-1904 1 c26 -9 65 -27 85 -41 l39 -25 -51 -99 c-28
-55 -54 -99 -57 -99 -4 0 -29 11 -56 25 -70 36 -153 35 -227 -2 -45 -23 -59
-37 -81 -82 l-28 -55 0 -278 0 -278 -120 0 -120 0 2 463 3 462 104 3 c115 3
121 0 121 -55 0 -18 3 -33 7 -33 4 0 25 18 48 40 22 21 58 46 80 54 55 20 192
20 251 0z m-2459 -1350 l22 -6 -29 -57 c-84 -168 -86 -364 -5 -526 34 -66 32
-75 -14 -75 -25 0 -67 82 -91 176 -37 145 -18 326 46 445 28 50 33 53 71 43z
m5612 -61 c80 -163 80 -371 1 -538 -31 -64 -47 -76 -78 -56 -11 6 -7 21 18 71
78 155 78 357 0 512 -16 34 -30 62 -30 64 0 1 10 5 23 7 12 2 25 5 28 6 3 0
20 -29 38 -66z m-4289 -228 l0 -275 -35 0 c-24 0 -35 5 -35 15 0 19 -3 19 -42
-5 -109 -67 -249 30 -248 172 1 134 133 227 243 170 l37 -20 0 109 0 109 40 0
40 0 0 -275z m-895 241 c72 -33 81 -47 52 -81 l-23 -27 -38 26 c-45 30 -119
35 -164 12 -160 -83 -122 -354 52 -373 60 -7 89 1 131 39 l36 31 27 -26 26
-26 -25 -27 c-13 -15 -46 -37 -74 -50 -166 -79 -357 56 -357 251 0 195 190
329 357 251z m2375 9 c64 -33 94 -108 66 -163 -9 -17 -32 -43 -51 -58 l-35
-26 57 -65 57 -65 40 42 c41 44 56 46 80 7 9 -13 2 -25 -32 -60 l-42 -43 40
-39 c22 -21 40 -43 40 -47 0 -4 -19 -8 -42 -8 -31 0 -49 6 -68 25 l-26 25 -36
-25 c-82 -56 -178 -54 -237 6 -58 57 -50 138 22 216 l40 43 -47 50 c-39 42
-45 54 -40 77 21 95 132 150 214 108z m-1322 -7 c34 -34 -14 -102 -56 -79 -26
14 -33 45 -15 70 16 23 52 28 71 9z m2022 -191 l145 -202 3 203 2 202 35 0 35
0 0 -265 0 -265 -37 0 c-38 0 -39 2 -183 202 l-145 202 -3 -202 -2 -202 -40 0
-40 0 0 265 0 265 43 0 42 0 145 -203z m820 78 l0 -45 45 0 c45 0 45 0 45 -35
0 -35 0 -35 -45 -35 l-45 0 0 -114 c0 -122 2 -126 55 -126 15 0 25 -7 28 -22
8 -28 -7 -38 -58 -38 -82 0 -105 43 -105 202 0 93 -1 97 -22 100 -34 5 -37 45
-4 58 23 8 26 15 26 55 l0 45 40 0 40 0 0 -45z m-3513 -50 c50 -21 72 -42 94
-90 57 -123 -18 -262 -146 -273 -76 -6 -133 28 -169 100 -30 59 -33 103 -10
156 42 101 138 146 231 107z m1009 -16 c48 -44 54 -69 54 -209 l0 -130 -34 0
-34 0 -4 130 c-4 150 -11 165 -79 165 -33 0 -46 -6 -65 -28 -22 -26 -24 -36
-24 -148 l0 -119 -35 0 -35 0 0 180 0 180 29 0 c16 0 31 -6 35 -15 5 -13 10
-12 38 6 44 27 118 22 154 -12z m377 12 c32 -16 39 -17 44 -5 3 8 18 14 35 14
l29 0 -3 -199 c-3 -218 -5 -226 -72 -275 -36 -28 -156 -35 -209 -12 -34 14
-37 18 -37 55 l0 41 33 -20 c45 -28 135 -27 170 0 24 19 55 86 44 96 -2 2 -17
-2 -33 -11 -45 -23 -125 -19 -165 8 -120 81 -111 250 15 308 53 24 102 24 149
0z m1836 -1 c52 -24 51 -24 51 -5 0 10 10 15 30 15 l30 0 0 -180 0 -180 -30 0
c-20 0 -30 5 -30 15 0 19 2 19 -45 -5 -47 -24 -83 -25 -132 -5 -50 21 -72 42
-94 90 -49 105 4 234 109 265 43 13 64 11 111 -10z m1052 12 c12 -5 14 -14 7
-38 -7 -27 -12 -31 -33 -26 -32 6 -77 -13 -93 -38 -7 -11 -15 -74 -19 -140
l-6 -120 -34 0 -33 0 0 180 0 180 29 0 c21 0 32 -6 36 -21 6 -18 8 -19 24 -5
33 30 87 43 122 28z m289 -14 c52 -27 85 -78 95 -150 l7 -48 -131 0 c-147 0
-158 -7 -100 -61 25 -23 40 -29 78 -29 27 0 56 7 70 16 22 15 24 15 44 -4 26
-27 13 -44 -49 -68 -160 -61 -309 106 -234 262 25 51 48 72 97 90 53 19 72 17
123 -8z m-3890 -168 l0 -180 -35 0 -35 0 0 180 0 180 35 0 35 0 0 -180z m3060
56 c0 -110 2 -126 21 -150 28 -36 89 -37 124 -1 24 23 25 30 25 150 l0 125 35
0 35 0 0 -180 0 -180 -29 0 c-16 0 -31 6 -34 14 -5 12 -12 11 -44 -5 -69 -37
-149 -10 -185 62 -14 27 -18 60 -18 162 l0 127 35 0 35 0 0 -124z"/>
<path d="M15492 3978 c-61 -20 -152 -118 -152 -163 0 -3 112 -5 249 -5 l250 0
-9 30 c-28 99 -94 143 -220 147 -47 1 -100 -3 -118 -9z"/>
<path d="M16570 3970 c-55 -26 -96 -63 -121 -112 -10 -21 -19 -40 -19 -43 0
-3 112 -5 249 -5 l250 0 -9 30 c-28 99 -94 142 -220 147 -70 3 -93 0 -130 -17z"/>
<path d="M13584 2550 c-76 -30 -88 -158 -20 -212 24 -20 77 -23 107 -8 43 24
63 117 37 175 -20 45 -76 65 -124 45z"/>
<path d="M15172 2707 c-28 -30 -28 -35 11 -81 l33 -38 32 27 c39 33 43 76 10
99 -32 22 -61 20 -86 -7z"/>
<path d="M15170 2462 c-37 -38 -48 -78 -29 -111 20 -35 82 -40 139 -11 l41 21
-51 60 c-29 32 -56 62 -61 65 -5 3 -22 -8 -39 -24z"/>
<path d="M13168 2540 c-84 -66 -45 -220 55 -220 60 1 97 49 97 125 0 40 -5 52
-34 81 -40 40 -80 45 -118 14z"/>
<path d="M14570 2553 c-57 -21 -85 -94 -55 -148 42 -79 161 -71 184 12 16 58
-2 111 -44 129 -35 14 -59 16 -85 7z"/>
<path d="M16387 2539 c-37 -29 -54 -88 -38 -138 35 -117 182 -103 198 18 14
105 -85 180 -160 120z"/>
<path d="M17719 2531 c-51 -51 -42 -61 61 -61 75 0 90 3 90 16 0 28 -56 74
-90 74 -22 0 -41 -9 -61 -29z"/>
</g>
</svg>
